<svg width="128" height="127" viewBox="0 0 128 127" fill="none" xmlns="http://www.w3.org/2000/svg">
<rect x="0.5" width="127" height="127" fill="white"/>
<rect x="73.5" y="84" width="31" height="12" fill="#59C3FF"/>
<rect x="14.5" y="48" width="42" height="40" fill="#59C3FF"/>
<path fill-rule="evenodd" clip-rule="evenodd" d="M38.1973 20.2189C36.1407 20.7815 34.73 22.0468 33.9984 23.9851C33.6545 24.8967 33.6279 25.7185 33.6279 35.4925V46.0183L24.1454 46.0743L14.6631 46.1301L14.0816 46.7853L13.5003 47.4406V68.2136C13.5003 90.7818 13.4525 89.8101 14.5908 90.3322C14.972 90.5071 17.6179 90.5719 24.3706 90.5719H33.6279V98.0928V105.614L34.2093 106.269L34.7908 106.924L45.1639 106.98C56.6434 107.041 56.6149 107.044 57.2516 105.804C57.5271 105.267 57.5468 105.022 57.3632 104.406C56.936 102.971 57.2457 103.012 46.8873 103.012H37.6136V96.7918V90.5719H46.9768H56.3399L56.9908 89.9865L57.6416 89.401L57.6943 68.6136C57.7413 49.9924 57.714 47.7623 57.4318 47.2131C56.8339 46.049 56.6598 46.0297 46.6874 46.0297H37.6136V35.7238C37.6136 25.6452 37.6226 25.4063 38.0212 24.8961C38.2456 24.6091 38.7611 24.2815 39.167 24.1679C40.188 23.8824 88.8459 23.8824 89.8668 24.1679C91.2544 24.556 91.4202 25.008 91.4202 28.4004V31.383H77.1561H62.892L62.3095 31.9694L61.727 32.5559V52.1493V71.7426L62.3095 72.3291L62.892 72.9156H77.1561H91.4202V77.2211V81.5265L83.1001 81.5851L74.78 81.6434L73.6995 82.2454C72.5112 82.9073 71.2738 84.327 70.8605 85.503C70.6732 86.0357 70.5951 87.4403 70.5951 90.271C70.5951 93.9281 70.6323 94.3646 71.0148 95.1969C71.6357 96.5484 72.5634 97.5007 73.9275 98.1869L75.1425 98.7982H83.2815H91.4202V100.905V103.012H82.1466C71.7882 103.012 72.0979 102.971 71.6706 104.406C71.4871 105.022 71.5068 105.267 71.7822 105.804C72.4187 107.043 72.3924 107.041 83.849 106.98L94.2014 106.924L94.7539 106.369C95.3057 105.813 95.3065 105.809 95.4059 102.356L95.5055 98.8985L98.993 98.7982C102.442 98.6991 102.493 98.6911 103.577 98.0761C104.862 97.347 106.017 95.926 106.399 94.6046C106.579 93.9818 106.665 92.4756 106.665 89.97C106.665 86.394 106.647 86.2178 106.149 85.1546C105.452 83.6637 104.806 82.9404 103.543 82.2361C102.495 81.6515 102.433 81.6426 98.9392 81.577L95.3981 81.5104L95.4517 77.2633L95.5055 73.0159L105.016 72.9156L114.526 72.8153L114.98 72.3582L115.434 71.9013L115.487 52.4948C115.526 38.1801 115.48 32.9415 115.31 32.5286C114.827 31.3539 115.094 31.383 104.827 31.383H95.4059V28.1749C95.4059 25.513 95.3417 24.7965 95.0287 23.9673C94.4444 22.4191 93.5629 21.4505 92.0609 20.7059L90.7313 20.0468L64.9197 20.0083C44.8853 19.9784 38.9044 20.0255 38.1973 20.2189ZM111.548 52.1493V68.9028L107.114 68.9024L102.68 68.9018L95.6052 62.2459C79.5479 47.1391 80.1974 47.7243 78.6298 46.9491C76.8454 46.0666 75.2324 45.7468 73.3536 45.9029C70.8599 46.1102 68.8952 47.0482 66.8585 49.0034L65.7126 50.1035V42.7497V35.3958H88.6303H111.548V52.1493ZM97.0998 39.6917C92.763 40.7754 89.9688 45.1264 90.8124 49.4826C91.6759 53.941 96.0775 57.0732 100.362 56.2785C102.209 55.9358 103.707 55.1551 104.985 53.8682C108.226 50.6053 108.309 45.4772 105.176 42.1417C103.054 39.8827 100.02 38.9622 97.0998 39.6917ZM101.31 44.1277C104.015 45.7238 104.14 49.8242 101.537 51.5869C99.5153 52.9562 96.6963 52.3595 95.3902 50.2861C92.9176 46.3608 97.3244 41.7764 101.31 44.1277ZM76.7113 50.495C77.532 50.8772 79.8823 52.9777 87.1855 59.8553C92.3644 64.7322 96.6016 68.7631 96.6016 68.8127C96.6016 68.8622 89.6516 68.9028 81.1571 68.9028H65.7126V62.2284V55.5539L68.1539 53.2791C70.5259 51.0686 71.5516 50.3469 72.7872 50.0185C73.7894 49.752 75.5838 49.9699 76.7113 50.495ZM53.656 68.3008V86.4588L35.571 86.51L17.486 86.5613V68.4357C17.486 58.4666 17.5461 50.2494 17.6199 50.1752C17.6936 50.1011 25.8318 50.0634 35.7049 50.0917L53.656 50.1429V68.3008ZM28.3204 55.6147C27.2981 56.4484 27.2301 57.8019 28.1662 58.6881C28.6395 59.1364 28.8573 59.1765 31.1524 59.2383L33.6279 59.3047V69.7186V80.1322L34.2055 80.7829C34.9847 81.6611 36.1505 81.7028 36.9659 80.882L37.514 80.3304L37.569 69.8012L37.624 59.272H39.8207C42.8357 59.272 43.632 58.8176 43.632 57.0977C43.632 56.5435 43.4881 56.247 43.011 55.8178L42.3901 55.2592L35.5678 55.2636C29.4047 55.2676 28.7044 55.3015 28.3204 55.6147ZM101.998 86.1424L102.58 86.7289V90.1707V93.6124L101.998 94.1989L101.415 94.7854H88.6488H75.8825L75.2316 94.1999L74.5808 93.6145V90.1707V86.7269L75.2316 86.1414L75.8825 85.5559H88.6488H101.415L101.998 86.1424ZM63.1066 103.598C62.3129 104.397 62.3111 105.374 63.1016 106.264C63.5795 106.803 63.8234 106.915 64.5169 106.915C65.2104 106.915 65.4544 106.803 65.9322 106.264C66.7228 105.374 66.721 104.397 65.9273 103.598C65.4703 103.138 65.1662 103.012 64.5169 103.012C63.8677 103.012 63.5636 103.138 63.1066 103.598Z" fill="#005BAA"/>
</svg>
