<svg width="128" height="127" viewBox="0 0 128 127" fill="none" xmlns="http://www.w3.org/2000/svg">
<rect x="0.5" width="127" height="127" fill="white"/>
<rect x="22.5" y="43" width="40" height="52" fill="#59C3FF"/>
<rect x="71.5" y="70" width="35" height="25" fill="#59C3FF"/>
<path fill-rule="evenodd" clip-rule="evenodd" d="M11.0179 21.5175L10.5 22.0347V63.8677C10.5 86.8757 10.5591 105.854 10.631 106.042C11.0172 107.047 8.32903 107 64.5 107C120.671 107 117.983 107.047 118.369 106.042C118.441 105.854 118.5 86.8757 118.5 63.8677V22.0347L117.982 21.5175L117.465 21H64.5H11.5355L11.0179 21.5175ZM115.336 27.6397V31.1176H76.6574H37.9788L37.423 31.5546C36.72 32.107 36.6769 33.1013 37.3258 33.7916L37.7846 34.2794H76.5601H115.336V69.0586V103.838H64.5H13.6641V69.0586V34.2794H22.4007C27.2058 34.2794 31.2911 34.2203 31.4788 34.1485C31.6667 34.0764 31.9572 33.753 32.1245 33.4297C32.517 32.6711 32.2074 31.6941 31.4678 31.3575C31.1016 31.1907 28.3099 31.1176 22.3026 31.1176H13.6641V27.6397V24.1618H64.5H115.336V27.6397ZM98.9788 26.5763C98.274 27.2803 98.2901 28.2126 99.0168 28.7836C100.423 29.8892 102.139 28.5058 101.321 26.9258C100.796 25.911 99.7938 25.7616 98.9788 26.5763ZM104.041 26.5763C103.337 27.2803 103.353 28.2126 104.079 28.7836C104.824 29.3694 105.538 29.3342 106.193 28.6797C106.63 28.2434 106.71 28.009 106.605 27.4677C106.343 26.1132 104.979 25.6389 104.041 26.5763ZM109.104 26.5763C108.819 26.8608 108.586 27.3393 108.586 27.6397C108.586 28.3424 109.465 29.2206 110.168 29.2206C110.871 29.2206 111.75 28.3424 111.75 27.6397C111.75 26.9369 110.871 26.0588 110.168 26.0588C109.867 26.0588 109.389 26.2917 109.104 26.5763ZM21.5455 41.4818C21.2977 41.6016 20.9893 41.9316 20.86 42.2151C20.5166 42.9681 20.5271 95.172 20.8707 95.9255C21.0264 96.2672 21.393 96.5444 21.8727 96.6833C22.3792 96.8298 29.3684 96.8814 43.0312 96.8395L63.4337 96.7766L63.914 96.2965L64.3945 95.8163V69.0346V42.2527L63.8026 41.7438L63.2108 41.2352L42.6034 41.2495C28.8705 41.259 21.8457 41.3364 21.5455 41.4818ZM70.8281 41.3847C70.6541 41.4487 70.3455 41.6456 70.1426 41.8222C69.8006 42.1199 69.7734 42.8819 69.7734 52.1232C69.7734 61.8218 69.7853 62.1146 70.1953 62.5243C70.6106 62.9394 70.8984 62.9459 89.0588 62.9459H107.501L107.938 62.3905C108.366 61.8473 108.375 61.6275 108.375 52.2828C108.375 45.731 108.301 42.5693 108.141 42.2168C108.012 41.9344 107.675 41.598 107.393 41.4692C106.859 41.2266 71.4812 41.1448 70.8281 41.3847ZM61.125 69.0586V93.7203H42.457H23.7891V69.0586V44.397H42.457H61.125V69.0586ZM105.211 52.0906V59.7842H89.0742H72.9375V52.0906V44.397H89.0742H105.211V52.0906ZM70.9336 68.3654C70.7016 68.4227 70.3455 68.617 70.1426 68.7968C69.7983 69.1018 69.7734 70.0284 69.7734 82.5488C69.7734 95.9285 69.7749 95.9748 70.2175 96.3751C70.6455 96.7623 71.3019 96.779 88.5163 96.8397C100.431 96.8816 106.623 96.8298 107.127 96.6835C107.607 96.5446 107.974 96.267 108.129 95.9255C108.308 95.5343 108.375 91.8441 108.375 82.4453V69.5038L107.866 68.9123L107.357 68.3209L89.3562 68.291C79.4559 68.2743 71.1656 68.3078 70.9336 68.3654ZM105.16 82.6015L105.215 93.7203H89.0761H72.9375V82.5475V71.3747L89.0215 71.4287L105.105 71.4826L105.16 82.6015Z" fill="#005BAA"/>
</svg>
