<svg width="128" height="127" viewBox="0 0 128 127" fill="none" xmlns="http://www.w3.org/2000/svg">
<rect x="0.5" width="127" height="127" fill="white"/>
<rect x="19.5" y="38" width="18" height="25" rx="3" fill="#59C3FF"/>
<rect x="91.5" y="75" width="25" height="39" rx="4" fill="#59C3FF"/>
<path fill-rule="evenodd" clip-rule="evenodd" d="M12.6414 13.1799C12.2126 13.2947 11.4776 13.7168 11.0081 14.1181C9.35958 15.5268 9.46434 13.4564 9.52992 43.3272C9.58826 69.914 9.58996 70.0073 10.0333 70.8546C10.2779 71.3222 10.8848 71.9918 11.3817 72.3426L12.2852 72.9803L16.6221 73.0455L20.9587 73.1106L21.0226 83.9927C21.0856 94.7465 21.092 94.8851 21.5562 95.7513C22.0534 96.6793 23.0458 97.6248 23.949 98.0308C24.3283 98.2015 28.0153 98.308 36.1111 98.382L47.729 98.4883L46.84 101.464L45.9513 104.44L43.7394 104.566C41.0657 104.719 40.003 105.114 38.8998 106.365C37.8578 107.547 37.588 108.49 37.5891 110.948C37.5899 113.27 37.9681 114.149 39.183 114.656C40.2819 115.115 82.164 115.115 83.2629 114.656C84.4779 114.149 84.856 113.27 84.8569 110.948C84.8579 108.49 84.5882 107.547 83.5461 106.365C82.4427 105.114 81.3804 104.719 78.7044 104.566L76.4902 104.44L76.21 103.484C76.0556 102.958 75.6483 101.595 75.3044 100.455L74.6795 98.382H82.3237H89.9679L89.9726 104.918C89.978 112.295 90.0293 112.58 91.5785 113.855C92.9051 114.947 93.5451 114.998 104.89 114.924L115.234 114.856L116.272 114.215C117.028 113.748 117.472 113.264 117.905 112.437L118.5 111.3L118.499 94.4784C118.498 83.396 118.421 77.3827 118.274 76.8539C117.984 75.8089 116.914 74.6075 115.84 74.1207C115.073 73.7727 114.305 73.7332 108.235 73.7289L101.483 73.7242L101.421 59.4291C101.363 45.9479 101.337 45.0917 100.962 44.39C100.406 43.3497 99.786 42.7146 98.8661 42.2437C98.1298 41.8668 97.5174 41.8392 89.8764 41.8392H81.6766L81.617 29.0153L81.5574 16.1911L80.9099 15.1453C80.4957 14.4761 79.9202 13.9077 79.3129 13.5678L78.3635 13.0364L45.8923 13.0039C25.2174 12.983 13.1379 13.047 12.6414 13.1799ZM78.0286 16.6787C78.4482 17.2112 78.47 17.499 78.47 22.5243V27.8098H63.7881C53.4816 27.8098 48.9516 27.8801 48.5873 28.0457C48.0676 28.2823 47.5957 29.0391 47.5957 29.6364C47.5957 29.8115 47.831 30.1895 48.1185 30.4764L48.641 30.9983H63.5556H78.47V49.9756C78.47 66.8077 78.4325 69.0065 78.1384 69.4255L77.8071 69.898H45.6308C15.9894 69.898 13.4239 69.8704 13.0653 69.5462C12.6936 69.2104 12.6759 68.3282 12.6759 50.0964V30.9983H27.5807C42.2017 30.9983 42.4936 30.9902 42.9114 30.5732C43.6034 29.8823 43.5523 28.9789 42.7821 28.2881L42.2487 27.8098H27.4623H12.6759V22.3893C12.6759 17.2522 12.6983 16.9466 13.1017 16.5437C13.5238 16.1224 13.8114 16.1186 45.5574 16.1186H77.5874L78.0286 16.6787ZM18.5601 20.8106C17.857 21.3626 17.7908 22.5003 18.4249 23.1333C18.8371 23.5448 19.1346 23.5585 27.6872 23.5585C36.2398 23.5585 36.5372 23.5448 36.9494 23.1333C37.5835 22.5003 37.5173 21.3626 36.8142 20.8106C36.2679 20.3814 36.0309 20.3699 27.6872 20.3699C19.3435 20.3699 19.1065 20.3814 18.5601 20.8106ZM55.1152 20.5793C53.5738 21.2147 54.1477 23.5585 55.8449 23.5585C56.6035 23.5585 57.3903 22.7441 57.3903 21.9591C57.3903 20.9305 56.1253 20.1633 55.1152 20.5793ZM62.9935 20.5793C61.4521 21.2147 62.0259 23.5585 63.7231 23.5585C64.4818 23.5585 65.2686 22.7441 65.2686 21.9591C65.2686 20.9305 64.0036 20.1633 62.9935 20.5793ZM70.8717 20.5793C69.3721 21.1975 69.9095 23.5585 71.5499 23.5585C72.3611 23.5585 73.1468 22.7715 73.1468 21.9591C73.1468 20.9305 71.8818 20.1633 70.8717 20.5793ZM19.0366 36.454C17.7427 37.2643 17.7861 36.7735 17.7861 50.6116V63.2511L18.2477 63.8369C19.1491 64.9809 19.396 65.009 28.5389 65.009C37.8601 65.009 38.0733 64.9818 38.8602 63.6932C39.2786 63.0085 39.2901 62.6525 39.2908 50.3918L39.2916 37.7943L38.563 37.0001L37.8341 36.2062L28.7152 36.155C20.5569 36.1093 19.537 36.1407 19.0366 36.454ZM45.9988 36.3001C45.7646 36.3983 45.3334 36.7357 45.0406 37.0499C44.513 37.6159 44.5077 37.6608 44.4431 42.056C44.3705 47.009 44.4676 47.4673 45.7362 48.1595C46.3722 48.5064 47.3741 48.5351 58.8808 48.5351C72.7936 48.5351 72.2938 48.5876 73.0237 47.052C73.3331 46.4009 73.3749 45.6807 73.3186 41.9446L73.2533 37.5951L72.5572 36.9006L71.8612 36.2062L59.1429 36.1639C52.1479 36.1407 46.233 36.2019 45.9988 36.3001ZM36.0977 50.5544V61.8205H28.5389H20.98V50.5544V39.2884H28.5389H36.0977V50.5544ZM70.1659 42.3706V45.4528H58.8808H47.5957V42.3706V39.2884H58.8808H70.1659V42.3706ZM97.9974 45.6654C98.2088 46.0816 98.2565 49.1713 98.2165 59.9074L98.1656 73.618L95.4851 73.7242C92.9606 73.8244 92.7526 73.8662 91.9175 74.4446C90.1496 75.6688 90.0887 75.8992 89.9679 81.8018L89.8615 87.0097H57.0709H24.2804V80.1012V73.1928L51.5553 73.0865C74.9188 72.9956 78.8886 72.936 79.2356 72.6725C79.4586 72.5033 79.9551 72.0754 80.3388 71.7216C81.6436 70.5196 81.6638 70.2947 81.6638 56.9965V45.0226L89.6956 45.0783L97.7272 45.134L97.9974 45.6654ZM44.9246 54.6899C44.2539 55.3593 44.2413 56.2816 44.8945 56.8945L45.3875 57.3566H58.9106H72.4337L72.8968 56.8647C73.5109 56.2119 73.4869 55.3387 72.837 54.6899L72.3145 54.1681H58.8808H45.4471L44.9246 54.6899ZM44.8647 62.3124C44.2935 62.9195 44.2715 63.7381 44.8083 64.4008C45.1875 64.8687 45.3856 64.9074 47.7394 64.9724C50.0591 65.0366 50.3112 65.0052 50.846 64.5851C51.5704 64.0163 51.6458 62.8878 51.0025 62.2456C50.6227 61.8664 50.2929 61.8205 47.9522 61.8205C45.4841 61.8205 45.3002 61.8498 44.8647 62.3124ZM57.4058 62.3806C56.8556 63.0789 56.8442 63.7508 57.3716 64.4008L57.7785 64.9027H65.1621H72.5457L72.9526 64.4008C73.5039 63.7213 73.4685 62.8468 72.867 62.2826C72.3809 61.8269 72.2751 61.8205 65.1106 61.8205H57.847L57.4058 62.3806ZM114.975 77.3853C115.268 77.803 115.306 79.7694 115.306 94.3751V110.893L114.745 111.333C114.195 111.765 113.979 111.774 104.146 111.774C95.4057 111.774 94.0472 111.731 93.6352 111.443L93.1618 111.112V94.401C93.1618 79.1498 93.1927 77.6563 93.5142 77.3015C93.8464 76.9351 94.4613 76.9127 104.255 76.9127H114.643L114.975 77.3853ZM89.9217 92.6958L89.8615 95.0872L76.909 95.1935C64.3983 95.2962 63.9463 95.3138 63.6544 95.7124C63.2326 96.2884 63.2779 97.1802 63.7589 97.7738C64.1528 98.2602 64.277 98.2778 67.7721 98.3425L71.3789 98.4092L72.1848 101.106C72.6279 102.589 73.0369 103.97 73.0936 104.174C73.1907 104.526 72.5236 104.546 61.223 104.546C49.9224 104.546 49.2553 104.526 49.3524 104.174C49.409 103.97 49.818 102.589 50.2611 101.106L51.0671 98.4092L54.6738 98.3425C58.169 98.2778 58.2931 98.2602 58.687 97.7738C59.2144 97.1232 59.2057 96.1556 58.6679 95.6186C58.2492 95.2007 57.9582 95.1935 41.7639 95.1935C22.3191 95.1935 24.3214 95.5185 24.2065 92.3428L24.1328 90.3045H57.0573H89.982L89.9217 92.6958ZM102.972 105.957C102.433 106.641 102.409 107.329 102.903 107.923C103.855 109.068 105.724 108.44 105.724 106.975C105.724 105.467 103.892 104.789 102.972 105.957ZM80.6035 108.056C81.4535 108.495 81.6638 108.977 81.6638 110.484V111.774H61.223H40.7821V110.484C40.7821 108.998 40.9893 108.505 41.7988 108.066C42.6837 107.587 79.6758 107.577 80.6035 108.056Z" fill="#005BAA"/>
</svg>
