<svg width="128" height="127" viewBox="0 0 128 127" fill="none" xmlns="http://www.w3.org/2000/svg">
<rect x="0.5" width="127" height="127" fill="white"/>
<circle cx="74.5" cy="69" r="15" fill="#59C3FF"/>
<path fill-rule="evenodd" clip-rule="evenodd" d="M22.1469 21.2389C19.2607 22.0309 17.261 24.1559 16.6554 27.0744C16.525 27.7033 16.476 32.5812 16.5109 41.4557L16.5638 54.8851L16.9998 55.9664C17.8182 57.9969 19.2716 59.4369 21.3721 60.2988C22.3785 60.7117 22.4217 60.713 37.0442 60.7652L51.7068 60.8177L51.2694 62.1975C49.5577 67.5972 50.1324 74.4791 52.7309 79.6998C55.1902 84.6405 58.7325 88.2501 63.61 90.7853C70.3526 94.2902 78.4055 94.3771 85.3099 91.0198L86.8733 90.2595L94.6929 98.0654C98.9935 102.359 102.808 106.045 103.169 106.258C104.28 106.912 105.975 107.168 107.334 106.887C108.836 106.576 109.661 106.144 110.653 105.15C111.646 104.156 112.077 103.329 112.387 101.825C112.668 100.463 112.412 98.7646 111.759 97.6528C111.546 97.2909 109.802 95.4088 107.883 93.47C105.215 90.7759 104.253 89.9191 103.801 89.8341C102.683 89.6241 101.679 90.5073 101.672 91.7063C101.668 92.3988 101.832 92.5994 105.123 95.9389C108.011 98.8691 108.599 99.5596 108.709 100.145C108.891 101.118 108.692 101.745 107.973 102.465C107.255 103.184 106.631 103.384 105.654 103.206C105.041 103.095 104.006 102.132 97.484 95.6124L90.0162 88.1463L91.7679 86.367C96.3599 81.702 98.622 76.5692 98.9729 70.0183C99.1014 67.6175 98.7413 64.5019 98.0971 62.444C97.8963 61.802 97.7308 61.1777 97.7295 61.0566C97.7278 60.8966 98.9419 60.8177 102.184 60.7675C106.294 60.7038 106.725 60.665 107.72 60.2689C109.796 59.4433 111.384 57.7822 112.121 55.6651C112.434 54.7672 112.458 53.6887 112.458 40.7859V26.8746L112.022 25.7933C111.18 23.704 109.529 22.122 107.419 21.3847C106.505 21.0652 104.854 21.0469 76.8344 21.0469H47.2156L46.668 21.6609C45.9502 22.4655 45.9502 23.2002 46.668 24.0048L47.2156 24.6187L76.7543 24.7127L106.293 24.8067L106.986 25.2767C107.367 25.5352 107.91 26.0779 108.192 26.4827L108.705 27.2184V40.8799V54.5413L108.192 55.2771C107.91 55.6818 107.368 56.2245 106.987 56.483C106.295 56.9522 106.286 56.953 101.113 57.0107L95.9324 57.0682L94.8143 55.4128C93.3549 53.2515 90.9906 50.8023 88.9477 49.3355C87.4325 48.2474 83.4871 46.1492 82.9487 46.1453C82.8198 46.1443 82.7187 46.08 82.7241 46.0026C82.7296 45.9251 83.3468 44.5927 84.0959 43.0417L85.458 40.2219L87.1949 43.555C88.9415 46.9061 89.5129 47.6475 90.3491 47.6475C91.4087 47.6475 91.8664 47.1623 92.9687 44.8701C97.2624 35.9425 97.3243 35.7748 96.6438 34.9332C95.9279 34.0479 94.8901 33.8737 94.0896 34.5046C93.779 34.7493 92.9897 36.1457 91.9919 38.216L90.3921 41.5352L88.6906 38.2467C87.7549 36.438 86.8419 34.8038 86.662 34.6151C86.482 34.4264 85.9965 34.2263 85.5833 34.1709C84.4433 34.0177 83.952 34.62 82.224 38.2886C81.4097 40.017 80.7015 41.4324 80.6499 41.4339C80.5983 41.4356 79.796 39.9444 78.8671 38.1202C77.6027 35.6372 77.0367 34.7144 76.6152 34.4489C75.4237 33.6983 73.8941 34.5363 73.8941 35.9397C73.8941 36.4352 74.4507 37.6981 75.9584 40.6229C77.0937 42.8256 78.0227 44.6515 78.0227 44.6806C78.0227 44.7098 76.4814 44.7453 74.5979 44.7594C71.9241 44.7795 70.8336 44.8656 69.6248 45.1521C68.7732 45.354 68.0766 45.4922 68.0766 45.4591C68.0766 45.4262 69.0204 43.4307 70.1736 41.0246C72.4675 36.2395 72.6317 35.6252 71.8424 34.7837C71.0167 33.9032 69.7012 33.9765 69.018 34.9411C68.8648 35.1573 68.0992 36.6649 67.3166 38.2916C66.5343 39.9183 65.8472 41.2961 65.79 41.3532C65.7328 41.4106 64.9082 39.9459 63.9575 38.0985C62.1914 34.6662 61.7469 34.1122 60.7579 34.1122C59.7393 34.1122 59.3317 34.6407 57.6602 38.1271L56.0371 41.5128L55.473 40.4913C55.1626 39.9296 54.4116 38.4971 53.8039 37.308C53.1963 36.119 52.5913 35.0119 52.4594 34.8478C51.7552 33.9727 50.4617 33.9428 49.6733 34.7837C48.8285 35.6844 48.9865 36.1799 51.9245 41.8422C54.6707 47.1345 55.0344 47.6475 56.0395 47.6475C57.1165 47.6475 57.4006 47.286 59.1196 43.7298C60.0363 41.8335 60.8202 40.3155 60.8613 40.3569C60.9024 40.398 61.6913 41.8941 62.6142 43.6813L64.2925 46.9309L63.7261 47.2422C59.6349 49.4909 56.7847 52.0132 54.4596 55.4421L53.3657 57.0554L38.045 57.0041L22.7244 56.953L21.9899 56.439C21.5858 56.1565 21.0442 55.6128 20.7862 55.2308L20.317 54.5368V40.8799V27.223L20.7862 26.5289C21.0442 26.1469 21.5856 25.6032 21.9893 25.3207L22.7234 24.8067L27.5881 24.7127L32.4527 24.6187L32.9999 24.0048C33.7171 23.2002 33.7171 22.4655 32.9999 21.6609L32.4525 21.0469L27.7923 21.0076C24.2217 20.9777 22.9015 21.0317 22.1469 21.2389ZM39.4374 21.13C38.8425 21.3815 38.2386 22.2506 38.2386 22.8552C38.2386 23.1806 38.4522 23.6303 38.7825 24.0004C39.9114 25.2664 41.8896 24.523 41.8896 22.8328C41.8896 21.5842 40.5551 20.6576 39.4374 21.13ZM25.4704 34.3869C24.8121 34.7457 24.4662 35.4674 24.5891 36.2262C24.6452 36.573 25.875 39.1366 27.3217 41.9232C30.0611 47.1999 30.3867 47.6443 31.5153 47.6465C32.4322 47.6482 33.0132 46.8679 34.5792 43.5305C35.405 41.7709 36.1228 40.3294 36.1744 40.3274C36.226 40.3253 37.0278 41.8078 37.9562 43.6221C38.8846 45.4362 39.7857 47.0489 39.9589 47.2059C40.1321 47.3629 40.6028 47.5356 41.0051 47.5896C41.5931 47.6685 41.8346 47.6011 42.2375 47.2446C42.9795 46.5885 47.6217 36.8776 47.6217 35.9818C47.6217 34.5672 46.2557 33.7409 44.9959 34.3935C44.4785 34.6615 44.1477 35.2099 42.7547 38.1081L41.1207 41.5083L40.171 39.7373C39.6487 38.7631 38.8772 37.277 38.4563 36.435C37.5235 34.5677 36.9325 34.0378 35.9325 34.1714C35.5414 34.2237 35.0846 34.3797 34.9174 34.5183C34.7502 34.6568 33.8832 36.2923 32.9905 38.1529L31.3676 41.5358L29.6336 38.2066C28.6724 36.3611 27.6833 34.707 27.414 34.495C26.8544 34.0539 26.1529 34.015 25.4704 34.3869ZM78.8671 48.864C85.895 50.3568 91.8003 55.5609 94.092 62.281C97.3523 71.8412 93.478 82.0737 84.691 87.1094C80.5949 89.457 75.162 90.2872 70.4224 89.2897C63.4118 87.8145 57.4894 82.5965 55.1975 75.8757C51.0493 63.7116 58.6184 50.9099 71.2697 48.6929C73.2568 48.3447 76.798 48.4244 78.8671 48.864ZM72.5805 52.6475C68.4931 53.4034 65.5522 54.8691 63.0062 57.4194C60.8562 59.5734 59.3683 62.2306 58.5829 65.3185C58.0875 67.2672 58.0875 70.8894 58.5829 72.8381C60.1639 79.0551 64.6854 83.5846 70.8916 85.1684C72.8368 85.6647 76.4527 85.6647 78.398 85.1684C84.6041 83.5846 89.1256 79.0551 90.7066 72.8381C91.2021 70.8894 91.2021 67.2672 90.7066 65.3185C89.1489 59.1927 84.751 54.7123 78.6795 53.0655C77.4036 52.7195 73.6012 52.4589 72.5805 52.6475ZM77.1193 56.568C81.7134 57.5433 85.3097 60.7739 86.802 65.2663C87.2206 66.5269 87.2876 67.0524 87.2876 69.0783C87.2876 71.1043 87.2206 71.6297 86.802 72.8904C84.9383 78.501 79.7095 82.1361 73.988 81.7996C67.4296 81.4139 62.3309 76.3062 61.9458 69.7363C61.465 61.5351 69.1405 54.874 77.1193 56.568ZM73.988 60.7964C73.3991 61.038 72.9491 61.6422 72.8353 62.3447C72.6933 63.2219 73.4387 64.1333 74.4215 64.284C74.8024 64.3425 75.5538 64.5177 76.0914 64.6735C77.8579 65.1856 79.3363 67.1635 79.3363 69.0148C79.3363 69.8513 80.1496 70.7484 81.0355 70.8894C81.5766 70.9755 81.8151 70.9009 82.2959 70.4956C83.0229 69.8829 83.1875 69.13 82.9159 67.659C82.2767 64.1949 79.5806 61.4593 76.1665 60.8107C74.9903 60.5872 74.5061 60.584 73.988 60.7964ZM98.28 85.5801C97.392 86.0243 97.0556 86.7733 97.3309 87.6937C97.8176 89.3216 99.9232 89.4732 100.708 87.9367C101.053 87.2596 100.948 86.5999 100.401 86.0185C99.7314 85.3064 99.0919 85.174 98.28 85.5801Z" fill="#005BAA"/>
</svg>
