<svg width="770" height="1231" viewBox="0 0 770 1231" fill="none" xmlns="http://www.w3.org/2000/svg">
<path d="M43.5383 617.498L57.9576 605.551L72.3769 593.191L75.6728 611.73L78.9686 630.269L61.2535 624.09L43.5383 617.498Z" stroke="url(#paint0_linear)" stroke-width="2" stroke-miterlimit="10"/>
<path d="M42.3027 617.085L58.37 604.726L74.0252 592.367L76.9091 612.142L79.7929 632.329L60.8418 624.913L42.3027 617.085Z" stroke="url(#paint1_linear)" stroke-width="2" stroke-miterlimit="10"/>
<path d="M40.6541 616.674L58.3692 603.903L76.0843 591.131L78.1442 612.554L80.6161 634.389L60.8411 625.738L40.6541 616.674Z" stroke="url(#paint2_linear)" stroke-width="2" stroke-miterlimit="10"/>
<path d="M39.4185 616.262L58.7815 603.078L78.1445 589.895L79.7925 613.378L81.4404 636.449L60.4295 626.561L39.4185 616.262Z" stroke="url(#paint3_linear)" stroke-width="2" stroke-miterlimit="10"/>
<path d="M37.771 615.438L59.194 602.255L80.6169 588.659L81.4409 613.79L82.2648 638.921L60.0179 627.385L37.771 615.438Z" stroke="url(#paint4_linear)" stroke-width="2" stroke-miterlimit="10"/>
<path d="M36.1233 614.615L59.6061 601.02L83.0891 587.836V614.615V641.806L59.6061 628.21L36.1233 614.615Z" stroke="url(#paint5_linear)" stroke-width="2" stroke-miterlimit="10"/>
<path d="M34.4744 613.79L60.0171 600.195L85.9718 586.599L84.7359 615.438L83.9119 644.689L59.1931 629.445L34.4744 613.79Z" stroke="url(#paint6_linear)" stroke-width="2" stroke-miterlimit="10"/>
<path d="M32.4146 612.967L60.8411 598.959L88.8558 585.364L86.7959 616.674L84.324 647.985L58.3693 630.27L32.4146 612.967Z" stroke="url(#paint7_linear)" stroke-width="2" stroke-miterlimit="10"/>
<path d="M30.7671 611.73L61.2536 598.135L92.1521 584.127L88.4443 617.91L85.1485 651.28L57.9578 631.505L30.7671 611.73Z" stroke="url(#paint8_linear)" stroke-width="2" stroke-miterlimit="10"/>
<path d="M28.707 610.494L62.0774 596.898L95.8598 583.303L90.504 619.145L85.5603 654.987L57.1337 632.741L28.707 610.494Z" stroke="url(#paint9_linear)" stroke-width="2" stroke-miterlimit="10"/>
<path d="M26.6472 608.847L62.9015 595.663L99.5677 582.48L92.976 620.382L85.9724 658.696L56.3098 633.977L26.6472 608.847Z" stroke="url(#paint10_linear)" stroke-width="2" stroke-miterlimit="10"/>
<path d="M24.1753 607.199L64.1374 594.428L103.687 581.244L95.0359 622.442L86.3843 663.228L55.0738 635.214L24.1753 607.199Z" stroke="url(#paint11_linear)" stroke-width="2" stroke-miterlimit="10"/>
<path d="M21.7031 605.139L64.961 592.779L108.219 580.42L97.5075 624.09L86.384 667.76L54.2496 636.449L21.7031 605.139Z" stroke="url(#paint12_linear)" stroke-width="2" stroke-miterlimit="10"/>
<path d="M19.231 603.079L66.1966 591.543L113.162 580.008L99.979 626.15L86.3836 672.703L53.0133 638.097L19.231 603.079Z" stroke="url(#paint13_linear)" stroke-width="2" stroke-miterlimit="10"/>
<path d="M16.7603 601.019L67.8458 589.896L118.519 579.185L102.452 628.622L86.3849 678.06L51.7786 639.334L16.7603 601.019Z" stroke="url(#paint14_linear)" stroke-width="2" stroke-miterlimit="10"/>
<path d="M14.2881 598.135L69.0815 588.66L124.287 578.772L104.924 631.506L85.9727 683.827L50.1304 640.981L14.2881 598.135Z" stroke="url(#paint15_linear)" stroke-width="2" stroke-miterlimit="10"/>
<path d="M11.4038 595.251L70.729 587.012L130.466 578.36L107.807 634.389L85.5603 690.007L48.482 642.629L11.4038 595.251Z" stroke="url(#paint16_linear)" stroke-width="2" stroke-miterlimit="10"/>
<path d="M8.51953 591.955L72.7885 585.364L137.057 578.36L110.691 637.685L84.3238 696.598L46.4217 644.277L8.51953 591.955Z" stroke="url(#paint17_linear)" stroke-width="2" stroke-miterlimit="10"/>
<path d="M5.63672 588.248L74.8493 583.716L144.062 578.772L113.575 640.981L83.0889 703.602L44.3628 645.925L5.63672 588.248Z" stroke="url(#paint18_linear)" stroke-width="2" stroke-miterlimit="10"/>
<path d="M2.34009 584.54L77.3205 581.656L151.889 579.185L116.871 645.101L81.8523 711.018L42.3022 647.573L2.34009 584.54Z" stroke="url(#paint19_linear)" stroke-width="2" stroke-miterlimit="10"/>
<path d="M-0.544189 580.008H79.7919H160.128L119.754 649.632L79.7919 719.257L39.4179 649.632L-0.544189 580.008Z" stroke="url(#paint20_linear)" stroke-width="2" stroke-miterlimit="10"/>
<path d="M-3.83936 575.063L82.6764 578.359L168.78 581.243L123.05 654.576L77.3207 727.496L36.9466 651.28L-3.83936 575.063Z" stroke="url(#paint21_linear)" stroke-width="2" stroke-miterlimit="10"/>
<path d="M-7.13477 569.708L85.5608 576.3L178.256 582.892L126.347 659.932L74.4373 736.972L33.6513 653.34L-7.13477 569.708Z" stroke="url(#paint22_linear)" stroke-width="2" stroke-miterlimit="10"/>
<path d="M-10.4312 563.941L88.8561 574.241L188.555 584.952L129.642 665.7L71.1409 746.448L30.3549 655.401L-10.4312 563.941Z" stroke="url(#paint23_linear)" stroke-width="2" stroke-miterlimit="10"/>
<path d="M-13.7275 557.349L92.5633 572.593L199.266 587.424L132.937 671.88L67.0205 756.748L26.6465 657.049L-13.7275 557.349Z" stroke="url(#paint24_linear)" stroke-width="2" stroke-miterlimit="10"/>
<path d="M-17.0229 550.345L96.6835 570.532L210.39 590.719L136.234 679.295L62.0772 767.459L22.5271 659.108L-17.0229 550.345Z" stroke="url(#paint25_linear)" stroke-width="2" stroke-miterlimit="10"/>
<path d="M-20.3181 542.929L101.216 568.884L222.75 594.427L139.53 686.71L56.7221 778.994L17.996 661.167L-20.3181 542.929Z" stroke="url(#paint26_linear)" stroke-width="2" stroke-miterlimit="10"/>
<path d="M-23.6147 534.69L106.159 566.824L235.521 598.959L142.825 695.362L50.1297 791.354L13.4635 662.816L-23.6147 534.69Z" stroke="url(#paint27_linear)" stroke-width="2" stroke-miterlimit="10"/>
<path d="M-26.4976 525.626L111.516 565.176L249.529 604.726L146.122 704.425L42.7151 804.124L8.10873 664.875L-26.4976 525.626Z" stroke="url(#paint28_linear)" stroke-width="2" stroke-miterlimit="10"/>
<path d="M-29.7942 515.327L116.871 563.117L263.948 610.906L149.005 714.313L34.4747 817.72L2.34026 666.524L-29.7942 515.327Z" stroke="url(#paint29_linear)" stroke-width="2" stroke-miterlimit="10"/>
<path d="M-32.6785 504.615L123.462 561.469L279.19 618.322L152.301 725.025L24.9987 831.728L-3.83987 668.172L-32.6785 504.615Z" stroke="url(#paint30_linear)" stroke-width="2" stroke-miterlimit="10"/>
<path d="M-35.5615 493.08L130.054 559.82L295.67 626.973L154.773 736.56L14.288 846.558L-10.4308 669.819L-35.5615 493.08Z" stroke="url(#paint31_linear)" stroke-width="2" stroke-miterlimit="10"/>
<path d="M-38.0334 480.308L137.47 558.585L312.562 636.449L157.245 749.331L2.3406 862.214L-17.8464 671.467L-38.0334 480.308Z" stroke="url(#paint32_linear)" stroke-width="2" stroke-miterlimit="10"/>
<path d="M-40.0933 466.713L145.298 557.348L330.689 647.572L159.717 763.338L-11.2547 878.693L-25.674 672.703L-40.0933 466.713Z" stroke="url(#paint33_linear)" stroke-width="2" stroke-miterlimit="10"/>
<path d="M-42.1533 451.883L153.949 556.114L349.64 660.345L161.365 778.171L-26.4981 895.585L-34.3257 673.94L-42.1533 451.883Z" stroke="url(#paint34_linear)" stroke-width="2" stroke-miterlimit="10"/>
<path d="M-43.3899 436.227L163.012 555.29L369.826 674.764L163.012 793.826L-43.3899 913.3V674.764V436.227Z" stroke="url(#paint35_linear)" stroke-width="2" stroke-miterlimit="10"/>
<path d="M-44.6257 418.924L172.9 554.877L390.425 690.831L164.248 811.129L-62.3408 931.839L-53.6893 675.176L-44.6257 418.924Z" stroke="url(#paint36_linear)" stroke-width="2" stroke-miterlimit="10"/>
<path d="M-45.0372 400.384L183.612 554.465L412.261 708.957L164.661 829.667L-83.3513 950.79L-64.4002 675.587L-45.0372 400.384Z" stroke="url(#paint37_linear)" stroke-width="2" stroke-miterlimit="10"/>
<path d="M-44.625 380.61L195.147 554.878L435.332 729.145L164.249 849.855L-106.834 970.566L-75.9355 675.588L-44.625 380.61Z" stroke="url(#paint38_linear)" stroke-width="2" stroke-miterlimit="10"/>
<path d="M-43.8022 359.186L207.506 555.289L458.813 751.803L163.012 871.277L-132.378 990.751L-88.2961 674.763L-43.8022 359.186Z" stroke="url(#paint39_linear)" stroke-width="2" stroke-miterlimit="10"/>
<path d="M-41.7412 336.115L220.69 556.525L483.533 776.934L161.365 894.348L-160.803 1011.76L-101.478 673.939L-41.7412 336.115Z" stroke="url(#paint40_linear)" stroke-width="2" stroke-miterlimit="10"/>
<path d="M-38.8568 311.396L235.11 558.172L509.077 804.948L158.482 919.067L-192.525 1032.77L-115.485 672.291L-38.8568 311.396Z" stroke="url(#paint41_linear)" stroke-width="2" stroke-miterlimit="10"/>
<path d="M-35.1503 285.031L250.352 560.645L535.442 836.26L154.361 945.434L-226.721 1054.61L-130.73 669.82L-35.1503 285.031Z" stroke="url(#paint42_linear)" stroke-width="2" stroke-miterlimit="10"/>
<path d="M-29.794 257.016L266.42 563.941L562.633 870.454L149.005 973.449L-264.623 1076.86L-147.208 666.936L-29.794 257.016Z" stroke="url(#paint43_linear)" stroke-width="2" stroke-miterlimit="10"/>
<path d="M-22.7907 226.941L284.134 567.649L590.647 908.356L142.413 1003.94L-306.233 1099.1L-164.512 663.228L-22.7907 226.941Z" stroke="url(#paint44_linear)" stroke-width="2" stroke-miterlimit="10"/>
<path d="M-14.5512 194.807L302.262 572.593L619.486 950.378L133.762 1036.07L-351.551 1121.35L-183.051 658.285L-14.5512 194.807Z" stroke="url(#paint45_linear)" stroke-width="2" stroke-miterlimit="10"/>
<path d="M-4.25169 161.024L322.037 578.772L648.737 996.519L123.462 1070.26L-401.4 1144.01L-202.826 652.516L-4.25169 161.024Z" stroke="url(#paint46_linear)" stroke-width="2" stroke-miterlimit="10"/>
<path d="M8.10747 124.77L343.047 585.776L677.987 1046.78L111.102 1106.52L-455.782 1166.26L-223.837 645.513L8.10747 124.77Z" stroke="url(#paint47_linear)" stroke-width="2" stroke-miterlimit="10"/>
<path d="M22.5276 86.0439L365.295 594.427L708.062 1102.4L96.684 1145.24L-514.694 1188.09L-246.083 636.861L22.5276 86.0439Z" stroke="url(#paint48_linear)" stroke-width="2" stroke-miterlimit="10"/>
<path d="M39.8297 45.2581L388.777 604.315L738.136 1162.96L79.3798 1186.03L-579.376 1209.1L-269.567 626.974L39.8297 45.2581Z" stroke="url(#paint49_linear)" stroke-width="2" stroke-miterlimit="10"/>
<path d="M59.6055 2L413.908 615.85L768.211 1229.7H59.6055H-649L-294.697 615.85L59.6055 2Z" stroke="url(#paint50_linear)" stroke-width="2" stroke-miterlimit="10"/>
<defs>
<linearGradient id="paint0_linear" x1="61.2535" y1="593.191" x2="61.2535" y2="630.269" gradientUnits="userSpaceOnUse">
<stop stop-color="#FFF3EC"/>
<stop offset="1"/>
</linearGradient>
<linearGradient id="paint1_linear" x1="61.0478" y1="592.367" x2="61.0478" y2="632.329" gradientUnits="userSpaceOnUse">
<stop stop-color="#FFF3EC"/>
<stop offset="1"/>
</linearGradient>
<linearGradient id="paint2_linear" x1="60.6351" y1="591.131" x2="60.6351" y2="634.389" gradientUnits="userSpaceOnUse">
<stop stop-color="#FFF3EC"/>
<stop offset="1"/>
</linearGradient>
<linearGradient id="paint3_linear" x1="60.4294" y1="589.895" x2="60.4294" y2="636.449" gradientUnits="userSpaceOnUse">
<stop stop-color="#FFF3EC"/>
<stop offset="1"/>
</linearGradient>
<linearGradient id="paint4_linear" x1="60.0179" y1="588.659" x2="60.0179" y2="638.921" gradientUnits="userSpaceOnUse">
<stop stop-color="#FFF3EC"/>
<stop offset="1"/>
</linearGradient>
<linearGradient id="paint5_linear" x1="59.6062" y1="587.836" x2="59.6062" y2="641.806" gradientUnits="userSpaceOnUse">
<stop stop-color="#FFF3EC"/>
<stop offset="1"/>
</linearGradient>
<linearGradient id="paint6_linear" x1="60.2231" y1="586.599" x2="60.2231" y2="644.689" gradientUnits="userSpaceOnUse">
<stop stop-color="#FFF3EC"/>
<stop offset="1"/>
</linearGradient>
<linearGradient id="paint7_linear" x1="60.6352" y1="585.364" x2="60.6352" y2="647.985" gradientUnits="userSpaceOnUse">
<stop stop-color="#FFF3EC"/>
<stop offset="1"/>
</linearGradient>
<linearGradient id="paint8_linear" x1="61.4596" y1="584.127" x2="61.4596" y2="651.28" gradientUnits="userSpaceOnUse">
<stop stop-color="#FFF3EC"/>
<stop offset="1"/>
</linearGradient>
<linearGradient id="paint9_linear" x1="62.2834" y1="583.303" x2="62.2834" y2="654.987" gradientUnits="userSpaceOnUse">
<stop stop-color="#FFF3EC"/>
<stop offset="1"/>
</linearGradient>
<linearGradient id="paint10_linear" x1="63.1075" y1="582.48" x2="63.1075" y2="658.696" gradientUnits="userSpaceOnUse">
<stop stop-color="#FFF3EC"/>
<stop offset="1"/>
</linearGradient>
<linearGradient id="paint11_linear" x1="63.9314" y1="581.244" x2="63.9314" y2="663.228" gradientUnits="userSpaceOnUse">
<stop stop-color="#FFF3EC"/>
<stop offset="1"/>
</linearGradient>
<linearGradient id="paint12_linear" x1="64.961" y1="580.42" x2="64.961" y2="667.76" gradientUnits="userSpaceOnUse">
<stop stop-color="#FFF3EC"/>
<stop offset="1"/>
</linearGradient>
<linearGradient id="paint13_linear" x1="66.1966" y1="580.008" x2="66.1966" y2="672.703" gradientUnits="userSpaceOnUse">
<stop stop-color="#FFF3EC"/>
<stop offset="1"/>
</linearGradient>
<linearGradient id="paint14_linear" x1="67.6398" y1="579.185" x2="67.6398" y2="678.06" gradientUnits="userSpaceOnUse">
<stop stop-color="#FFF3EC"/>
<stop offset="1"/>
</linearGradient>
<linearGradient id="paint15_linear" x1="69.2875" y1="578.772" x2="69.2875" y2="683.827" gradientUnits="userSpaceOnUse">
<stop stop-color="#FFF3EC"/>
<stop offset="1"/>
</linearGradient>
<linearGradient id="paint16_linear" x1="70.935" y1="578.36" x2="70.935" y2="690.007" gradientUnits="userSpaceOnUse">
<stop stop-color="#FFF3EC"/>
<stop offset="1"/>
</linearGradient>
<linearGradient id="paint17_linear" x1="72.7884" y1="578.36" x2="72.7884" y2="696.598" gradientUnits="userSpaceOnUse">
<stop stop-color="#FFF3EC"/>
<stop offset="1"/>
</linearGradient>
<linearGradient id="paint18_linear" x1="74.8493" y1="578.772" x2="74.8493" y2="703.602" gradientUnits="userSpaceOnUse">
<stop stop-color="#FFF3EC"/>
<stop offset="1"/>
</linearGradient>
<linearGradient id="paint19_linear" x1="77.1145" y1="579.185" x2="77.1145" y2="711.018" gradientUnits="userSpaceOnUse">
<stop stop-color="#FFF3EC"/>
<stop offset="1"/>
</linearGradient>
<linearGradient id="paint20_linear" x1="79.7919" y1="580.008" x2="79.7919" y2="719.257" gradientUnits="userSpaceOnUse">
<stop stop-color="#FFF3EC"/>
<stop offset="1"/>
</linearGradient>
<linearGradient id="paint21_linear" x1="82.4704" y1="575.063" x2="82.4704" y2="727.496" gradientUnits="userSpaceOnUse">
<stop stop-color="#FFF3EC"/>
<stop offset="1"/>
</linearGradient>
<linearGradient id="paint22_linear" x1="85.5608" y1="569.708" x2="85.5608" y2="736.972" gradientUnits="userSpaceOnUse">
<stop stop-color="#FFF3EC"/>
<stop offset="1"/>
</linearGradient>
<linearGradient id="paint23_linear" x1="89.062" y1="563.941" x2="89.062" y2="746.448" gradientUnits="userSpaceOnUse">
<stop stop-color="#FFF3EC"/>
<stop offset="1"/>
</linearGradient>
<linearGradient id="paint24_linear" x1="92.7693" y1="557.349" x2="92.7693" y2="756.748" gradientUnits="userSpaceOnUse">
<stop stop-color="#FFF3EC"/>
<stop offset="1"/>
</linearGradient>
<linearGradient id="paint25_linear" x1="96.6835" y1="550.345" x2="96.6835" y2="767.459" gradientUnits="userSpaceOnUse">
<stop stop-color="#FFF3EC"/>
<stop offset="1"/>
</linearGradient>
<linearGradient id="paint26_linear" x1="101.216" y1="542.929" x2="101.216" y2="778.994" gradientUnits="userSpaceOnUse">
<stop stop-color="#FFF3EC"/>
<stop offset="1"/>
</linearGradient>
<linearGradient id="paint27_linear" x1="105.953" y1="534.69" x2="105.953" y2="791.354" gradientUnits="userSpaceOnUse">
<stop stop-color="#FFF3EC"/>
<stop offset="1"/>
</linearGradient>
<linearGradient id="paint28_linear" x1="111.516" y1="525.626" x2="111.516" y2="804.124" gradientUnits="userSpaceOnUse">
<stop stop-color="#FFF3EC"/>
<stop offset="1"/>
</linearGradient>
<linearGradient id="paint29_linear" x1="117.077" y1="515.327" x2="117.077" y2="817.72" gradientUnits="userSpaceOnUse">
<stop stop-color="#FFF3EC"/>
<stop offset="1"/>
</linearGradient>
<linearGradient id="paint30_linear" x1="123.256" y1="504.615" x2="123.256" y2="831.728" gradientUnits="userSpaceOnUse">
<stop stop-color="#FFF3EC"/>
<stop offset="1"/>
</linearGradient>
<linearGradient id="paint31_linear" x1="130.054" y1="493.08" x2="130.054" y2="846.558" gradientUnits="userSpaceOnUse">
<stop stop-color="#FFF3EC"/>
<stop offset="1"/>
</linearGradient>
<linearGradient id="paint32_linear" x1="137.264" y1="480.308" x2="137.264" y2="862.214" gradientUnits="userSpaceOnUse">
<stop stop-color="#FFF3EC"/>
<stop offset="1"/>
</linearGradient>
<linearGradient id="paint33_linear" x1="145.298" y1="466.713" x2="145.298" y2="878.693" gradientUnits="userSpaceOnUse">
<stop stop-color="#FFF3EC"/>
<stop offset="1"/>
</linearGradient>
<linearGradient id="paint34_linear" x1="153.743" y1="451.883" x2="153.743" y2="895.585" gradientUnits="userSpaceOnUse">
<stop stop-color="#FFF3EC"/>
<stop offset="1"/>
</linearGradient>
<linearGradient id="paint35_linear" x1="163.218" y1="436.227" x2="163.218" y2="913.3" gradientUnits="userSpaceOnUse">
<stop stop-color="#FFF3EC"/>
<stop offset="1"/>
</linearGradient>
<linearGradient id="paint36_linear" x1="164.042" y1="418.924" x2="164.042" y2="931.839" gradientUnits="userSpaceOnUse">
<stop stop-color="#FFF3EC"/>
<stop offset="1"/>
</linearGradient>
<linearGradient id="paint37_linear" x1="164.455" y1="400.384" x2="164.455" y2="950.79" gradientUnits="userSpaceOnUse">
<stop stop-color="#FFF3EC"/>
<stop offset="1"/>
</linearGradient>
<linearGradient id="paint38_linear" x1="164.249" y1="380.61" x2="164.249" y2="970.566" gradientUnits="userSpaceOnUse">
<stop stop-color="#FFF3EC"/>
<stop offset="1"/>
</linearGradient>
<linearGradient id="paint39_linear" x1="163.218" y1="359.186" x2="163.218" y2="990.751" gradientUnits="userSpaceOnUse">
<stop stop-color="#FFF3EC"/>
<stop offset="1"/>
</linearGradient>
<linearGradient id="paint40_linear" x1="161.365" y1="336.115" x2="161.365" y2="1011.76" gradientUnits="userSpaceOnUse">
<stop stop-color="#FFF3EC"/>
<stop offset="1"/>
</linearGradient>
<linearGradient id="paint41_linear" x1="158.276" y1="311.396" x2="158.276" y2="1032.77" gradientUnits="userSpaceOnUse">
<stop stop-color="#FFF3EC"/>
<stop offset="1"/>
</linearGradient>
<linearGradient id="paint42_linear" x1="154.361" y1="285.031" x2="154.361" y2="1054.61" gradientUnits="userSpaceOnUse">
<stop stop-color="#FFF3EC"/>
<stop offset="1"/>
</linearGradient>
<linearGradient id="paint43_linear" x1="149.005" y1="257.016" x2="149.005" y2="1076.86" gradientUnits="userSpaceOnUse">
<stop stop-color="#FFF3EC"/>
<stop offset="1"/>
</linearGradient>
<linearGradient id="paint44_linear" x1="142.207" y1="226.941" x2="142.207" y2="1099.1" gradientUnits="userSpaceOnUse">
<stop stop-color="#FFF3EC"/>
<stop offset="1"/>
</linearGradient>
<linearGradient id="paint45_linear" x1="133.968" y1="194.807" x2="133.968" y2="1121.35" gradientUnits="userSpaceOnUse">
<stop stop-color="#FFF3EC"/>
<stop offset="1"/>
</linearGradient>
<linearGradient id="paint46_linear" x1="123.668" y1="161.024" x2="123.668" y2="1144.01" gradientUnits="userSpaceOnUse">
<stop stop-color="#FFF3EC"/>
<stop offset="1"/>
</linearGradient>
<linearGradient id="paint47_linear" x1="111.103" y1="124.77" x2="111.103" y2="1166.26" gradientUnits="userSpaceOnUse">
<stop stop-color="#FFF3EC"/>
<stop offset="1"/>
</linearGradient>
<linearGradient id="paint48_linear" x1="96.684" y1="86.0439" x2="96.684" y2="1188.09" gradientUnits="userSpaceOnUse">
<stop stop-color="#FFF3EC"/>
<stop offset="1"/>
</linearGradient>
<linearGradient id="paint49_linear" x1="79.3798" y1="45.2581" x2="79.3798" y2="1209.1" gradientUnits="userSpaceOnUse">
<stop stop-color="#FFF3EC"/>
<stop offset="1"/>
</linearGradient>
<linearGradient id="paint50_linear" x1="59.6055" y1="2" x2="59.6055" y2="1229.7" gradientUnits="userSpaceOnUse">
<stop stop-color="#FFF3EC"/>
<stop offset="1"/>
</linearGradient>
</defs>
</svg>
