<svg width="42" height="42" viewBox="0 0 42 42" fill="none" xmlns="http://www.w3.org/2000/svg">
<rect x="0.00390625" y="0.03125" width="41.9411" height="41.9411" rx="8" fill="#191919"/>
<path d="M27.6167 18.5219L27.195 22.1751C27.1774 22.3418 27.0993 22.4962 26.9755 22.6091C26.8516 22.722 26.6905 22.7855 26.5229 22.7875H22.7101L22.6911 33.6183C22.6923 33.7467 22.6431 33.8704 22.5539 33.9627C22.4647 34.055 22.3428 34.1085 22.2145 34.1116H18.3516C18.2874 34.1117 18.2238 34.0987 18.1647 34.0736C18.1056 34.0485 18.0522 34.0116 18.0076 33.9653C17.9631 33.919 17.9284 33.8642 17.9056 33.8042C17.8828 33.7441 17.8724 33.6801 17.875 33.6159V22.7875H15.0154C14.9255 22.7866 14.8368 22.768 14.7542 22.7327C14.6716 22.6975 14.5967 22.6463 14.5338 22.5822C14.471 22.518 14.4214 22.4421 14.3879 22.3587C14.3544 22.2754 14.3376 22.1863 14.3386 22.0964L14.3243 18.4433C14.323 18.3532 14.3395 18.2637 14.3729 18.1799C14.4062 18.0962 14.4557 18.0198 14.5185 17.9552C14.5814 17.8906 14.6563 17.839 14.7391 17.8033C14.8219 17.7677 14.9109 17.7487 15.0011 17.7474H17.875V14.2206C17.875 10.1266 20.3057 7.89844 23.8706 7.89844H26.7922C26.8826 7.89937 26.9718 7.91813 27.0549 7.95363C27.1379 7.98914 27.2132 8.04069 27.2763 8.10534C27.3394 8.16999 27.3891 8.24646 27.4226 8.33036C27.4561 8.41426 27.4726 8.50395 27.4714 8.59428V11.6684C27.4726 11.7587 27.4561 11.8484 27.4226 11.9323C27.3891 12.0162 27.3394 12.0927 27.2763 12.1573C27.2132 12.222 27.1379 12.2735 27.0549 12.309C26.9718 12.3445 26.8826 12.3633 26.7922 12.3642H25.0002C23.0628 12.3642 22.6863 13.3174 22.6863 14.6948V17.7474H26.9447C27.0416 17.7487 27.1371 17.7704 27.2249 17.8111C27.3128 17.8519 27.391 17.9108 27.4545 17.9839C27.518 18.0571 27.5653 18.1428 27.5932 18.2355C27.6212 18.3283 27.6292 18.4259 27.6167 18.5219Z" fill="white"/>
</svg>
