<svg width="43" height="42" viewBox="0 0 43 42" fill="none" xmlns="http://www.w3.org/2000/svg">
<rect x="0.671875" y="0.03125" width="41.9411" height="41.9411" rx="8" fill="#191919"/>
<path d="M26.4479 7.89062H15.5219C13.3869 7.89315 11.34 8.7167 9.83034 10.1807C8.32064 11.6446 7.47135 13.6294 7.46875 15.6998V26.2947C7.47135 28.365 8.32064 30.3498 9.83034 31.8138C11.34 33.2777 13.3869 34.1013 15.5219 34.1038H26.4479C28.5829 34.1013 30.6298 33.2777 32.1395 31.8138C33.6492 30.3498 34.4985 28.365 34.5011 26.2947V15.6998C34.4985 13.6294 33.6492 11.6446 32.1395 10.1807C30.6298 8.7167 28.5829 7.89315 26.4479 7.89062V7.89062ZM31.7806 26.2947C31.781 26.9738 31.6433 27.6464 31.3754 28.2739C31.1075 28.9015 30.7147 29.4717 30.2194 29.9519C29.7242 30.4321 29.1362 30.813 28.489 31.0728C27.8419 31.3326 27.1483 31.4661 26.4479 31.4658H15.5219C14.8215 31.4661 14.1279 31.3326 13.4808 31.0728C12.8336 30.813 12.2456 30.4321 11.7504 29.9519C11.2551 29.4717 10.8623 28.9015 10.5945 28.2739C10.3266 27.6464 10.1889 26.9738 10.1892 26.2947V15.6998C10.1892 14.3283 10.751 13.013 11.7511 12.0432C12.7512 11.0734 14.1076 10.5286 15.5219 10.5286H26.4479C27.8622 10.5286 29.2186 11.0734 30.2187 12.0432C31.2188 13.013 31.7806 14.3283 31.7806 15.6998V26.2947Z" fill="white"/>
<path d="M20.9837 14.2188C19.6009 14.2187 18.2492 14.6164 17.0994 15.3613C15.9497 16.1063 15.0536 17.1651 14.5244 18.404C13.9952 19.6428 13.8568 21.0059 14.1265 22.3211C14.3963 23.6362 15.0622 24.8442 16.04 25.7924C17.0178 26.7405 18.2635 27.3862 19.6198 27.6478C20.976 27.9094 22.3817 27.7752 23.6593 27.262C24.9368 26.7489 26.0287 25.8799 26.797 24.765C27.5652 23.6501 27.9753 22.3393 27.9753 20.9984C27.9727 19.2011 27.2352 17.4781 25.9246 16.2073C24.614 14.9364 22.8372 14.2213 20.9837 14.2188V14.2188ZM20.9837 25.1425C20.1385 25.1425 19.3123 24.8994 18.6095 24.4441C17.9067 23.9887 17.3589 23.3415 17.0355 22.5843C16.712 21.8271 16.6274 20.9938 16.7923 20.19C16.9572 19.3861 17.3642 18.6477 17.9619 18.0681C18.5595 17.4886 19.321 17.0939 20.15 16.934C20.979 16.7741 21.8383 16.8562 22.6192 17.1698C23.4 17.4835 24.0675 18.0146 24.5371 18.6961C25.0067 19.3776 25.2573 20.1788 25.2573 20.9984C25.2566 22.0973 24.8062 23.151 24.0049 23.928C23.2036 24.7051 22.117 25.1419 20.9837 25.1425V25.1425Z" fill="white"/>
<path d="M28.0167 15.8935C28.9708 15.8935 29.7443 15.1434 29.7443 14.2182C29.7443 13.293 28.9708 12.543 28.0167 12.543C27.0625 12.543 26.2891 13.293 26.2891 14.2182C26.2891 15.1434 27.0625 15.8935 28.0167 15.8935Z" fill="white"/>
</svg>
