<svg width="42" height="42" viewBox="0 0 42 42" fill="none" xmlns="http://www.w3.org/2000/svg">
<g clip-path="url(#clip0_0_4732)">
<rect x="0.03125" y="0.03125" width="41.9411" height="41.9411" rx="8" fill="#191919"/>
<path d="M32.4273 10.8757L31.9936 11.033L8.45419 19.5142C8.28738 19.5657 8.14239 19.6712 8.04197 19.8141C7.94154 19.9569 7.89134 20.129 7.89925 20.3034C7.90715 20.4779 7.97271 20.6447 8.08564 20.7779C8.19858 20.9111 8.3525 21.003 8.5233 21.0393L14.6167 22.7074L15.7534 26.0436L16.8901 29.3798C16.9554 29.5434 17.0596 29.6885 17.1937 29.8026C17.3278 29.9168 17.4878 29.9964 17.6597 30.0347C17.8316 30.073 18.0102 30.0687 18.1801 30.0223C18.3499 29.9759 18.5059 29.8887 18.6344 29.7683L21.7824 26.7943L27.9639 30.986C28.7194 31.5007 29.7965 31.1194 29.9895 30.2711L34.0835 12.1816C34.2837 11.2856 33.34 10.5493 32.4273 10.8757ZM29.4223 14.8911L18.7869 23.5843L18.2865 23.9942C18.1766 24.0814 18.1048 24.2078 18.0863 24.3469L17.9743 25.2715L17.6669 27.869C17.6695 27.9006 17.6593 27.9319 17.6388 27.9561C17.6182 27.9802 17.5889 27.9952 17.5573 27.9977C17.5257 28.0002 17.4944 27.9901 17.4703 27.9695C17.4461 27.949 17.4312 27.9197 17.4286 27.8881L16.5636 25.293L15.67 22.6359C15.6322 22.5165 15.6372 22.3876 15.6842 22.2715C15.7311 22.1553 15.8171 22.0592 15.9273 21.9996L26.994 15.6561L29.0768 14.4646C29.3794 14.2882 29.6892 14.6719 29.4223 14.8911Z" fill="white"/>
</g>
<defs>
<clipPath id="clip0_0_4732">
<rect width="41.9411" height="41.9411" fill="white" transform="translate(0.03125 0.03125)"/>
</clipPath>
</defs>
</svg>
