<svg width="43" height="42" viewBox="0 0 43 42" fill="none" xmlns="http://www.w3.org/2000/svg">
<rect x="0.699219" y="0.03125" width="41.9411" height="41.9411" rx="8" fill="#191919"/>
<path d="M33.4753 28.4919C32.8462 28.5777 29.7694 28.4919 29.6097 28.4919C28.8143 28.5017 28.047 28.2072 27.4741 27.6721C26.8253 27.0668 26.2454 26.3996 25.6113 25.7657C25.4238 25.5733 25.2208 25.3956 25.0043 25.2343C24.4981 24.8554 23.9968 24.9412 23.7584 25.5202C23.5721 26.146 23.4422 26.7863 23.3701 27.4338C23.3283 28.02 22.945 28.387 22.2667 28.4275C21.8465 28.449 21.4262 28.4561 21.0109 28.4466C19.4973 28.4372 18.0076 28.0803 16.6636 27.4052C15.2095 26.6194 13.9425 25.5452 12.9455 24.2525C11.3063 22.2222 9.99647 19.9917 8.82671 17.692C8.76527 17.5777 7.56602 15.1041 7.53653 14.9873C7.4284 14.5965 7.53653 14.2224 7.86829 14.0937C8.07963 14.0151 12.0313 14.0937 12.0976 14.0937C12.3914 14.0912 12.6784 14.1795 12.9169 14.3457C13.1555 14.512 13.3334 14.7475 13.4247 15.0183C14.1552 16.8321 15.1553 18.5325 16.3933 20.0655C16.5666 20.2705 16.7693 20.4503 16.9954 20.5993C17.3173 20.8114 17.622 20.7375 17.7547 20.3777C17.912 19.8784 18.0045 19.3621 18.03 18.8407C18.0521 17.8064 18.03 17.1249 17.971 16.093C17.9317 15.4306 17.6909 14.8491 16.6833 14.6632C16.3736 14.6108 16.3466 14.363 16.5457 14.1151C16.961 13.6004 17.5287 13.5194 18.1651 13.4884C19.1137 13.436 20.0623 13.4717 21.0109 13.4884H21.2173C21.6302 13.4869 22.042 13.5277 22.4461 13.6099C22.6849 13.6568 22.9018 13.7772 23.0643 13.9533C23.2268 14.1293 23.3263 14.3516 23.348 14.587C23.3965 14.8479 23.4171 15.1131 23.4094 15.3781C23.3848 16.5077 23.3283 17.6349 23.316 18.7644C23.3047 19.2116 23.3468 19.6586 23.4414 20.0965C23.5765 20.697 24.0017 20.8472 24.4244 20.4134C24.9717 19.8528 25.4737 19.2521 25.9259 18.6167C26.7255 17.4586 27.3852 16.2152 27.8919 14.9111C28.1671 14.2414 28.3834 14.0937 29.1206 14.0937H33.3131C33.5624 14.0894 33.8109 14.1216 34.0503 14.189C34.1351 14.2106 34.2143 14.2489 34.2831 14.3016C34.3518 14.3543 34.4086 14.4201 34.4499 14.4951C34.4912 14.57 34.5161 14.6524 34.5231 14.7371C34.53 14.8218 34.5188 14.907 34.4902 14.9873C34.2838 15.8786 33.7874 16.6387 33.2615 17.3703C32.4087 18.5428 31.5093 19.6842 30.6369 20.8376C30.5265 20.9906 30.4256 21.1497 30.3346 21.3142C30.0053 21.8885 30.0299 22.2102 30.5066 22.6892C31.2685 23.447 32.0819 24.1595 32.8167 24.9412C33.3562 25.5094 33.843 26.1226 34.2715 26.7737C34.8097 27.5816 34.4779 28.3537 33.4753 28.4919Z" fill="white"/>
</svg>
