<svg width="42" height="42" viewBox="0 0 42 42" fill="none" xmlns="http://www.w3.org/2000/svg">
<g clip-path="url(#clip0_0_4742)">
<rect x="0.0585938" y="0.03125" width="41.9411" height="41.9411" rx="8" fill="#191919"/>
<path d="M33.5232 14.6977C32.9989 13.0844 31.2641 12.1073 29.6675 11.8833C23.9247 11.2733 18.1334 11.2733 12.3906 11.8833C10.794 12.1073 9.05439 13.0748 8.5349 14.6977C7.71753 18.8624 7.71753 23.1463 8.5349 27.311C9.05916 28.9219 10.794 29.9013 12.3906 30.1253C18.1334 30.7354 23.9247 30.7354 29.6675 30.1253C31.2641 29.9013 33.0037 28.9338 33.5232 27.311C34.3405 23.1463 34.3405 18.8624 33.5232 14.6977ZM17.893 26.0265V15.9797L26.0715 21.0031C23.3144 22.6975 20.6382 24.3393 17.893 26.0265Z" fill="white"/>
</g>
<defs>
<clipPath id="clip0_0_4742">
<rect width="41.9411" height="41.9411" fill="white" transform="translate(0.0585938 0.03125)"/>
</clipPath>
</defs>
</svg>
