<svg width="64" height="64" viewBox="0 0 64 64" fill="none" xmlns="http://www.w3.org/2000/svg">
<g clip-path="url(#clip0_408_60)">
<path d="M35.2 64H28.8C28.5363 63.9083 28.2676 63.8319 27.9951 63.7711C14.5403 61.5557 5.61477 53.9889 1.32184 41.0437C0.696614 39.1557 0.430769 37.1495 0 35.2V28.8C0.0943104 28.5367 0.169179 28.2669 0.224001 27.9926C1.01833 21.7551 3.63144 15.8895 7.73743 11.1273C11.8434 6.36518 17.2606 2.91723 23.3132 1.21354C25.1151 0.708921 26.9686 0.398769 28.8 0H35.2C35.4643 0.0937938 35.7349 0.168651 36.0098 0.224001C49.2111 1.97908 59.7317 11.3206 63.0375 24.2634C63.4191 25.76 63.6825 27.2862 64 28.8V35.2C63.908 35.4653 63.8315 35.7357 63.7711 36.0098C61.4818 49.6591 53.7969 58.656 40.5637 62.8037C38.8209 63.3502 36.9895 63.6062 35.2 64ZM32.032 7.13846C18.3458 7.12123 7.17046 18.2154 7.14092 31.8695C7.10892 45.5951 18.1711 56.8123 31.7809 56.8542C45.6492 56.896 56.8222 45.8486 56.8566 32.0615C56.8644 28.7948 56.2283 25.5586 54.9846 22.5378C53.741 19.5171 51.9143 16.771 49.6088 14.4566C47.3033 12.1422 44.5644 10.3049 41.5484 9.04963C38.5325 7.79436 35.2987 7.14576 32.032 7.14092V7.13846Z" fill="black"/>
<path d="M44.2712 18.457C45.2755 20.6724 45.5192 22.9666 45.566 25.3075C45.566 25.6964 45.566 26.1863 45.7875 26.4546C48.3869 29.6817 48.4041 33.3247 47.5106 37.0835C46.43 41.5733 43.513 44.2736 39.0232 45.0835C34.5283 45.8533 29.9379 45.8841 25.433 45.1746C20.4115 44.4361 17.3715 41.3887 16.3574 36.4435C15.6337 32.9136 15.7617 29.5044 18.1764 26.521C18.398 26.2478 18.3906 25.7826 18.4472 25.3863C18.745 23.417 19.0134 21.4281 19.321 19.454C19.454 18.5998 19.9241 18.2232 20.798 18.622C22.7894 19.5573 24.766 20.5321 26.7746 21.4281C27.3483 21.6822 27.9664 21.821 28.5937 21.8367C30.8812 21.881 33.168 21.881 35.454 21.8367C36.0829 21.8477 36.7055 21.7093 37.2706 21.433C39.4589 20.1826 41.6324 18.8903 44.2712 18.457ZM32.2392 44.217C34.745 43.7961 37.369 43.5549 39.87 42.8804C42.8041 42.0927 44.1949 39.3161 43.6607 36.0546C43.1684 33.1007 41.241 31.4909 38.073 31.518C35.2472 31.5426 32.4238 31.6755 29.598 31.6976C28.249 31.71 26.8903 31.5081 25.5487 31.5327C23.742 31.5647 22.1912 32.1924 21.1672 33.8072C19.0232 37.1918 20.734 42.0583 24.5863 43.0256C27.038 43.6361 29.5881 43.8207 32.2392 44.217Z" fill="black"/>
<path d="M28.7537 37.3219C28.7684 39.045 27.7469 40.4801 26.4989 40.4875C25.2509 40.4948 24.1924 39.1238 24.1703 37.3859C24.1481 35.7022 25.1844 34.2499 26.4324 34.2155C27.6804 34.181 28.7389 35.6038 28.7537 37.3219Z" fill="black"/>
<path d="M39.8254 37.4282C39.8008 39.0873 38.799 40.4534 37.583 40.4854C36.367 40.5174 35.3257 39.2374 35.242 37.5316C35.1583 35.8258 36.1971 34.2627 37.482 34.2159C38.767 34.1691 39.8574 35.6633 39.8254 37.4282Z" fill="black"/>
</g>
<defs>
<clipPath id="clip0_408_60">
<rect width="64" height="64" fill="white"/>
</clipPath>
</defs>
</svg>
