<svg width="628" height="985" viewBox="0 0 628 985" fill="none" xmlns="http://www.w3.org/2000/svg">
<path d="M420.284 477.705L382.117 447.098L388.017 462.033L431.716 507.575L469.883 538.182L463.982 523.247L420.284 477.705Z" stroke="url(#paint0_linear)" stroke-width="2" stroke-miterlimit="10"/>
<path d="M420.468 477.152L380.089 443.963L385.62 459.451L431.531 508.312L471.911 541.501L466.38 525.829L420.468 477.152Z" stroke="url(#paint1_linear)" stroke-width="2" stroke-miterlimit="10"/>
<path d="M420.653 476.599L377.876 440.644L383.039 456.685L431.347 508.866L474.124 544.82L468.961 528.779L420.653 476.599Z" stroke="url(#paint2_linear)" stroke-width="2" stroke-miterlimit="10"/>
<path d="M421.022 476.046L375.48 436.957L380.458 453.735L430.979 509.419L476.521 548.323L471.543 531.729L421.022 476.046Z" stroke="url(#paint3_linear)" stroke-width="2" stroke-miterlimit="10"/>
<path d="M421.575 475.492L373.266 433.269L377.692 450.601L430.425 509.972L478.733 552.195L474.308 534.863L421.575 475.492Z" stroke="url(#paint4_linear)" stroke-width="2" stroke-miterlimit="10"/>
<path d="M422.128 474.755L370.87 429.397L374.927 447.098L429.873 510.525L481.131 556.067L477.074 538.182L422.128 474.755Z" stroke="url(#paint5_linear)" stroke-width="2" stroke-miterlimit="10"/>
<path d="M422.681 474.202L368.657 425.156L371.976 443.594L429.318 511.078L483.342 560.308L480.023 541.87L422.681 474.202Z" stroke="url(#paint6_linear)" stroke-width="2" stroke-miterlimit="10"/>
<path d="M423.419 473.833L366.261 420.731L368.842 439.722L428.582 511.631L485.74 564.549L483.159 545.557L423.419 473.833Z" stroke="url(#paint7_linear)" stroke-width="2" stroke-miterlimit="10"/>
<path d="M424.156 473.28L363.864 416.306L365.707 435.666L427.844 512.184L488.137 569.158L486.293 549.614L424.156 473.28Z" stroke="url(#paint8_linear)" stroke-width="2" stroke-miterlimit="10"/>
<path d="M425.078 472.727L361.467 411.512L362.388 431.425L426.922 512.553L490.534 573.952L489.612 554.039L425.078 472.727Z" stroke="url(#paint9_linear)" stroke-width="2" stroke-miterlimit="10"/>
<path d="M426.184 472.358L359.254 406.534L359.069 426.816L425.816 513.106L492.746 578.931L492.931 558.649L426.184 472.358Z" stroke="url(#paint10_linear)" stroke-width="2" stroke-miterlimit="10"/>
<path d="M427.291 471.989L356.857 401.371L355.567 422.022L424.71 513.475L495.144 584.093L496.434 563.442L427.291 471.989Z" stroke="url(#paint11_linear)" stroke-width="2" stroke-miterlimit="10"/>
<path d="M428.766 471.62L354.644 395.839L351.879 416.859L423.234 513.844L497.356 589.625L500.122 568.421L428.766 471.62Z" stroke="url(#paint12_linear)" stroke-width="2" stroke-miterlimit="10"/>
<path d="M430.241 471.436L352.432 390.124L348.191 411.512L421.76 514.028L499.569 595.156L503.81 573.952L430.241 471.436Z" stroke="url(#paint13_linear)" stroke-width="2" stroke-miterlimit="10"/>
<path d="M431.9 471.252L350.404 384.408L344.319 405.796L420.1 514.213L501.781 601.056L507.681 579.668L431.9 471.252Z" stroke="url(#paint14_linear)" stroke-width="2" stroke-miterlimit="10"/>
<path d="M433.929 471.067L348.375 378.139L340.447 399.712L418.072 514.213L503.625 607.141L511.553 585.568L433.929 471.067Z" stroke="url(#paint15_linear)" stroke-width="2" stroke-miterlimit="10"/>
<path d="M435.956 471.067L346.531 371.87L336.575 393.443L416.043 514.213L505.468 613.594L515.425 592.022L435.956 471.067Z" stroke="url(#paint16_linear)" stroke-width="2" stroke-miterlimit="10"/>
<path d="M438.354 471.252L344.688 365.417L332.518 386.805L413.646 514.213L507.312 620.048L519.482 598.659L438.354 471.252Z" stroke="url(#paint17_linear)" stroke-width="2" stroke-miterlimit="10"/>
<path d="M440.935 471.436L343.213 358.594L328.462 379.798L411.065 513.844L508.788 626.87L523.722 605.666L440.935 471.436Z" stroke="url(#paint18_linear)" stroke-width="2" stroke-miterlimit="10"/>
<path d="M443.701 471.989L341.922 351.588L324.221 372.423L408.299 513.475L510.078 633.692L527.779 613.041L443.701 471.989Z" stroke="url(#paint19_linear)" stroke-width="2" stroke-miterlimit="10"/>
<path d="M447.02 472.542L341 344.397L320.165 364.679L404.981 512.922L511 640.883L531.835 620.785L447.02 472.542Z" stroke="url(#paint20_linear)" stroke-width="2" stroke-miterlimit="10"/>
<path d="M450.338 473.28L340.262 337.022L315.924 356.566L401.661 512.184L511.737 648.258L536.076 628.714L450.338 473.28Z" stroke="url(#paint21_linear)" stroke-width="2" stroke-miterlimit="10"/>
<path d="M454.211 474.202L339.894 329.646L311.683 348.085L397.79 511.262L512.106 655.818L540.317 637.195L454.211 474.202Z" stroke="url(#paint22_linear)" stroke-width="2" stroke-miterlimit="10"/>
<path d="M458.452 475.308L340.078 321.902L307.627 339.234L393.549 510.156L511.922 663.562L544.373 646.045L458.452 475.308Z" stroke="url(#paint23_linear)" stroke-width="2" stroke-miterlimit="10"/>
<path d="M462.877 476.599L340.632 313.974L303.571 330.015L389.124 508.681L511.369 671.306L548.43 655.265L462.877 476.599Z" stroke="url(#paint24_linear)" stroke-width="2" stroke-miterlimit="10"/>
<path d="M467.855 478.258L341.553 306.046L299.698 320.427L384.145 507.022L510.447 679.419L552.302 665.037L467.855 478.258Z" stroke="url(#paint25_linear)" stroke-width="2" stroke-miterlimit="10"/>
<path d="M473.386 480.286L343.212 297.933L295.826 310.471L378.614 505.178L508.787 687.347L556.173 674.994L473.386 480.286Z" stroke="url(#paint26_linear)" stroke-width="2" stroke-miterlimit="10"/>
<path d="M479.286 482.683L345.425 289.82L292.139 299.961L372.714 502.781L506.575 695.46L559.861 685.503L479.286 482.683Z" stroke="url(#paint27_linear)" stroke-width="2" stroke-miterlimit="10"/>
<path d="M485.74 485.265L348.375 281.707L288.635 289.267L366.26 500.2L503.625 703.757L563.364 696.197L485.74 485.265Z" stroke="url(#paint28_linear)" stroke-width="2" stroke-miterlimit="10"/>
<path d="M492.746 488.215L352.063 273.594L285.501 278.02L359.254 497.065L499.937 711.87L566.499 707.445L492.746 488.215Z" stroke="url(#paint29_linear)" stroke-width="2" stroke-miterlimit="10"/>
<path d="M500.306 491.718L356.857 265.482L282.551 266.404L351.694 493.562L495.143 719.983L569.449 719.061L500.306 491.718Z" stroke="url(#paint30_linear)" stroke-width="2" stroke-miterlimit="10"/>
<path d="M508.419 495.774L362.388 257.369L279.969 254.419L343.581 489.69L489.612 727.911L572.03 731.046L508.419 495.774Z" stroke="url(#paint31_linear)" stroke-width="2" stroke-miterlimit="10"/>
<path d="M517.269 500.2L369.21 249.625L277.941 242.065L334.731 485.265L482.789 735.839L574.058 743.215L517.269 500.2Z" stroke="url(#paint32_linear)" stroke-width="2" stroke-miterlimit="10"/>
<path d="M526.857 505.178L376.954 241.881L276.282 229.527L325.143 480.286L475.046 743.399L575.718 755.937L526.857 505.178Z" stroke="url(#paint33_linear)" stroke-width="2" stroke-miterlimit="10"/>
<path d="M537.182 510.894L386.174 234.505L275.176 216.436L314.818 474.57L465.827 750.774L576.824 769.028L537.182 510.894Z" stroke="url(#paint34_linear)" stroke-width="2" stroke-miterlimit="10"/>
<path d="M548.245 517.163L396.867 227.499L274.622 203.161L303.755 468.301L455.132 757.965L577.377 782.304L548.245 517.163Z" stroke="url(#paint35_linear)" stroke-width="2" stroke-miterlimit="10"/>
<path d="M560.23 524.169L409.037 220.861L274.807 189.516L291.77 461.295L442.963 764.419L577.193 795.948L560.23 524.169Z" stroke="url(#paint36_linear)" stroke-width="2" stroke-miterlimit="10"/>
<path d="M573.136 531.913L423.05 214.777L275.913 175.688L278.863 453.551L428.95 770.503L576.087 809.777L573.136 531.913Z" stroke="url(#paint37_linear)" stroke-width="2" stroke-miterlimit="10"/>
<path d="M586.965 540.395L438.907 209.429L277.942 161.675L265.035 444.885L413.093 776.035L574.059 823.789L586.965 540.395Z" stroke="url(#paint38_linear)" stroke-width="2" stroke-miterlimit="10"/>
<path d="M601.9 549.983L456.792 204.636L280.892 147.477L250.1 435.482L395.208 780.644L571.109 837.987L601.9 549.983Z" stroke="url(#paint39_linear)" stroke-width="2" stroke-miterlimit="10"/>
<path d="M617.757 560.492L476.889 200.948L285.132 133.095L234.243 424.972L375.11 784.516L566.867 852.184L617.757 560.492Z" stroke="url(#paint40_linear)" stroke-width="2" stroke-miterlimit="10"/>
<path d="M634.905 571.924L499.568 197.998L290.664 118.714L217.096 413.356L352.432 787.282L561.336 866.566L634.905 571.924Z" stroke="url(#paint41_linear)" stroke-width="2" stroke-miterlimit="10"/>
<path d="M653.158 584.646L524.644 196.338L297.486 104.516L198.842 400.818L327.356 788.941L554.514 880.948L653.158 584.646Z" stroke="url(#paint42_linear)" stroke-width="2" stroke-miterlimit="10"/>
<path d="M672.703 598.475L552.67 195.97L305.967 90.1344L179.297 386.805L299.33 789.31L546.032 895.145L672.703 598.475Z" stroke="url(#paint43_linear)" stroke-width="2" stroke-miterlimit="10"/>
<path d="M693.538 613.779L583.83 197.076L316.292 76.1216L158.462 371.686L268.169 788.204L535.707 909.343L693.538 613.779Z" stroke="url(#paint44_linear)" stroke-width="2" stroke-miterlimit="10"/>
<path d="M715.848 630.373L618.31 200.026L328.462 62.2928L136.152 355.091L233.69 785.438L523.538 922.987L715.848 630.373Z" stroke="url(#paint45_linear)" stroke-width="2" stroke-miterlimit="10"/>
<path d="M739.633 648.443L656.477 204.636L342.843 49.0173L112.366 337.022L195.522 780.829L509.156 936.447L739.633 648.443Z" stroke="url(#paint46_linear)" stroke-width="2" stroke-miterlimit="10"/>
<path d="M764.894 668.171L698.516 211.458L359.438 36.1106L87.1063 317.293L153.484 773.822L492.562 949.354L764.894 668.171Z" stroke="url(#paint47_linear)" stroke-width="2" stroke-miterlimit="10"/>
<path d="M791.998 689.56L744.612 220.677L378.798 23.9414L60.0024 295.905L107.389 764.787L473.202 961.523L791.998 689.56Z" stroke="url(#paint48_linear)" stroke-width="2" stroke-miterlimit="10"/>
<path d="M820.577 712.792L795.317 232.477L400.74 12.5098L31.4229 272.672L56.6832 752.803L451.26 972.954L820.577 712.792Z" stroke="url(#paint49_linear)" stroke-width="2" stroke-miterlimit="10"/>
<path d="M851 738.052V247.412L426 2L1 247.412V738.052L426 983.464L851 738.052Z" stroke="url(#paint50_linear)" stroke-width="2" stroke-miterlimit="10"/>
<defs>
<linearGradient id="paint0_linear" x1="426" y1="447.098" x2="426" y2="538.182" gradientUnits="userSpaceOnUse">
<stop stop-color="#00FFCA"/>
<stop offset="1"/>
</linearGradient>
<linearGradient id="paint1_linear" x1="426" y1="443.963" x2="426" y2="541.501" gradientUnits="userSpaceOnUse">
<stop stop-color="#00FFCA"/>
<stop offset="1"/>
</linearGradient>
<linearGradient id="paint2_linear" x1="426" y1="440.644" x2="426" y2="544.82" gradientUnits="userSpaceOnUse">
<stop stop-color="#00FFCA"/>
<stop offset="1"/>
</linearGradient>
<linearGradient id="paint3_linear" x1="426" y1="436.957" x2="426" y2="548.323" gradientUnits="userSpaceOnUse">
<stop stop-color="#00FFCA"/>
<stop offset="1"/>
</linearGradient>
<linearGradient id="paint4_linear" x1="426" y1="433.269" x2="426" y2="552.195" gradientUnits="userSpaceOnUse">
<stop stop-color="#00FFCA"/>
<stop offset="1"/>
</linearGradient>
<linearGradient id="paint5_linear" x1="426" y1="429.397" x2="426" y2="556.067" gradientUnits="userSpaceOnUse">
<stop stop-color="#00FFCA"/>
<stop offset="1"/>
</linearGradient>
<linearGradient id="paint6_linear" x1="426" y1="425.156" x2="426" y2="560.308" gradientUnits="userSpaceOnUse">
<stop stop-color="#00FFCA"/>
<stop offset="1"/>
</linearGradient>
<linearGradient id="paint7_linear" x1="426" y1="420.731" x2="426" y2="564.549" gradientUnits="userSpaceOnUse">
<stop stop-color="#00FFCA"/>
<stop offset="1"/>
</linearGradient>
<linearGradient id="paint8_linear" x1="426" y1="416.306" x2="426" y2="569.158" gradientUnits="userSpaceOnUse">
<stop stop-color="#00FFCA"/>
<stop offset="1"/>
</linearGradient>
<linearGradient id="paint9_linear" x1="426" y1="411.512" x2="426" y2="573.952" gradientUnits="userSpaceOnUse">
<stop stop-color="#00FFCA"/>
<stop offset="1"/>
</linearGradient>
<linearGradient id="paint10_linear" x1="426" y1="406.534" x2="426" y2="578.931" gradientUnits="userSpaceOnUse">
<stop stop-color="#00FFCA"/>
<stop offset="1"/>
</linearGradient>
<linearGradient id="paint11_linear" x1="426" y1="401.371" x2="426" y2="584.093" gradientUnits="userSpaceOnUse">
<stop stop-color="#00FFCA"/>
<stop offset="1"/>
</linearGradient>
<linearGradient id="paint12_linear" x1="426" y1="395.839" x2="426" y2="589.625" gradientUnits="userSpaceOnUse">
<stop stop-color="#00FFCA"/>
<stop offset="1"/>
</linearGradient>
<linearGradient id="paint13_linear" x1="426" y1="390.124" x2="426" y2="595.156" gradientUnits="userSpaceOnUse">
<stop stop-color="#00FFCA"/>
<stop offset="1"/>
</linearGradient>
<linearGradient id="paint14_linear" x1="426" y1="384.408" x2="426" y2="601.056" gradientUnits="userSpaceOnUse">
<stop stop-color="#00FFCA"/>
<stop offset="1"/>
</linearGradient>
<linearGradient id="paint15_linear" x1="426" y1="378.139" x2="426" y2="607.141" gradientUnits="userSpaceOnUse">
<stop stop-color="#00FFCA"/>
<stop offset="1"/>
</linearGradient>
<linearGradient id="paint16_linear" x1="426" y1="371.87" x2="426" y2="613.594" gradientUnits="userSpaceOnUse">
<stop stop-color="#00FFCA"/>
<stop offset="1"/>
</linearGradient>
<linearGradient id="paint17_linear" x1="426" y1="365.417" x2="426" y2="620.048" gradientUnits="userSpaceOnUse">
<stop stop-color="#00FFCA"/>
<stop offset="1"/>
</linearGradient>
<linearGradient id="paint18_linear" x1="426.092" y1="358.594" x2="426.092" y2="626.87" gradientUnits="userSpaceOnUse">
<stop stop-color="#00FFCA"/>
<stop offset="1"/>
</linearGradient>
<linearGradient id="paint19_linear" x1="426" y1="351.588" x2="426" y2="633.692" gradientUnits="userSpaceOnUse">
<stop stop-color="#00FFCA"/>
<stop offset="1"/>
</linearGradient>
<linearGradient id="paint20_linear" x1="426" y1="344.397" x2="426" y2="640.883" gradientUnits="userSpaceOnUse">
<stop stop-color="#00FFCA"/>
<stop offset="1"/>
</linearGradient>
<linearGradient id="paint21_linear" x1="426" y1="337.022" x2="426" y2="648.258" gradientUnits="userSpaceOnUse">
<stop stop-color="#00FFCA"/>
<stop offset="1"/>
</linearGradient>
<linearGradient id="paint22_linear" x1="426" y1="329.646" x2="426" y2="655.818" gradientUnits="userSpaceOnUse">
<stop stop-color="#00FFCA"/>
<stop offset="1"/>
</linearGradient>
<linearGradient id="paint23_linear" x1="426" y1="321.902" x2="426" y2="663.562" gradientUnits="userSpaceOnUse">
<stop stop-color="#00FFCA"/>
<stop offset="1"/>
</linearGradient>
<linearGradient id="paint24_linear" x1="426" y1="313.974" x2="426" y2="671.306" gradientUnits="userSpaceOnUse">
<stop stop-color="#00FFCA"/>
<stop offset="1"/>
</linearGradient>
<linearGradient id="paint25_linear" x1="426" y1="306.046" x2="426" y2="679.419" gradientUnits="userSpaceOnUse">
<stop stop-color="#00FFCA"/>
<stop offset="1"/>
</linearGradient>
<linearGradient id="paint26_linear" x1="426" y1="297.933" x2="426" y2="687.347" gradientUnits="userSpaceOnUse">
<stop stop-color="#00FFCA"/>
<stop offset="1"/>
</linearGradient>
<linearGradient id="paint27_linear" x1="426" y1="289.82" x2="426" y2="695.46" gradientUnits="userSpaceOnUse">
<stop stop-color="#00FFCA"/>
<stop offset="1"/>
</linearGradient>
<linearGradient id="paint28_linear" x1="426" y1="281.707" x2="426" y2="703.757" gradientUnits="userSpaceOnUse">
<stop stop-color="#00FFCA"/>
<stop offset="1"/>
</linearGradient>
<linearGradient id="paint29_linear" x1="426" y1="273.594" x2="426" y2="711.87" gradientUnits="userSpaceOnUse">
<stop stop-color="#00FFCA"/>
<stop offset="1"/>
</linearGradient>
<linearGradient id="paint30_linear" x1="426" y1="265.482" x2="426" y2="719.983" gradientUnits="userSpaceOnUse">
<stop stop-color="#00FFCA"/>
<stop offset="1"/>
</linearGradient>
<linearGradient id="paint31_linear" x1="426" y1="254.419" x2="426" y2="731.046" gradientUnits="userSpaceOnUse">
<stop stop-color="#00FFCA"/>
<stop offset="1"/>
</linearGradient>
<linearGradient id="paint32_linear" x1="426" y1="242.065" x2="426" y2="743.215" gradientUnits="userSpaceOnUse">
<stop stop-color="#00FFCA"/>
<stop offset="1"/>
</linearGradient>
<linearGradient id="paint33_linear" x1="426" y1="229.527" x2="426" y2="755.937" gradientUnits="userSpaceOnUse">
<stop stop-color="#00FFCA"/>
<stop offset="1"/>
</linearGradient>
<linearGradient id="paint34_linear" x1="426" y1="216.436" x2="426" y2="769.028" gradientUnits="userSpaceOnUse">
<stop stop-color="#00FFCA"/>
<stop offset="1"/>
</linearGradient>
<linearGradient id="paint35_linear" x1="426" y1="203.161" x2="426" y2="782.304" gradientUnits="userSpaceOnUse">
<stop stop-color="#00FFCA"/>
<stop offset="1"/>
</linearGradient>
<linearGradient id="paint36_linear" x1="426" y1="189.516" x2="426" y2="795.948" gradientUnits="userSpaceOnUse">
<stop stop-color="#00FFCA"/>
<stop offset="1"/>
</linearGradient>
<linearGradient id="paint37_linear" x1="426" y1="175.688" x2="426" y2="809.777" gradientUnits="userSpaceOnUse">
<stop stop-color="#00FFCA"/>
<stop offset="1"/>
</linearGradient>
<linearGradient id="paint38_linear" x1="426" y1="161.675" x2="426" y2="823.789" gradientUnits="userSpaceOnUse">
<stop stop-color="#00FFCA"/>
<stop offset="1"/>
</linearGradient>
<linearGradient id="paint39_linear" x1="426" y1="147.477" x2="426" y2="837.987" gradientUnits="userSpaceOnUse">
<stop stop-color="#00FFCA"/>
<stop offset="1"/>
</linearGradient>
<linearGradient id="paint40_linear" x1="426" y1="133.095" x2="426" y2="852.184" gradientUnits="userSpaceOnUse">
<stop stop-color="#00FFCA"/>
<stop offset="1"/>
</linearGradient>
<linearGradient id="paint41_linear" x1="426" y1="118.714" x2="426" y2="866.566" gradientUnits="userSpaceOnUse">
<stop stop-color="#00FFCA"/>
<stop offset="1"/>
</linearGradient>
<linearGradient id="paint42_linear" x1="426" y1="104.516" x2="426" y2="880.948" gradientUnits="userSpaceOnUse">
<stop stop-color="#00FFCA"/>
<stop offset="1"/>
</linearGradient>
<linearGradient id="paint43_linear" x1="426" y1="90.1344" x2="426" y2="895.145" gradientUnits="userSpaceOnUse">
<stop stop-color="#00FFCA"/>
<stop offset="1"/>
</linearGradient>
<linearGradient id="paint44_linear" x1="426" y1="76.1216" x2="426" y2="909.343" gradientUnits="userSpaceOnUse">
<stop stop-color="#00FFCA"/>
<stop offset="1"/>
</linearGradient>
<linearGradient id="paint45_linear" x1="426" y1="62.2928" x2="426" y2="922.987" gradientUnits="userSpaceOnUse">
<stop stop-color="#00FFCA"/>
<stop offset="1"/>
</linearGradient>
<linearGradient id="paint46_linear" x1="425.999" y1="49.0173" x2="425.999" y2="936.447" gradientUnits="userSpaceOnUse">
<stop stop-color="#00FFCA"/>
<stop offset="1"/>
</linearGradient>
<linearGradient id="paint47_linear" x1="426" y1="36.1106" x2="426" y2="949.354" gradientUnits="userSpaceOnUse">
<stop stop-color="#00FFCA"/>
<stop offset="1"/>
</linearGradient>
<linearGradient id="paint48_linear" x1="426" y1="23.9414" x2="426" y2="961.523" gradientUnits="userSpaceOnUse">
<stop stop-color="#00FFCA"/>
<stop offset="1"/>
</linearGradient>
<linearGradient id="paint49_linear" x1="426" y1="12.5098" x2="426" y2="972.954" gradientUnits="userSpaceOnUse">
<stop stop-color="#00FFCA"/>
<stop offset="1"/>
</linearGradient>
<linearGradient id="paint50_linear" x1="426" y1="2" x2="426" y2="983.464" gradientUnits="userSpaceOnUse">
<stop stop-color="#00FFCA"/>
<stop offset="1"/>
</linearGradient>
</defs>
</svg>
