<svg width="130" height="111" viewBox="0 0 130 111" fill="none" xmlns="http://www.w3.org/2000/svg">
<path d="M7.44629 33.7822C6.64728 31.1411 8.13894 28.3519 10.7793 27.5502L96.6779 1.46577C99.3349 0.658929 102.14 2.17168 102.926 4.83496L118.076 56.1743C118.861 58.8351 117.33 61.6265 114.664 62.3941L28.7408 87.1363C26.1123 87.8932 23.3635 86.3975 22.5715 83.7794L7.44629 33.7822Z" fill="#D9F2ED"/>
<path d="M9.3341 43.3454C10.1118 45.7245 10.84 48.1181 11.5944 50.5038L13.7737 57.6855C15.2189 62.4755 16.5943 67.2857 18.0081 72.0846C19.3593 76.9017 20.7436 81.7089 22.0637 86.5349L24.0284 93.7784C24.6548 96.2009 25.3081 98.6158 25.9114 101.045C25.9637 101.256 25.8352 101.469 25.6247 101.521C25.4239 101.571 25.2205 101.455 25.1568 101.262C24.3804 98.8821 23.6539 96.488 22.9011 94.1018L20.7269 86.9188C19.2875 82.1271 17.9131 77.3168 16.5049 72.516C15.1597 67.6973 13.7759 62.8896 12.462 58.0621L10.5026 50.8171C9.87746 48.3941 9.22619 45.9787 8.62418 43.549C8.57518 43.351 8.69604 43.1509 8.89408 43.1017C9.08299 43.0549 9.27418 43.1636 9.3341 43.3454Z" fill="#4B4B4B"/>
<path d="M6.81619 47.356C7.53881 49.5434 8.21217 51.745 8.91117 53.9388L10.9257 60.5449C12.2607 64.9512 13.5262 69.3775 14.8297 73.7927C16.0711 78.2259 17.3452 82.6495 18.5553 87.0918L20.3545 93.7594C20.926 95.9903 21.5242 98.2132 22.0722 100.451C22.1237 100.661 21.995 100.874 21.7842 100.926C21.5842 100.975 21.3818 100.859 21.3176 100.667C20.5965 98.4795 19.9249 96.2774 19.2271 94.0832L17.2182 87.4755C15.8893 83.0674 14.6246 78.6411 13.3269 74.2239C12.0914 69.7891 10.818 65.3651 9.61399 60.9212L7.81988 54.2518C7.24961 52.0207 6.65344 49.7973 6.10652 47.5594C6.05828 47.3613 6.17965 47.1612 6.37744 47.113C6.56584 47.0673 6.75602 47.1757 6.81619 47.356Z" fill="#4B4B4B"/>
<path d="M90.513 57.2463C90.4652 56.956 90.192 56.7615 89.9018 56.8075C74.3709 59.3542 62.2671 66.6032 62.1468 66.6761C61.546 67.0399 62.0968 67.9492 62.698 67.5869C62.8166 67.5147 74.7436 60.3713 90.074 57.8577C90.3637 57.8097 90.5604 57.5365 90.513 57.2463Z" fill="#4B4B4B"/>
<path d="M83.4503 32.6391C83.4099 32.3481 83.1453 32.1417 82.85 32.1856C67.1906 34.3595 55.2834 42.3627 55.1648 42.4426C54.9221 42.6082 54.8591 42.939 55.0242 43.1823C55.1275 43.3334 55.2943 43.4146 55.4649 43.4146C55.5675 43.4146 55.6721 43.3851 55.7638 43.3229C55.8798 43.2435 67.5806 35.3795 82.9968 33.2393C83.2878 33.1987 83.4906 32.9298 83.4503 32.6391Z" fill="#4B4B4B"/>
<path d="M85.2437 38.8911C85.2041 38.6001 84.9332 38.3912 84.6435 38.4376C68.9848 40.6116 57.0773 48.6147 56.9588 48.6949C56.716 48.8605 56.6531 49.1911 56.8181 49.4343C56.9214 49.5854 57.0883 49.6666 57.2589 49.6666C57.3615 49.6666 57.4661 49.6372 57.5577 49.575C57.6738 49.4955 69.3745 41.6315 84.7902 39.4913C85.0809 39.451 85.2838 39.1821 85.2437 38.8911Z" fill="#4B4B4B"/>
<path d="M87.0374 45.143C86.9975 44.8528 86.7281 44.6474 86.4372 44.6896C70.7785 46.8635 58.871 54.8666 58.7525 54.9469C58.5097 55.1124 58.4468 55.4433 58.6118 55.6863C58.7151 55.8373 58.882 55.9186 59.0526 55.9186C59.1552 55.9186 59.2598 55.8894 59.3514 55.8269C59.4677 55.7475 71.1685 47.8835 86.5839 45.7433C86.8749 45.7029 87.0778 45.434 87.0374 45.143Z" fill="#4B4B4B"/>
<path d="M88.8138 51.3251C88.7691 51.0342 88.4972 50.8356 88.2075 50.8803C72.624 53.2736 60.6005 60.8319 60.4806 60.9076C60.2326 61.0653 60.1597 61.3941 60.3174 61.6421C60.4182 61.8016 60.5906 61.8892 60.7665 61.8892C60.8643 61.8892 60.9628 61.8623 61.0514 61.8054C61.1695 61.7307 73.0041 54.2918 88.3687 51.9312C88.6594 51.8868 88.8585 51.6156 88.8138 51.3251Z" fill="#4B4B4B"/>
<path d="M94.7867 73.8593C79.3076 76.5545 67.1254 83.5022 67.0038 83.572C66.3936 83.9239 66.9281 84.8461 67.5349 84.4937C67.6548 84.4246 79.6831 77.5692 94.969 74.9069C95.2587 74.8569 95.4525 74.5812 95.4025 74.292C95.3519 74.0023 95.0709 73.8098 94.7867 73.8593Z" fill="#4B4B4B"/>
<path d="M56.0894 74.6235C55.9487 74.6261 41.8602 74.9531 27.3357 80.9981C27.0643 81.1111 26.9361 81.4229 27.0486 81.6936C27.1341 81.8982 27.3317 82.0219 27.5399 82.0219C27.6084 82.0219 27.6775 82.0084 27.744 81.981C42.0753 76.0167 55.9701 75.6902 56.1089 75.6871C56.7879 75.6742 56.8234 74.639 56.0894 74.6235Z" fill="#4B4B4B"/>
<path d="M52.7952 64.1754C53.0875 64.1754 53.3252 63.9401 53.3269 63.6473C53.3295 63.3538 53.0928 63.1136 52.7996 63.1118C52.6475 63.1161 38.4566 63.0753 23.9733 69.3071C23.7031 69.4232 23.5785 69.7362 23.6945 70.0064C23.7814 70.2075 23.9774 70.3283 24.1833 70.3283C24.2536 70.3283 24.3252 70.3144 24.3935 70.2849C38.4033 64.2564 52.1425 64.1752 52.7701 64.1752C52.7861 64.1754 52.7902 64.1749 52.7952 64.1754Z" fill="#4B4B4B"/>
<path d="M57.6802 80.2056C57.5403 80.2104 43.528 80.7789 28.9743 86.6992C28.7024 86.8099 28.5716 87.1205 28.682 87.3924C28.7658 87.5988 28.9652 87.7242 29.1746 87.7242C29.2419 87.7242 29.3097 87.7113 29.375 87.6846C43.7471 81.8382 57.5804 81.274 57.7178 81.2692C58.3942 81.2435 58.414 80.2223 57.6802 80.2056Z" fill="#4B4B4B"/>
<path d="M54.6964 69.4862C54.6921 69.1952 54.455 68.9624 54.1647 68.9624C54.1622 68.9624 54.1599 68.9624 54.1569 68.9624C54.0193 68.9642 40.1984 69.2295 25.9735 75.1806C25.7028 75.2943 25.5751 75.6054 25.6881 75.8768C25.7737 76.0809 25.971 76.2038 26.1789 76.2038C26.2475 76.2038 26.317 76.1904 26.3843 76.1622C40.4119 70.2939 54.0365 70.0286 54.1729 70.026C54.4661 70.0214 54.7007 69.7802 54.6964 69.4862Z" fill="#4B4B4B"/>
<path d="M49.2673 51.9536C49.5697 51.9592 49.8081 51.736 49.8191 51.442C49.83 51.1487 49.6015 50.9017 49.3082 50.89C49.1627 50.8826 34.8236 50.4122 20.3959 56.8698C20.1283 56.9896 20.0079 57.3042 20.1283 57.5726C20.2164 57.7699 20.4106 57.8872 20.6135 57.8872C20.6861 57.8872 20.7602 57.8719 20.8311 57.8402C35.0252 51.488 49.1198 51.9506 49.2673 51.9536Z" fill="#4B4B4B"/>
<path d="M51.0615 58.206C51.3456 58.2139 51.6023 57.9879 51.6133 57.6947C51.6242 57.4011 51.3957 57.1543 51.1024 57.1427C50.9595 57.1378 36.6178 56.6648 22.1901 63.1224C21.9222 63.2423 21.8018 63.5569 21.9222 63.8252C22.0103 64.0225 22.2045 64.1401 22.4074 64.1401C22.48 64.1401 22.5542 64.1248 22.625 64.0931C36.8197 57.7404 50.9143 58.2012 51.0615 58.206Z" fill="#4B4B4B"/>
<path d="M59.2994 85.7881C54.2708 85.7881 41.1677 87.9719 30.5732 92.2812C30.3012 92.3919 30.1705 92.7022 30.2809 92.9744C30.3647 93.1811 30.564 93.3063 30.7735 93.3063C30.84 93.3063 30.9086 93.2933 30.9738 93.2664C45.346 87.4207 59.1798 86.8565 59.3172 86.8517C60.0101 86.8255 59.9893 85.7881 59.2994 85.7881Z" fill="#4B4B4B"/>
<path d="M22.8132 49.4599C22.6034 49.5201 22.3015 49.7075 19.9641 50.5908L19.9176 50.473C19.23 48.4697 18.9225 47.7945 18.1687 45.9616C18.3353 45.8123 19.016 45.5289 19.3318 45.5259C19.7422 46.6756 20.3127 47.9362 20.7349 49.0735L20.7375 49.0806C20.9045 48.9539 22.4021 48.4999 22.623 48.3826C22.6408 48.4288 22.6618 48.4811 22.6725 48.5298C22.6989 48.6182 22.7301 48.7195 22.7659 48.7886C23.0498 49.4046 23.0153 49.3804 22.8132 49.4599Z" fill="#4B4B4B"/>
<path d="M26.1209 47.3569C26.2377 47.6374 26.3444 47.9586 26.3517 48.2532C25.3483 48.5774 24.3025 48.9971 23.3282 49.2368C22.8148 47.6834 22.2329 46.2199 21.8213 44.6551C22.9453 44.2244 24.8438 43.5681 24.857 43.6082C25.0124 43.906 25.067 44.2442 25.1711 44.5588L25.1734 44.5652C24.5896 44.8993 23.9008 45.0151 23.2703 45.2832L23.2482 45.2901L23.2432 45.2992C23.3371 45.5577 23.3635 45.8611 23.5095 46.08L23.5189 46.0843C23.8203 46.0071 24.1275 45.8982 24.4317 45.8053L24.4335 45.8119C24.5851 46.0957 24.6404 46.4118 24.7559 46.7376C24.4787 46.9108 23.9683 46.9976 23.8896 47.1053C23.9241 47.3835 24.0732 47.7355 24.1661 47.9426L24.1755 47.9465C24.8235 47.7324 25.4527 47.5846 26.1164 47.3429L26.1209 47.3569Z" fill="#4B4B4B"/>
<path d="M29.0842 44.051C28.7478 44.2021 28.336 44.344 27.9602 44.3519C27.9439 43.8225 26.9209 43.9053 26.9783 44.4385C26.9727 44.5058 27.0047 44.5626 27.0288 44.622C27.1708 44.8173 27.3782 44.8117 27.5956 44.7815C28.1417 44.6903 28.6876 44.8333 29.0857 45.1413C29.5494 45.4526 29.7172 46.0355 29.6065 46.5705C29.5199 47.1946 28.9959 47.6011 28.3768 47.7489C27.4963 47.9685 26.406 47.7189 26.2288 46.8386L26.2235 46.8181L26.2176 46.7978C26.5561 46.6538 27.0255 46.5759 27.3604 46.4771C27.5565 47.0448 28.6523 46.7592 28.3596 46.1589C28.1801 45.7402 27.5722 45.8408 27.1327 45.8809C26.9217 45.9022 26.7328 45.8588 26.5606 45.7893C25.4219 45.2456 25.5389 43.8824 26.3976 43.2591C26.8336 42.9422 27.5463 42.8127 28.0795 42.8785C28.6193 42.9716 29.0479 43.3299 29.0923 44.0492L29.0842 44.051Z" fill="#4B4B4B"/>
<path d="M33.0271 43.1844C32.6826 43.3169 32.2644 43.4368 31.8884 43.4251C31.9006 42.8952 30.8745 42.9236 30.9035 43.4584C30.8941 43.5257 30.923 43.5846 30.9436 43.6447C31.0749 43.8468 31.2826 43.8524 31.5007 43.8339C32.0511 43.7719 32.5884 43.9436 32.9693 44.2719C33.4151 44.6081 33.5515 45.1991 33.4121 45.7275C33.2917 46.3458 32.7471 46.7241 32.1207 46.8389C31.2295 47.0108 30.1547 46.7033 30.0255 45.8149L30.0211 45.794L30.0163 45.7735C30.3624 45.6478 30.8352 45.5952 31.1746 45.5145C31.3397 46.0921 32.4493 45.8649 32.1893 45.2504C32.0328 44.8224 31.4207 44.8904 30.9796 44.9074C30.7676 44.9176 30.5813 44.864 30.4132 44.7855C29.3061 44.1815 29.4961 42.8266 30.3875 42.25C30.8397 41.957 31.5583 41.8656 32.0864 41.9601C32.6206 42.0819 33.0292 42.4625 33.0348 43.1829L33.0271 43.1844Z" fill="#4B4B4B"/>
<path d="M36.8938 42.1444C36.9542 42.3706 36.992 42.6002 37.022 42.8315C37.072 43.3304 37.1761 43.7778 37.2165 44.2645L37.231 44.4979C37.2609 44.829 37.2325 45.1832 37.0928 45.4845C36.9529 45.7364 36.6747 45.9098 36.3728 46.0373C36.1018 46.1597 35.8129 46.2211 35.5105 46.2488C35.0834 46.2821 34.664 46.2645 34.4195 45.9251C34.2369 45.7189 34.1617 45.4528 34.1099 45.1821C33.9612 44.4636 33.7809 43.7425 33.7151 43.0029C33.6544 42.5842 33.6661 42.1251 33.9271 41.747C33.9728 41.6894 34.0196 41.6389 34.083 41.5932C34.7084 41.1844 35.6608 41.044 36.3174 41.3596C36.4822 41.454 36.6135 41.5828 36.7013 41.7328C36.7925 41.8608 36.8473 42.0022 36.8938 42.1444ZM36.0658 43.0935C36.0643 43.0861 36.0038 42.8604 35.9703 42.7015C35.9053 42.4478 35.7299 42.2401 35.4752 42.1744C35.2561 42.1315 35.0362 42.2315 34.8938 42.3689C34.7379 42.5227 34.6414 42.703 34.6119 42.9079C34.5853 43.2766 34.6429 43.6747 34.7292 44.0606C34.8361 44.379 34.8856 44.7287 35.0349 45.0186C35.2942 45.3553 35.9449 45.2928 36.2067 44.9216C36.3611 44.6606 36.2841 44.6728 36.2565 44.263C36.2336 44.0738 36.2164 43.9195 36.2131 43.8984L36.1587 43.5645L36.0658 43.0935Z" fill="#4B4B4B"/>
<path d="M40.1757 45.5212C39.7583 44.8654 39.3302 44.2534 39.0243 43.6844L38.924 43.4828C38.8737 43.382 38.8232 43.2815 38.7998 43.2843C38.7693 43.2876 38.8577 44.2854 38.9461 45.0703C38.9704 45.2876 38.9936 45.491 39.0189 45.6512C38.9067 45.6923 38.7993 45.7114 38.684 45.7248C38.4372 45.7525 38.178 45.7388 37.9391 45.766L37.8837 45.2752C37.7837 44.385 37.675 43.6235 37.5765 42.7478C37.5039 42.1028 37.4478 41.4633 37.4348 40.8612C37.5326 40.8287 37.655 40.8082 37.7784 40.7942C37.9099 40.7797 38.4218 40.7503 38.4261 40.7924C38.6114 41.1192 38.6861 41.1604 38.9156 41.5318C38.992 41.6583 39.6712 42.6325 39.6946 42.6297C39.723 42.6056 39.7233 42.3994 39.7052 42.2382C39.6634 41.8672 39.6057 41.561 39.5676 41.2248C39.5455 41.0283 39.5313 40.8313 39.5133 40.5992C39.6875 40.551 39.8703 40.5159 40.063 40.4944C40.2557 40.4728 40.4274 40.4674 40.5769 40.4794L40.8308 42.7361C40.8826 43.1281 40.9281 43.5344 40.9733 43.9338C41.0037 44.2072 41.0238 44.4535 41.0527 44.7125C41.0741 44.9022 41.1025 45.0835 41.1236 45.2726L41.1388 45.4128C41.1167 45.4224 41.0659 45.4567 40.8887 45.4768C40.6805 45.4999 40.3839 45.4978 40.1757 45.5212Z" fill="#4B4B4B"/>
<path d="M45.161 45.1778C44.9051 45.1885 44.6093 45.172 44.3988 45.1593V45.1522L44.3714 44.4682C44.3348 43.5587 44.3922 42.667 44.3556 41.7572C44.3541 41.7074 44.3526 41.6793 44.3429 41.6303C44.2411 41.6132 44.1959 42.0248 44.0248 42.0319C43.9321 42.0355 43.0795 41.8936 43.0759 41.8085C43.0942 41.4901 43.8917 40.2576 43.9514 40.1985C44.1913 40.182 44.416 40.1655 44.657 40.1561C44.9282 40.1449 45.1925 40.1413 45.4726 40.1515C45.5195 40.5519 45.5426 40.9394 45.5589 41.3345C45.602 42.4131 45.5584 43.4602 45.6015 44.5388C45.6079 44.7013 45.615 44.8701 45.629 45.0318C45.6338 45.1448 45.355 45.1702 45.161 45.1778Z" fill="#4B4B4B"/>
<path d="M129.533 41.2914L125.362 35.3343C124.543 34.1627 122.922 33.8779 121.748 34.697L82.3781 62.272C81.8152 62.665 81.4394 63.2579 81.3201 63.9404C81.2236 64.4926 81.3137 65.0449 81.5582 65.5377L78.5497 67.6434C77.9141 68.0854 77.5737 68.8321 77.6308 69.5817L72.006 73.5193C71.6581 73.7643 71.4901 74.1908 71.5764 74.607C71.599 74.7159 71.6369 74.8176 71.688 74.9102C71.8332 75.1736 72.0847 75.362 72.3904 75.4253L72.9087 75.5374L77.4594 76.5212C77.5363 76.5377 77.6128 76.5456 77.6887 76.5456C77.9055 76.5456 78.1158 76.4796 78.2955 76.3523L81.0321 74.4343C81.3157 74.5626 81.6199 74.6296 81.9254 74.6296C82.3606 74.6296 82.7958 74.4993 83.1649 74.2391L86.1786 72.1299C86.5559 72.5267 87.0421 72.7984 87.592 72.8944C87.7431 72.9213 87.8934 72.934 88.043 72.934C88.5681 72.934 89.0789 72.7738 89.5146 72.4666L128.892 44.8913C129.458 44.4929 129.836 43.9006 129.958 43.2234C130.082 42.5417 129.93 41.8553 129.533 41.2914ZM77.6831 75.4812L74.6172 74.8211L72.7975 74.4293L72.6171 74.3904L77.9918 70.628C77.9997 70.6402 78.0083 70.6519 78.017 70.6641L78.974 72.0326L79.6065 72.9371L80.1462 73.7089C80.1536 73.7193 80.1615 73.7298 80.1688 73.7402L77.6831 75.4812ZM82.5535 73.3689C82.179 73.6312 81.6753 73.6325 81.2982 73.3715C81.1845 73.2938 81.0898 73.2009 81.0164 73.0965L80.6549 72.5797L80.0202 71.6722L78.8876 70.0529C78.8112 69.9443 78.7538 69.8214 78.7213 69.6924C78.6032 69.245 78.7744 68.7837 79.1583 68.5165L82.1371 66.432L84.7778 70.1986L85.4248 71.1215L85.5367 71.2811L82.5535 73.3689ZM128.281 44.0209L108.78 57.6769L107.893 58.2978L105.995 59.6272L105.073 60.2728L103.251 61.5487L102.026 62.4068L100.188 63.694L98.9793 64.5401L97.0642 65.8812L96.1421 66.5269L93.5478 68.3436L91.7068 69.6328L88.9035 71.5959C88.5739 71.8275 88.1743 71.9156 87.7754 71.847C87.3762 71.7767 87.0279 71.5556 86.7955 71.2224L86.5181 70.8266L85.8681 69.8994L82.8812 65.6383L82.7038 65.3854L82.7036 65.3851L82.6221 65.2686C82.4964 65.0888 82.4121 64.8883 82.372 64.6787C82.3374 64.4979 82.3356 64.3103 82.3684 64.1232C82.4388 63.7218 82.6586 63.3739 82.9882 63.1434L93.133 56.0379L94.0549 55.3922L95.9107 54.0923L97.2343 53.1653L98.9596 51.9569L100.296 51.021L102.064 49.7828L102.985 49.1371L104.884 47.8075L105.742 47.2067L122.358 35.5681C122.626 35.3817 122.932 35.2919 123.235 35.2919C123.718 35.2919 124.194 35.5191 124.491 35.9439L128.662 41.9021C129.142 42.5846 128.97 43.5349 128.281 44.0209Z" fill="#4B4B4B"/>
<path fill-rule="evenodd" clip-rule="evenodd" d="M93.1979 27.2534C92.7483 25.8227 92.2987 24.3922 91.8283 22.9675C91.7819 22.8284 91.6581 22.7321 91.5178 22.7164C91.4761 22.7117 91.4329 22.7142 91.3898 22.7248C91.3363 22.7378 91.2884 22.7618 91.2479 22.7938C91.1382 22.8807 91.083 23.0264 91.1186 23.1711C91.4769 24.6381 91.8567 26.0989 92.2364 27.5597C92.4359 28.3273 92.6355 29.095 92.8319 29.8636L94.6258 36.533C95.4018 39.3964 96.2065 42.2516 97.0111 45.1068C97.4553 46.6826 97.8994 48.2584 98.3387 49.8356C98.5463 50.5425 98.7532 51.2496 98.9596 51.9569L100.296 51.021C100.144 50.4822 99.9927 49.9433 99.8418 49.4042C99.3806 47.842 98.9241 46.2784 98.4676 44.7149C97.6339 41.8592 96.8003 39.0035 95.9377 36.1562L93.9232 29.5503C93.6793 28.7852 93.4386 28.0193 93.1979 27.2534ZM103.251 61.5487C103.206 61.3842 103.296 61.7131 103.251 61.5487L102.026 62.4068C102.094 62.6336 102.162 62.8603 102.23 63.087L104.239 69.6947C104.48 70.4527 104.718 71.2116 104.956 71.9705C105.407 73.4087 105.858 74.8469 106.33 76.279C106.394 76.4712 106.596 76.5865 106.797 76.5374C107.007 76.4857 107.136 76.2731 107.084 76.0624C106.726 74.5997 106.346 73.1431 105.967 71.6865C105.766 70.915 105.565 70.1435 105.367 69.3712L103.567 62.7034C103.417 62.1538 103.403 62.0977 103.251 61.5487Z" fill="#4B4B4B"/>
<path fill-rule="evenodd" clip-rule="evenodd" d="M89.0515 25.5865C88.8451 24.9249 88.6386 24.2632 88.4305 23.6021C88.324 23.2635 88.217 22.9251 88.1094 22.5868C87.9305 22.0244 87.7499 21.4625 87.5664 20.9015C87.5065 20.7199 87.3156 20.611 87.1267 20.6575C86.9286 20.7067 86.808 20.9068 86.8568 21.1048C86.9987 21.6779 87.1434 22.2502 87.2899 22.8219C87.378 23.1658 87.4667 23.5094 87.5558 23.853C87.7303 24.5252 87.9064 25.197 88.0824 25.8688C88.3011 26.7032 88.5198 27.5376 88.7354 28.3729L90.6946 35.6179C91.5427 38.734 92.42 41.8419 93.2972 44.9497C93.779 46.6566 94.2608 48.3635 94.7378 50.0718C95.1307 51.4114 95.5209 52.7518 95.9107 54.0923L97.2343 53.1653C96.9021 51.9907 96.5704 50.8159 96.2407 49.6406C95.7428 47.9502 95.2496 46.2585 94.7564 44.5667C93.8494 41.4555 92.9424 38.3443 92.0063 35.2416L89.8267 28.0598C89.5662 27.236 89.3089 26.4113 89.0515 25.5865ZM100.188 63.694C100.169 63.627 100.206 63.7609 100.188 63.694L98.9793 64.5401L101.134 71.6576C101.394 72.4813 101.65 73.3059 101.907 74.1304C102.394 75.6949 102.881 77.2592 103.389 78.8175C103.453 79.011 103.657 79.1268 103.857 79.077C104.068 79.0247 104.196 78.8117 104.144 78.6012C103.75 77.0138 103.334 75.4325 102.919 73.8512C102.699 73.0126 102.478 72.174 102.261 71.3344L100.296 64.091C100.242 63.8916 100.242 63.8932 100.188 63.694Z" fill="#4B4B4B"/>
<path fill-rule="evenodd" clip-rule="evenodd" d="M112.008 80.587L105.995 59.6272L105.073 60.2728L110.788 80.194C109.451 80.1952 108.109 80.2826 106.789 80.455C105.026 80.6848 103.274 81.0692 101.573 81.5983L97.0642 65.8812L96.1421 66.5269L100.528 81.8139C98.3428 82.0642 96.1433 82.3826 93.9797 82.7627C84.3092 84.4598 74.8032 87.4707 65.7146 91.7127L56.9291 61.0891L56.9063 61.0096L56.7027 60.2998L49.0945 33.7794L48.4352 31.4815C50.3962 30.1338 61.921 22.6686 82.334 18.3959L83.8841 23.799L84.1776 24.8221L93.133 56.0379L94.0549 55.3922L85.2004 24.5287L84.9068 23.5056L83.5464 18.7638C87.7237 20.6029 91.9812 19.9874 93.431 19.6916L93.7938 20.9561L94.0873 21.9792L102.064 49.7828L102.985 49.1371L94.3149 18.9141C94.2341 18.6353 93.9444 18.4733 93.6659 18.5467C93.609 18.5627 87.9172 20.0336 82.9612 17.2871C82.8058 17.201 82.622 17.2043 82.4663 17.282L82.4387 17.2879C61.0267 21.7135 49.1629 29.6709 47.6636 30.7228C45.8342 30.6261 31.5565 30.1688 11.0526 37.7669L11.0305 37.7753C10.8543 37.7893 10.6986 37.887 10.6126 38.0434C7.86503 43.0002 2.25953 44.7682 2.20317 44.7859C1.92641 44.871 1.76797 45.1625 1.84744 45.441L19.5402 107.114C19.5871 107.276 19.7082 107.407 19.8664 107.466C19.9269 107.488 19.9893 107.499 20.0515 107.499C20.1541 107.499 20.2557 107.47 20.3438 107.412C21.6143 106.577 22.9582 105.834 24.3377 105.203C26.0605 104.415 27.8691 103.787 29.7129 103.338C29.7247 103.335 29.7349 103.329 29.7451 103.323C29.7529 103.319 29.7607 103.314 29.7693 103.311C29.7767 103.308 29.7843 103.307 29.7919 103.306C29.8009 103.305 29.81 103.304 29.8186 103.3C31.9712 102.259 34.1786 101.279 36.3795 100.387C49.6412 95.0134 60.0715 93.6908 63.9756 93.1957C64.9004 93.0784 65.4591 93.0076 65.6024 92.9403C74.7765 88.5985 84.3854 85.5268 94.1628 83.8101C96.5114 83.3983 98.9025 83.0585 101.27 82.8011C101.277 82.8004 101.283 82.7977 101.289 82.795C101.294 82.7926 101.3 82.7902 101.306 82.7891C101.324 82.7859 101.343 82.7854 101.361 82.782C101.367 82.7808 101.373 82.7793 101.38 82.7772C103.181 82.1813 105.048 81.7547 106.927 81.5097C108.431 81.3137 109.968 81.234 111.484 81.2652H111.496C111.66 81.2652 111.816 81.1895 111.917 81.0585C112.021 80.9242 112.055 80.7495 112.008 80.587ZM23.8954 104.235C22.6848 104.789 21.5003 105.426 20.3666 106.134L3.66557 47.9192L3.3721 46.8963L3.00932 45.6317C4.39413 45.114 8.33171 43.3785 10.8979 39.6055L12.2582 44.347L12.5517 45.3699L28.9243 102.44C27.201 102.893 25.512 103.496 23.8954 104.235ZM35.9801 99.401C33.9511 100.224 31.9173 101.12 29.9249 102.068L13.5748 45.0764L13.2814 44.0535L11.7313 38.6503C31.3039 31.4518 45.0364 31.6739 47.4115 31.7755C47.5644 32.3083 47.7878 33.0871 48.0707 34.0731C48.1624 34.3927 48.2603 34.7342 48.3642 35.096C52.0007 47.7715 62.8425 85.5616 64.6913 92.0062C54.7362 93.227 45.0791 95.714 35.9801 99.401Z" fill="#4B4B4B"/>
<path fill-rule="evenodd" clip-rule="evenodd" d="M82.8812 65.6383L82.7038 65.3854L82.7036 65.3851L82.6221 65.2686C82.4964 65.0888 82.4121 64.8883 82.372 64.6787C71.5043 67.8365 63.8908 72.3543 63.7951 72.412C63.1933 72.7728 63.7359 73.6853 64.3428 73.3238C64.4372 73.2673 72.0464 68.7548 82.8812 65.6383Z" fill="#4B4B4B"/>
<path d="M65.4037 77.9893C64.7928 78.3417 65.3282 79.2634 65.9348 78.911C65.9903 78.879 68.6017 77.3906 72.9087 75.5374L72.3904 75.4253C72.0847 75.362 71.8332 75.1736 71.688 74.9102C67.7918 76.6273 65.4566 77.959 65.4037 77.9893Z" fill="#4B4B4B"/>
<path fill-rule="evenodd" clip-rule="evenodd" d="M98.8541 22.9299C98.3529 21.1843 96.522 20.1725 94.7807 20.6729L93.7938 20.9561L94.0873 21.9792L95.074 21.6962C96.2529 21.36 97.4929 22.0423 97.8309 23.2234L104.884 47.8075L105.742 47.2067C103.821 40.5397 101.545 32.541 98.8541 22.9299ZM87.2899 22.8219L88.1094 22.5868C88.217 22.9251 88.324 23.2635 88.4305 23.6021L87.5558 23.853C87.4667 23.5094 87.378 23.1658 87.2899 22.8219ZM84.9068 23.5056L83.8841 23.799L84.1776 24.8221L85.2004 24.5287L84.9068 23.5056ZM91.5178 22.7164L91.2479 22.7938C91.2884 22.7618 91.3363 22.7378 91.3898 22.7248C91.4329 22.7142 91.4761 22.7117 91.5178 22.7164ZM56.7027 60.2998L49.0945 33.7794L48.0707 34.0731L48.3642 35.096L48.3648 35.0958L48.7097 36.2977L48.9816 37.2454C50.9691 44.1738 65.9496 96.3914 65.9697 96.4612C64.872 96.5501 62.7151 96.9185 58.3916 97.7338C54.3047 98.5039 50.0137 99.3718 49.27 99.5325C40.4786 101.431 32.0519 104.781 23.7881 108.065C22.6742 108.508 21.5632 108.949 20.4546 109.386C19.2113 109.876 17.8536 109.18 17.4949 107.929L1.15089 50.9599C0.811673 49.7785 1.49747 48.541 2.6789 48.2022L3.66557 47.9192L3.3721 46.8963L2.38564 47.1793C0.640286 47.6805 -0.372547 49.5078 0.127903 51.2532L16.4719 108.222C17.0071 110.088 19.0353 111.09 20.8446 110.376C21.9451 109.942 23.0478 109.504 24.1531 109.065C32.3965 105.788 40.7871 102.453 49.495 100.573C52.1091 100.007 54.7397 99.508 57.3676 99.0091L57.9328 98.9018C62.3481 98.0632 64.346 97.7848 65.4316 97.6335C66.0642 97.5453 66.3871 97.5003 66.698 97.4128C67.0221 97.3217 67.3331 97.1843 67.9685 96.9038C68.9501 96.4703 70.7057 95.6952 74.4788 94.2205C89.1011 88.5058 90.9785 88.0524 112.632 84.0442C113.543 83.8748 114.346 83.3261 114.833 82.539C115.707 81.1266 115.68 81.0359 111.955 68.453C111.102 65.5714 110.055 62.0347 108.78 57.6769L107.893 58.2978L114.175 80.1927C114.538 81.4604 113.735 82.7577 112.437 82.9981C111.284 83.2119 110.128 83.4228 108.969 83.6341C100.163 85.2404 91.2449 86.8671 82.7803 89.9191C82.0602 90.1788 77.9558 91.7203 74.0927 93.229C69.9941 94.8309 67.9699 95.6614 66.9927 96.1682C66.0875 93.0139 61.3102 76.3609 56.9291 61.0891L56.9063 61.0096L56.7027 60.2998ZM12.2582 44.347L13.2814 44.0535L13.5748 45.0764L12.5517 45.3699L12.2582 44.347Z" fill="#4B4B4B"/>
</svg>
