<svg width="164" height="128" viewBox="0 0 164 128" fill="none" xmlns="http://www.w3.org/2000/svg">
<path d="M58.8653 27.4354C59.5775 24.7168 62.3897 23.119 65.0897 23.8988L144.522 46.8431C147.142 47.5998 148.672 50.3155 147.963 52.9481L135.798 98.0774C135.063 100.804 132.218 102.381 129.516 101.56L50.6919 77.6012C48.1222 76.8201 46.6286 74.1484 47.3092 71.5503L58.8653 27.4354Z" fill="#D9F2ED"/>
<path d="M18.2675 96.9695C15.6862 96.927 13.1539 97.8582 11.1945 99.7422C11.1366 99.798 10.0312 100.863 10.1004 100.796L3.13671 107.493C-0.837289 111.317 -0.907639 117.607 2.85976 121.517C6.66427 125.487 12.939 125.585 16.8931 121.795L24.9509 114.047C24.9515 114.047 24.9515 114.046 24.9515 114.046C31.4145 107.82 26.8952 97.1366 18.2675 96.9695ZM23.3243 114.049C21.3462 113.374 18.624 112.059 16.1024 109.593L17.9365 107.827C18.1255 107.943 18.3095 108.03 18.4886 108.091C18.8784 108.224 19.2445 108.236 19.5859 108.166C20.9188 107.893 21.8745 106.379 22.3952 106.021C23.1967 105.24 23.343 104.048 22.8206 103.112L24.7841 101.222C27.1709 104.044 27.4975 108.005 25.7836 111.132C24.9981 112.565 24.1385 113.232 23.3243 114.049ZM17.2864 98.1298C19.4252 97.9384 21.652 98.5285 23.4702 99.9541C23.6536 100.098 23.8328 100.25 24.0073 100.411L22.0693 102.277C21.7618 102.064 21.4197 101.932 21.0696 101.878C20.3322 101.763 19.5593 101.992 18.9997 102.538C17.9718 103.703 16.7735 104.211 16.7569 105.721C16.7518 106.196 16.8854 106.651 17.133 107.042L15.3229 108.785C12.9408 106.161 11.727 103.376 11.1286 101.367C12.9984 99.5576 14.4822 98.3744 17.2864 98.1298ZM18.274 104.815L19.7846 103.342C19.9021 103.228 20.0252 103.141 20.1505 103.079C20.5885 102.862 21.0547 102.949 21.4123 103.199C22.0228 103.625 22.3163 104.529 21.611 105.216V105.217L20.1004 106.689C19.9909 106.796 19.8769 106.879 19.7609 106.94C19.3828 107.139 18.9832 107.109 18.6489 106.94C17.9253 106.575 17.5074 105.561 18.274 104.815ZM16.1145 120.984C14.4187 122.61 12.1987 123.49 9.8377 123.442C1.99212 123.28 -1.67376 113.68 3.91589 108.303L10.2239 102.236C12.1186 107.983 16.501 112.708 22.4219 114.92L16.1145 120.984Z" fill="#4B4B4B"/>
<path d="M77.2659 98.5507C76.9409 99.6837 75.7589 100.339 74.6259 100.014C73.4929 99.6885 72.8381 98.5065 73.1631 97.3735C73.4881 96.2405 74.6701 95.5857 75.8031 95.9107C76.9361 96.2357 77.5913 97.4177 77.2659 98.5507Z" fill="#4B4B4B"/>
<path d="M132.537 55.1716C132.032 54.2603 131.203 53.6008 130.202 53.3152L52.2575 30.9533C51.2602 30.6642 50.2094 30.7838 49.2987 31.2873C48.3862 31.7922 47.7261 32.6212 47.4405 33.6216L31.9939 87.453C31.7054 88.4537 31.8245 89.5065 32.3291 90.4181C32.8334 91.3297 33.6624 91.9895 34.6625 92.2757L66.6293 101.447L62.1753 113.296L48.6676 109.42C47.9247 109.208 47.1434 109.298 46.4648 109.675C45.7872 110.051 45.2971 110.668 45.0866 111.407C44.8706 112.151 44.9587 112.935 45.3351 113.613C45.7082 114.292 46.325 114.782 47.0716 114.992C65.7406 120.264 76.3666 123.38 82.0747 125.055C88.2927 126.88 90.169 127.431 91.1067 127.431C91.6086 127.431 91.8906 127.276 92.2023 127.102L92.2605 127.067C93.2932 126.493 93.8539 125.402 93.7248 124.213C93.5903 123.026 92.7948 122.083 91.6475 121.752L78.1399 117.876L80.6466 105.469L112.606 114.638C112.963 114.741 113.328 114.792 113.69 114.792C114.341 114.792 114.986 114.627 115.571 114.302C116.482 113.798 117.142 112.969 117.428 111.969L132.874 58.1373C132.874 58.1373 132.874 58.1367 132.875 58.1367C133.162 57.1349 133.041 56.0817 132.537 55.1716ZM92.6087 124.337C92.6882 125.069 92.3427 125.74 91.7066 126.088C91.6977 126.093 91.6885 126.099 91.6802 126.104L91.6199 126.141C91.3949 126.266 91.3192 126.308 91.107 126.308C90.3305 126.308 88.1689 125.673 82.3914 123.976C76.6809 122.301 66.051 119.184 47.3767 113.911C46.922 113.782 46.5468 113.484 46.3188 113.07C46.0879 112.654 46.0335 112.174 46.1662 111.718C46.2956 111.264 46.5954 110.887 47.0101 110.657C47.2791 110.507 47.5741 110.431 47.8715 110.431C48.0345 110.431 48.198 110.454 48.358 110.5L77.3319 118.814C77.3331 118.814 77.3345 118.814 77.3357 118.814L91.337 122.831C92.0393 123.034 92.5264 123.612 92.6087 124.337ZM77.0567 117.565L63.2596 113.606L67.7127 101.759L79.5635 105.159L77.0567 117.565ZM131.796 57.8271L116.35 111.659C116.145 112.371 115.676 112.96 115.028 113.319C114.379 113.678 113.631 113.763 112.917 113.557L48.9489 95.2048L47.8584 94.892L34.9721 91.1949C34.2606 90.9913 33.6711 90.5223 33.3119 89.8734C32.953 89.2251 32.8687 88.4759 33.0738 87.7635L48.521 33.9306C48.724 33.219 49.1936 32.6292 49.8434 32.2701C50.2593 32.0397 50.7158 31.9228 51.1777 31.9228C51.4344 31.9228 51.6932 31.9593 51.9473 32.0329L129.893 54.3954C130.605 54.5987 131.195 55.0677 131.555 55.716C131.913 56.364 131.999 57.1138 131.796 57.8271Z" fill="#4B4B4B"/>
<path fill-rule="evenodd" clip-rule="evenodd" d="M127.552 56.9716C127.063 56.2719 126.295 55.7455 125.39 55.4901L54.9344 35.5067C54.0327 35.2488 53.101 35.2927 52.3107 35.6282C51.5188 35.9647 50.9659 36.5533 50.7543 37.2853L39.2958 76.676C39.0816 77.4081 39.233 78.1966 39.7221 78.8965C40.2109 79.5964 40.9784 80.123 41.8823 80.3788L52.1066 83.2788L53.6838 83.7261L112.337 100.362C112.66 100.455 112.987 100.508 113.31 100.524C113.891 100.551 114.459 100.456 114.966 100.24C115.757 99.9037 116.31 99.3154 116.522 98.5838L127.98 59.1926L127.981 59.1922C128.193 58.4591 128.041 57.6704 127.552 56.9716ZM115.547 98.3069L127.005 58.9156C127.156 58.3936 127.047 57.832 126.7 57.3345C126.351 56.8367 125.805 56.4624 125.161 56.2805L54.7042 36.2967C54.4745 36.231 54.2422 36.1927 54.0132 36.1817C53.6014 36.1619 53.1994 36.2293 52.8386 36.3828C52.2747 36.6222 51.8813 37.0409 51.7309 37.5616L40.272 76.9534C40.1197 77.4746 40.2271 78.0357 40.5749 78.5334C40.923 79.0317 41.4688 79.4059 42.1119 79.588L53.1641 82.7227L55.4152 83.3612L112.568 99.5718C113.214 99.7557 113.877 99.7247 114.44 99.4853C115.003 99.2461 115.396 98.8273 115.547 98.3069Z" fill="#4B4B4B"/>
<path d="M35.062 80.6714L50.3469 85.0764L51.4921 85.4065L118.546 104.731L118.238 105.8L50.8887 86.3909L49.7874 86.0735L34.7538 81.7409L35.062 80.6714Z" fill="#4B4B4B"/>
<path fill-rule="evenodd" clip-rule="evenodd" d="M53.1641 82.7227L55.4152 83.3612C54.7785 83.4082 54.2022 83.5298 53.6838 83.7261L52.1066 83.2788C52.1253 83.2664 52.144 83.2541 52.1629 83.2419C52.4761 83.0385 52.8097 82.8655 53.1641 82.7227ZM50.3469 85.0764C50.1409 85.3896 49.9554 85.7228 49.7874 86.0735L50.8887 86.3909C51.0684 86.0372 51.2682 85.7078 51.4921 85.4065L50.3469 85.0764ZM44.1944 104.281C46.6236 102.348 47.3265 98.6475 47.8584 94.892L48.9489 95.2048C48.3887 99.127 47.6207 102.991 44.8946 105.16C40.5748 108.597 37.4006 105.9 34.3285 103.289L34.3241 103.285C31.7087 101.061 29.2379 98.9624 25.9454 100.074C23.8014 100.799 22.3677 101.942 21.4123 103.199C21.0547 102.949 20.5885 102.862 20.1505 103.079C20.415 102.669 20.7194 102.266 21.0696 101.878C21.4197 101.932 21.7618 102.064 22.0693 102.277L24.0073 100.411C23.8328 100.25 23.6536 100.098 23.4702 99.9541C24.0955 99.595 24.7974 99.2759 25.5854 99.0096C29.4788 97.6929 32.4383 100.208 35.0499 102.427L35.0519 102.429C38.0289 104.959 40.6 107.142 44.1944 104.281ZM18.6489 106.94C18.9832 107.109 19.3828 107.139 19.7609 106.94C19.6719 107.38 19.6175 107.794 19.5859 108.166C19.2445 108.236 18.8784 108.224 18.4886 108.091C18.5212 107.738 18.572 107.351 18.6489 106.94Z" fill="#4B4B4B"/>
<path d="M56.0911 52.8924L56.8707 53.4111L56.7415 53.8935L55.5079 52.9567L55.6198 52.5388L57.1566 52.3443L57.0278 52.8251L56.0911 52.8924Z" fill="#4B4B4B"/>
<path d="M58.0342 53.9266C58.0463 53.8816 58.0324 53.8392 57.9927 53.7993C57.953 53.7595 57.8713 53.7073 57.7475 53.6427C57.6237 53.5781 57.5253 53.5107 57.4523 53.4407C57.3796 53.3695 57.3298 53.2939 57.3032 53.2138C57.2765 53.1337 57.2749 53.0496 57.2985 52.9616C57.3403 52.8056 57.439 52.6945 57.5944 52.6284C57.7501 52.5612 57.9319 52.5554 58.1398 52.6111C58.3633 52.671 58.5294 52.77 58.638 52.908C58.7466 53.046 58.7787 53.1977 58.7343 53.3632L58.2047 53.2213C58.2412 53.0851 58.1879 52.9979 58.0448 52.9595C57.9894 52.9447 57.9387 52.9479 57.8927 52.9693C57.8469 52.9896 57.8179 53.0228 57.8055 53.0689C57.7929 53.116 57.8056 53.1604 57.8437 53.202C57.8819 53.2437 57.9485 53.2874 58.0438 53.3331C58.14 53.3791 58.2228 53.4254 58.292 53.472C58.5234 53.6283 58.6086 53.8201 58.5477 54.0474C58.5061 54.2024 58.4034 54.3101 58.2394 54.3706C58.0764 54.4313 57.8858 54.4325 57.6674 54.3739C57.5222 54.335 57.3997 54.2741 57.2999 54.1913C57.2001 54.1084 57.1303 54.0134 57.0908 53.9062C57.0512 53.7991 57.0447 53.6957 57.0714 53.5962L57.565 53.7285C57.546 53.8076 57.5567 53.8722 57.597 53.9223C57.6376 53.9714 57.6971 54.0064 57.7754 54.0274C57.8475 54.0467 57.9052 54.0464 57.9486 54.0266C57.993 54.0071 58.0216 53.9738 58.0342 53.9266Z" fill="#4B4B4B"/>
<path d="M59.4818 54.4223C59.5559 54.4421 59.6187 54.4376 59.6701 54.4088C59.7218 54.3788 59.7568 54.3276 59.7751 54.255L60.2703 54.3877C60.2203 54.5741 60.1125 54.7092 59.9468 54.7927C59.7821 54.8766 59.5948 54.8904 59.3848 54.8341C59.1383 54.7681 58.9648 54.6385 58.8642 54.4454C58.7637 54.2523 58.7502 54.0186 58.8237 53.7441L58.8296 53.7221C58.8756 53.5504 58.9475 53.4074 59.0453 53.2933C59.1444 53.1784 59.2629 53.1018 59.4008 53.0635C59.5389 53.0242 59.6895 53.0264 59.8525 53.0701C60.0729 53.1291 60.2315 53.2373 60.3282 53.3945C60.4249 53.5518 60.4451 53.7352 60.389 53.9446L59.8938 53.812C59.9174 53.724 59.9141 53.6507 59.8839 53.5921C59.8537 53.5335 59.8026 53.4945 59.7305 53.4752C59.5936 53.4385 59.4903 53.5046 59.4204 53.6733C59.3982 53.7269 59.3741 53.8024 59.348 53.8998C59.3023 54.0705 59.2909 54.1943 59.314 54.2712C59.337 54.3481 59.393 54.3985 59.4818 54.4223Z" fill="#4B4B4B"/>
<path d="M61.6838 54.108L61.5132 54.0489C61.3471 54.0043 61.2265 54.0282 61.1514 54.1203L60.8631 55.1965L60.335 55.055L60.7905 53.3551L61.2857 53.4878L61.2444 53.7108C61.3778 53.568 61.5239 53.5179 61.6827 53.5605C61.7391 53.5756 61.7865 53.595 61.8249 53.6188L61.6838 54.108Z" fill="#4B4B4B"/>
<path d="M62.1041 55.5291L61.5745 55.3872L62.03 53.6872L62.5596 53.8291L62.1041 55.5291ZM62.1161 53.2405C62.1363 53.165 62.18 53.1105 62.2472 53.0769C62.3145 53.0433 62.3914 53.0381 62.4781 53.0613C62.5648 53.0845 62.6289 53.1275 62.6703 53.1903C62.7117 53.253 62.7223 53.3221 62.7021 53.3975C62.6819 53.4729 62.6382 53.5274 62.571 53.561C62.5037 53.5947 62.4268 53.5999 62.3401 53.5766C62.2534 53.5534 62.1893 53.5104 62.1479 53.4477C62.1065 53.3849 62.0959 53.3159 62.1161 53.2405Z" fill="#4B4B4B"/>
<path d="M64.2292 55.201C64.1585 55.4649 64.0424 55.66 63.8809 55.7863C63.7208 55.9117 63.5399 55.9475 63.3383 55.8934C63.1826 55.8517 63.07 55.7604 63.0003 55.6193L62.7877 56.4127L62.2596 56.2712L62.8902 53.9177L63.3838 54.05L63.3574 54.2113C63.4924 54.1127 63.6424 54.0856 63.8075 54.1298C64.0164 54.1858 64.1581 54.3068 64.2325 54.4929C64.3072 54.6779 64.3083 54.9056 64.2359 55.1758L64.2292 55.201ZM63.71 55.0265C63.7908 54.7248 63.7435 54.5505 63.568 54.5034C63.4426 54.4699 63.347 54.4925 63.2811 54.5714L63.1017 55.2407C63.1224 55.3473 63.1944 55.4171 63.3177 55.4501C63.4859 55.4952 63.6116 55.3728 63.6948 55.083L63.71 55.0265Z" fill="#4B4B4B"/>
<path d="M65.4229 54.1433L65.3096 54.566L65.5885 54.6407L65.49 55.0084L65.2111 54.9336L65.0027 55.7113C64.9856 55.7752 64.9852 55.8228 65.0014 55.8541C65.0177 55.8854 65.0597 55.9101 65.1276 55.9283C65.1799 55.9423 65.2246 55.951 65.2618 55.9542L65.1603 56.3328C65.0571 56.3377 64.9538 56.3263 64.8504 56.2986C64.6686 56.2499 64.5459 56.171 64.4822 56.0619C64.4185 55.9528 64.4101 55.8107 64.457 55.6358L64.683 54.7921L64.4668 54.7342L64.5653 54.3665L64.7815 54.4245L64.8948 54.0018L65.4229 54.1433Z" fill="#4B4B4B"/>
<path d="M67.3251 54.6531L67.2119 55.0757L67.4908 55.1504L67.3923 55.5181L67.1134 55.4433L66.905 56.221C66.8879 56.2849 66.8875 56.3325 66.9037 56.3638C66.9199 56.3951 66.962 56.4199 67.0299 56.4381C67.0822 56.4521 67.1269 56.4607 67.1641 56.4639L67.0626 56.8425C66.9594 56.8474 66.8561 56.836 66.7527 56.8083C66.5709 56.7596 66.4482 56.6807 66.3845 56.5716C66.3208 56.4625 66.3124 56.3205 66.3593 56.1455L66.5853 55.3018L66.3691 55.2439L66.4676 54.8763L66.6838 54.9342L66.7971 54.5116L67.3251 54.6531Z" fill="#4B4B4B"/>
<path d="M68.1209 56.3465L68.6598 55.4636L69.2254 55.6152L68.0027 57.4144L67.9536 57.4787C67.7964 57.6723 67.5936 57.7358 67.3449 57.6692C67.276 57.6507 67.2062 57.6208 67.1356 57.5794L67.237 57.2008L67.306 57.2193C67.3801 57.2391 67.4395 57.2433 67.484 57.2316C67.5293 57.2213 67.5688 57.1909 67.6025 57.1404L67.6751 57.0387L67.5457 55.1651L68.1098 55.3163L68.1209 56.3465Z" fill="#4B4B4B"/>
<path d="M70.707 56.9367C70.6363 57.2006 70.5202 57.3957 70.3587 57.522C70.1986 57.6475 70.0177 57.6832 69.8161 57.6292C69.6604 57.5875 69.5478 57.4961 69.4781 57.355L69.2655 58.1485L68.7374 58.007L69.368 55.6534L69.8616 55.7857L69.8352 55.947C69.9702 55.8485 70.1202 55.8213 70.2853 55.8655C70.4942 55.9215 70.6359 56.0425 70.7103 56.2286C70.785 56.4137 70.7862 56.6413 70.7138 56.9115L70.707 56.9367ZM70.1878 56.7622C70.2686 56.4605 70.2213 56.2862 70.0458 56.2392C69.9204 56.2056 69.8248 56.2282 69.7589 56.3071L69.5795 56.9764C69.6002 57.083 69.6722 57.1528 69.7955 57.1858C69.9637 57.2309 70.0894 57.1085 70.1726 56.8188L70.1878 56.7622Z" fill="#4B4B4B"/>
<path d="M71.5288 58.0881C71.2687 58.0184 71.0789 57.8845 70.9596 57.6863C70.8405 57.4872 70.8144 57.263 70.8812 57.0137L70.893 56.9697C70.9396 56.7958 71.0126 56.6509 71.1119 56.5349C71.2123 56.4193 71.3339 56.3418 71.4765 56.3026C71.6194 56.2623 71.7755 56.2648 71.9447 56.3102C72.1829 56.374 72.351 56.4987 72.449 56.6844C72.5474 56.8691 72.561 57.0939 72.49 57.3589L72.4349 57.5647L71.385 57.2834C71.3783 57.3837 71.3995 57.4697 71.4486 57.5412C71.4977 57.6127 71.5729 57.6621 71.6743 57.6892C71.8414 57.734 71.9877 57.7104 72.1132 57.6182L72.2779 57.9689C72.1876 58.0423 72.0746 58.0901 71.9389 58.1121C71.8044 58.1333 71.6677 58.1253 71.5288 58.0881ZM71.8321 56.7178C71.6775 56.6764 71.5581 56.7544 71.4738 56.9519L72.0066 57.0946L72.0175 57.0538C72.0424 56.9695 72.0385 56.8983 72.0059 56.8402C71.9736 56.781 71.9157 56.7402 71.8321 56.7178Z" fill="#4B4B4B"/>
<path d="M74.2731 57.5739L72.8221 57.1851L72.9315 56.7767L74.3825 57.1654L74.2731 57.5739ZM74.0883 58.2637L72.6373 57.8749L72.7467 57.4664L74.1977 57.8552L74.0883 58.2637Z" fill="#4B4B4B"/>
<path d="M75.186 56.6802L74.938 57.3362L74.645 57.2577L74.8841 56.3653L75.2445 56.4618L75.186 56.6802ZM75.736 56.8276L75.488 57.4836L75.1981 57.4059L75.4373 56.5135L75.7945 56.6092L75.736 56.8276Z" fill="#4B4B4B"/>
<path d="M76.5483 57.1244L76.435 57.547L76.714 57.6218L76.6154 57.9894L76.3365 57.9147L76.1281 58.6924C76.111 58.7563 76.1106 58.8039 76.1268 58.8352C76.1431 58.8665 76.1851 58.8912 76.253 58.9094C76.3053 58.9234 76.35 58.932 76.3872 58.9352L76.2857 59.3139C76.1825 59.3188 76.0792 59.3074 75.9758 59.2797C75.794 59.231 75.6713 59.152 75.6076 59.0429C75.5439 58.9338 75.5355 58.7918 75.5824 58.6169L75.8085 57.7732L75.5922 57.7152L75.6907 57.3476L75.907 57.4055L76.0202 56.9829L76.5483 57.1244Z" fill="#4B4B4B"/>
<path d="M77.2795 59.629C77.0194 59.5593 76.8297 59.4254 76.7103 59.2273C76.5913 59.0281 76.5652 58.8039 76.632 58.5546L76.6437 58.5106C76.6903 58.3367 76.7633 58.1918 76.8627 58.0759C76.9631 57.9602 77.0846 57.8827 77.2272 57.8435C77.3701 57.8032 77.5262 57.8057 77.6955 57.8511C77.9336 57.9149 78.1017 58.0396 78.1998 58.2253C78.2981 58.41 78.3118 58.6348 78.2408 58.8998L78.1856 59.1056L77.1357 58.8243C77.129 58.9246 77.1502 59.0106 77.1993 59.0821C77.2485 59.1537 77.3237 59.203 77.425 59.2302C77.5922 59.2749 77.7385 59.2513 77.8639 59.1592L78.0286 59.5098C77.9384 59.5832 77.8254 59.631 77.6896 59.653C77.5552 59.6742 77.4185 59.6662 77.2795 59.629ZM77.5829 58.2587C77.4283 58.2173 77.3088 58.2953 77.2246 58.4928L77.7573 58.6355L77.7683 58.5947C77.7931 58.5104 77.7892 58.4392 77.7567 58.3811C77.7244 58.3219 77.6664 58.2811 77.5829 58.2587Z" fill="#4B4B4B"/>
<path d="M79.2335 58.7987L79.605 58.3964L80.1534 58.5434L79.485 59.2517L79.7199 60.2492L79.1683 60.1014L79.0366 59.5273L78.6402 59.9599L78.0855 59.8113L78.7893 59.0653L78.5661 58.118L79.1208 58.2667L79.2335 58.7987Z" fill="#4B4B4B"/>
<path d="M81.0517 58.3311L80.9385 58.7537L81.2174 58.8285L81.1189 59.1961L80.84 59.1214L80.6316 59.8991C80.6145 59.963 80.614 60.0106 80.6303 60.0418C80.6465 60.0731 80.6886 60.0979 80.7565 60.1161C80.8087 60.1301 80.8534 60.1387 80.8906 60.1419L80.7892 60.5206C80.686 60.5255 80.5827 60.5141 80.4793 60.4864C80.2975 60.4377 80.1748 60.3587 80.1111 60.2496C80.0474 60.1405 80.039 59.9985 80.0858 59.8236L80.3119 58.9799L80.0957 58.9219L80.1942 58.5543L80.4104 58.6122L80.5237 58.1896L81.0517 58.3311Z" fill="#4B4B4B"/>
<path d="M81.0994 60.8293L80.7249 60.729L82.1693 58.4537L82.5454 58.5545L81.0994 60.8293Z" fill="#4B4B4B"/>
<path d="M83.1228 59.339L82.6517 61.0971C82.5968 61.2979 82.4978 61.4375 82.3548 61.516C82.2117 61.5944 82.0383 61.6063 81.8346 61.5517C81.7469 61.5282 81.6662 61.4971 81.5926 61.4583L81.7 61.0576C81.758 61.0833 81.8064 61.1013 81.8451 61.1116C81.9913 61.1508 82.0839 61.0976 82.123 60.952L82.5932 59.1971L83.1228 59.339ZM82.6715 58.7483C82.6917 58.6728 82.7354 58.6183 82.8026 58.5847C82.8699 58.5511 82.9468 58.5459 83.0335 58.5691C83.1202 58.5923 83.1843 58.6353 83.2257 58.6981C83.2671 58.7608 83.2777 58.8299 83.2575 58.9053C83.2373 58.9807 83.1936 59.0352 83.1264 59.0688C83.0591 59.1025 82.9822 59.1077 82.8954 59.0844C82.8087 59.0612 82.7447 59.0182 82.7033 58.9555C82.6619 58.8927 82.6513 58.8237 82.6715 58.7483Z" fill="#4B4B4B"/>
<path d="M83.9225 61.3753C83.9129 61.3357 83.9098 61.2804 83.9131 61.2094C83.7832 61.306 83.6309 61.3308 83.4565 61.2841C83.2966 61.2413 83.1738 61.1567 83.0878 61.0304C83.0021 60.903 82.9789 60.766 83.0182 60.6194C83.0676 60.435 83.1728 60.3139 83.3339 60.2561C83.495 60.1982 83.705 60.2039 83.9641 60.2734L84.1271 60.317L84.1511 60.2275C84.1929 60.0714 84.1464 59.9753 84.0117 59.9392C83.8863 59.9056 83.8071 59.9506 83.7739 60.0742L83.2459 59.9327C83.2899 59.7683 83.3952 59.6534 83.5616 59.5879C83.7291 59.5228 83.921 59.5192 84.1372 59.5771C84.3535 59.6351 84.5101 59.7337 84.6071 59.8731C84.7041 60.0125 84.7295 60.1748 84.6832 60.36L84.4816 61.1125C84.4418 61.2692 84.4339 61.395 84.4577 61.4901L84.4505 61.5168L83.9225 61.3753ZM83.6844 60.941C83.7503 60.9587 83.8084 60.9591 83.8588 60.9423C83.9102 60.9258 83.9501 60.9022 83.9785 60.8716L84.0513 60.5998L83.8977 60.5587C83.7139 60.5094 83.5998 60.5675 83.5554 60.733C83.5425 60.7812 83.5482 60.8248 83.5724 60.8639C83.597 60.9019 83.6343 60.9276 83.6844 60.941Z" fill="#4B4B4B"/>
<path d="M85.4921 61.1206L86.0468 60.1225L86.603 60.2715L85.5944 61.8233L85.0554 61.6788L84.9577 59.8307L85.5156 59.9801L85.4921 61.1206Z" fill="#4B4B4B"/>
<path d="M87.235 62.2629C87.2255 62.2233 87.2224 62.168 87.2257 62.097C87.0957 62.1936 86.9435 62.2184 86.769 62.1717C86.6092 62.1289 86.4863 62.0443 86.4004 61.918C86.3147 61.7906 86.2915 61.6536 86.3308 61.507C86.3802 61.3226 86.4854 61.2015 86.6465 61.1437C86.8075 61.0858 87.0176 61.0915 87.2767 61.161L87.4396 61.2046L87.4636 61.1151C87.5054 60.959 87.459 60.8629 87.3242 60.8268C87.1989 60.7932 87.1196 60.8382 87.0865 60.9618L86.5584 60.8203C86.6025 60.6559 86.7078 60.541 86.8742 60.4755C87.0417 60.4104 87.2335 60.4068 87.4498 60.4647C87.666 60.5227 87.8226 60.6213 87.9197 60.7607C88.0167 60.9001 88.042 61.0624 87.9958 61.2476L87.7941 62.0001C87.7544 62.1568 87.7464 62.2826 87.7702 62.3777L87.7631 62.4044L87.235 62.2629ZM86.997 61.8286C87.0628 61.8463 87.1209 61.8467 87.1713 61.8299C87.2228 61.8134 87.2627 61.7898 87.291 61.7592L87.3639 61.4874L87.2103 61.4463C87.0264 61.397 86.9123 61.4551 86.868 61.6206C86.8551 61.6688 86.8607 61.7124 86.885 61.7515C86.9095 61.7895 86.9469 61.8152 86.997 61.8286Z" fill="#4B4B4B"/>
<path d="M89.0005 62.224C89.0125 62.179 88.9987 62.1365 88.959 62.0967C88.9193 62.0569 88.8375 62.0047 88.7138 61.9401C88.59 61.8755 88.4916 61.8081 88.4186 61.738C88.3458 61.6669 88.2961 61.5913 88.2694 61.5112C88.2428 61.4311 88.2412 61.347 88.2648 61.259C88.3066 61.103 88.4052 60.9919 88.5607 60.9257C88.7164 60.8586 88.8982 60.8528 89.1061 60.9085C89.3296 60.9684 89.4957 61.0674 89.6043 61.2054C89.7128 61.3434 89.745 61.4951 89.7006 61.6606L89.171 61.5187C89.2075 61.3825 89.1541 61.2953 89.011 61.2569C88.9557 61.2421 88.905 61.2453 88.8589 61.2667C88.8132 61.287 88.7842 61.3202 88.7718 61.3662C88.7592 61.4134 88.7719 61.4578 88.81 61.4994C88.8481 61.5411 88.9148 61.5847 89.01 61.6305C89.1063 61.6765 89.1891 61.7228 89.2583 61.7694C89.4896 61.9257 89.5748 62.1175 89.5139 62.3448C89.4724 62.4998 89.3696 62.6075 89.2056 62.668C89.0427 62.7287 88.852 62.7298 88.6337 62.6713C88.4885 62.6324 88.366 62.5715 88.2662 62.4887C88.1663 62.4058 88.0966 62.3108 88.057 62.2036C88.0174 62.0965 88.011 61.9931 88.0376 61.8936L88.5312 62.0259C88.5123 62.105 88.523 62.1696 88.5633 62.2197C88.6039 62.2687 88.6633 62.3038 88.7417 62.3248C88.8138 62.3441 88.8715 62.3438 88.9149 62.324C88.9593 62.3045 88.9878 62.2711 89.0005 62.224Z" fill="#4B4B4B"/>
<path d="M90.448 62.7197C90.5222 62.7395 90.585 62.735 90.6364 62.7061C90.6881 62.6762 90.7231 62.625 90.7414 62.5524L91.2366 62.6851C91.1866 62.8715 91.0788 63.0065 90.9131 63.0901C90.7484 63.174 90.5611 63.1878 90.3511 63.1315C90.1046 63.0655 89.931 62.9359 89.8305 62.7428C89.73 62.5497 89.7165 62.316 89.79 62.0415L89.7959 62.0195C89.8419 61.8478 89.9138 61.7048 90.0116 61.5907C90.1107 61.4758 90.2291 61.3992 90.367 61.3609C90.5052 61.3216 90.6558 61.3238 90.8187 61.3674C91.0392 61.4265 91.1977 61.5347 91.2944 61.6919C91.3911 61.8492 91.4114 62.0326 91.3553 62.242L90.8601 62.1094C90.8837 62.0214 90.8804 61.9481 90.8502 61.8895C90.82 61.8309 90.7688 61.7919 90.6968 61.7726C90.5599 61.7359 90.4566 61.802 90.3867 61.9707C90.3645 62.0243 90.3404 62.0998 90.3143 62.1972C90.2685 62.3679 90.2572 62.4917 90.2802 62.5686C90.3033 62.6455 90.3592 62.6959 90.448 62.7197Z" fill="#4B4B4B"/>
<path d="M92.65 62.4054L92.4795 62.3462C92.3134 62.3017 92.1928 62.3256 92.1177 62.4177L91.8293 63.4939L91.3013 63.3524L91.7568 61.6525L92.2519 61.7851L92.2106 62.0082C92.3441 61.8654 92.4902 61.8153 92.649 61.8579C92.7054 61.873 92.7528 61.8924 92.7912 61.9162L92.65 62.4054Z" fill="#4B4B4B"/>
<path d="M93.0704 63.8265L92.5407 63.6845L92.9962 61.9846L93.5259 62.1265L93.0704 63.8265ZM93.0824 61.5378C93.1026 61.4624 93.1463 61.4079 93.2135 61.3743C93.2807 61.3407 93.3577 61.3355 93.4444 61.3587C93.5311 61.3819 93.5952 61.4249 93.6366 61.4876C93.678 61.5504 93.6886 61.6195 93.6684 61.6949C93.6482 61.7703 93.6045 61.8248 93.5372 61.8584C93.47 61.8921 93.393 61.8973 93.3063 61.874C93.2196 61.8508 93.1556 61.8078 93.1142 61.7451C93.0727 61.6823 93.0621 61.6133 93.0824 61.5378Z" fill="#4B4B4B"/>
<path d="M95.1955 63.4983C95.1247 63.7623 95.0087 63.9574 94.8472 64.0836C94.687 64.2091 94.5062 64.2449 94.3045 64.1908C94.1489 64.1491 94.0362 64.0578 93.9665 63.9167L93.7539 64.7101L93.2259 64.5686L93.8565 62.2151L94.3501 62.3473L94.3237 62.5087C94.4587 62.4101 94.6087 62.383 94.7738 62.4272C94.9827 62.4832 95.1244 62.6042 95.1988 62.7903C95.2735 62.9753 95.2746 63.203 95.2022 63.4732L95.1955 63.4983ZM94.6762 63.3239C94.7571 63.0222 94.7097 62.8479 94.5342 62.8008C94.4089 62.7672 94.3132 62.7899 94.2473 62.8688L94.068 63.5381C94.0887 63.6447 94.1607 63.7145 94.2839 63.7475C94.4521 63.7926 94.5778 63.6702 94.6611 63.3804L94.6762 63.3239Z" fill="#4B4B4B"/>
<path d="M96.3891 62.4407L96.2759 62.8634L96.5548 62.9381L96.4563 63.3057L96.1774 63.231L95.969 64.0087C95.9519 64.0726 95.9514 64.1202 95.9677 64.1515C95.9839 64.1828 96.026 64.2075 96.0939 64.2257C96.1461 64.2397 96.1908 64.2483 96.228 64.2516L96.1266 64.6302C96.0234 64.6351 95.9201 64.6237 95.8167 64.596C95.6349 64.5473 95.5122 64.4684 95.4485 64.3593C95.3848 64.2501 95.3764 64.1081 95.4232 63.9332L95.6493 63.0895L95.4331 63.0316L95.5316 62.6639L95.7478 62.7219L95.8611 62.2992L96.3891 62.4407Z" fill="#4B4B4B"/>
<path d="M97.1485 62.5651L96.9005 63.221L96.6075 63.1425L96.8466 62.2501L97.207 62.3467L97.1485 62.5651ZM97.6985 62.7124L97.4505 63.3684L97.1607 63.2907L97.3998 62.3983L97.757 62.4941L97.6985 62.7124Z" fill="#4B4B4B"/>
<path d="M98.4629 64.2408L97.6884 63.7218L97.8172 63.241L99.043 64.1757L98.931 64.5936L97.4021 64.7901L97.5309 64.3094L98.4629 64.2408Z" fill="#4B4B4B"/>
<path d="M54.7906 58.642L55.3453 57.6438L55.9015 57.7929L54.8929 59.3446L54.3539 59.2002L54.2562 57.352L54.8141 57.5015L54.7906 58.642Z" fill="#4B4B4B"/>
<path d="M56.5335 59.7842C56.524 59.7446 56.5209 59.6893 56.5242 59.6184C56.3942 59.7149 56.242 59.7398 56.0675 59.6931C55.9077 59.6502 55.7848 59.5657 55.6989 59.4393C55.6132 59.312 55.59 59.175 55.6293 59.0283C55.6787 58.844 55.7839 58.7229 55.945 58.665C56.106 58.6071 56.3161 58.6129 56.5752 58.6823L56.7381 58.726L56.7621 58.6364C56.8039 58.4804 56.7575 58.3843 56.6227 58.3482C56.4974 58.3146 56.4181 58.3596 56.385 58.4832L55.8569 58.3417C55.901 58.1772 56.0063 58.0623 56.1727 57.9969C56.3402 57.9318 56.532 57.9282 56.7483 57.9861C56.9645 58.044 57.1211 58.1427 57.2182 58.2821C57.3152 58.4215 57.3405 58.5837 57.2943 58.7689L57.0926 59.5215C57.0529 59.6781 57.0449 59.804 57.0687 59.899L57.0616 59.9257L56.5335 59.7842ZM56.2955 59.35C56.3613 59.3676 56.4194 59.368 56.4698 59.3512C56.5213 59.3347 56.5612 59.3112 56.5895 59.2806L56.6624 59.0088L56.5088 58.9676C56.3249 58.9184 56.2108 58.9765 56.1665 59.142C56.1536 59.1902 56.1592 59.2338 56.1835 59.2728C56.208 59.3108 56.2454 59.3366 56.2955 59.35Z" fill="#4B4B4B"/>
<path d="M58.636 59.0392L58.4654 58.98C58.2993 58.9355 58.1787 58.9593 58.1037 59.0515L57.8153 60.1277L57.2872 59.9862L57.7427 58.2862L58.2379 58.4189L58.1966 58.6419C58.33 58.4992 58.4761 58.4491 58.6349 58.4916C58.6913 58.5067 58.7387 58.5262 58.7771 58.5499L58.636 59.0392Z" fill="#4B4B4B"/>
<path d="M60.4596 61.2589L59.0447 60.8798L59.1503 60.4854L60.5653 60.8645L60.4596 61.2589Z" fill="#4B4B4B"/>
<path d="M61.8987 58.9469L61.7855 59.3695L62.0644 59.4442L61.9659 59.8119L61.687 59.7371L61.4786 60.5148C61.4615 60.5787 61.461 60.6263 61.4773 60.6576C61.4935 60.6889 61.5356 60.7137 61.6035 60.7319C61.6557 60.7458 61.7004 60.7545 61.7376 60.7577L61.6362 61.1363C61.533 61.1412 61.4297 61.1298 61.3263 61.1021C61.1445 61.0534 61.0218 60.9745 60.9581 60.8654C60.8944 60.7563 60.886 60.6142 60.9328 60.4393L61.1589 59.5956L60.9427 59.5377L61.0412 59.17L61.2574 59.228L61.3707 58.8054L61.8987 58.9469Z" fill="#4B4B4B"/>
<path d="M62.7727 59.634L62.7364 59.8381C62.8978 59.7164 63.0798 59.6826 63.2825 59.7369C63.4967 59.7943 63.6185 59.9184 63.6479 60.1093C63.8086 59.9694 63.9976 59.9285 64.2148 59.9868C64.5585 60.0788 64.6792 60.3346 64.5769 60.754L64.2806 61.86L63.7509 61.7181L64.0385 60.6451C64.0618 60.5581 64.0641 60.4908 64.0455 60.4432C64.0269 60.3956 63.979 60.3614 63.9017 60.3407C63.7972 60.3127 63.7069 60.3384 63.6307 60.4179L63.6264 60.4403L63.3153 61.6014L62.7857 61.4595L63.0724 60.3896C63.0962 60.3005 63.0994 60.2323 63.0818 60.185C63.0643 60.1376 63.0158 60.1033 62.9364 60.082C62.8351 60.0549 62.7453 60.0808 62.6671 60.1597L62.3501 61.3428L61.822 61.2013L62.2775 59.5013L62.7727 59.634Z" fill="#4B4B4B"/>
<path d="M65.9349 60.9949L65.7643 60.9357C65.5982 60.8912 65.4776 60.915 65.4026 61.0072L65.1142 62.0834L64.5861 61.9419L65.0416 60.242L65.5368 60.3746L65.4955 60.5976C65.6289 60.4549 65.775 60.4048 65.9338 60.4473C65.9902 60.4625 66.0376 60.4819 66.076 60.5057L65.9349 60.9949Z" fill="#4B4B4B"/>
<path d="M68.4048 61.7493L66.9538 61.3605L67.0632 60.952L68.5142 61.3408L68.4048 61.7493ZM68.2199 62.4391L66.7689 62.0503L66.8784 61.6418L68.3294 62.0306L68.2199 62.4391Z" fill="#4B4B4B"/>
<path d="M70.9281 62.8936L71.3674 61.937L71.8736 62.0726L71.0185 63.6655L70.5719 63.5458L70.5617 62.462L70.0094 63.3951L69.5628 63.2754L69.6187 61.4684L70.1248 61.604L70.0176 62.6749L70.562 61.7212L70.9303 61.8198L70.9281 62.8936Z" fill="#4B4B4B"/>
<path d="M72.1655 63.9728L71.6359 63.8309L72.0914 62.1309L72.621 62.2729L72.1655 63.9728ZM72.1775 61.6842C72.1977 61.6088 72.2414 61.5543 72.3086 61.5206C72.3759 61.487 72.4528 61.4818 72.5395 61.5051C72.6263 61.5283 72.6903 61.5713 72.7317 61.634C72.7731 61.6967 72.7837 61.7658 72.7635 61.8412C72.7433 61.9166 72.6996 61.9712 72.6324 62.0048C72.5651 62.0384 72.4882 62.0436 72.4015 62.0204C72.3148 61.9971 72.2507 61.9542 72.2093 61.8914C72.1679 61.8287 72.1573 61.7596 72.1775 61.6842Z" fill="#4B4B4B"/>
<path d="M73.4327 62.4903L73.3965 62.6945C73.5547 62.5719 73.7367 62.5381 73.9425 62.5933C74.1191 62.6406 74.2365 62.7287 74.2949 62.8578C74.3543 62.9871 74.3571 63.1585 74.3032 63.3719L74.0098 64.467L73.4802 64.3251L73.7677 63.252C73.7907 63.1661 73.7903 63.0986 73.7665 63.0496C73.743 62.9995 73.6858 62.9623 73.5949 62.938C73.4915 62.9102 73.4038 62.9305 73.3317 62.9988L73.0101 64.1991L72.482 64.0576L72.9375 62.3577L73.4327 62.4903Z" fill="#4B4B4B"/>
<path d="M74.4681 63.6653C74.5403 63.3961 74.6551 63.1996 74.8126 63.0756C74.9701 62.9517 75.1528 62.9176 75.3606 62.9733C75.5121 63.0138 75.6236 63.1077 75.695 63.2548L75.9257 62.3938L76.4553 62.5358L75.8087 64.949L75.3339 64.8218L75.3561 64.6324C75.2093 64.7457 75.0523 64.78 74.8852 64.7352C74.6835 64.6812 74.5445 64.5609 74.468 64.3742C74.3915 64.1876 74.3915 63.9513 74.4681 63.6653ZM74.9874 63.8398C74.9065 64.1415 74.9539 64.3158 75.1294 64.3628C75.2464 64.3942 75.3431 64.3673 75.4197 64.2823L75.5931 63.635C75.572 63.5216 75.5029 63.4492 75.3859 63.4179C75.223 63.3742 75.0993 63.4825 75.015 63.7428L74.9874 63.8398Z" fill="#4B4B4B"/>
<path d="M76.2741 64.1459C76.3196 63.9762 76.3929 63.8342 76.4941 63.7198C76.5955 63.6044 76.7174 63.5277 76.8598 63.4895C77.0021 63.4513 77.1564 63.4544 77.3225 63.4989C77.5763 63.5669 77.7552 63.6996 77.859 63.897C77.9632 64.0933 77.9789 64.3271 77.9062 64.5983L77.9012 64.6172C77.8302 64.8822 77.7001 65.073 77.511 65.1896C77.3232 65.3054 77.104 65.3297 76.8533 65.2626C76.612 65.1979 76.4375 65.0737 76.33 64.89C76.2228 64.7052 76.1967 64.4872 76.2517 64.2358L76.2741 64.1459ZM76.7933 64.3204C76.7513 64.4775 76.7449 64.5993 76.7744 64.6857C76.8038 64.7722 76.8666 64.8283 76.9627 64.8541C77.1508 64.9045 77.2857 64.7851 77.3677 64.4961L77.382 64.4427C77.4636 64.1379 77.4073 63.9595 77.213 63.9074C77.0365 63.8601 76.9057 63.966 76.8206 64.2249L76.7933 64.3204Z" fill="#4B4B4B"/>
<path d="M79.562 65.207L80.0014 64.2504L80.5075 64.386L79.6524 65.9789L79.2059 65.8593L79.1956 64.7754L78.6433 65.7085L78.1967 65.5889L78.2527 63.7819L78.7588 63.9175L78.6516 64.9883L79.196 64.0346L79.5642 64.1333L79.562 65.207Z" fill="#4B4B4B"/>
<path d="M80.5125 65.6587C80.596 65.6811 80.6588 65.7249 80.7007 65.79C80.7428 65.854 80.7535 65.9248 80.7328 66.0023C80.712 66.0799 80.6672 66.1363 80.5984 66.1718C80.5298 66.2062 80.4537 66.2122 80.3702 66.1898C80.2856 66.1671 80.2223 66.1232 80.1804 66.0581C80.1396 65.9933 80.1294 65.9226 80.1499 65.8462C80.1704 65.7697 80.2145 65.7136 80.2823 65.6779C80.3511 65.6424 80.4279 65.6361 80.5125 65.6587Z" fill="#4B4B4B"/>
<path d="M82.1808 67.0791L80.7659 66.6999L80.8715 66.3056L82.2865 66.6847L82.1808 67.0791Z" fill="#4B4B4B"/>
<path d="M83.6199 64.767L83.5067 65.1897L83.7856 65.2644L83.6871 65.632L83.4082 65.5573L83.1998 66.335C83.1827 66.3989 83.1822 66.4465 83.1985 66.4778C83.2147 66.5091 83.2568 66.5338 83.3247 66.552C83.3769 66.566 83.4216 66.5746 83.4588 66.5779L83.3574 66.9565C83.2542 66.9614 83.1509 66.95 83.0475 66.9223C82.8657 66.8736 82.743 66.7947 82.6793 66.6856C82.6156 66.5764 82.6072 66.4344 82.654 66.2595L82.8801 65.4158L82.6639 65.3579L82.7624 64.9902L82.9786 65.0482L83.0919 64.6255L83.6199 64.767Z" fill="#4B4B4B"/>
<path d="M84.4939 65.4542L84.4576 65.6583C84.619 65.5365 84.801 65.5028 85.0037 65.5571C85.2179 65.6145 85.3397 65.7386 85.3691 65.9295C85.5298 65.7896 85.7188 65.7487 85.9361 65.8069C86.2797 65.899 86.4004 66.1548 86.2981 66.5742L86.0018 67.6802L85.4721 67.5383L85.7597 66.4652C85.783 66.3783 85.7853 66.311 85.7667 66.2634C85.7481 66.2157 85.7002 66.1816 85.6229 66.1608C85.5184 66.1329 85.4281 66.1586 85.3519 66.2381L85.3476 66.2605L85.0365 67.4216L84.5069 67.2797L84.7936 66.2097C84.8174 66.1207 84.8206 66.0525 84.803 66.0052C84.7855 65.9578 84.737 65.9235 84.6576 65.9022C84.5563 65.8751 84.4665 65.9009 84.3883 65.9799L84.0713 67.163L83.5432 67.0215L83.9987 65.3215L84.4939 65.4542Z" fill="#4B4B4B"/>
<path d="M87.6561 66.8151L87.4855 66.7559C87.3194 66.7114 87.1988 66.7352 87.1238 66.8274L86.8354 67.9036L86.3073 67.7621L86.7628 66.0621L87.258 66.1948L87.2167 66.4178C87.3501 66.2751 87.4962 66.225 87.655 66.2675C87.7114 66.2826 87.7588 66.3021 87.7972 66.3258L87.6561 66.8151Z" fill="#4B4B4B"/>
<path d="M88.6146 68.835L88.3263 68.7577L89.0529 66.046L89.3412 66.1232L88.6146 68.835Z" fill="#4B4B4B"/>
<path d="M89.4357 69.055L89.1474 68.9777L89.874 66.266L90.1623 66.3432L89.4357 69.055Z" fill="#4B4B4B"/>
<path d="M91.049 68.0357C91.1175 67.7802 91.2152 67.5515 91.342 67.3497C91.4688 67.148 91.6123 66.9866 91.7723 66.8656C91.9335 66.7449 92.0953 66.6737 92.2578 66.6521L92.2882 66.9398C92.113 67.0085 91.9545 67.1468 91.8126 67.3546C91.672 67.5617 91.56 67.819 91.4764 68.1267L91.4579 68.1958C91.3734 68.5111 91.3399 68.7951 91.3572 69.0479C91.3756 69.3009 91.444 69.5011 91.5624 69.6484L91.3923 69.8824C91.2638 69.7851 91.1594 69.642 91.079 69.4532C90.9994 69.2657 90.9555 69.0553 90.9475 68.8219C90.9395 68.5885 90.9671 68.35 91.0301 68.1064L91.049 68.0357Z" fill="#4B4B4B"/>
<path d="M93.5456 68.9539L93.9849 67.9973L94.4911 68.1329L93.636 69.7258L93.1894 69.6061L93.1792 68.5223L92.6269 69.4554L92.1803 69.3358L92.2362 67.5287L92.7423 67.6644L92.6351 68.7352L93.1795 67.7815L93.5478 67.8802L93.5456 68.9539Z" fill="#4B4B4B"/>
<path d="M94.783 70.0332L94.2534 69.8912L94.7089 68.1913L95.2385 68.3332L94.783 70.0332ZM94.795 67.7445C94.8152 67.6691 94.8589 67.6146 94.9261 67.581C94.9934 67.5474 95.0703 67.5422 95.1571 67.5654C95.2438 67.5886 95.3078 67.6316 95.3492 67.6943C95.3906 67.7571 95.4012 67.8262 95.381 67.9016C95.3608 67.977 95.3171 68.0315 95.2499 68.0651C95.1826 68.0988 95.1057 68.104 95.019 68.0807C94.9323 68.0575 94.8682 68.0145 94.8268 67.9518C94.7854 67.889 94.7748 67.82 94.795 67.7445Z" fill="#4B4B4B"/>
<path d="M96.0502 68.5507L96.014 68.7548C96.1722 68.6322 96.3542 68.5985 96.56 68.6536C96.7366 68.7009 96.854 68.7891 96.9124 68.9181C96.9718 69.0474 96.9746 69.2188 96.9207 69.4323L96.6273 70.5273L96.0977 70.3854L96.3852 69.3123C96.4082 69.2265 96.4078 69.159 96.384 69.11C96.3605 69.0599 96.3033 69.0226 96.2124 68.9983C96.109 68.9706 96.0213 68.9909 95.9492 69.0591L95.6276 70.2595L95.0995 70.118L95.555 68.418L96.0502 68.5507Z" fill="#4B4B4B"/>
<path d="M97.0856 69.7257C97.1578 69.4565 97.2726 69.2599 97.4301 69.136C97.5876 69.012 97.7703 68.9779 97.9781 69.0336C98.1296 69.0742 98.2411 69.168 98.3125 69.3152L98.5432 68.4542L99.0728 68.5961L98.4262 71.0093L97.9514 70.8821L97.9736 70.6927C97.8268 70.8061 97.6698 70.8403 97.5027 70.7956C97.3011 70.7415 97.162 70.6212 97.0855 70.4346C97.009 70.2479 97.009 70.0116 97.0856 69.7257ZM97.6049 69.9002C97.524 70.2018 97.5714 70.3762 97.7469 70.4232C97.8639 70.4545 97.9606 70.4277 98.0372 70.3427L98.2106 69.6954C98.1895 69.5819 98.1204 69.5096 98.0034 69.4782C97.8405 69.4345 97.7168 69.5429 97.6325 69.8032L97.6049 69.9002Z" fill="#4B4B4B"/>
<path d="M98.8916 70.2062C98.9371 70.0365 99.0104 69.8945 99.1116 69.7802C99.213 69.6648 99.3349 69.588 99.4773 69.5498C99.6197 69.5116 99.7739 69.5148 99.94 69.5593C100.194 69.6273 100.373 69.76 100.477 69.9573C100.581 70.1536 100.596 70.3874 100.524 70.6587L100.519 70.6775C100.448 70.9425 100.318 71.1333 100.129 71.2499C99.9407 71.3658 99.7215 71.3901 99.4708 71.3229C99.2295 71.2583 99.055 71.1341 98.9475 70.9503C98.8403 70.7655 98.8142 70.5475 98.8692 70.2962L98.8916 70.2062ZM99.4109 70.3807C99.3688 70.5378 99.3624 70.6596 99.3919 70.7461C99.4213 70.8326 99.4841 70.8887 99.5802 70.9144C99.7683 70.9648 99.9032 70.8455 99.9852 70.5565L99.9995 70.5031C100.081 70.1983 100.025 70.0198 99.8305 69.9678C99.654 69.9205 99.5232 70.0263 99.4381 70.2853L99.4109 70.3807Z" fill="#4B4B4B"/>
<path d="M102.18 71.2674L102.619 70.3108L103.125 70.4464L102.27 72.0393L101.823 71.9196L101.813 70.8358L101.261 71.7689L100.814 71.6492L100.87 69.8422L101.376 69.9778L101.269 71.0487L101.813 70.095L102.182 70.1936L102.18 71.2674Z" fill="#4B4B4B"/>
<path d="M103.13 71.7191C103.214 71.7415 103.276 71.7852 103.318 71.8503C103.36 71.9144 103.371 71.9852 103.35 72.0627C103.33 72.1402 103.285 72.1967 103.216 72.2321C103.147 72.2665 103.071 72.2725 102.988 72.2501C102.903 72.2274 102.84 72.1835 102.798 72.1184C102.757 72.0536 102.747 71.983 102.767 71.9065C102.788 71.83 102.832 71.7739 102.9 71.7382C102.969 71.7028 103.045 71.6964 103.13 71.7191Z" fill="#4B4B4B"/>
<path d="M104.798 73.1394L103.383 72.7603L103.489 72.3659L104.904 72.7451L104.798 73.1394Z" fill="#4B4B4B"/>
<path d="M106.237 70.8274L106.124 71.25L106.403 71.3247L106.305 71.6924L106.026 71.6176L105.817 72.3954C105.8 72.4592 105.8 72.5068 105.816 72.5381C105.832 72.5694 105.874 72.5942 105.942 72.6124C105.994 72.6264 106.039 72.635 106.076 72.6382L105.975 73.0169C105.872 73.0218 105.768 73.0104 105.665 72.9826C105.483 72.9339 105.36 72.855 105.297 72.7459C105.233 72.6368 105.225 72.4948 105.272 72.3198L105.498 71.4762L105.281 71.4182L105.38 71.0506L105.596 71.1085L105.709 70.6859L106.237 70.8274Z" fill="#4B4B4B"/>
<path d="M107.111 71.5145L107.075 71.7187C107.237 71.5969 107.419 71.5632 107.621 71.6175C107.835 71.6748 107.957 71.799 107.987 71.9899C108.147 71.8499 108.336 71.8091 108.554 71.8673C108.897 71.9594 109.018 72.2151 108.916 72.6345L108.619 73.7406L108.09 73.5987L108.377 72.5256C108.4 72.4386 108.403 72.3714 108.384 72.3237C108.366 72.2761 108.318 72.2419 108.24 72.2212C108.136 72.1932 108.046 72.2189 107.969 72.2985L107.965 72.3209L107.654 73.4819L107.124 73.34L107.411 72.2701C107.435 72.181 107.438 72.1129 107.421 72.0655C107.403 72.0181 107.355 71.9838 107.275 71.9625C107.174 71.9354 107.084 71.9613 107.006 72.0402L106.689 73.2233L106.161 73.0818L106.616 71.3818L107.111 71.5145Z" fill="#4B4B4B"/>
<path d="M110.274 72.8754L110.103 72.8163C109.937 72.7718 109.816 72.7956 109.741 72.8877L109.453 73.9639L108.925 73.8224L109.38 72.1225L109.875 72.2552L109.834 72.4782C109.968 72.3354 110.114 72.2853 110.273 72.3279C110.329 72.343 110.376 72.3624 110.415 72.3862L110.274 72.8754Z" fill="#4B4B4B"/>
<path d="M112.743 73.6298L111.292 73.2411L111.402 72.8326L112.853 73.2214L112.743 73.6298ZM112.559 74.3196L111.108 73.9308L111.217 73.5223L112.668 73.9111L112.559 74.3196Z" fill="#4B4B4B"/>
<path d="M114.966 72.9826L114.781 72.9331L114.123 75.3903L114.307 75.4398L114.204 75.8248L113.49 75.6333L114.355 72.4046L115.069 72.5961L114.966 72.9826Z" fill="#4B4B4B"/>
<path d="M115.113 72.6079L115.828 72.7993L114.963 76.028L114.248 75.8365L114.351 75.4516L114.538 75.5016L115.196 73.0443L115.01 72.9944L115.113 72.6079Z" fill="#4B4B4B"/>
<path d="M116.497 74.9017C116.431 75.1479 116.333 75.3718 116.201 75.5735C116.07 75.7752 115.919 75.938 115.75 76.062C115.581 76.1874 115.415 76.2586 115.252 76.2757L115.222 75.988C115.396 75.918 115.554 75.7805 115.694 75.5755C115.834 75.3705 115.945 75.1213 116.027 74.8278L116.052 74.732C116.137 74.4167 116.17 74.1326 116.151 73.8795C116.134 73.6268 116.066 73.4267 115.948 73.2794L116.118 73.0454C116.249 73.1422 116.356 73.2855 116.439 73.4751C116.524 73.664 116.573 73.8776 116.587 74.1158C116.602 74.3532 116.578 74.5922 116.516 74.8326L116.497 74.9017Z" fill="#4B4B4B"/>
<path d="M117.344 74.1841C117.428 74.2065 117.491 74.2502 117.533 74.3153C117.575 74.3794 117.586 74.4502 117.565 74.5277C117.544 74.6052 117.499 74.6617 117.43 74.6971C117.362 74.7315 117.286 74.7375 117.202 74.7151C117.118 74.6924 117.054 74.6485 117.012 74.5834C116.972 74.5186 116.961 74.448 116.982 74.3715C117.002 74.295 117.047 74.2389 117.114 74.2032C117.183 74.1678 117.26 74.1614 117.344 74.1841ZM116.618 76.5439L116.385 76.3469L116.467 76.2543C116.577 76.1378 116.65 76.0181 116.686 75.8953L116.791 75.5026L117.214 75.6159L117.121 75.9564C117.088 76.0766 117.025 76.1909 116.931 76.2993C116.837 76.4077 116.732 76.4893 116.618 76.5439Z" fill="#4B4B4B"/>
<path d="M53.6699 65.1874L52.255 64.8083L52.3606 64.4139L53.7756 64.7931L53.6699 65.1874Z" fill="#4B4B4B"/>
<path d="M55.109 62.8754L54.9958 63.298L55.2747 63.3727L55.1762 63.7404L54.8973 63.6656L54.6889 64.4433C54.6718 64.5072 54.6713 64.5548 54.6876 64.5861C54.7038 64.6174 54.7459 64.6422 54.8138 64.6604C54.866 64.6744 54.9108 64.683 54.948 64.6862L54.8465 65.0648C54.7433 65.0697 54.64 65.0583 54.5366 65.0306C54.3548 64.9819 54.2321 64.903 54.1684 64.7939C54.1047 64.6848 54.0963 64.5427 54.1431 64.3678L54.3692 63.5241L54.153 63.4662L54.2515 63.0986L54.4677 63.1565L54.581 62.7339L55.109 62.8754Z" fill="#4B4B4B"/>
<path d="M55.983 63.5625L55.9467 63.7667C56.1081 63.6449 56.2902 63.6111 56.4928 63.6654C56.707 63.7228 56.8288 63.847 56.8582 64.0378C57.0189 63.8979 57.2079 63.857 57.4252 63.9153C57.7688 64.0074 57.8895 64.2631 57.7872 64.6825L57.4909 65.7886L56.9612 65.6466L57.2488 64.5736C57.2721 64.4866 57.2744 64.4193 57.2558 64.3717C57.2372 64.3241 57.1893 64.2899 57.112 64.2692C57.0075 64.2412 56.9172 64.2669 56.8411 64.3464L56.8367 64.3689L56.5256 65.5299L55.996 65.388L56.2827 64.3181C56.3065 64.229 56.3097 64.1608 56.2922 64.1135C56.2746 64.0661 56.2261 64.0318 56.1468 64.0105C56.0454 63.9834 55.9556 64.0093 55.8774 64.0882L55.5604 65.2713L55.0323 65.1298L55.4878 63.4298L55.983 63.5625Z" fill="#4B4B4B"/>
<path d="M59.1452 64.9234L58.9746 64.8642C58.8085 64.8197 58.6879 64.8436 58.6129 64.9357L58.3245 66.0119L57.7964 65.8704L58.2519 64.1705L58.7471 64.3031L58.7058 64.5262C58.8392 64.3834 58.9853 64.3333 59.1441 64.3759C59.2005 64.391 59.2479 64.4104 59.2864 64.4342L59.1452 64.9234Z" fill="#4B4B4B"/>
<path d="M59.2002 65.6959C59.2838 65.7183 59.3465 65.7621 59.3884 65.8272C59.4306 65.8912 59.4413 65.962 59.4205 66.0395C59.3997 66.117 59.3549 66.1735 59.2861 66.209C59.2175 66.2434 59.1415 66.2494 59.0579 66.227C58.9733 66.2043 58.91 66.1604 58.8681 66.0953C58.8273 66.0305 58.8171 65.9598 58.8376 65.8833C58.8581 65.8069 58.9022 65.7508 58.97 65.7151C59.0389 65.6796 59.1156 65.6732 59.2002 65.6959Z" fill="#4B4B4B"/>
<path d="M61.5057 65.9668C61.435 66.2307 61.3189 66.4258 61.1574 66.5521C60.9973 66.6776 60.8164 66.7133 60.6148 66.6593C60.4592 66.6176 60.3465 66.5262 60.2768 66.3852L60.0642 67.1786L59.5361 67.0371L60.1668 64.6835L60.6603 64.8158L60.6339 64.9771C60.7689 64.8786 60.919 64.8514 61.084 64.8956C61.2929 64.9516 61.4346 65.0727 61.509 65.2588C61.5837 65.4438 61.5849 65.6714 61.5125 65.9417L61.5057 65.9668ZM60.9865 65.7923C61.0673 65.4907 61.02 65.3163 60.8445 65.2693C60.7191 65.2357 60.6235 65.2583 60.5576 65.3372L60.3782 66.0065C60.3989 66.1131 60.4709 66.1829 60.5942 66.2159C60.7624 66.261 60.8881 66.1387 60.9714 65.8489L60.9865 65.7923Z" fill="#4B4B4B"/>
<path d="M62.5748 66.9538C62.4245 67.0673 62.2544 67.0986 62.0642 67.0477C61.8783 66.9978 61.7517 66.9061 61.6845 66.7725C61.6187 66.6381 61.6129 66.4693 61.6674 66.2661L61.9625 65.1647L62.4906 65.3062L62.1946 66.4107C62.1556 66.5563 62.2066 66.648 62.3476 66.6858C62.4688 66.7182 62.5666 66.6979 62.6411 66.6247L62.9606 65.4322L63.4918 65.5745L63.0363 67.2745L62.5412 67.1418L62.5748 66.9538Z" fill="#4B4B4B"/>
<path d="M64.3427 67.1126C64.3547 67.0675 64.3409 67.0251 64.3012 66.9853C64.2615 66.9454 64.1798 66.8932 64.056 66.8286C63.9322 66.764 63.8338 66.6967 63.7608 66.6266C63.688 66.5555 63.6383 66.4799 63.6117 66.3997C63.585 66.3196 63.5834 66.2356 63.607 66.1476C63.6488 65.9915 63.7474 65.8804 63.9029 65.8143C64.0586 65.7471 64.2404 65.7414 64.4483 65.7971C64.6718 65.857 64.8379 65.9559 64.9465 66.0939C65.0551 66.2319 65.0872 66.3837 65.0428 66.5492L64.5132 66.4072C64.5497 66.2711 64.4964 66.1838 64.3533 66.1455C64.2979 66.1306 64.2472 66.1339 64.2012 66.1552C64.1554 66.1755 64.1264 66.2087 64.114 66.2548C64.1014 66.3019 64.1141 66.3463 64.1522 66.388C64.1903 66.4296 64.257 66.4733 64.3522 66.519C64.4485 66.565 64.5313 66.6113 64.6005 66.658C64.8318 66.8142 64.9171 67.006 64.8561 67.2333C64.8146 67.3883 64.7118 67.4961 64.5479 67.5565C64.3849 67.6173 64.1943 67.6184 63.9759 67.5599C63.8307 67.521 63.7082 67.4601 63.6084 67.3772C63.5085 67.2943 63.4388 67.1993 63.3992 67.0922C63.3597 66.985 63.3532 66.8817 63.3799 66.7822L63.8735 66.9144C63.8545 66.9936 63.8652 67.0582 63.9055 67.1083C63.9461 67.1573 64.0056 67.1923 64.0839 67.2133C64.156 67.2326 64.2137 67.2324 64.2571 67.2126C64.3015 67.193 64.33 67.1597 64.3427 67.1126Z" fill="#4B4B4B"/>
<path d="M65.8953 66.4138C66.0463 66.3016 66.2095 66.269 66.385 66.3161C66.572 66.3662 66.6982 66.4595 66.7635 66.596C66.8288 66.7325 66.8335 66.9094 66.7775 67.1268L66.4899 68.1998L65.9603 68.0579L66.2445 66.9974C66.2686 66.9073 66.268 66.8365 66.2427 66.7848C66.2176 66.732 66.1612 66.6939 66.0734 66.6704C65.9648 66.6413 65.8788 66.6553 65.8153 66.7124L65.4886 67.9315L64.9606 67.7901L65.6072 65.3768L66.1353 65.5183L65.8953 66.4138Z" fill="#4B4B4B"/>
<path d="M67.0729 67.3592C67.1414 67.1036 67.239 66.8749 67.3659 66.6732C67.4927 66.4714 67.6362 66.31 67.7962 66.189C67.9574 66.0683 68.1192 65.9971 68.2817 65.9756L68.3121 66.2632C68.1369 66.3319 67.9784 66.4702 67.8365 66.678C67.6959 66.8851 67.5839 67.1425 67.5003 67.4501L67.4818 67.5192C67.3973 67.8345 67.3638 68.1185 67.3811 68.3713C67.3995 68.6243 67.4679 68.8245 67.5863 68.9719L67.4162 69.2058C67.2877 69.1085 67.1833 68.9655 67.1029 68.7766C67.0232 68.5892 66.9794 68.3787 66.9714 68.1453C66.9634 67.9119 66.9909 67.6734 67.054 67.4299L67.0729 67.3592Z" fill="#4B4B4B"/>
<path d="M68.4992 69.3444C68.1515 69.1379 68.0287 68.844 68.1309 68.4627L68.2142 68.1516C68.2709 67.9401 68.2146 67.8116 68.0454 67.7662L68.141 67.4096C68.3102 67.455 68.4233 67.3713 68.4803 67.1587L68.5687 66.8287C68.6223 66.6411 68.7117 66.5017 68.8369 66.4106C68.9631 66.3198 69.1252 66.2729 69.3231 66.2698L69.3477 66.5727C69.2026 66.5877 69.0964 66.7103 69.0292 66.9404L68.9378 67.2813C68.875 67.5159 68.734 67.6555 68.5149 67.7001C68.6823 67.8482 68.7345 68.0401 68.6713 68.2758L68.5804 68.6152C68.5236 68.848 68.5543 69.0073 68.6724 69.0928L68.4992 69.3444Z" fill="#4B4B4B"/>
<path d="M69.5189 69.0114L68.9892 68.8695L69.4447 67.1696L69.9744 67.3115L69.5189 69.0114ZM69.5308 66.7228C69.5511 66.6474 69.5948 66.5929 69.662 66.5593C69.7292 66.5256 69.8062 66.5204 69.8929 66.5437C69.9796 66.5669 70.0437 66.6099 70.0851 66.6726C70.1265 66.7354 70.1371 66.8044 70.1169 66.8799C70.0967 66.9553 70.053 67.0098 69.9857 67.0434C69.9185 67.077 69.8415 67.0822 69.7548 67.059C69.6681 67.0358 69.6041 66.9928 69.5627 66.9301C69.5212 66.8673 69.5106 66.7982 69.5308 66.7228Z" fill="#4B4B4B"/>
<path d="M70.0101 68.2186C70.0822 67.9494 70.197 67.7528 70.3545 67.6289C70.512 67.5049 70.6947 67.4708 70.9026 67.5265C71.0541 67.5671 71.1655 67.661 71.2369 67.8081L71.4676 66.9471L71.9973 67.089L71.3506 69.5023L70.8758 69.375L70.898 69.1857C70.7512 69.299 70.5943 69.3333 70.4271 69.2885C70.2255 69.2345 70.0864 69.1141 70.0099 68.9275C69.9334 68.7408 69.9335 68.5045 70.0101 68.2186ZM70.5293 68.3931C70.4485 68.6947 70.4958 68.8691 70.6713 68.9161C70.7883 68.9475 70.8851 68.9206 70.9616 68.8356L71.1351 68.1883C71.1139 68.0749 71.0449 68.0025 70.9279 67.9711C70.7649 67.9275 70.6413 68.0358 70.557 68.2961L70.5293 68.3931Z" fill="#4B4B4B"/>
<path d="M72.1166 69.1569C72.2002 69.1793 72.263 69.223 72.3048 69.2881C72.347 69.3522 72.3577 69.423 72.337 69.5005C72.3162 69.578 72.2714 69.6345 72.2025 69.6699C72.134 69.7043 72.0579 69.7103 71.9744 69.6879C71.8897 69.6652 71.8265 69.6213 71.7846 69.5562C71.7437 69.4914 71.7336 69.4208 71.754 69.3443C71.7745 69.2678 71.8187 69.2117 71.8865 69.176C71.9553 69.1406 72.032 69.1342 72.1166 69.1569ZM72.4526 67.9031C72.5362 67.9255 72.5989 67.9693 72.6408 68.0344C72.683 68.0984 72.6937 68.1692 72.6729 68.2467C72.6521 68.3242 72.6073 68.3807 72.5385 68.4162C72.4699 68.4506 72.3939 68.4566 72.3103 68.4342C72.2257 68.4115 72.1624 68.3676 72.1205 68.3025C72.0797 68.2376 72.0695 68.167 72.09 68.0905C72.1105 68.0141 72.1546 67.958 72.2224 67.9223C72.2912 67.8868 72.368 67.8804 72.4526 67.9031Z" fill="#4B4B4B"/>
<path d="M74.2551 67.9264L74.0072 68.5824L73.7141 68.5038L73.9533 67.6114L74.3137 67.708L74.2551 67.9264ZM74.8051 68.0738L74.5572 68.7297L74.2673 68.6521L74.5064 67.7597L74.8637 67.8554L74.8051 68.0738Z" fill="#4B4B4B"/>
<path d="M76.017 70.7526L74.425 70.326L74.5176 69.9804L75.4581 69.4039C75.6941 69.246 75.8284 69.1063 75.8609 68.9848C75.8873 68.8863 75.886 68.8057 75.8569 68.7429C75.8278 68.6801 75.7725 68.6378 75.6911 68.6159C75.6106 68.5944 75.5361 68.6115 75.4674 68.6672C75.399 68.7218 75.3511 68.8004 75.3236 68.9031L74.7939 68.7612C74.8315 68.6208 74.9012 68.5008 75.0029 68.4012C75.1049 68.3006 75.227 68.2334 75.3693 68.1997C75.5116 68.1659 75.6595 68.1697 75.813 68.2108C76.0596 68.2769 76.2339 68.3848 76.336 68.5345C76.4391 68.6845 76.462 68.8663 76.4048 69.08C76.3806 69.1701 76.3403 69.2536 76.2839 69.3305C76.2277 69.4064 76.1515 69.4819 76.0552 69.5572C75.9602 69.6316 75.8134 69.7264 75.6146 69.8416L75.2286 70.1036L76.1265 70.3441L76.017 70.7526Z" fill="#4B4B4B"/>
<path d="M78.4064 69.2442L77.0168 71.0205L76.4589 70.871L77.8164 69.2208L76.7289 68.9294L76.8384 68.5209L78.4821 68.9614L78.4064 69.2442Z" fill="#4B4B4B"/>
<path d="M79.3124 71.6356L78.7827 71.4937L79.2357 69.8032L78.6746 69.8162L78.7824 69.414L79.8767 69.335L79.9253 69.348L79.3124 71.6356Z" fill="#4B4B4B"/>
<path d="M81.8976 69.8411L81.786 70.2575L81.7625 70.2512C81.5651 70.1983 81.3898 70.2024 81.2369 70.2636C81.0852 70.324 80.9721 70.4346 80.8977 70.5954C81.0482 70.51 81.2144 70.4916 81.3961 70.5403C81.5936 70.5932 81.7314 70.7076 81.8097 70.8835C81.888 71.0594 81.8957 71.2647 81.8328 71.4993C81.7938 71.6449 81.7235 71.7692 81.622 71.8722C81.5216 71.9755 81.4005 72.0452 81.2587 72.0813C81.1182 72.1167 80.9733 72.1143 80.8239 72.0743C80.662 72.0309 80.5271 71.9555 80.4193 71.848C80.3118 71.7395 80.2409 71.6071 80.2066 71.4509C80.1724 71.2946 80.1782 71.1267 80.2241 70.947L80.2809 70.7349C80.3441 70.4992 80.4509 70.3011 80.6014 70.1405C80.7533 69.9791 80.937 69.87 81.1526 69.8133C81.3682 69.7566 81.5899 69.7587 81.8176 69.8197L81.8976 69.8411ZM81.1042 70.8966C81.0342 70.8778 80.9714 70.8784 80.9156 70.8982C80.8599 70.9181 80.8143 70.9485 80.7787 70.9895L80.7361 71.1482C80.6587 71.4373 80.7197 71.6086 80.9192 71.662C80.9997 71.6836 81.0762 71.6654 81.1489 71.6074C81.2226 71.5496 81.274 71.4663 81.3032 71.3574C81.3332 71.2453 81.3299 71.1468 81.2934 71.0618C81.2581 70.976 81.1951 70.9209 81.1042 70.8966Z" fill="#4B4B4B"/>
<path d="M83.1361 71.7121C82.9948 71.7843 82.8536 71.8014 82.7126 71.7637C82.5057 71.7082 82.3605 71.5941 82.2769 71.4213C82.1934 71.2485 82.183 71.0447 82.2459 70.8101C82.2852 70.6635 82.3556 70.5364 82.4572 70.4289C82.5588 70.3214 82.6805 70.2474 82.8224 70.2068C82.9653 70.1665 83.1109 70.1663 83.2592 70.206C83.4097 70.2463 83.5352 70.3209 83.6359 70.4299C83.7379 70.538 83.8042 70.6709 83.8348 70.8284C83.8657 70.9848 83.8579 71.1539 83.8114 71.3357L83.7571 71.5384C83.6894 71.7908 83.5812 71.9964 83.4323 72.1552C83.2844 72.3143 83.1057 72.4191 82.8962 72.4696C82.6868 72.5201 82.4603 72.5128 82.2169 72.4476L82.184 72.4387L82.2977 72.0145L82.3984 72.0398C82.7667 72.1194 83.0126 72.0102 83.1361 71.7121ZM82.9574 71.4201C83.0724 71.4509 83.1682 71.4232 83.245 71.3372L83.304 71.1172C83.3432 70.9706 83.3477 70.8556 83.3174 70.7722C83.2872 70.6889 83.2302 70.6361 83.1467 70.6137C83.0725 70.5938 82.9997 70.6169 82.9282 70.6831C82.8567 70.7493 82.8058 70.8389 82.7755 70.952C82.7435 71.0714 82.7436 71.1736 82.7757 71.2586C82.8081 71.3424 82.8686 71.3963 82.9574 71.4201Z" fill="#4B4B4B"/>
<path d="M85.705 71.5518C85.6753 71.6628 85.6214 71.7533 85.5433 71.8233C85.4662 71.8936 85.3727 71.9415 85.2629 71.9671C85.3572 72.0496 85.4238 72.146 85.4625 72.2563C85.5015 72.3656 85.5041 72.4836 85.4701 72.6103C85.4154 72.8146 85.3016 72.957 85.1289 73.0375C84.9572 73.1184 84.7481 73.1258 84.5015 73.0597C84.254 72.9934 84.0745 72.8819 83.9631 72.7252C83.852 72.5674 83.8236 72.3869 83.8781 72.1837C83.9109 72.0612 83.9713 71.9612 84.0592 71.8837C84.1472 71.8062 84.2559 71.7556 84.3854 71.732C84.302 71.6546 84.244 71.5661 84.2113 71.4664C84.1787 71.3668 84.1773 71.2614 84.207 71.1504C84.2603 70.9514 84.3698 70.8123 84.5354 70.7332C84.7011 70.6541 84.8983 70.6452 85.1271 70.7065C85.3579 70.7683 85.5253 70.8749 85.6292 71.0263C85.7331 71.1776 85.7584 71.3528 85.705 71.5518ZM84.9518 72.426C84.9771 72.3317 84.9719 72.2529 84.9363 72.1894C84.902 72.1252 84.8451 72.0825 84.7657 72.0612C84.6863 72.0399 84.6152 72.0484 84.5524 72.0866C84.4898 72.1237 84.4459 72.1894 84.4206 72.2836C84.3962 72.3748 84.4014 72.4536 84.4362 72.5202C84.4723 72.586 84.5306 72.6297 84.611 72.6512C84.6894 72.6722 84.7596 72.663 84.8217 72.6235C84.8837 72.584 84.9271 72.5181 84.9518 72.426ZM85.0176 71.115C84.9466 71.0959 84.8859 71.105 84.8357 71.142C84.7868 71.1783 84.7512 71.2378 84.7291 71.3206C84.7072 71.4023 84.7083 71.4733 84.7324 71.5336C84.7566 71.594 84.8052 71.634 84.8783 71.6536C84.9504 71.6729 85.0109 71.6622 85.0599 71.6214C85.11 71.5809 85.1459 71.5198 85.1678 71.4381C85.1897 71.3564 85.1882 71.287 85.1632 71.2298C85.1393 71.1728 85.0907 71.1346 85.0176 71.115Z" fill="#4B4B4B"/>
<path d="M87.1675 73.7404L85.5755 73.3138L85.6681 72.9682L86.6086 72.3917C86.8446 72.2337 86.9789 72.094 87.0114 71.9725C87.0378 71.8741 87.0365 71.7935 87.0074 71.7307C86.9783 71.6679 86.923 71.6255 86.8415 71.6037C86.7611 71.5822 86.6866 71.5992 86.6179 71.6549C86.5495 71.7096 86.5016 71.7882 86.4741 71.8909L85.9444 71.7489C85.982 71.6086 86.0517 71.4886 86.1534 71.389C86.2554 71.2884 86.3775 71.2212 86.5198 71.1874C86.6621 71.1537 86.81 71.1574 86.9635 71.1986C87.2101 71.2646 87.3844 71.3725 87.4865 71.5222C87.5896 71.6722 87.6125 71.8541 87.5553 72.0677C87.5311 72.1578 87.4908 72.2413 87.4344 72.3183C87.3782 72.3941 87.302 72.4697 87.2057 72.5449C87.1107 72.6194 86.9639 72.7142 86.7651 72.8293L86.3791 73.0913L87.277 73.3319L87.1675 73.7404Z" fill="#4B4B4B"/>
<path d="M88.2826 71.685L88.0346 72.341L87.7416 72.2625L87.9807 71.3701L88.3411 71.4666L88.2826 71.685ZM88.8326 71.8324L88.5846 72.4884L88.2947 72.4107L88.5338 71.5183L88.8911 71.614L88.8326 71.8324Z" fill="#4B4B4B"/>
<path d="M88.4817 74.7526L88.249 74.5556L88.3309 74.463C88.4405 74.3464 88.5135 74.2268 88.5497 74.104L88.655 73.7112L89.078 73.8246L88.9851 74.1651C88.9518 74.2853 88.8881 74.3996 88.7942 74.508C88.7002 74.6164 88.596 74.6979 88.4817 74.7526Z" fill="#4B4B4B"/>
<path d="M91.309 72.5751L91.1957 72.9977L91.4746 73.0725L91.3761 73.4401L91.0972 73.3654L90.8888 74.1431C90.8717 74.207 90.8713 74.2546 90.8875 74.2859C90.9037 74.3172 90.9458 74.3419 91.0137 74.3601C91.066 74.3741 91.1107 74.3827 91.1479 74.3859L91.0464 74.7646C90.9432 74.7695 90.8399 74.7581 90.7365 74.7304C90.5547 74.6817 90.432 74.6027 90.3683 74.4936C90.3046 74.3845 90.2962 74.2425 90.3431 74.0676L90.5691 73.2239L90.3529 73.1659L90.4514 72.7983L90.6676 72.8562L90.7809 72.4336L91.309 72.5751Z" fill="#4B4B4B"/>
<path d="M92.1047 74.2685L92.6436 73.3857L93.2092 73.5373L91.9865 75.3364L91.9374 75.4007C91.7802 75.5944 91.5774 75.6579 91.3287 75.5913C91.2598 75.5728 91.19 75.5429 91.1194 75.5015L91.2208 75.1228L91.2898 75.1413C91.3639 75.1612 91.4233 75.1653 91.4678 75.1537C91.5131 75.1433 91.5526 75.113 91.5863 75.0625L91.6589 74.9607L91.5295 73.0872L92.0936 73.2383L92.1047 74.2685Z" fill="#4B4B4B"/>
<path d="M94.6908 74.8587C94.6201 75.1227 94.504 75.3178 94.3425 75.444C94.1824 75.5695 94.0015 75.6052 93.7999 75.5512C93.6442 75.5095 93.5316 75.4181 93.4619 75.2771L93.2493 76.0705L92.7212 75.929L93.3518 73.5755L93.8454 73.7077L93.819 73.869C93.954 73.7705 94.104 73.7433 94.2691 73.7876C94.478 73.8435 94.6197 73.9646 94.6941 74.1507C94.7688 74.3357 94.77 74.5633 94.6976 74.8336L94.6908 74.8587ZM94.1716 74.6842C94.2524 74.3826 94.2051 74.2082 94.0296 74.1612C93.9042 74.1276 93.8086 74.1503 93.7427 74.2291L93.5633 74.8984C93.584 75.005 93.656 75.0748 93.7793 75.1079C93.9475 75.1529 94.0732 75.0306 94.1564 74.7408L94.1716 74.6842Z" fill="#4B4B4B"/>
<path d="M95.5126 76.0101C95.2525 75.9404 95.0627 75.8065 94.9434 75.6084C94.8243 75.4092 94.7982 75.185 94.865 74.9357L94.8768 74.8917C94.9234 74.7178 94.9964 74.5729 95.0957 74.457C95.1961 74.3413 95.3177 74.2639 95.4603 74.2246C95.6032 74.1843 95.7593 74.1869 95.9285 74.2322C96.1667 74.296 96.3348 74.4208 96.4328 74.6065C96.5312 74.7911 96.5448 75.0159 96.4738 75.2809L96.4187 75.4867L95.3688 75.2054C95.3621 75.3058 95.3833 75.3917 95.4324 75.4632C95.4815 75.5348 95.5567 75.5841 95.6581 75.6113C95.8252 75.6561 95.9715 75.6324 96.097 75.5403L96.2617 75.8909C96.1714 75.9644 96.0584 76.0121 95.9227 76.0341C95.7882 76.0553 95.6515 76.0473 95.5126 76.0101ZM95.8159 74.6399C95.6613 74.5984 95.5419 74.6764 95.4576 74.8739L95.9904 75.0167L96.0013 74.9758C96.0262 74.8915 96.0223 74.8203 95.9897 74.7622C95.9574 74.703 95.8995 74.6622 95.8159 74.6399Z" fill="#4B4B4B"/>
<path d="M96.9154 75.8017C96.9989 75.8241 97.0617 75.8678 97.1036 75.9329C97.1457 75.997 97.1564 76.0678 97.1357 76.1453C97.1149 76.2228 97.0701 76.2793 97.0013 76.3147C96.9327 76.3491 96.8566 76.3551 96.7731 76.3327C96.6885 76.31 96.6252 76.2661 96.5833 76.201C96.5425 76.1362 96.5323 76.0656 96.5528 75.9891C96.5733 75.9126 96.6174 75.8565 96.6852 75.8208C96.754 75.7854 96.8307 75.779 96.9154 75.8017ZM97.2513 74.5479C97.3349 74.5703 97.3976 74.6141 97.4395 74.6792C97.4817 74.7432 97.4924 74.814 97.4716 74.8915C97.4508 74.969 97.406 75.0255 97.3372 75.061C97.2686 75.0953 97.1926 75.1013 97.109 75.079C97.0244 75.0563 96.9611 75.0124 96.9192 74.9473C96.8784 74.8824 96.8682 74.8118 96.8887 74.7353C96.9092 74.6589 96.9533 74.6028 97.0211 74.5671C97.09 74.5316 97.1667 74.5252 97.2513 74.5479Z" fill="#4B4B4B"/>
<path d="M99.0539 74.5712L98.8059 75.2271L98.5128 75.1486L98.752 74.2562L99.1124 74.3528L99.0539 74.5712ZM99.6039 74.7186L99.3559 75.3745L99.066 75.2968L99.3051 74.4044L99.6624 74.5002L99.6039 74.7186Z" fill="#4B4B4B"/>
<path d="M100.999 76.5491C100.929 76.813 100.813 77.0081 100.651 77.1344C100.491 77.2599 100.31 77.2956 100.108 77.2416C99.9528 77.1999 99.8401 77.1085 99.7705 76.9675L99.5579 77.7609L99.0298 77.6194L99.6604 75.2658L100.154 75.3981L100.128 75.5594C100.263 75.4609 100.413 75.4337 100.578 75.4779C100.787 75.5339 100.928 75.655 101.003 75.841C101.077 76.0261 101.079 76.2537 101.006 76.524L100.999 76.5491ZM100.48 76.3746C100.561 76.073 100.514 75.8986 100.338 75.8516C100.213 75.818 100.117 75.8406 100.051 75.9195L99.8719 76.5888C99.8926 76.6954 99.9646 76.7652 100.088 76.7982C100.256 76.8433 100.382 76.7209 100.465 76.4312L100.48 76.3746Z" fill="#4B4B4B"/>
<path d="M101.964 77.7052C101.955 77.6656 101.952 77.6103 101.955 77.5393C101.825 77.6359 101.673 77.6607 101.498 77.614C101.339 77.5712 101.216 77.4866 101.13 77.3603C101.044 77.2329 101.021 77.0959 101.06 76.9493C101.11 76.765 101.215 76.6438 101.376 76.586C101.537 76.5281 101.747 76.5339 102.006 76.6033L102.169 76.6469L102.193 76.5574C102.235 76.4013 102.188 76.3052 102.054 76.2691C101.928 76.2355 101.849 76.2805 101.816 76.4041L101.288 76.2626C101.332 76.0982 101.437 75.9833 101.604 75.9178C101.771 75.8527 101.963 75.8491 102.179 75.907C102.395 75.965 102.552 76.0636 102.649 76.203C102.746 76.3424 102.771 76.5047 102.725 76.6899L102.523 77.4424C102.484 77.5991 102.476 77.7249 102.5 77.82L102.492 77.8467L101.964 77.7052ZM101.726 77.2709C101.792 77.2886 101.85 77.289 101.901 77.2722C101.952 77.2557 101.992 77.2321 102.02 77.2015L102.093 76.9297L101.94 76.8886C101.756 76.8393 101.642 76.8974 101.597 77.0629C101.584 77.1111 101.59 77.1547 101.614 77.1938C101.639 77.2318 101.676 77.2575 101.726 77.2709Z" fill="#4B4B4B"/>
<path d="M102.883 77.027C102.929 76.8552 102.998 76.7109 103.09 76.594C103.182 76.4771 103.29 76.3972 103.415 76.3543C103.539 76.3103 103.672 76.307 103.812 76.3445C103.988 76.3919 104.11 76.4885 104.178 76.6345L104.236 76.4919L104.715 76.6203L104.277 78.2559C104.237 78.4057 104.167 78.5262 104.068 78.6174C103.969 78.7099 103.846 78.7679 103.699 78.7913C103.551 78.8157 103.391 78.8047 103.217 78.7582C103.093 78.7249 102.979 78.669 102.874 78.5905C102.771 78.5123 102.698 78.4273 102.657 78.3353L102.961 78.0835C103.028 78.226 103.142 78.3189 103.303 78.362C103.537 78.4247 103.686 78.3356 103.751 78.0947L103.765 78.0413C103.634 78.1262 103.491 78.1479 103.336 78.1065C103.13 78.0511 102.984 77.9272 102.899 77.7349C102.814 77.5416 102.807 77.3119 102.878 77.0458L102.883 77.027ZM103.404 77.2019C103.367 77.3412 103.363 77.4587 103.394 77.5544C103.424 77.649 103.487 77.7089 103.581 77.7341C103.694 77.7646 103.788 77.7487 103.861 77.6862L104.052 76.9713C104.022 76.8801 103.95 76.8194 103.837 76.7891C103.743 76.764 103.658 76.7866 103.582 76.8572C103.506 76.9267 103.447 77.0416 103.404 77.2019Z" fill="#4B4B4B"/>
<path d="M105.372 78.6519C105.112 78.5822 104.922 78.4483 104.803 78.2502C104.684 78.051 104.658 77.8268 104.724 77.5775L104.736 77.5335C104.783 77.3596 104.856 77.2147 104.955 77.0988C105.055 76.9831 105.177 76.9057 105.32 76.8664C105.463 76.8261 105.619 76.8287 105.788 76.874C106.026 76.9378 106.194 77.0626 106.292 77.2482C106.39 77.4329 106.404 77.6577 106.333 77.9227L106.278 78.1285L105.228 77.8472C105.221 77.9476 105.243 78.0335 105.292 78.105C105.341 78.1766 105.416 78.2259 105.517 78.2531C105.685 78.2979 105.831 78.2742 105.956 78.1821L106.121 78.5327C106.031 78.6062 105.918 78.6539 105.782 78.6759C105.648 78.6971 105.511 78.6891 105.372 78.6519ZM105.675 77.2816C105.521 77.2402 105.401 77.3182 105.317 77.5157L105.85 77.6584L105.861 77.6176C105.885 77.5333 105.882 77.4621 105.849 77.404C105.817 77.3448 105.759 77.304 105.675 77.2816Z" fill="#4B4B4B"/>
<path d="M107.385 78.4908L108.286 76.9472L108.9 77.1118L107.519 79.1936L106.918 79.0324L106.769 76.5408L107.378 76.7041L107.385 78.4908Z" fill="#4B4B4B"/>
<path d="M108.987 79.587L108.458 79.4451L108.913 77.7451L109.443 77.8871L108.987 79.587ZM108.999 77.2984C109.02 77.223 109.063 77.1685 109.131 77.1348C109.198 77.1012 109.275 77.096 109.362 77.1193C109.448 77.1425 109.512 77.1855 109.554 77.2482C109.595 77.311 109.606 77.38 109.585 77.4554C109.565 77.5309 109.522 77.5854 109.454 77.619C109.387 77.6526 109.31 77.6578 109.223 77.6346C109.137 77.6114 109.073 77.5684 109.031 77.5056C108.99 77.4429 108.979 77.3738 108.999 77.2984Z" fill="#4B4B4B"/>
<path d="M110.126 79.9258C109.866 79.8561 109.676 79.7222 109.557 79.5241C109.438 79.3249 109.412 79.1007 109.478 78.8514L109.49 78.8074C109.537 78.6335 109.61 78.4886 109.709 78.3726C109.81 78.257 109.931 78.1795 110.074 78.1403C110.217 78.1 110.373 78.1025 110.542 78.1479C110.78 78.2117 110.948 78.3364 111.046 78.5221C111.145 78.7068 111.158 78.9316 111.087 79.1966L111.032 79.4024L109.982 79.1211C109.976 79.2214 109.997 79.3074 110.046 79.3789C110.095 79.4505 110.17 79.4998 110.272 79.5269C110.439 79.5717 110.585 79.5481 110.71 79.456L110.875 79.8066C110.785 79.88 110.672 79.9278 110.536 79.9498C110.402 79.971 110.265 79.963 110.126 79.9258ZM110.429 78.5555C110.275 78.5141 110.155 78.5921 110.071 78.7896L110.604 78.9323L110.615 78.8915C110.64 78.8072 110.636 78.736 110.603 78.6779C110.571 78.6187 110.513 78.5779 110.429 78.5555Z" fill="#4B4B4B"/>
<path d="M112.714 79.8379L113.154 78.8813L113.66 79.0169L112.805 80.6098L112.358 80.4902L112.348 79.4063L111.795 80.3394L111.349 80.2198L111.405 78.4127L111.911 78.5484L111.804 79.6192L112.348 78.6655L112.716 78.7642L112.714 79.8379Z" fill="#4B4B4B"/>
<path d="M114.235 78.6389L113.987 79.2948L113.694 79.2163L113.933 78.3239L114.293 78.4205L114.235 78.6389ZM114.785 78.7862L114.537 79.4422L114.247 79.3645L114.486 78.4721L114.843 78.5678L114.785 78.7862Z" fill="#4B4B4B"/>
<path d="M114.434 81.7064L114.201 81.5094L114.283 81.4168C114.393 81.3002 114.465 81.1806 114.502 81.0578L114.607 80.665L115.03 80.7784L114.937 81.1189C114.904 81.2391 114.84 81.3534 114.746 81.4618C114.652 81.5702 114.548 81.6517 114.434 81.7064Z" fill="#4B4B4B"/>
<path d="M52.0874 69.5766C52.0995 69.5316 52.0857 69.4891 52.046 69.4493C52.0063 69.4095 51.9245 69.3572 51.8008 69.2927C51.677 69.2281 51.5786 69.1607 51.5056 69.0906C51.4328 69.0195 51.3831 68.9439 51.3564 68.8637C51.3297 68.7836 51.3282 68.6996 51.3518 68.6116C51.3936 68.4555 51.4922 68.3444 51.6476 68.2783C51.8034 68.2111 51.9852 68.2054 52.193 68.2611C52.4166 68.321 52.5827 68.42 52.6912 68.5579C52.7998 68.6959 52.8319 68.8477 52.7876 69.0132L52.258 68.8713C52.2944 68.7351 52.2411 68.6478 52.098 68.6095C52.0426 68.5946 51.9919 68.5979 51.9459 68.6192C51.9002 68.6395 51.8711 68.6727 51.8588 68.7188C51.8461 68.766 51.8589 68.8103 51.897 68.852C51.9351 68.8936 52.0018 68.9373 52.097 68.983C52.1933 69.029 52.276 69.0754 52.3453 69.122C52.5766 69.2783 52.6618 69.47 52.6009 69.6973C52.5594 69.8524 52.4566 69.9601 52.2926 70.0206C52.1297 70.0813 51.939 70.0824 51.7207 70.0239C51.5755 69.985 51.453 69.9241 51.3531 69.8412C51.2533 69.7583 51.1836 69.6633 51.144 69.5562C51.1044 69.449 51.098 69.3457 51.1246 69.2462L51.6182 69.3785C51.5993 69.4576 51.6099 69.5222 51.6503 69.5723C51.6909 69.6213 51.7503 69.6563 51.8287 69.6773C51.9008 69.6966 51.9585 69.6964 52.0019 69.6766C52.0463 69.6571 52.0748 69.6237 52.0874 69.5766Z" fill="#4B4B4B"/>
<path d="M53.9009 68.2994L53.7876 68.7221L54.0665 68.7968L53.968 69.1644L53.6891 69.0897L53.4807 69.8674C53.4636 69.9313 53.4632 69.9789 53.4794 70.0102C53.4957 70.0415 53.5377 70.0662 53.6056 70.0844C53.6579 70.0984 53.7026 70.107 53.7398 70.1103L53.6383 70.4889C53.5351 70.4938 53.4318 70.4824 53.3284 70.4547C53.1466 70.406 53.0239 70.3271 52.9602 70.218C52.8965 70.1088 52.8881 69.9668 52.935 69.7919L53.161 68.9482L52.9448 68.8903L53.0433 68.5226L53.2595 68.5806L53.3728 68.1579L53.9009 68.2994Z" fill="#4B4B4B"/>
<path d="M54.7753 70.8087C54.7657 70.7691 54.7626 70.7138 54.766 70.6429C54.636 70.7394 54.4838 70.7643 54.3093 70.7175C54.1495 70.6747 54.0266 70.5901 53.9406 70.4638C53.855 70.3365 53.8318 70.1995 53.8711 70.0528C53.9205 69.8685 54.0257 69.7474 54.1867 69.6895C54.3478 69.6316 54.5579 69.6374 54.8169 69.7068L54.9799 69.7505L55.0039 69.6609C55.0457 69.5048 54.9992 69.4088 54.8645 69.3727C54.7391 69.3391 54.6599 69.3841 54.6268 69.5077L54.0987 69.3662C54.1428 69.2017 54.248 69.0868 54.4145 69.0214C54.582 68.9562 54.7738 68.9526 54.9901 69.0106C55.2063 69.0685 55.3629 69.1672 55.4599 69.3066C55.5569 69.4459 55.5823 69.6082 55.5361 69.7934L55.3344 70.546C55.2947 70.7026 55.2867 70.8284 55.3105 70.9235L55.3033 70.9502L54.7753 70.8087ZM54.5373 70.3745C54.6031 70.3921 54.6612 70.3925 54.7116 70.3757C54.7631 70.3592 54.803 70.3356 54.8313 70.3051L54.9041 70.0333L54.7506 69.9921C54.5667 69.9429 54.4526 70.001 54.4083 70.1665C54.3954 70.2146 54.401 70.2583 54.4253 70.2973C54.4498 70.3353 54.4871 70.361 54.5373 70.3745Z" fill="#4B4B4B"/>
<path d="M56.8778 70.0637L56.7072 70.0045C56.5411 69.96 56.4205 69.9838 56.3454 70.0759L56.0571 71.1522L55.529 71.0107L55.9845 69.3107L56.4797 69.4434L56.4384 69.6664C56.5718 69.5236 56.7179 69.4735 56.8767 69.5161C56.9331 69.5312 56.9805 69.5506 57.0189 69.5744L56.8778 70.0637Z" fill="#4B4B4B"/>
<path d="M58.0032 69.3986L57.8899 69.8213L58.1688 69.896L58.0703 70.2636L57.7914 70.1889L57.583 70.9666C57.5659 71.0305 57.5655 71.0781 57.5817 71.1094C57.598 71.1407 57.64 71.1654 57.7079 71.1836C57.7602 71.1976 57.8049 71.2062 57.8421 71.2095L57.7406 71.5881C57.6374 71.593 57.5341 71.5816 57.4307 71.5539C57.2489 71.5052 57.1262 71.4263 57.0625 71.3172C56.9988 71.208 56.9904 71.066 57.0373 70.8911L57.2633 70.0474L57.0471 69.9895L57.1456 69.6218L57.3619 69.6798L57.4751 69.2571L58.0032 69.3986Z" fill="#4B4B4B"/>
<path d="M58.3885 71.2262C58.472 71.2486 58.5348 71.2924 58.5767 71.3575C58.6188 71.4215 58.6295 71.4923 58.6088 71.5698C58.588 71.6473 58.5432 71.7038 58.4744 71.7393C58.4058 71.7736 58.3297 71.7796 58.2462 71.7573C58.1616 71.7346 58.0983 71.6907 58.0564 71.6256C58.0156 71.5607 58.0054 71.4901 58.0259 71.4136C58.0463 71.3372 58.0905 71.2811 58.1583 71.2454C58.2271 71.2099 58.3038 71.2035 58.3885 71.2262ZM58.7244 69.9725C58.808 69.9949 58.8707 70.0386 58.9126 70.1037C58.9548 70.1678 58.9655 70.2386 58.9447 70.3161C58.9239 70.3936 58.8791 70.4501 58.8103 70.4855C58.7417 70.5199 58.6657 70.5259 58.5821 70.5035C58.4975 70.4808 58.4342 70.4369 58.3923 70.3718C58.3515 70.307 58.3413 70.2363 58.3618 70.1599C58.3823 70.0834 58.4264 70.0273 58.4942 69.9916C58.5631 69.9562 58.6398 69.9498 58.7244 69.9725Z" fill="#4B4B4B"/>
<path d="M59.9761 71.2054C60.0446 70.9498 60.1422 70.7211 60.2691 70.5194C60.3959 70.3176 60.5394 70.1562 60.6994 70.0352C60.8605 69.9145 61.0224 69.8433 61.1849 69.8218L61.2153 70.1095C61.0401 70.1781 60.8816 70.3164 60.7397 70.5242C60.5991 70.7313 60.4871 70.9887 60.4035 71.2963L60.385 71.3655C60.3005 71.6807 60.267 71.9647 60.2843 72.2175C60.3027 72.4705 60.3711 72.6707 60.4895 72.8181L60.3193 73.052C60.1909 72.9547 60.0865 72.8117 60.0061 72.6229C59.9264 72.4354 59.8826 72.2249 59.8746 71.9915C59.8666 71.7581 59.8941 71.5196 59.9572 71.2761L59.9761 71.2054Z" fill="#4B4B4B"/>
<path d="M61.7619 70.8588L61.7256 71.0629C61.8839 70.9403 62.0659 70.9065 62.2717 70.9617C62.4483 71.009 62.5657 71.0972 62.6241 71.2262C62.6835 71.3555 62.6863 71.5269 62.6324 71.7403L62.339 72.8354L61.8094 72.6935L62.0969 71.6204C62.1199 71.5345 62.1195 71.4671 62.0957 71.418C62.0722 71.3679 62.015 71.3307 61.9241 71.3064C61.8207 71.2787 61.7329 71.2989 61.6609 71.3672L61.3393 72.5675L60.8112 72.426L61.2667 70.7261L61.7619 70.8588Z" fill="#4B4B4B"/>
<path d="M63.4447 73.1653C63.1846 73.0957 62.9948 72.9617 62.8755 72.7636C62.7565 72.5644 62.7303 72.3402 62.7971 72.0909L62.8089 72.0469C62.8555 71.8731 62.9285 71.7282 63.0278 71.6122C63.1282 71.4965 63.2498 71.4191 63.3924 71.3798C63.5353 71.3396 63.6914 71.3421 63.8606 71.3874C64.0988 71.4513 64.2669 71.576 64.3649 71.7617C64.4633 71.9463 64.4769 72.1711 64.4059 72.4361L64.3508 72.6419L63.3009 72.3606C63.2942 72.461 63.3154 72.5469 63.3645 72.6185C63.4136 72.69 63.4889 72.7394 63.5902 72.7665C63.7573 72.8113 63.9036 72.7876 64.0291 72.6955L64.1938 73.0461C64.1035 73.1196 63.9905 73.1674 63.8548 73.1893C63.7203 73.2106 63.5836 73.2026 63.4447 73.1653ZM63.748 71.7951C63.5934 71.7537 63.474 71.8317 63.3897 72.0291L63.9225 72.1719L63.9334 72.131C63.9583 72.0468 63.9544 71.9756 63.9218 71.9174C63.8895 71.8583 63.8316 71.8175 63.748 71.7951Z" fill="#4B4B4B"/>
<path d="M66.0328 73.0775L66.4722 72.1209L66.9783 72.2565L66.1232 73.8494L65.6766 73.7297L65.6664 72.6459L65.1141 73.579L64.6675 73.4593L64.7234 71.6523L65.2296 71.7879L65.1223 72.8588L65.6667 71.9051L66.035 72.0037L66.0328 73.0775Z" fill="#4B4B4B"/>
<path d="M67.5366 74.2281L68.1496 71.9405L68.8845 72.1375C69.0861 72.1915 69.255 72.2861 69.3912 72.4214C69.5276 72.5556 69.6183 72.7186 69.6632 72.9102C69.7095 73.1011 69.7054 73.3004 69.6508 73.5081L69.6226 73.6133C69.5665 73.8228 69.4717 73.9989 69.3383 74.1417C69.2062 74.2837 69.0471 74.3802 68.861 74.4314C68.6762 74.4818 68.4849 74.4811 68.2872 74.4292L67.5366 74.2281ZM68.5855 72.5137L68.2003 73.9513L68.3914 74.0025C68.5492 74.0448 68.6854 74.0212 68.8 73.9318C68.915 73.8413 69.0022 73.6851 69.0617 73.463L69.0882 73.3641C69.1474 73.1431 69.1497 72.9652 69.0951 72.8304C69.0405 72.6957 68.9323 72.6066 68.7704 72.5632L68.5855 72.5137Z" fill="#4B4B4B"/>
<path d="M70.542 75.0334C70.5325 74.9938 70.5294 74.9385 70.5327 74.8676C70.4027 74.9641 70.2505 74.989 70.0761 74.9422C69.9162 74.8994 69.7933 74.8148 69.7074 74.6885C69.6217 74.5612 69.5985 74.4242 69.6378 74.2775C69.6872 74.0932 69.7924 73.9721 69.9535 73.9142C70.1146 73.8563 70.3246 73.8621 70.5837 73.9315L70.7467 73.9752L70.7707 73.8856C70.8125 73.7295 70.766 73.6334 70.6312 73.5973C70.5059 73.5638 70.4266 73.6088 70.3935 73.7323L69.8655 73.5909C69.9095 73.4264 70.0148 73.3115 70.1812 73.2461C70.3487 73.1809 70.5406 73.1773 70.7568 73.2353C70.9731 73.2932 71.1297 73.3919 71.2267 73.5312C71.3237 73.6706 71.3491 73.8329 71.3028 74.0181L71.1012 74.7707C71.0614 74.9273 71.0535 75.0531 71.0773 75.1482L71.0701 75.1749L70.542 75.0334ZM70.304 74.5992C70.3698 74.6168 70.4279 74.6172 70.4784 74.6004C70.5298 74.5839 70.5697 74.5603 70.5981 74.5298L70.6709 74.258L70.5173 74.2168C70.3335 74.1675 70.2194 74.2257 70.175 74.3912C70.1621 74.4393 70.1678 74.4829 70.192 74.522C70.2165 74.56 70.2539 74.5857 70.304 74.5992Z" fill="#4B4B4B"/>
<path d="M72.4756 73.2765L72.3624 73.6991L72.6413 73.7739L72.5428 74.1415L72.2639 74.0668L72.0555 74.8445C72.0383 74.9084 72.0379 74.956 72.0542 74.9873C72.0704 75.0186 72.1125 75.0433 72.1804 75.0615C72.2326 75.0755 72.2773 75.0841 72.3145 75.0874L72.2131 75.466C72.1099 75.4709 72.0066 75.4595 71.9031 75.4318C71.7214 75.3831 71.5986 75.3042 71.535 75.195C71.4713 75.0859 71.4629 74.9439 71.5097 74.769L71.7358 73.9253L71.5195 73.8674L71.6181 73.4997L71.8343 73.5577L71.9475 73.135L72.4756 73.2765Z" fill="#4B4B4B"/>
<path d="M73.2069 75.7811C72.9467 75.7114 72.757 75.5775 72.6377 75.3794C72.5186 75.1802 72.4925 74.956 72.5593 74.7067L72.5711 74.6627C72.6177 74.4888 72.6906 74.3439 72.79 74.228C72.8904 74.1123 73.0119 74.0349 73.1546 73.9956C73.2975 73.9553 73.4536 73.9579 73.6228 74.0032C73.861 74.067 74.0291 74.1918 74.1271 74.3774C74.2254 74.5621 74.2391 74.7869 74.1681 75.0519L74.1129 75.2577L73.0631 74.9764C73.0563 75.0768 73.0775 75.1627 73.1267 75.2342C73.1758 75.3058 73.251 75.3551 73.3523 75.3823C73.5195 75.4271 73.6658 75.4034 73.7912 75.3113L73.9559 75.6619C73.8657 75.7354 73.7527 75.7831 73.6169 75.8051C73.4825 75.8263 73.3458 75.8183 73.2069 75.7811ZM73.5102 74.4108C73.3556 74.3694 73.2362 74.4474 73.1519 74.6449L73.6847 74.7876L73.6956 74.7468C73.7204 74.6625 73.7166 74.5913 73.684 74.5332C73.6517 74.474 73.5938 74.4332 73.5102 74.4108Z" fill="#4B4B4B"/>
<path d="M74.4329 75.0791C74.5014 74.8235 74.599 74.5948 74.7259 74.3931C74.8527 74.1913 74.9961 74.0299 75.1562 73.9089C75.3173 73.7882 75.4791 73.717 75.6417 73.6955L75.6721 73.9831C75.4969 74.0518 75.3384 74.1901 75.1965 74.3979C75.0559 74.605 74.9438 74.8624 74.8603 75.17L74.8418 75.2391C74.7573 75.5544 74.7237 75.8384 74.7411 76.0912C74.7595 76.3442 74.8279 76.5444 74.9463 76.6918L74.7761 76.9257C74.6477 76.8284 74.5433 76.6854 74.4629 76.4965C74.3832 76.3091 74.3394 76.0986 74.3314 75.8652C74.3234 75.6318 74.3509 75.3933 74.4139 75.1498L74.4329 75.0791Z" fill="#4B4B4B"/>
<path d="M76.3484 75.6395C76.2825 75.8856 76.1839 76.1095 76.0526 76.3112C75.9213 76.5129 75.7707 76.6758 75.6009 76.7998C75.4318 76.9251 75.2661 76.9963 75.1036 77.0134L75.0732 76.7258C75.2476 76.6557 75.4048 76.5182 75.5448 76.3133C75.6848 76.1083 75.7958 75.8591 75.8778 75.5656L75.9035 75.4698C75.988 75.1545 76.021 74.8703 76.0026 74.6173C75.9853 74.3645 75.9174 74.1645 75.799 74.0171L75.9692 73.7832C76.1 73.88 76.2071 74.0232 76.2907 74.2129C76.3756 74.4018 76.4247 74.6153 76.4381 74.8535C76.4529 75.091 76.4292 75.3299 76.367 75.5704L76.3484 75.6395Z" fill="#4B4B4B"/>
<path d="M77.4798 75.9426C77.4138 76.1888 77.3152 76.4127 77.1839 76.6144C77.0526 76.8161 76.9021 76.9789 76.7322 77.1029C76.5632 77.2283 76.3974 77.2995 76.235 77.3166L76.2046 77.0289C76.379 76.9589 76.5362 76.8214 76.6762 76.6164C76.8162 76.4114 76.9272 76.1622 77.0092 75.8687L77.0349 75.7729C77.1193 75.4576 77.1524 75.1735 77.134 74.9204C77.1166 74.6677 77.0487 74.4676 76.9303 74.3203L77.1005 74.0864C77.2313 74.1831 77.3385 74.3264 77.422 74.516C77.5069 74.7049 77.556 74.9185 77.5695 75.1567C77.5842 75.3941 77.5605 75.6331 77.4983 75.8735L77.4798 75.9426Z" fill="#4B4B4B"/>
<path d="M78.0052 76.4825C78.0888 76.5049 78.1515 76.5487 78.1934 76.6138C78.2356 76.6778 78.2463 76.7486 78.2255 76.8261C78.2048 76.9036 78.16 76.9601 78.0911 76.9956C78.0226 77.0299 77.9465 77.0359 77.8629 77.0136C77.7783 76.9909 77.7151 76.947 77.6732 76.8819C77.6323 76.817 77.6222 76.7464 77.6426 76.6699C77.6631 76.5935 77.7073 76.5374 77.7751 76.5017C77.8439 76.4662 77.9206 76.4598 78.0052 76.4825Z" fill="#4B4B4B"/>
<path d="M78.6816 76.2899C78.7276 76.1181 78.7965 75.9738 78.8883 75.857C78.9801 75.7401 79.0883 75.6602 79.2129 75.6172C79.3377 75.5732 79.4702 75.57 79.6101 75.6075C79.7867 75.6548 79.9086 75.7515 79.9758 75.8975L80.0342 75.7548L80.5137 75.8833L80.0754 77.5188C80.0353 77.6686 79.9655 77.7891 79.8661 77.8803C79.7674 77.9729 79.6443 78.0309 79.497 78.0542C79.3494 78.0787 79.1889 78.0677 79.0155 78.0212C78.8911 77.9879 78.7768 77.932 78.6724 77.8535C78.5691 77.7753 78.4967 77.6902 78.4553 77.5983L78.7596 77.3464C78.8266 77.489 78.9406 77.5818 79.1015 77.6249C79.3355 77.6876 79.4848 77.5985 79.5493 77.3576L79.5636 77.3042C79.4323 77.3891 79.2893 77.4109 79.1347 77.3695C78.9278 77.314 78.7819 77.1902 78.6968 76.9979C78.612 76.8045 78.6053 76.5748 78.6766 76.3088L78.6816 76.2899ZM79.2024 76.4648C79.1651 76.6041 79.1616 76.7216 79.1919 76.8173C79.2225 76.912 79.2849 76.9719 79.3789 76.9971C79.4927 77.0276 79.586 77.0116 79.6588 76.9491L79.8503 76.2343C79.8199 76.1431 79.7483 76.0823 79.6354 76.0521C79.5414 76.0269 79.4564 76.0496 79.3804 76.1202C79.3047 76.1897 79.2453 76.3046 79.2024 76.4648Z" fill="#4B4B4B"/>
<path d="M81.1701 77.9149C80.91 77.8452 80.7203 77.7113 80.601 77.5131C80.4819 77.314 80.4558 77.0897 80.5226 76.8405L80.5344 76.7965C80.5809 76.6226 80.6539 76.4777 80.7533 76.3617C80.8537 76.2461 80.9752 76.1686 81.1179 76.1294C81.2608 76.0891 81.4168 76.0916 81.5861 76.137C81.8243 76.2008 81.9924 76.3255 82.0904 76.5112C82.1887 76.6958 82.2024 76.9207 82.1314 77.1857L82.0762 77.3915L81.0264 77.1102C81.0196 77.2105 81.0408 77.2965 81.09 77.368C81.1391 77.4395 81.2143 77.4889 81.3156 77.516C81.4828 77.5608 81.6291 77.5372 81.7545 77.445L81.9192 77.7956C81.829 77.8691 81.716 77.9169 81.5802 77.9389C81.4458 77.9601 81.3091 77.9521 81.1701 77.9149ZM81.4735 76.5446C81.3189 76.5032 81.1994 76.5812 81.1152 76.7787L81.648 76.9214L81.6589 76.8806C81.6837 76.7963 81.6798 76.7251 81.6473 76.667C81.615 76.6078 81.5571 76.567 81.4735 76.5446Z" fill="#4B4B4B"/>
<path d="M83.2908 76.1744L83.1775 76.5971L83.4564 76.6718L83.3579 77.0394L83.079 76.9647L82.8706 77.7424C82.8535 77.8063 82.8531 77.8539 82.8693 77.8852C82.8856 77.9165 82.9276 77.9412 82.9955 77.9594C83.0478 77.9734 83.0925 77.982 83.1297 77.9853L83.0282 78.3639C82.925 78.3688 82.8217 78.3574 82.7183 78.3297C82.5365 78.281 82.4138 78.2021 82.3501 78.093C82.2864 77.9838 82.278 77.8418 82.3249 77.6669L82.5509 76.8232L82.3347 76.7653L82.4332 76.3976L82.6495 76.4556L82.7627 76.0329L83.2908 76.1744Z" fill="#4B4B4B"/>
<path d="M85.5243 77.0524L84.8396 76.869L84.3407 78.7307L83.7907 78.5834L84.2895 76.7216L83.6173 76.5415L83.7314 76.1157L85.6384 76.6267L85.5243 77.0524Z" fill="#4B4B4B"/>
<path d="M85.7917 79.1195L85.2621 78.9776L85.7176 77.2777L86.2472 77.4196L85.7917 79.1195ZM85.8037 76.8309C85.8239 76.7555 85.8676 76.701 85.9348 76.6674C86.0021 76.6337 86.079 76.6285 86.1657 76.6518C86.2524 76.675 86.3165 76.718 86.3579 76.7807C86.3993 76.8435 86.4099 76.9125 86.3897 76.988C86.3695 77.0634 86.3258 77.1179 86.2586 77.1515C86.1913 77.1851 86.1144 77.1903 86.0277 77.1671C85.941 77.1439 85.8769 77.1009 85.8355 77.0381C85.7941 76.9754 85.7835 76.9063 85.8037 76.8309Z" fill="#4B4B4B"/>
<path d="M87.073 77.6408L87.0368 77.845C87.1981 77.7232 87.3802 77.6895 87.5828 77.7438C87.797 77.8012 87.9188 77.9253 87.9483 78.1162C88.1089 77.9762 88.2979 77.9354 88.5152 77.9936C88.8589 78.0857 88.9796 78.3414 88.8773 78.7608L88.5809 79.8669L88.0513 79.725L88.3388 78.6519C88.3621 78.565 88.3644 78.4977 88.3458 78.45C88.3273 78.4024 88.2793 78.3682 88.202 78.3475C88.0976 78.3195 88.0072 78.3453 87.9311 78.4248L87.9267 78.4472L87.6156 79.6083L87.086 79.4663L87.3727 78.3964C87.3965 78.3074 87.3997 78.2392 87.3822 78.1918C87.3646 78.1445 87.3162 78.1101 87.2368 78.0889C87.1354 78.0617 87.0456 78.0876 86.9674 78.1666L86.6504 79.3496L86.1223 79.2081L86.5778 77.5082L87.073 77.6408Z" fill="#4B4B4B"/>
<path d="M89.6944 80.1989C89.4343 80.1292 89.2446 79.9953 89.1252 79.7972C89.0062 79.598 88.98 79.3738 89.0468 79.1245L89.0586 79.0805C89.1052 78.9067 89.1782 78.7618 89.2776 78.6458C89.378 78.5301 89.4995 78.4527 89.6421 78.4134C89.785 78.3732 89.9411 78.3757 90.1103 78.421C90.3485 78.4848 90.5166 78.6096 90.6147 78.7953C90.713 78.9799 90.7266 79.2047 90.6556 79.4697L90.6005 79.6755L89.5506 79.3942C89.5439 79.4946 89.5651 79.5805 89.6142 79.6521C89.6633 79.7236 89.7386 79.773 89.8399 79.8001C90.007 79.8449 90.1533 79.8212 90.2788 79.7291L90.4435 80.0797C90.3533 80.1532 90.2403 80.2009 90.1045 80.2229C89.97 80.2442 89.8333 80.2362 89.6944 80.1989ZM89.9978 78.8287C89.8431 78.7872 89.7237 78.8653 89.6395 79.0627L90.1722 79.2055L90.1832 79.1646C90.208 79.0803 90.2041 79.0091 90.1715 78.951C90.1393 78.8919 90.0813 78.8511 89.9978 78.8287Z" fill="#4B4B4B"/>
<path d="M90.9204 79.4969C90.9889 79.2413 91.0866 79.0127 91.2134 78.8109C91.3402 78.6091 91.4837 78.4477 91.6438 78.3267C91.8049 78.206 91.9667 78.1348 92.1292 78.1133L92.1596 78.401C91.9845 78.4697 91.8259 78.6079 91.684 78.8158C91.5435 79.0228 91.4314 79.2802 91.3478 79.5878L91.3293 79.657C91.2448 79.9722 91.2113 80.2563 91.2287 80.509C91.2471 80.762 91.3155 80.9622 91.4339 81.1096L91.2637 81.3435C91.1352 81.2462 91.0308 81.1032 90.9504 80.9144C90.8708 80.7269 90.8269 80.5164 90.8189 80.283C90.811 80.0496 90.8385 79.8112 90.9015 79.5676L90.9204 79.4969Z" fill="#4B4B4B"/>
<path d="M92.836 80.0573C92.7701 80.3035 92.6714 80.5274 92.5401 80.7291C92.4088 80.9308 92.2583 81.0936 92.0884 81.2176C91.9194 81.343 91.7536 81.4142 91.5912 81.4313L91.5608 81.1436C91.7352 81.0736 91.8924 80.9361 92.0324 80.7311C92.1724 80.5261 92.2834 80.2769 92.3654 79.9834L92.3911 79.8876C92.4756 79.5723 92.5086 79.2882 92.4902 79.0351C92.4728 78.7824 92.4049 78.5823 92.2865 78.435L92.4567 78.201C92.5875 78.2978 92.6947 78.4411 92.7782 78.6307C92.8631 78.8196 92.9123 79.0332 92.9257 79.2714C92.9404 79.5088 92.9167 79.7478 92.8545 79.9882L92.836 80.0573Z" fill="#4B4B4B"/>
<path d="M92.7362 81.2885C92.8813 81.2735 92.9875 81.1509 93.0547 80.9208L93.1461 80.5799C93.2092 80.3442 93.3507 80.2048 93.5706 80.1615C93.4018 80.0141 93.349 79.8226 93.4121 79.587L93.5035 79.246C93.5603 79.0131 93.5296 78.8539 93.4115 78.7684L93.5843 78.5183C93.7572 78.6208 93.8747 78.7443 93.9367 78.8889C93.999 79.0325 94.0049 79.2008 93.9543 79.3938L93.8697 79.7096C93.8127 79.9222 93.8688 80.0512 94.0381 80.0965L93.9425 80.4532C93.7733 80.4078 93.6605 80.4904 93.604 80.7009L93.5144 81.0356C93.4083 81.4023 93.157 81.5881 92.7604 81.593L92.7362 81.2885Z" fill="#4B4B4B"/>
<path d="M95.0109 80.6401C94.945 80.8862 94.8464 81.1101 94.7151 81.3118C94.5838 81.5135 94.4332 81.6764 94.2634 81.8004C94.0943 81.9257 93.9286 81.9969 93.7661 82.014L93.7357 81.7264C93.9101 81.6563 94.0673 81.5188 94.2073 81.3139C94.3473 81.1089 94.4583 80.8597 94.5403 80.5662L94.566 80.4704C94.6505 80.1551 94.6835 79.8709 94.6651 79.6179C94.6478 79.3651 94.5799 79.1651 94.4615 79.0177L94.6317 78.7838C94.7625 78.8806 94.8696 79.0238 94.9532 79.2135C95.038 79.4024 95.0872 79.6159 95.1006 79.8541C95.1154 80.0916 95.0916 80.3305 95.0295 80.571L95.0109 80.6401Z" fill="#4B4B4B"/>
<path d="M95.8582 79.9224C95.9418 79.9448 96.0045 79.9886 96.0464 80.0537C96.0886 80.1178 96.0993 80.1885 96.0785 80.2661C96.0578 80.3436 96.013 80.4 95.9441 80.4355C95.8756 80.4699 95.7995 80.4759 95.7159 80.4535C95.6313 80.4308 95.5681 80.3869 95.5262 80.3218C95.4853 80.257 95.4751 80.1863 95.4956 80.1099C95.5161 80.0334 95.5603 79.9773 95.628 79.9416C95.6969 79.9061 95.7736 79.8998 95.8582 79.9224ZM95.1319 82.2823L94.8991 82.0853L94.981 81.9927C95.0907 81.8761 95.1636 81.7565 95.1998 81.6337L95.3051 81.2409L95.7282 81.3543L95.6352 81.6948C95.6019 81.815 95.5383 81.9293 95.4443 82.0377C95.3503 82.1461 95.2462 82.2276 95.1319 82.2823Z" fill="#4B4B4B"/>
</svg>
