<svg width="124" height="111" viewBox="0 0 124 111" fill="none" xmlns="http://www.w3.org/2000/svg">
<path d="M102.5 0.500117C107.5 1.00034 125.8 6.40012 123 22.0001C120.425 36.3482 105.245 37.1331 96.2117 35.4809C94.7936 35.2215 93.3189 35.4664 92.1452 36.3036C89.6867 38.0575 85.5377 41.1165 84.5 42.5001C83.4937 43.8418 83.1625 38.2076 83.0535 34.3535C82.996 32.324 81.7037 30.5452 80.203 29.1777C77.0162 26.2738 74.1191 20.3353 77.5 10.5001C81.9 -2.29988 97.5 -0.000107646 102.5 0.500117Z" fill="#D9F2ED"/>
<path d="M13.0654 53.7945C12.4739 51.1329 14.1239 48.4881 16.7745 47.8491L63.0191 36.7009C65.7501 36.0425 68.4873 37.7626 69.0788 40.5088L73.955 63.1486C74.5334 65.8339 72.8373 68.4829 70.1564 69.0813L23.8845 79.4098C21.1876 80.0118 18.5137 78.312 17.9143 75.6146L13.0654 53.7945Z" fill="#D9F2ED"/>
<path d="M54 18.0001C54 25.7321 47.732 32.0001 40 32.0001C32.268 32.0001 26 25.7321 26 18.0001C26 10.2681 32.268 4.00012 40 4.00012C47.732 4.00012 54 10.2681 54 18.0001Z" fill="#D9F2ED"/>
<path d="M116 64.0001C116 73.9412 107.941 82.0001 98 82.0001C88.0588 82.0001 80 73.9412 80 64.0001C80 54.059 88.0588 46.0001 98 46.0001C107.941 46.0001 116 54.059 116 64.0001Z" fill="#D9F2ED"/>
<path fill-rule="evenodd" clip-rule="evenodd" d="M83.7068 67.8272L95.1205 71.7712C96.1889 72.1405 96.457 73.5276 95.6029 74.2681L86.4805 82.1805C85.6266 82.9213 84.2911 82.4598 84.0766 81.35L81.7855 69.4935C81.5712 68.3837 82.6384 67.4579 83.7068 67.8272ZM84.7086 69.5831L93.1895 72.4918C93.9834 72.7642 94.1826 73.7872 93.548 74.3333L86.7696 80.1687C86.1351 80.715 85.1427 80.3746 84.9833 79.5561L83.2809 70.8121C83.1217 69.9936 83.9147 69.3108 84.7086 69.5831Z" fill="#4B4B4B"/>
<path d="M88.4429 58.1716C90.8979 58.1716 93.2656 58.7324 95.3987 59.7539C96.3312 60.203 97.2188 60.735 98.0402 61.3471C101.196 63.6731 103.51 67.1427 104.312 71.2904C106.006 80.0614 100.268 88.5576 91.4901 90.254C90.4577 90.4534 89.429 90.5498 88.4141 90.5498C85.7887 90.5498 83.2578 89.9053 81.0022 88.7359C80.566 88.509 80.1327 88.2612 79.7163 87.9969C76.1061 85.6976 73.4038 81.9718 72.5266 77.4328C70.8305 68.6551 76.577 60.1643 85.348 58.4695C86.3874 58.2686 87.4228 58.1716 88.4429 58.1716ZM88.4431 57.2017C87.3499 57.2017 86.2465 57.3078 85.164 57.5171C80.6669 58.3861 76.7762 60.9555 74.2088 64.7517C71.6407 68.5489 70.705 73.118 71.5742 77.6168C72.4628 82.2148 75.2405 86.2965 79.1952 88.815C79.6265 89.0888 80.0836 89.3515 80.5548 89.5965C82.9823 90.8551 85.6997 91.52 88.4141 91.52C89.5011 91.52 90.5978 91.4146 91.6742 91.2066C100.962 89.4117 107.059 80.395 105.264 71.1066C104.445 66.866 102.083 63.1228 98.6159 60.5666C97.762 59.9302 96.82 59.3618 95.8196 58.8802C93.4933 57.7659 91.0122 57.2017 88.4431 57.2017Z" fill="#4B4B4B"/>
<path d="M87.0317 10.8559C95.27 10.8559 104.885 13.2328 109.759 19.3405C110.604 20.3839 111.297 21.5391 111.827 22.8049C115.513 31.6647 110.447 42.0854 101.24 44.7066C99.5144 45.1991 96.9778 45.4814 94.0496 45.4814C90.9567 45.4814 87.427 45.1666 83.9525 44.4526C83.9135 44.4444 83.8741 44.4402 83.8349 44.4402C83.7077 44.4402 83.5827 44.4839 83.484 44.5714C80.2378 47.3806 76.5217 50.4834 74.9241 51.8117C74.8164 51.9 74.6924 51.9402 74.5716 51.9402C74.304 51.9402 74.0516 51.743 74.0245 51.4342C73.8715 49.7654 73.5935 46.1202 73.4482 40.8662C73.4459 40.7784 73.4206 40.6879 73.3703 40.6125C73.3321 40.5321 73.2642 40.4607 73.1875 40.4116C72.9745 40.2777 72.7666 40.144 72.5658 40.0059C62.5865 33.1765 64.325 13.3859 82.1386 11.1501C83.674 10.9581 85.3235 10.8559 87.0317 10.8559ZM87.0322 9.88574H87.0317C85.3049 9.88574 83.6179 9.98743 82.018 10.1878C73.7671 11.2232 67.7874 16.1918 66.0224 23.4785C64.3788 30.2639 66.7882 37.2275 72.0179 40.8064C72.1692 40.9106 72.3252 41.013 72.4847 41.115C72.6404 46.552 72.937 50.1967 73.0586 51.5228C73.1275 52.3119 73.778 52.9101 74.5714 52.9101C74.9216 52.9101 75.2651 52.7864 75.5394 52.5614C77.0036 51.344 80.7103 48.2506 83.9584 45.4434C87.2428 46.1034 90.7248 46.4513 94.0498 46.4513C97.0237 46.4513 99.6719 46.1629 101.507 45.6393C106.173 44.3108 110.09 40.9776 112.253 36.4948C114.41 32.0243 114.581 26.8987 112.722 22.4321C112.163 21.0941 111.42 19.8491 110.513 18.7296C106.095 13.1941 97.3158 9.88574 87.0322 9.88574Z" fill="#4B4B4B"/>
<path d="M75.1549 27.8502C74.9709 29.5568 76.2047 31.0895 77.9115 31.2737C79.618 31.458 81.1507 30.2239 81.335 28.5174C81.5192 26.8109 80.2849 25.2782 78.5786 25.0939C76.8718 24.9096 75.3392 26.1437 75.1549 27.8502Z" fill="#4B4B4B"/>
<path d="M86.5456 29.0795C86.3613 30.786 87.5956 32.3187 89.3019 32.5029C91.0084 32.687 92.5411 31.4529 92.7254 29.7463C92.9094 28.0398 91.6753 26.5071 89.9688 26.3229C88.2623 26.1388 86.7296 27.3729 86.5456 29.0795Z" fill="#4B4B4B"/>
<path d="M97.9323 30.3085C97.748 32.015 98.9821 33.5477 100.689 33.732C102.395 33.9163 103.928 32.6822 104.112 30.9754C104.297 29.2689 103.063 27.7362 101.356 27.5519C99.6492 27.3676 98.1166 28.602 97.9323 30.3085Z" fill="#4B4B4B"/>
<path d="M65.1154 72.9586L60.7235 53.9409C61.9253 53.2458 62.9491 52.2597 63.7035 51.0417C64.927 49.0855 65.3148 46.7683 64.792 44.5212C64.1938 41.9238 62.4695 39.7842 60.0551 38.6526C58.9073 38.1082 57.6356 37.8228 56.3745 37.8228C55.7224 37.8228 55.065 37.8981 54.4291 38.0492C52.1765 38.5665 50.2633 39.9353 49.0402 41.8915C48.1833 43.2658 47.7414 44.8178 47.7307 46.4075L5.34641 56.1938C3.78372 56.5549 2.45243 57.5033 1.60102 58.8668C0.744158 60.2301 0.474823 61.8414 0.835673 63.4098L6.18145 86.5607C6.3 87.0726 6.48327 87.5577 6.72037 88.0049C7.76051 89.9934 9.80284 91.2274 12.0446 91.2274C12.4972 91.2274 12.9552 91.1736 13.3972 91.0712L60.6099 80.1693C62.1726 79.8082 63.5039 78.8599 64.3553 77.4963C65.2069 76.1325 65.4763 74.5212 65.1154 72.9586ZM54.6446 38.9919C55.2267 38.8572 55.8033 38.7925 56.3745 38.7925C57.5222 38.7925 58.6378 39.0566 59.6457 39.5308C61.6934 40.4953 63.2993 42.36 63.8491 44.7419C64.6036 47.9967 63.1594 51.2463 60.4919 52.9385C60.2116 53.1218 59.9207 53.2835 59.6134 53.4181C59.1392 53.6446 58.6326 53.8169 58.1045 53.9409C57.5225 54.0756 56.9404 54.1403 56.3692 54.1403C54.5908 54.1403 52.8934 53.5151 51.5569 52.4321C51.4545 52.3512 51.3575 52.2704 51.2606 52.1734C51.018 51.9685 50.7918 51.7369 50.5761 51.4889C49.7785 50.5782 49.1912 49.4627 48.9 48.2016C48.8192 47.8566 48.7654 47.5119 48.7329 47.1723C48.7006 46.8383 48.6952 46.5094 48.7059 46.1808C48.8299 42.7965 51.1956 39.7894 54.6446 38.9919ZM5.56193 57.1365L47.7791 47.3933C47.8168 47.7328 47.8706 48.0778 47.9514 48.4173C48.2748 49.8238 48.9214 51.0849 49.8536 52.1411L33.7082 66.713C32.7489 67.5753 32.5227 67.5376 25.6733 65.4789C21.3944 64.1962 14.2541 62.0515 2.7163 58.9583C3.40626 58.0688 4.38712 57.4058 5.56193 57.1365ZM60.3892 79.2259L13.1819 90.1278C12.7992 90.2141 12.4166 90.2572 12.0448 90.2572C10.1694 90.2572 8.445 89.2064 7.57748 87.552C7.37808 87.1802 7.22729 86.776 7.13007 86.3449L1.7843 63.1886C1.50951 62.0031 1.68187 60.812 2.19376 59.7988C2.226 59.8259 2.26915 59.842 2.3123 59.8527C13.9254 62.9674 21.1037 65.123 25.3933 66.4109C29.5806 67.6666 31.4612 68.2323 32.5822 68.2323C33.3689 68.2323 33.7841 67.952 34.3552 67.4293L50.5275 52.8306C50.6621 52.9546 50.8022 53.0732 50.9478 53.1917C52.4783 54.4258 54.4075 55.1103 56.3692 55.1103C57.0267 55.1103 57.6842 55.0349 58.3255 54.8893C58.8483 54.7708 59.3548 54.6036 59.8344 54.3881L64.1725 73.1741C64.7975 75.89 63.1054 78.6007 60.3892 79.2259Z" fill="#4B4B4B"/>
<path d="M51.1758 45.4044L51.1974 45.3989C51.8765 45.2102 53.0026 45.0272 53.7896 44.8977C53.7735 44.9786 53.7573 45.0649 53.741 45.1457C53.6762 45.4743 53.6118 45.7977 53.5416 46.1266C53.3099 47.2312 53.0458 48.3415 52.7871 49.4948C52.6686 50.0176 52.55 50.5565 52.4315 51.1006H52.4476C52.8734 51.1113 53.5631 50.8365 53.9619 50.745C54.0698 50.2976 54.1936 49.8556 54.3176 49.4085C54.4847 48.8212 54.6571 48.2337 54.8295 47.6516C54.9589 47.1935 55.0936 46.7354 55.2121 46.2828C55.293 45.9703 55.3738 45.6576 55.4438 45.3451C55.5192 45.0378 55.5839 44.7308 55.6377 44.429C55.5137 43.901 55.3952 43.556 55.3037 43.0278L55.2982 43.0171C53.9456 43.1895 52.302 43.6584 50.9062 44.0141L50.9117 44.0195C50.9926 44.429 51.122 44.9518 51.1758 45.4044Z" fill="#4B4B4B"/>
<path d="M56.5225 46.493C56.5602 46.617 56.5925 46.7355 56.625 46.8541C56.6304 46.8757 56.6356 46.8918 56.6411 46.9134C56.6681 47.0158 56.6949 47.1182 56.7219 47.2259C57.0128 48.2821 57.4171 49.3384 58.6889 49.5378C58.7104 49.5432 58.732 49.5432 58.7588 49.5484C58.9743 49.5755 59.2223 49.57 59.4971 49.5162C59.5619 49.5055 59.6263 49.4946 59.6859 49.473C61.4266 49.0311 61.5181 46.7085 61.0923 45.2048C61.0276 44.8061 60.8984 44.4288 60.7312 44.0139C60.257 42.9309 59.2439 41.9984 57.8752 42.3704C57.1961 42.5591 56.7919 42.9792 56.4955 43.5291C56.4633 43.5777 56.4417 43.626 56.4256 43.6799C56.1885 44.3319 56.21 45.0002 56.3286 45.6523C56.3824 45.938 56.4523 46.218 56.5225 46.493ZM57.8211 44.3911C57.8642 44.251 57.9773 44.1002 58.1013 44.0355C58.3384 43.8847 58.5594 43.9008 58.7533 44.0571C59.1844 44.445 59.4108 45.4851 59.5455 46.2073C59.5993 46.5684 59.6856 46.8593 59.6534 47.2149C59.6318 47.4466 59.6048 47.6514 59.3515 47.797C59.2491 47.8617 59.1035 47.8779 58.9743 47.8617H58.9421C58.6564 47.8563 58.5703 47.5438 58.4409 47.3389C58.387 47.242 58.3439 47.145 58.3007 47.048C58.0475 46.4769 57.9506 45.9003 57.8372 45.1619C57.7995 44.817 57.7727 44.5151 57.8211 44.3911Z" fill="#4B4B4B"/>
<path d="M70.7086 91.4914C70.2954 89.6951 69.2055 88.1627 67.6393 87.1761C67.3432 86.9906 67.0158 86.8215 66.6641 86.6717C65.805 86.3054 64.8983 86.1196 63.9693 86.1196C63.4487 86.1196 62.9249 86.1794 62.4121 86.2975L17.4272 96.6433C15.6257 97.0577 14.0932 98.1489 13.1121 99.7161C12.131 101.283 11.819 103.138 12.2332 104.94C12.6464 106.736 13.7364 108.269 15.3028 109.255C15.6016 109.442 15.8945 109.596 16.2001 109.725C17.0733 110.112 18.0125 110.311 18.9775 110.311C19.4971 110.311 20.0194 110.251 20.5298 110.134L65.5146 99.788C69.234 98.9326 71.564 95.2108 70.7086 91.4914ZM65.2974 98.8426L20.3123 109.188C19.8649 109.291 19.4174 109.341 18.9772 109.341C18.137 109.341 17.3223 109.161 16.578 108.832C16.3141 108.72 16.0629 108.587 15.8194 108.434C14.5305 107.623 13.5466 106.324 13.1784 104.722C12.4418 101.52 14.4417 98.325 17.6445 97.5884L62.6293 87.2426C63.079 87.1392 63.5276 87.0896 63.9691 87.0896C64.7776 87.0896 65.5618 87.2562 66.2839 87.564C66.5746 87.6878 66.8578 87.8311 67.1222 87.9968C68.4111 88.8088 69.3949 90.1076 69.7632 91.7087C70.5 94.9115 68.5001 98.106 65.2974 98.8426Z" fill="#4B4B4B"/>
<path d="M24.815 100.249C24.8131 100.249 24.8108 100.249 24.8088 100.249C24.7997 100.249 24.7905 100.249 24.7813 100.25C24.7602 100.25 24.7392 100.251 24.7183 100.253L22.7387 100.416L21.4759 98.8683C21.2894 98.6397 21.0119 98.5117 20.7244 98.5117C20.6523 98.5117 20.5793 98.5199 20.5069 98.5365C20.1471 98.6194 19.8656 98.8991 19.7805 99.2585L19.3205 101.202L17.4587 101.925C17.1144 102.059 16.8761 102.376 16.8436 102.744C16.8111 103.112 16.9902 103.466 17.3057 103.658L19.0119 104.696L19.124 106.69C19.1446 107.059 19.373 107.384 19.7128 107.529C19.8351 107.581 19.9643 107.606 20.0925 107.606C20.3204 107.606 20.5456 107.526 20.7249 107.372L22.2395 106.07L24.1707 106.579C24.2526 106.601 24.3359 106.612 24.4182 106.612C24.6948 106.612 24.9629 106.493 25.1498 106.279C25.3924 106 25.4556 105.608 25.3133 105.267L24.543 103.424L25.603 101.778C25.7146 101.62 25.7803 101.428 25.7803 101.22C25.78 100.685 25.3492 100.251 24.815 100.249ZM23.4513 103.327L24.4182 105.641L21.994 105.001L20.0928 106.635L19.9519 104.132L17.8099 102.829L20.1471 101.921L20.7244 99.4814L22.3099 101.424L24.8088 101.219L23.4513 103.327Z" fill="#4B4B4B"/>
<path d="M34.8075 97.9519C34.8055 97.9519 34.8033 97.9519 34.8013 97.9519C34.7921 97.9519 34.7829 97.9519 34.7737 97.9524C34.7527 97.9529 34.7316 97.9541 34.7108 97.9561L32.7312 98.1183L31.4683 96.571C31.2818 96.3423 31.0043 96.2144 30.7169 96.2144C30.6444 96.2144 30.5718 96.2225 30.4994 96.2392C30.1395 96.322 29.8578 96.6017 29.7729 96.9611L29.3129 98.9047L27.4509 99.6277C27.1066 99.7613 26.8683 100.079 26.8358 100.447C26.8033 100.814 26.9824 101.169 27.2978 101.361L29.0041 102.399L29.1162 104.393C29.1371 104.762 29.3652 105.087 29.705 105.231C29.8273 105.283 29.9565 105.309 30.0847 105.309C30.3129 105.309 30.538 105.228 30.7171 105.074L32.2317 103.772L34.1629 104.282C34.2448 104.304 34.3278 104.314 34.4104 104.314C34.6869 104.314 34.9553 104.196 35.142 103.981C35.3846 103.703 35.4478 103.311 35.3055 102.97L34.5352 101.127L35.5951 99.4811C35.7067 99.3231 35.7725 99.1307 35.7725 98.9226C35.7722 98.3874 35.3414 97.9539 34.8075 97.9519ZM33.4434 101.03L34.4104 103.343L31.9862 102.704L30.0849 104.338L29.9441 101.835L27.802 100.531L30.1393 99.6239L30.7166 97.1841L32.3021 99.1264L34.801 98.9216L33.4434 101.03Z" fill="#4B4B4B"/>
<path d="M44.7958 95.6545C44.7938 95.6545 44.7915 95.6545 44.7896 95.6545C44.7804 95.6545 44.7712 95.6545 44.762 95.655C44.7409 95.6555 44.7199 95.6568 44.699 95.6587L42.7194 95.8209L41.4566 94.2736C41.2701 94.045 40.9926 93.917 40.7051 93.917C40.633 93.917 40.5601 93.9252 40.4876 93.9418C40.1278 94.0246 39.846 94.3044 39.761 94.6637L39.3009 96.6074L37.4391 97.3303C37.0949 97.464 36.8566 97.7814 36.8241 98.1492C36.7916 98.517 36.9707 98.8714 37.2861 99.0634L38.9924 100.102L39.1045 102.096C39.1253 102.464 39.3535 102.789 39.6933 102.934C39.8155 102.986 39.9448 103.011 40.073 103.011C40.3011 103.011 40.5263 102.931 40.7054 102.777L42.22 101.475L44.1512 101.985C44.233 102.006 44.3164 102.017 44.3987 102.017C44.6752 102.017 44.9433 101.898 45.1303 101.684C45.3729 101.405 45.4361 101.013 45.2937 100.673L44.5234 98.8297L45.5834 97.1837C45.695 97.0258 45.7607 96.833 45.7607 96.6252C45.7607 96.09 45.3297 95.6565 44.7958 95.6545ZM43.4317 98.7325L44.3987 101.046L41.9742 100.406L40.073 102.041L39.9321 99.5373L37.7901 98.234L40.1273 97.3266L40.7049 94.8867L42.2901 96.8291L44.7891 96.6242L43.4317 98.7325Z" fill="#4B4B4B"/>
<path d="M54.7843 93.3572C54.7821 93.3572 54.7801 93.3572 54.7778 93.3572C54.7684 93.3572 54.7587 93.3574 54.7491 93.3577C54.7285 93.3584 54.7079 93.3596 54.6876 93.3614L52.708 93.5236L51.4451 91.9763C51.2586 91.7476 50.9811 91.6196 50.6937 91.6196C50.6215 91.6196 50.5486 91.6278 50.4762 91.6444C50.1163 91.7273 49.8348 92.007 49.7495 92.3664L49.2895 94.31L47.4277 95.0329C47.0834 95.1666 46.8449 95.4841 46.8124 95.8519C46.7799 96.2197 46.9589 96.5741 47.2744 96.766L48.9807 97.8042L49.0928 99.7984C49.1136 100.167 49.3418 100.492 49.6816 100.637C49.8038 100.689 49.933 100.714 50.0613 100.714C50.2894 100.714 50.5146 100.634 50.6937 100.48L52.2082 99.1776L54.1395 99.6873C54.2213 99.7089 54.3046 99.7193 54.387 99.7193C54.6635 99.7193 54.9318 99.6007 55.1186 99.3862C55.3611 99.1077 55.4244 98.7158 55.282 98.3751L54.5117 96.5321L55.5717 94.8861C55.6833 94.7281 55.749 94.5354 55.749 94.3276C55.7488 93.7929 55.318 93.3594 54.7843 93.3572ZM53.42 96.4352L54.387 98.7486L51.9627 98.109L50.0615 99.7433L49.9206 97.2399L47.7786 95.9367L50.1158 95.0292L50.6932 92.5893L52.2784 94.5317L54.7773 94.3269L53.42 96.4352Z" fill="#4B4B4B"/>
<path d="M64.7762 91.0598C64.774 91.0598 64.772 91.0598 64.7698 91.0598C64.7601 91.0598 64.7507 91.06 64.741 91.0603C64.7204 91.061 64.6998 91.0623 64.6795 91.064L62.6999 91.2262L61.4371 89.6789C61.2506 89.4502 60.973 89.3223 60.6856 89.3223C60.6134 89.3223 60.5405 89.3305 60.4681 89.3471C60.1083 89.4299 59.8265 89.7096 59.7415 90.069L59.2814 92.0126L57.4196 92.7356C57.0754 92.8693 56.837 93.1867 56.8046 93.5545C56.7721 93.9223 56.9511 94.2767 57.2666 94.4684L58.9729 95.5066L59.085 97.5008C59.1058 97.8696 59.334 98.1944 59.6737 98.3388C59.796 98.3909 59.9252 98.4162 60.0534 98.4162C60.2816 98.4162 60.5068 98.3358 60.6859 98.1818L62.2004 96.8798L64.1317 97.3894C64.2135 97.411 64.2968 97.4217 64.3792 97.4217C64.6557 97.4217 64.924 97.3031 65.1108 97.0886C65.3533 96.8101 65.4166 96.4182 65.2742 96.0775L64.5039 94.2345L65.5639 92.5885C65.6755 92.4305 65.7412 92.2378 65.7412 92.03C65.741 91.4953 65.3102 91.062 64.7762 91.0598ZM63.4122 94.1378L64.3792 96.4512L61.9549 95.8116L60.0537 97.446L59.9128 94.9426L57.7708 93.6393L60.108 92.7319L60.6854 90.292L62.2706 92.2344L64.7695 92.0295L63.4122 94.1378Z" fill="#4B4B4B"/>
<path d="M37.7641 35.5374C37.7277 34.7073 37.3708 33.9419 36.7609 33.3757C36.1466 32.8182 35.3505 32.5248 34.5204 32.5613C33.5852 32.598 32.7658 33.0484 32.2227 33.7197L25.6495 29.8801C25.8072 29.4823 25.8846 29.048 25.868 28.5924C25.8472 28.1455 25.7363 27.7125 25.5391 27.3286L31.7713 22.9404C31.7557 22.952 32.4729 23.4691 32.5394 23.5113C33.015 23.8129 33.5941 23.9294 34.1536 23.9059C35.8683 23.8339 37.2061 22.3794 37.1364 20.6602C37.0682 18.974 35.5621 17.6135 33.8883 17.6817C32.2279 17.7496 30.843 19.2565 30.9077 20.9231C30.9261 21.396 31.0498 21.8358 31.2557 22.2246L25.0344 26.6022C24.9786 26.5399 24.9204 26.4822 24.8601 26.4286C24.248 25.8669 23.4564 25.5754 22.6218 25.6097C21.4698 25.6603 20.4845 26.3331 19.987 27.2877C19.7427 27.7564 19.6177 28.2926 19.6391 28.8553C19.6755 29.6854 20.0344 30.4575 20.6465 31.0192C20.8511 31.2087 21.0782 31.3657 21.3171 31.4899C21.7945 31.7387 22.3329 31.8594 22.887 31.8336C23.8309 31.7905 24.6637 31.3361 25.2071 30.6427L31.7715 34.4779C31.6026 34.8864 31.5186 35.3338 31.5391 35.8022C31.5858 36.8669 32.2685 37.9428 33.2172 38.4371C33.6946 38.6858 34.233 38.8066 34.7806 38.7828C35.6149 38.7486 36.3805 38.3917 36.9422 37.7796C37.5114 37.1658 37.7983 36.3719 37.7641 35.5374ZM31.7884 20.8856C31.7366 19.6776 32.7231 18.6127 33.9262 18.5623C34.5242 18.5373 35.0941 18.7461 35.5358 19.1474C36.9859 20.4643 36.0437 22.9416 34.1159 23.0257C32.9394 23.077 31.8397 22.0771 31.7884 20.8856ZM24.3817 30.2156C23.5799 31.0626 22.1901 31.2469 21.2444 30.3707C19.8132 29.0446 20.7144 26.5749 22.6598 26.4901C24.5913 26.4058 25.7251 28.7968 24.3817 30.2156ZM36.2986 37.1849C35.8929 37.6246 35.3416 37.8778 34.7481 37.9051C32.8633 37.9916 31.7041 35.5733 32.9964 34.1726C33.8335 33.2654 35.2444 33.1994 36.1635 34.0245C37.066 34.8345 37.1027 36.2995 36.2986 37.1849Z" fill="#4B4B4B"/>
<path d="M30.2347 14.6438C33.2627 14.6438 36.0562 15.6306 38.3145 17.3034C39.0114 17.822 39.6585 18.4021 40.2381 19.0375C42.4684 21.4573 43.8235 24.6858 43.8235 28.2325C43.8235 35.7323 37.7399 41.8216 30.2347 41.8216C27.0677 41.8216 24.1511 40.734 21.8318 38.8995C21.5084 38.6431 21.1907 38.3698 20.8894 38.0853C18.2796 35.6152 16.6457 32.1136 16.6457 28.2325C16.6457 20.7274 22.735 14.6438 30.2347 14.6438ZM30.2347 13.6738C22.207 13.6738 15.6758 20.2048 15.6758 28.2328C15.6758 32.2068 17.333 36.0549 20.2225 38.7902C20.5377 39.0875 20.8757 39.3799 21.2289 39.6599C23.8198 41.7092 26.9335 42.7918 30.2345 42.7918C38.2622 42.7918 44.7935 36.2608 44.7935 28.2328C44.7935 24.5675 43.4289 21.0686 40.9511 18.3802C40.3425 17.7131 39.6491 17.0876 38.8934 16.5254C36.3744 14.6594 33.3807 13.6738 30.2347 13.6738Z" fill="#4B4B4B"/>
</svg>
