<svg width="159" height="102" viewBox="0 0 159 102" fill="none" xmlns="http://www.w3.org/2000/svg">
<path d="M15 63.5L44 39L76.5 77.5L47 101.5L15 63.5Z" fill="#D9F2ED"/>
<path d="M92 20L158.5 44L142 90L75 65.5L92 20Z" fill="#D9F2ED"/>
<path d="M24.4385 67.8554C24.2916 67.8554 24.1456 67.7926 24.0436 67.6712C23.8616 67.4531 23.8907 67.129 24.1085 66.9471L44.8345 49.6355C45.0526 49.4536 45.3764 49.4827 45.5586 49.7005C45.7403 49.9186 45.7114 50.2427 45.4936 50.4246L24.7676 67.7361C24.6716 67.8164 24.5549 67.8554 24.4385 67.8554Z" fill="#4B4B4B"/>
<path d="M27.6742 71.7324C27.5273 71.7324 27.3813 71.6697 27.2793 71.5482C27.0976 71.3301 27.1264 71.0061 27.3443 70.8241L48.0703 53.5129C48.2881 53.3307 48.6124 53.3603 48.7943 53.5779C48.976 53.796 48.9472 54.12 48.7294 54.3019L28.0034 71.6132C27.9073 71.6934 27.7904 71.7324 27.6742 71.7324Z" fill="#4B4B4B"/>
<path d="M30.9142 75.6088C30.7673 75.6088 30.6212 75.5461 30.5195 75.4246C30.3379 75.2065 30.3667 74.8824 30.5845 74.7005L51.3105 57.389C51.5283 57.2073 51.8523 57.2361 52.0346 57.4539C52.2162 57.672 52.1874 57.9961 51.9696 58.178L31.2436 75.4893C31.1473 75.5698 31.0306 75.6088 30.9142 75.6088Z" fill="#4B4B4B"/>
<path d="M38.1613 76.1375C38.0143 76.1375 37.8683 76.0748 37.7666 75.9533C37.5846 75.7352 37.6137 75.4112 37.8316 75.2292L50.5415 64.613C50.7593 64.4313 51.0834 64.4601 51.2656 64.6779C51.4473 64.896 51.4184 65.2201 51.2006 65.402L38.4907 76.0183C38.3943 76.0982 38.2774 76.1375 38.1613 76.1375Z" fill="#4B4B4B"/>
<path d="M23.8313 37.8785C24.5542 38.7537 25.7238 38.8425 26.5632 38.1715C27.411 37.4935 27.5155 36.1967 26.8626 35.4311C26.1566 34.6036 24.9828 34.4847 24.1352 35.1729C23.2702 35.8752 23.1383 37.0488 23.8313 37.8785Z" fill="#4B4B4B"/>
<path d="M16.1884 46.8066C16.9546 46.2032 17.0613 44.8259 16.4152 44.11C15.833 43.4645 14.6913 43.058 13.6689 43.8702C11.7207 45.4181 14.054 48.4879 16.1884 46.8066Z" fill="#4B4B4B"/>
<path d="M89.6945 81.6239C84.7469 79.2378 79.9306 76.6197 75.1451 73.9446C70.3732 71.2466 65.6344 68.4902 61.0274 65.5C60.8277 65.3704 60.7709 65.104 60.9009 64.9042C61.0201 64.72 61.2565 64.6576 61.4495 64.7511C66.3937 67.1428 71.2064 69.7685 75.9859 72.4527C80.7527 75.1597 85.4874 77.9238 90.0912 80.9199C90.2785 81.0416 90.3316 81.2928 90.2093 81.4801C90.0977 81.6527 89.8756 81.7115 89.6945 81.6239Z" fill="#4B4B4B"/>
<path d="M88.345 84.4466C83.3974 82.0605 78.5805 79.4422 73.7956 76.7674C69.0237 74.0691 64.2848 71.3129 59.6773 68.3225C59.4781 68.1931 59.4213 67.9264 59.5507 67.727C59.6708 67.5431 59.9073 67.4806 60.0997 67.5738C65.0439 69.9656 69.8565 72.5913 74.6361 75.2754C79.4029 77.9825 84.1375 80.7466 88.7414 83.7426C88.9287 83.8644 88.9823 84.1153 88.86 84.3028C88.7476 84.4755 88.5255 84.5342 88.345 84.4466Z" fill="#4B4B4B"/>
<path d="M51.7911 62.0876L53.8441 65.03L55.8116 61.5404L52.2268 61.3132C51.8646 61.2898 51.5806 61.7907 51.7911 62.0876Z" fill="#4B4B4B"/>
<path d="M51.4863 61.4123C51.3227 61.7053 51.3295 62.0406 51.5038 62.2875L52.4207 63.602L55.2221 67.6181L56.5656 69.5442C56.5676 69.5467 56.5701 69.5492 56.5721 69.5518C56.5797 69.5614 56.5842 69.5727 56.593 69.5817C56.6156 69.6052 56.6416 69.6255 56.6715 69.6428L90.0586 88.403L90.0595 88.4036L92.9298 90.0204C94.1011 90.6761 95.6996 90.0636 96.4943 88.6561L98.16 85.6985C98.7832 84.5925 98.7538 83.2878 98.0865 82.4527C97.9272 82.2468 97.7235 82.0722 97.4853 81.9371L94.6257 80.3302C94.6212 80.3274 94.6187 80.3226 94.6139 80.32L92.8838 79.3482C92.8826 79.3473 92.882 79.3465 92.8809 79.3456C92.8795 79.3448 92.8784 79.3451 92.877 79.3445L61.2262 61.5632C61.1618 61.527 61.0909 61.5197 61.0222 61.5267C61.001 61.5222 60.9801 61.516 60.9578 61.5146L52.246 60.9654C51.9426 60.9459 51.6513 61.1171 51.4863 61.4123ZM57.3253 69.2125L59.4673 65.4122L60.8924 62.8837L61.1963 62.3446C61.2412 62.3698 61.286 62.395 61.3307 62.4201C61.6328 62.5898 61.9316 62.7577 62.2272 62.9238C73.7119 69.3757 80.4611 73.1673 92.2342 79.7813L88.3452 86.6424L57.3253 69.2125ZM93.2702 89.4136L90.7039 87.9682L94.5743 81.0998L97.1432 82.5434C97.259 82.609 97.3621 82.6886 97.4506 82.7804C97.4822 82.8132 97.5116 82.8474 97.5393 82.883C98.0266 83.4932 98.0311 84.5089 97.5534 85.357L95.888 88.3143C95.2817 89.389 94.1073 89.8823 93.2702 89.4136ZM90.0973 87.627L88.9517 86.9834L92.8408 80.122L93.9694 80.7562L90.0973 87.627ZM52.2013 61.6601L60.479 62.1819L59.3643 64.1596L57.9393 66.6879L56.945 68.4522L56.8142 68.6842L56.3483 68.0163L55.7582 67.1704L52.0736 61.8883C52.0731 61.8878 52.0725 61.8869 52.0722 61.8864C52.0578 61.866 52.0621 61.809 52.094 61.7519C52.1268 61.6928 52.1751 61.6581 52.2013 61.6601Z" fill="#4B4B4B"/>
<path d="M55.1691 67.6623L55.2221 67.6181L52.4207 63.602L55.1691 67.6623Z" fill="#4B4B4B"/>
<path fill-rule="evenodd" clip-rule="evenodd" d="M29.4174 23.687C29.7468 23.687 30.0743 23.8274 30.3034 24.1028L58.3888 57.7221L58.5052 57.8606L61.2139 61.1066C61.5285 61.4904 61.5615 62.0119 61.3307 62.4201L62.2272 62.9238C62.6646 62.155 62.6042 61.1809 62.0092 60.4546L59.2948 57.2015L59.1765 57.0605L31.0927 23.4434C30.678 22.9459 30.0669 22.6592 29.4174 22.6592C28.91 22.6592 28.4151 22.8377 28.0238 23.1621L4.94361 42.4421L4.63285 42.6984L1.07573 45.678C0.633877 46.0405 0.356167 46.564 0.30249 47.1451C0.248247 47.7305 0.427078 48.3006 0.805645 48.7504L3.28029 51.7128L1.43075 52.9663C0.949069 53.2909 0.622484 53.7856 0.513717 54.3582C0.404667 54.9326 0.528125 55.516 0.861208 56.0008L27.8788 95.9232C28.2816 96.5219 28.9563 96.8804 29.6817 96.8804C30.1228 96.8804 30.5477 96.7479 30.9101 96.4973L59.9779 76.8327C60.9819 76.1352 61.2365 74.8085 60.5677 73.805L58.1647 70.2586L58.1042 70.1648L56.945 68.4522L56.8142 68.6842L56.3483 68.0163L55.7582 67.1704L55.2221 67.6181L55.1691 67.6623L34.1201 85.2369C33.9074 85.4177 33.6458 85.5058 33.3856 85.5058C33.0562 85.5058 32.7287 85.3649 32.5027 85.0925L4.79696 51.9258L4.13511 51.1335L1.59188 48.089C1.18195 47.6017 1.24297 46.8702 1.73568 46.466L5.28658 43.4914L5.60243 43.2309L28.6795 23.9537C28.8953 23.7748 29.1569 23.687 29.4174 23.687ZM59.4673 65.4122L60.8924 62.8837L59.3643 64.1596L57.9393 66.6879L59.4673 65.4122ZM3.94215 52.5052L2.00708 53.8167C1.48076 54.1712 1.34233 54.886 1.7079 55.4177L28.7294 95.3469C28.95 95.6749 29.3128 95.8523 29.6809 95.8523C29.9035 95.8523 30.1284 95.7873 30.3247 95.6514L59.4012 75.9806C59.9276 75.6151 60.066 74.906 59.7117 74.3743L57.3129 70.8344L57.2411 70.7234L55.748 68.5175L34.786 86.0195C34.3961 86.3508 33.8989 86.5333 33.3856 86.5333C32.7355 86.5333 32.1253 86.2474 31.7137 85.7513L3.94215 52.5052Z" fill="#4B4B4B"/>
<path d="M141.96 25.4516L128.346 20.5121L129.077 13.9395C129.283 12.1178 128.221 10.4047 126.496 9.77664L126.291 9.70234C126.359 9.21698 126.291 8.72004 126.079 8.26887C125.794 7.65779 125.285 7.18967 124.652 6.96112L105.887 0.154251C105.613 0.0514167 105.322 0 105.025 0C104.14 0 103.329 0.462474 102.872 1.19927L102.707 1.1422C100.982 0.519823 99.069 1.14785 98.0585 2.67822L94.4039 8.19457L80.756 3.24353C80.2534 3.06074 79.7339 2.96949 79.2084 2.96949C77.3068 2.96949 75.5936 4.16876 74.9484 5.95594L60.2783 46.3685C60.0441 47.0251 59.9585 47.739 60.0385 48.43C60.2326 50.1488 61.3691 51.588 62.9964 52.1762L124.201 74.3899C124.697 74.567 125.217 74.6639 125.742 74.6639C127.644 74.6639 129.357 73.459 130.002 71.6774L144.667 31.2648C145.523 28.9124 144.307 26.3082 141.96 25.4516ZM105.025 1.02806C105.196 1.02806 105.368 1.0566 105.539 1.11932L124.298 7.92618C124.909 8.1488 125.291 8.72004 125.291 9.33677V9.34242C125.291 9.51362 125.263 9.6851 125.2 9.85631C125.137 10.0275 125.046 10.1818 124.937 10.3075C124.652 10.6502 124.229 10.8443 123.784 10.8443C123.613 10.8443 123.441 10.8157 123.27 10.753L104.511 3.94614C103.906 3.72352 103.523 3.14663 103.523 2.53555C103.523 2.36435 103.552 2.19286 103.614 2.02166C103.677 1.85046 103.763 1.70186 103.883 1.57049C104.157 1.22808 104.585 1.02806 105.025 1.02806ZM98.9148 3.24946C99.6629 2.1132 101.079 1.64479 102.358 2.1132L102.518 2.17026C102.45 2.65562 102.518 3.14663 102.735 3.60373C103.021 4.22046 103.529 4.68293 104.163 4.91149L122.922 11.7183C123.201 11.8212 123.493 11.8726 123.784 11.8726C124.675 11.8726 125.485 11.4042 125.942 10.6677L126.142 10.742C127.421 11.2104 128.209 12.478 128.055 13.8256L127.347 20.1528L95.3972 8.55477L98.9148 3.24946ZM143.702 30.9109L129.037 71.3235C128.969 71.5006 128.895 71.6718 128.803 71.8317C128.757 71.9117 128.712 71.9916 128.661 72.0659C128.563 72.2145 128.455 72.3572 128.329 72.4885V72.4942C128.272 72.5569 128.21 72.6199 128.147 72.677C128.084 72.7397 128.015 72.7968 127.947 72.8541C127.947 72.8541 127.947 72.8541 127.941 72.8541C127.77 72.9911 127.587 73.1169 127.393 73.2197C127.204 73.3225 127.005 73.4081 126.793 73.4708C126.456 73.5793 126.102 73.6364 125.743 73.6364C125.349 73.6364 124.943 73.568 124.549 73.4251L63.345 51.2114C63.1851 51.1543 63.0252 51.08 62.8766 51.0001C62.7339 50.9258 62.5969 50.8345 62.4655 50.743C61.6717 50.1604 61.1694 49.2753 61.0609 48.3159C60.9982 47.7964 61.0552 47.248 61.2493 46.7228L75.9137 6.31021C76.4333 4.88267 77.7752 3.99756 79.2087 3.99756C79.6084 3.99756 80.0082 4.06621 80.4023 4.20888L127.233 21.2031L128.227 21.5687L140.835 26.1429H140.841L141.612 26.4226C142.143 26.6167 142.6 26.9252 142.96 27.3133C143.022 27.3761 143.079 27.4447 143.137 27.5134C143.251 27.6504 143.348 27.793 143.434 27.9473C143.479 28.0216 143.519 28.1015 143.559 28.1815C143.639 28.3358 143.702 28.5013 143.754 28.6669C143.976 29.3748 143.976 30.1571 143.702 30.9109Z" fill="#4B4B4B"/>
<path d="M130.54 36.941C130.535 36.8953 130.529 36.8495 130.518 36.804C130.506 36.7354 130.495 36.6613 130.478 36.5927C130.466 36.5356 130.449 36.4786 130.438 36.4271C130.432 36.3986 130.421 36.3757 130.415 36.3528C130.398 36.2901 130.381 36.2271 130.358 36.1701C130.312 36.033 130.255 35.896 130.192 35.759C130.141 35.6449 130.084 35.5364 130.027 35.4335C129.97 35.3423 129.913 35.2451 129.85 35.1595C129.821 35.1137 129.787 35.0683 129.753 35.0225C129.684 34.9369 129.615 34.8513 129.541 34.7713C129.456 34.6742 129.364 34.5829 129.267 34.4916C129.187 34.4174 129.102 34.349 129.016 34.2803L128.879 34.1775C128.811 34.1317 128.742 34.0803 128.668 34.0405C128.656 34.0292 128.639 34.0232 128.628 34.0176C128.519 33.9489 128.411 33.8919 128.296 33.8348C128.176 33.7777 128.057 33.7263 127.931 33.6806L127.611 33.5664L86.239 18.5593C85.7995 18.3994 85.3367 18.3138 84.8686 18.3138C83.1896 18.3138 81.6708 19.3817 81.0996 20.9635L77.6504 30.4599C77.6447 30.4712 77.6447 30.4771 77.6447 30.4884L73.3562 42.2978C73.2875 42.4862 73.2364 42.669 73.2019 42.8574C72.8022 44.7762 73.8644 46.7519 75.7604 47.4372L117.441 62.5641C117.886 62.724 118.349 62.8096 118.817 62.8096C120.502 62.8096 122.015 61.7474 122.592 60.1656L130.329 38.8313C130.529 38.2773 130.609 37.6951 130.558 37.1238C130.557 37.0608 130.546 37.0037 130.54 36.941ZM121.626 59.8113C121.546 60.0399 121.438 60.2509 121.307 60.4453C121.175 60.6393 121.027 60.8108 120.861 60.9707C120.061 61.7188 118.885 61.9985 117.795 61.599L76.1141 46.4722C74.5608 45.9069 73.7613 44.1937 74.321 42.6518L74.7834 41.3725L78.2668 31.7733C78.284 31.7846 78.3067 31.7905 78.3295 31.7962C88.9167 34.8341 92.1546 39.6537 93.0626 41.5839C93.7191 43.0001 94.5359 44.1994 95.4894 45.1757L95.1868 46.0038C94.9128 46.7462 94.9526 47.557 95.2896 48.2766C95.6267 48.9961 96.2262 49.5442 96.9686 49.8126L99.6468 50.7833C99.9723 50.9031 100.315 50.9661 100.663 50.9661C101.914 50.9661 103.039 50.1782 103.461 49.0074L103.781 48.1336C105.146 47.9966 106.528 47.6025 107.893 46.9688C109.389 46.2722 111.187 45.9182 113.237 45.9182C114.625 45.9182 116.133 46.0781 117.732 46.3979C121.055 47.0604 124.025 48.2593 125.504 48.9105C125.526 48.9218 125.549 48.9278 125.572 48.9391L121.626 59.8113ZM96.6833 44.8898L97.854 41.6576C98.1453 40.8637 98.8934 40.3727 99.6929 40.3727C99.9098 40.3727 100.138 40.4069 100.355 40.4869L103.028 41.4576C104.044 41.8288 104.57 42.9481 104.199 43.9587L102.663 48.1901L102.497 48.6526C102.211 49.4465 101.463 49.9375 100.664 49.9375C100.442 49.9375 100.219 49.8974 99.996 49.8177L97.3234 48.847C96.3126 48.4814 95.7874 47.3624 96.1527 46.3515L96.301 45.9345L96.6833 44.8898ZM129.364 38.483L125.921 47.9737C124.253 47.2313 121.273 46.0549 117.932 45.3868C116.413 45.0842 114.82 44.8898 113.238 44.8898C111.222 44.8898 109.235 45.2096 107.459 46.0377C106.386 46.5403 105.278 46.8829 104.176 47.0426L105.164 44.3129C105.438 43.5648 105.404 42.754 105.067 42.0345C104.73 41.3092 104.13 40.7668 103.382 40.4928L100.704 39.5221C100.378 39.4023 100.036 39.3449 99.6929 39.3449C98.4422 39.3449 97.3172 40.1329 96.8889 41.3092L95.884 44.0787C95.1701 43.2736 94.5308 42.3028 93.9937 41.1493C91.0929 34.9536 82.2132 31.8414 78.6154 30.8077L82.0646 21.3113C82.5042 20.0951 83.6521 19.3411 84.8686 19.3411C85.2113 19.3411 85.554 19.4038 85.8907 19.5238L126.8 34.3654L127.577 34.651C129.124 35.2106 129.929 36.9297 129.364 38.483Z" fill="#4B4B4B"/>
<path d="M74.4799 9.54221L142.924 34.2582L142.54 35.3211L74.096 10.6051L74.4799 9.54221Z" fill="#4B4B4B"/>
<path d="M96.3666 44.0834L103.764 46.7546L103.38 47.8175L95.9828 45.1463L96.3666 44.0834Z" fill="#4B4B4B"/>
</svg>
