<svg width="122" height="122" viewBox="0 0 122 122" fill="none" xmlns="http://www.w3.org/2000/svg">
<circle cx="61" cy="61" r="60" stroke="#D20A11" stroke-width="2"/>
<path d="M39 77V44H44.6376V59.9342C46.1779 57.8217 48.242 56.7654 50.8297 56.7654C53.4483 56.7654 55.4199 57.5652 56.7446 59.1646C57.792 60.4321 58.3157 62.273 58.3157 64.6872V77H52.6781V66.3169C52.6781 64.476 52.3238 63.1934 51.6153 62.4691C50.9683 61.8052 50.0903 61.4733 48.9813 61.4733C47.441 61.4733 46.2857 62.0466 45.5156 63.1934C44.9303 64.0988 44.6376 65.3663 44.6376 66.9959V77H39Z" fill="#D20A11"/>
<path d="M63.6843 77V44H69.3219V59.9342C70.8622 57.8217 72.9263 56.7654 75.514 56.7654C78.1326 56.7654 80.1042 57.5652 81.4289 59.1646C82.4763 60.4321 83 62.273 83 64.6872V77H77.3624V66.3169C77.3624 64.476 77.0081 63.1934 76.2996 62.4691C75.6526 61.8052 74.7747 61.4733 73.6656 61.4733C72.1253 61.4733 70.9701 62.0466 70.1999 63.1934C69.6146 64.0988 69.3219 65.3663 69.3219 66.9959V77H63.6843Z" fill="#D20A11"/>
</svg>
