<svg width="122" height="122" viewBox="0 0 122 122" fill="none" xmlns="http://www.w3.org/2000/svg">
<circle cx="61" cy="61" r="60" stroke="#00A583" stroke-width="2"/>
<path d="M70.249 56.5496V57.9895C70.5756 57.473 71.039 57.0493 71.5916 56.7617C72.1443 56.4742 72.7665 56.3332 73.3944 56.3532H73.6069V58.8158C73.0798 58.8158 71.0566 58.8158 70.436 60.6894C70.283 61.2217 70.2199 61.7742 70.249 62.3257V66.7274H67.6987V56.5496H70.249ZM43.114 66.7274V56.5496H40.5638V61.1967C40.6294 62.0335 40.4926 62.8737 40.1642 63.6511C39.9639 64.0008 39.6677 64.291 39.308 64.49C38.9483 64.6891 38.5388 64.7894 38.124 64.7802C36.3048 64.7802 36.0583 63.6184 36.0583 62.5548V56.5496H33.508V62.6366C33.508 64.412 33.78 65.1565 34.3581 65.8601C34.7014 66.2273 35.1248 66.5167 35.5981 66.7076C36.0714 66.8986 36.5827 66.9864 37.0954 66.9647C38.3254 66.9734 39.5228 66.5844 40.4958 65.8601V66.7274H43.114ZM32.2583 55.0932C31.6523 54.1356 30.7972 53.3467 29.7774 52.8043C28.7577 52.262 27.6087 51.985 26.4437 52.0006C22.7033 52.0006 20.7821 54.0378 20.7821 56.3123C20.7821 58.5868 22.2017 59.724 24.82 60.4031L26.7157 60.8694C28.6029 61.3358 29.47 61.7694 29.47 62.743C29.47 64.1011 27.9484 64.592 26.6562 64.592C25.8273 64.643 24.9999 64.473 24.265 64.1006C23.53 63.7281 22.9161 63.1678 22.4908 62.4812L20 63.7739C20.6224 64.8327 21.5392 65.7037 22.6474 66.289C23.7556 66.8743 25.0113 67.1508 26.2737 67.0874C28.9345 67.0874 32.4029 66.0156 32.4029 62.4566C32.4029 59.6913 30.1246 58.7913 27.7784 58.2431L26.2142 57.875C24.6245 57.515 23.6639 57.0568 23.6639 56.1487C23.6979 54.6269 25.6446 54.4551 26.2737 54.4551C27.0096 54.4197 27.7396 54.5981 28.3688 54.9673C28.9979 55.3364 29.4972 55.8792 29.8016 56.525L32.2583 55.0932ZM75.9871 52.3688V61.8185C75.9871 63.2993 75.9021 64.4775 73.7514 64.4775C73.2514 64.4686 72.7546 64.3999 72.2722 64.2729V66.8092C72.8295 66.9343 73.4003 66.9947 73.9724 66.9892C78.2229 66.9892 78.6904 64.5347 78.6904 62.4239V52.3688H75.9871ZM47.424 61.6303C47.424 59.7813 48.4866 58.5622 49.9743 58.5622C51.462 58.5622 52.5246 59.7813 52.5246 61.6303C52.5246 63.4793 51.4705 64.6738 49.9743 64.6738C48.4781 64.6738 47.424 63.4384 47.424 61.6303ZM44.8737 56.5332V70H47.424V65.852C47.8013 66.2151 48.2493 66.5032 48.7423 66.6997C49.2353 66.8962 49.7637 66.9974 50.2973 66.9974C51.0411 67.0042 51.775 66.8336 52.4336 66.501C53.0922 66.1684 53.655 65.684 54.0717 65.0911C54.7833 64.0779 55.1515 62.8775 55.1259 61.6548C55.1463 60.226 54.6437 58.8358 53.7062 57.7277C53.3037 57.2576 52.7971 56.8799 52.2235 56.6223C51.6499 56.3647 51.0238 56.2336 50.3908 56.2387C49.8389 56.2384 49.2927 56.3464 48.7855 56.5559C48.2784 56.7655 47.8209 57.0724 47.441 57.4577V56.5332H44.8737ZM94.3747 61.5894C94.3747 59.7404 95.4288 58.464 96.9249 58.464C98.4211 58.464 99.4752 59.7404 99.4752 61.5894C99.4752 63.4384 98.4211 64.6984 96.9249 64.6984C95.4288 64.6984 94.3747 63.3975 94.3747 61.5894ZM91.8414 52.3688V66.7274H94.3492V65.7456C94.7395 66.1323 95.2077 66.4384 95.7251 66.6452C96.2425 66.852 96.7983 66.9551 97.3585 66.9483C99.5942 66.9483 102 65.1811 102 61.573C102 58.3004 99.8068 56.2468 97.3585 56.2468C96.2334 56.2393 95.15 56.6564 94.3407 57.4086V52.3688H91.8414ZM58.8918 60.3867C59.0065 59.7919 59.337 59.2556 59.8243 58.8735C60.3116 58.4914 60.9241 58.2883 61.5526 58.3004C62.1538 58.2862 62.7378 58.4947 63.184 58.8829C63.6301 59.2712 63.9042 59.8095 63.9498 60.3867H58.8918ZM66.6446 62.1703C66.6446 59.3558 65.4885 56.2468 61.4676 56.2468C60.7493 56.2446 60.0381 56.3838 59.3779 56.656C58.7177 56.9283 58.1224 57.3277 57.6286 57.8298C57.1348 58.3318 56.7531 58.9258 56.5069 59.5752C56.2607 60.2246 56.1552 60.9156 56.197 61.6057C56.197 65.132 58.6622 66.9974 61.3995 66.9974C62.453 67.0308 63.4963 66.79 64.4194 66.3005C65.3425 65.8109 66.1113 65.0906 66.6446 64.2157L64.4599 63.2011C64.2039 63.6877 63.8104 64.0948 63.3246 64.3755C62.8389 64.6563 62.2806 64.7994 61.7141 64.7884C61.344 64.8026 60.9746 64.7459 60.6274 64.6216C60.2803 64.4973 59.9622 64.3079 59.6917 64.0643C59.4212 63.8207 59.2037 63.5279 59.0518 63.2027C58.8999 62.8776 58.8166 62.5266 58.8068 62.1703H66.6446ZM82.5244 61.5976C82.5244 59.9613 83.451 58.4722 85.3042 58.4722C87.1574 58.4722 88.084 59.9776 88.084 61.5976C88.084 63.2175 87.1574 64.7638 85.3042 64.7638C83.451 64.7638 82.5244 63.2421 82.5244 61.5976ZM90.7193 61.5976C90.7193 60.9132 90.5792 60.2355 90.3071 59.6032C90.0349 58.9709 89.6361 58.3963 89.1332 57.9124C88.6304 57.4284 88.0334 57.0446 87.3764 56.7826C86.7194 56.5207 86.0153 56.3859 85.3042 56.3859C84.593 56.3859 83.8889 56.5207 83.2319 56.7826C82.5749 57.0446 81.978 57.4284 81.4751 57.9124C80.9723 58.3963 80.5734 58.9709 80.3013 59.6032C80.0291 60.2355 79.8891 60.9132 79.8891 61.5976C79.8891 62.282 80.0291 62.9597 80.3013 63.592C80.5734 64.2243 80.9723 64.7988 81.4751 65.2827C81.978 65.7667 82.5749 66.1506 83.2319 66.4125C83.8889 66.6744 84.593 66.8092 85.3042 66.8092C86.0153 66.8092 86.7194 66.6744 87.3764 66.4125C88.0334 66.1506 88.6304 65.7667 89.1332 65.2827C89.6361 64.7988 90.0349 64.2243 90.3071 63.592C90.5792 62.9597 90.7193 62.282 90.7193 61.5976Z" fill="#00A583"/>
</svg>
