<svg width="122" height="122" viewBox="0 0 122 122" fill="none" xmlns="http://www.w3.org/2000/svg">
<path d="M50.7031 60.3472L70.1728 64.4829L70.9883 60.5487L51.5186 56.3828L50.7031 60.3472Z" fill="#EC7C23"/>
<path d="M50.2703 65.4922H70.1693V69.498H50.2703V65.4922Z" fill="#EC7C23"/>
<path d="M53.2539 50.9152L71.2809 59.4391L72.9514 55.7779L54.915 47.2314L53.2539 50.9152Z" fill="#EC7C23"/>
<path d="M42.332 61.458V77.5999H78.0998V61.458H74.1204V73.5639H46.3115V61.458H42.332Z" fill="#EC7C23"/>
<path d="M58.25 41.9356L73.5218 54.8796L76.0567 51.7721L60.7849 38.8281L58.25 41.9356Z" fill="#EC7C23"/>
<path d="M79.9985 48.5724L68.1299 32.4004L64.9452 34.8223L76.8138 50.9943L79.9985 48.5724Z" fill="#EC7C23"/>
<circle cx="61" cy="61" r="60" stroke="#EC7C23" stroke-width="2"/>
</svg>
