<svg width="122" height="122" viewBox="0 0 122 122" fill="none" xmlns="http://www.w3.org/2000/svg">
<circle cx="61" cy="61" r="60" stroke="#15A401" stroke-width="2"/>
<path d="M75.6683 65.8877C73.3687 65.8877 71.2139 64.9266 69.2562 63.3621L69.7329 61.1535L69.7537 61.0717C70.1781 58.7201 71.5248 54.773 75.6683 54.773C78.7756 54.773 81.3032 57.268 81.3032 60.3354C81.2927 63.3927 78.7654 65.8877 75.6683 65.8877ZM75.6683 49.1391C70.3749 49.1391 66.2732 52.5338 64.6057 58.1167C62.0574 54.3436 60.1306 49.814 59.0017 46H53.3046V60.6319C53.3046 63.5154 50.9221 65.867 48.001 65.867C45.0799 65.867 42.6977 63.5154 42.6977 60.6319V46H37.0001V60.6319C36.9793 66.624 41.9203 71.542 47.9902 71.542C54.0604 71.542 59.0014 66.624 59.0014 60.6319V58.1781C60.1096 60.4581 61.4665 62.7587 63.1136 64.8039L59.6227 81H65.4546L67.9819 69.2516C70.1986 70.6524 72.7469 71.5319 75.668 71.5319C81.9139 71.5319 87 66.4808 87 60.3149C87 54.1595 81.9139 49.1391 75.668 49.1391H75.6683Z" fill="#15A401"/>
</svg>
