<svg width="30" height="30" viewBox="0 0 30 30" fill="none" xmlns="http://www.w3.org/2000/svg">
<path fill-rule="evenodd" clip-rule="evenodd" d="M28.75 15C28.75 22.5939 22.5939 28.75 15 28.75C7.40608 28.75 1.25 22.5939 1.25 15C1.25 7.40608 7.40608 1.25 15 1.25C22.5939 1.25 28.75 7.40608 28.75 15ZM21.8079 12.1834C21.8002 11.606 21.6922 11.0345 21.4885 10.4942C21.3119 10.0384 21.0422 9.62456 20.6966 9.27896C20.3511 8.93337 19.9372 8.66367 19.4814 8.48708C18.9481 8.28688 18.3847 8.17862 17.8151 8.16693C17.0818 8.13415 16.8493 8.125 14.9878 8.125C13.1263 8.125 12.8877 8.125 12.1597 8.16693C11.5904 8.17871 11.0273 8.28696 10.4942 8.48708C10.0384 8.66354 9.62442 8.9332 9.27881 9.27881C8.9332 9.62442 8.66354 10.0384 8.48708 10.4942C8.28647 11.0271 8.17845 11.5904 8.16769 12.1597C8.13491 12.8938 8.125 13.1263 8.125 14.9878C8.125 16.8493 8.125 17.0871 8.16769 17.8159C8.17912 18.386 8.2866 18.9486 8.48708 19.483C8.66384 19.9386 8.9337 20.3524 9.27942 20.6979C9.62515 21.0433 10.0391 21.3129 10.4949 21.4893C11.0266 21.6975 11.5898 21.8135 12.1605 21.8323C12.8946 21.8651 13.1271 21.875 14.9886 21.875C16.8501 21.875 17.0886 21.875 17.8166 21.8323C18.3862 21.8211 18.9496 21.7131 19.483 21.5129C19.9386 21.3361 20.3524 21.0664 20.6979 20.7208C21.0435 20.3752 21.3133 19.9614 21.4901 19.5058C21.6905 18.9722 21.798 18.4097 21.8094 17.8387C21.8422 17.1054 21.8521 16.8729 21.8521 15.0107L21.8521 14.9852C21.8506 13.147 21.8504 12.9095 21.8079 12.1834ZM14.9832 18.508C13.0364 18.508 11.4592 16.9309 11.4592 14.984C11.4592 13.0371 13.0364 11.46 14.9832 11.46C15.9179 11.46 16.8142 11.8313 17.4751 12.4921C18.136 13.153 18.5073 14.0494 18.5073 14.984C18.5073 15.9186 18.136 16.815 17.4751 17.4759C16.8142 18.1367 15.9179 18.508 14.9832 18.508ZM18.6475 12.1514C18.5396 12.1515 18.4327 12.1303 18.3329 12.089C18.2332 12.0478 18.1426 11.9872 18.0662 11.9109C17.9899 11.8346 17.9294 11.744 17.8881 11.6442C17.8469 11.5445 17.8257 11.4376 17.8258 11.3296C17.8258 11.2218 17.847 11.115 17.8883 11.0153C17.9296 10.9157 17.9901 10.8251 18.0663 10.7488C18.1426 10.6726 18.2332 10.6121 18.3328 10.5708C18.4325 10.5295 18.5393 10.5083 18.6471 10.5083C18.755 10.5083 18.8618 10.5295 18.9614 10.5708C19.0611 10.6121 19.1516 10.6726 19.2279 10.7488C19.3042 10.8251 19.3647 10.9157 19.406 11.0153C19.4472 11.115 19.4685 11.2218 19.4685 11.3296C19.4685 11.7839 19.1011 12.1514 18.6475 12.1514ZM17.2723 14.9841C17.2723 16.2483 16.2475 17.2732 14.9832 17.2732C13.719 17.2732 12.6941 16.2483 12.6941 14.9841C12.6941 13.7198 13.719 12.695 14.9832 12.695C16.2475 12.695 17.2723 13.7198 17.2723 14.9841Z" fill="white"/>
</svg>
