<svg width="30" height="30" viewBox="0 0 30 30" fill="none" xmlns="http://www.w3.org/2000/svg">
<path d="M15 1.25C7.40599 1.25 1.25 7.40599 1.25 15C1.25 22.594 7.40599 28.75 15 28.75C22.594 28.75 28.75 22.594 28.75 15C28.75 7.40599 22.594 1.25 15 1.25ZM20.5931 12.5135C20.5988 12.631 20.6003 12.7484 20.6003 12.863C20.6003 16.4438 17.8775 20.5702 12.896 20.5702C11.424 20.5726 9.98263 20.1499 8.74518 19.3527C8.95573 19.3785 9.17201 19.3885 9.39115 19.3885C10.6602 19.3885 11.8275 18.9574 12.7542 18.2298C12.1894 18.2187 11.6422 18.0317 11.1888 17.6949C10.7354 17.358 10.3984 16.8881 10.2247 16.3507C10.6303 16.4278 11.0481 16.4116 11.4465 16.3034C10.8335 16.1794 10.2823 15.8473 9.8863 15.3633C9.49029 14.8793 9.27385 14.2733 9.2737 13.6479V13.615C9.63893 13.8169 10.0572 13.9401 10.5012 13.9544C9.92653 13.5719 9.51974 12.9843 9.364 12.3118C9.20825 11.6393 9.31531 10.9327 9.66328 10.3365C10.3436 11.1729 11.1919 11.8572 12.1534 12.345C13.1149 12.8328 14.1682 13.1132 15.2449 13.1681C15.108 12.587 15.1669 11.977 15.4125 11.4329C15.6581 10.8888 16.0765 10.441 16.6028 10.1592C17.1291 9.87746 17.7338 9.77747 18.3228 9.87479C18.9118 9.97211 19.4521 10.2613 19.8598 10.6974C20.4659 10.5775 21.0471 10.3552 21.5785 10.04C21.3765 10.6675 20.9536 11.2004 20.3883 11.5396C20.9252 11.4749 21.4494 11.3306 21.9437 11.1113C21.5806 11.6554 21.1232 12.1303 20.5931 12.5135Z" fill="white"/>
</svg>
