<svg width="30" height="30" viewBox="0 0 30 30" fill="none" xmlns="http://www.w3.org/2000/svg">
<path d="M17.296 14.7608L14.079 13.2598C13.7983 13.1294 13.5677 13.2755 13.5677 13.5863V16.4137C13.5677 16.7245 13.7983 16.8706 14.079 16.7402L17.2945 15.2392C17.5767 15.1074 17.5767 14.8926 17.296 14.7608ZM15 1.25C7.40599 1.25 1.25 7.40599 1.25 15C1.25 22.594 7.40599 28.75 15 28.75C22.594 28.75 28.75 22.594 28.75 15C28.75 7.40599 22.594 1.25 15 1.25ZM15 20.5859C7.96172 20.5859 7.83854 19.9514 7.83854 15C7.83854 10.0486 7.96172 9.41406 15 9.41406C22.0383 9.41406 22.1615 10.0486 22.1615 15C22.1615 19.9514 22.0383 20.5859 15 20.5859Z" fill="white"/>
</svg>
