<svg width="15" height="15" viewBox="0 0 15 15" fill="none" xmlns="http://www.w3.org/2000/svg">
<path d="M0 14.3768V0.615259C0.0371681 0.512908 0.0904411 0.417153 0.157809 0.331603C0.303116 0.211492 0.455909 0.100734 0.615262 0H14.3787C14.8742 0.18378 15 0.555329 15 1.05673C14.988 5.40351 14.988 9.75097 15 14.0991C15.0048 14.2184 14.9848 14.3374 14.9413 14.4487C14.8978 14.5599 14.8318 14.6609 14.7474 14.7454C14.6629 14.8298 14.5619 14.8958 14.4507 14.9393C14.3394 14.9828 14.2204 15.0028 14.1011 14.998C10.4175 14.986 6.73392 14.998 3.05034 14.998C2.29924 14.998 1.54814 14.998 0.797042 14.998C0.634814 14.9996 0.476071 14.9509 0.342643 14.8586C0.209216 14.7663 0.107658 14.635 0.0519366 14.4826C0.0378921 14.4458 0.0205081 14.4104 0 14.3768ZM1.11266 1.10267V13.8873H13.8793V1.10267H1.11266Z" fill="white"/>
<path d="M6.33439 3.1562H7.9944V5.33159H8.94926V6.46623H8.02637C8.02637 6.52816 8.02637 6.5781 8.02637 6.63004C8.02637 7.75669 8.02303 8.884 8.01638 10.012C8.01638 10.0692 8.01638 10.1272 8.01638 10.1858C8.01455 10.246 8.02539 10.306 8.04817 10.3619C8.07096 10.4177 8.1052 10.4681 8.14868 10.5099C8.19216 10.5517 8.24391 10.5839 8.3006 10.6045C8.3573 10.625 8.41767 10.6335 8.47782 10.6292C8.63164 10.6292 8.78745 10.6292 8.94926 10.6292V11.7819C8.67359 11.7998 8.39992 11.8338 8.12425 11.8318C7.8081 11.8382 7.49198 11.8175 7.17938 11.7699C6.68398 11.682 6.44626 11.4063 6.38034 10.9089C6.34879 10.6577 6.33212 10.4049 6.3304 10.1518C6.3304 8.99519 6.3304 7.83858 6.3304 6.68197V6.48221H5.50939V11.7499H3.86136V5.33759H6.31841L6.33439 3.1562Z" fill="white"/>
<path d="M10.8989 9.39472H9.68437C9.60847 7.31521 9.40871 5.24369 9.48461 3.1542H11.1366C11.1686 5.24369 10.9708 7.31122 10.8989 9.39472Z" fill="white"/>
<path d="M11.1206 11.7659H9.47063V10.1838C9.50088 10.1769 9.53159 10.1722 9.56252 10.1698C10.04 10.1698 10.5174 10.1698 10.9948 10.1698C11.0367 10.1698 11.1147 10.2177 11.1147 10.2437C11.1226 10.7471 11.1206 11.2485 11.1206 11.7659Z" fill="white"/>
<path d="M5.50139 3.1582V4.55652H3.89133V3.1582H5.50139Z" fill="white"/>
</svg>
