<svg width="143" height="36" viewBox="0 0 143 36" fill="none" xmlns="http://www.w3.org/2000/svg">
<rect x="0.904297" width="141.96" height="30.4951" rx="3" fill="#191919"/>
<path d="M97.7642 16.4966V12.8753H103.49V16.3828C103.49 17.8146 103.822 18.8956 104.485 19.6257C105.148 20.3558 106.067 20.7209 107.241 20.7209C108.416 20.7209 109.334 20.3701 109.998 19.6684C110.661 18.9667 110.992 17.9189 110.992 16.525V5.04674H113.862L116.732 9.29327V16.3543C116.732 17.9758 116.51 19.3934 116.064 20.6071C115.619 21.8209 114.975 22.807 114.132 23.5656C113.289 24.3242 112.285 24.8931 111.12 25.2724C109.964 25.6422 108.652 25.8271 107.184 25.8271C104.201 25.8271 101.885 25.0543 100.236 23.5087C98.5883 21.9536 97.7642 19.6162 97.7642 16.4966Z" fill="white"/>
<path d="M77.6145 5.04674H87.2478C90.2126 5.04674 92.4243 5.77687 93.883 7.23714C95.086 8.44139 95.6875 10.0534 95.6875 12.0731C95.6875 13.5808 95.3181 14.8609 94.5793 15.9134C93.8404 16.9659 92.8127 17.7719 91.496 18.3314L96.3553 25.4431H89.8337L85.7275 19.2701H83.2552V25.4431H77.6145V14.8467H86.9778C87.9345 14.8467 88.6781 14.6286 89.2085 14.1924C89.739 13.7467 90.0042 13.1351 90.0042 12.3576C90.0042 11.5705 89.7342 10.9731 89.1943 10.5654C88.6638 10.1482 87.9156 9.93958 86.9494 9.93958L78.9399 9.85424L77.6145 7.90962V5.04674Z" fill="white"/>
<path d="M36.532 5.04674H46.9751C49.4569 5.04674 51.3087 5.65834 52.5306 6.88155C53.4115 7.7634 53.852 8.88231 53.852 10.2383C53.852 12.3528 52.8006 13.8652 50.6977 14.7755C52.0144 15.2117 53.0184 15.8281 53.7099 16.6246C54.4014 17.4116 54.7471 18.4784 54.7471 19.8248C54.7471 21.5791 54.0651 22.954 52.7011 23.9496C51.3466 24.9453 49.4569 25.4431 47.032 25.4431H36.532V20.9058H46.3926C47.2546 20.9058 47.9224 20.7399 48.396 20.408C48.8696 20.0761 49.1064 19.5973 49.1064 18.9714C49.1064 18.4025 48.8743 17.9568 48.4102 17.6344C47.9461 17.3026 47.2546 17.1366 46.3358 17.1366H36.532V13.1825H45.5827C47.3635 13.1825 48.2539 12.5709 48.2539 11.3477C48.2539 10.7882 48.036 10.3568 47.6003 10.0534C47.1646 9.74994 46.53 9.59822 45.6964 9.59822H37.7289L36.532 7.8368V5.04674Z" fill="white"/>
<path d="M57.5513 5.04674H73.9334V9.85424H57.5513V5.04674Z" fill="white"/>
<path d="M57.5513 12.9407H73.9567V17.4069H57.5513V12.9407Z" fill="white"/>
<path d="M57.5513 20.6356H73.9567V25.4431H58.9709L57.5513 23.3483V20.6356Z" fill="white"/>
<path fill-rule="evenodd" clip-rule="evenodd" d="M27.1261 5.04674V21.3385L29.9 25.4431H32.8095V5.04674H27.1261Z" fill="white"/>
<path d="M136.981 16.6473C137.672 17.4344 138.018 18.5011 138.018 19.8476C138.018 21.3413 137.523 22.5599 136.534 23.5036C136.362 23.6683 136.174 23.8245 135.972 23.9724C134.701 24.9066 132.959 25.4025 130.745 25.4602C130.6 25.4639 130.452 25.4658 130.303 25.4658H121.169L119.803 23.4734V20.9286H129.663C129.744 20.9286 129.824 20.9271 129.902 20.9242C130.649 20.8958 131.238 20.7314 131.667 20.4308C132.14 20.0989 132.377 19.343 132.377 18.9942C132.377 18.6454 132.081 17.9365 130.808 17.6088C129.535 17.2811 124.115 16.1966 122.377 15.1341C120.638 14.0716 120.717 13.8568 120.197 13.2053C119.56 12.4061 119.241 11.4242 119.241 10.2596C119.241 9.36351 119.434 8.57099 119.818 7.88203C120.015 7.52872 120.263 7.20264 120.561 6.9038C121.781 5.68093 123.63 5.06949 126.108 5.06949H136.534V9.61971H127.384C127.34 9.61971 127.297 9.62013 127.254 9.62098C126.486 9.63616 125.895 9.78741 125.483 10.0747C125.048 10.3781 124.831 10.8094 124.831 11.3687C124.831 12.5916 126.463 12.5999 127.684 12.9049C128.905 13.2098 132.627 13.6991 134.155 14.5002C135.682 15.3012 135.88 15.6145 136.534 16.1966C136.695 16.3398 136.844 16.4901 136.981 16.6473Z" fill="white"/>
<path d="M97.7642 9.85311V4.9375H103.49V9.85311H97.7642Z" fill="white"/>
<path d="M11.3975 13.3248L18.4164 5.04674H25.1086L17.3934 13.8226L31.9456 35.0729H25.1802L13.4719 17.8762L11.3975 20.1662V25.4431H5.75684V20.0052L11.3975 13.3248Z" fill="white"/>
<path d="M5.75684 4.9375H11.3975V5.89366L5.75684 12.5904V4.9375Z" fill="#00A583"/>
</svg>
