<svg width="109" height="111" viewBox="0 0 109 111" fill="none" xmlns="http://www.w3.org/2000/svg">
<path d="M35.4878 110.996H2.59887C0.881199 110.996 -0.11331 109.877 0.00224037 108.212C0.441071 102.156 3.5752 97.9047 8.53087 94.8534C11.2417 93.1802 14.2045 92.0916 17.1387 90.9264C19.1654 90.1209 21.1635 89.2466 23.1655 88.3737C23.5952 88.1858 23.9834 87.8856 24.3703 87.6065C25.5505 86.7574 26.2788 85.6992 26.1373 84.112C26.027 82.8648 26.0997 81.599 26.0503 80.3478C26.0399 80.0753 25.9309 79.6997 25.7374 79.5542C23.2706 77.7673 22.0905 75.1749 21.2751 72.3351C21.2132 72.0855 21.0772 71.8615 20.8856 71.6936C19.1472 70.4239 18.289 68.5999 17.8424 66.563C17.3399 64.2947 17.4944 62.1004 18.8538 60.1124C18.9524 59.9683 18.9369 59.7011 18.8953 59.5093C18.1981 56.278 17.6723 53.0283 17.8437 49.7031C18.0475 45.747 19.0446 42.0701 21.7698 39.0703C24.3106 36.2728 27.5434 34.8087 31.1514 34.1447C33.5377 33.7056 35.9409 33.4926 38.348 34.1143C40.4626 34.6368 42.3717 35.801 43.823 37.4527C44.1106 37.8016 44.5195 38.0238 44.9642 38.073C49.7679 38.7065 52.2231 41.6442 53.1436 46.2245C53.9888 50.4385 53.5071 54.5903 52.4412 58.6906C52.1997 59.6164 52.1997 60.3849 52.5853 61.316C54.0757 64.9229 53.3643 69.1607 50.0627 71.7055C49.861 71.8925 49.7178 72.1358 49.6511 72.4052C49.159 74.0453 48.7423 75.737 47.7036 77.1165C47.0454 77.9961 46.1456 78.6918 45.3887 79.4973C45.2018 79.6957 45.0096 79.9933 44.9992 80.2499C44.9603 81.9023 44.9516 83.5548 44.9733 85.2072C44.9888 86.219 45.7172 86.8169 46.4014 87.383C47.9503 88.6646 49.8238 89.3127 51.6388 90.0733C54.8846 91.4343 58.1953 92.6683 61.3528 94.2185C64.8245 95.9221 67.647 98.4616 69.4218 102.05C70.3682 103.956 70.9231 106.039 71.0525 108.171C71.1642 109.969 70.1904 110.998 68.4325 110.998L35.4878 110.996ZM48.7747 50.6964L48.9409 50.6673C48.7124 49.2428 48.593 47.7892 48.2333 46.4004C47.6439 44.1255 46.33 42.5317 43.3608 42.5885C42.936 42.6082 42.5138 42.5126 42.1372 42.3116C41.7606 42.1106 41.4432 41.8113 41.2172 41.4444C40.3084 40.0464 38.9906 39.2753 37.4365 38.8679C35.4826 38.3574 33.5208 38.5875 31.5824 38.9142C29.1507 39.3242 26.8968 40.1919 25.2402 42.1732C23.5186 44.2326 22.8474 46.7073 22.6435 49.35C22.367 52.8801 22.9123 56.319 23.7315 59.7275C23.9458 60.6177 23.8042 61.4073 23.2343 62.1414C21.7581 64.042 22.2761 66.9096 24.2301 68.2772C24.7209 68.6198 25.2168 69.2467 25.3246 69.8181C25.8854 72.7994 27.4564 75.0637 29.796 76.8374C30.0986 77.0521 30.3471 77.3367 30.521 77.668C30.695 77.9993 30.7896 78.3678 30.797 78.7434C30.8528 80.3716 30.906 82.0011 30.9268 83.6293C30.9476 85.5035 30.9268 85.5194 32.6899 86.1542C33.887 86.5854 35.1074 87.0893 36.4018 86.7468C37.5638 86.4386 38.6946 86.0021 39.8228 85.5762C39.9877 85.5141 40.1513 85.1979 40.1565 84.9943C40.2175 82.9468 40.2474 80.894 40.2799 78.8505C40.2928 77.9934 40.6304 77.2977 41.3354 76.844C43.5542 75.4182 44.7655 73.2835 45.3446 70.7704C45.5696 69.6575 46.1581 68.6551 47.0142 67.9267C48.9474 66.2257 49.0227 64.4984 47.7426 62.066C47.3037 61.2314 47.0635 60.4854 47.3375 59.5728C48.2022 56.6801 48.7397 53.7293 48.7747 50.6964ZM65.6619 106.183C65.674 106.114 65.6783 106.043 65.6749 105.973C64.9335 103.101 63.2081 101.01 60.7854 99.4218C57.9486 97.5608 54.8028 96.4247 51.6713 95.2382C48.1762 93.9156 44.6227 92.6882 42.0235 89.8947C40.8316 90.3457 39.6995 90.7571 38.5843 91.2094C38.3382 91.3163 38.1331 91.5021 38 91.7385C37.4989 92.6868 37.0665 93.6735 36.5576 94.6179C36.3187 95.0597 36.3628 95.3851 36.6004 95.8083C38.2727 98.8107 39.4827 101.994 40.0046 105.416C40.0981 106.031 40.2708 106.199 40.8732 106.196C47.3323 106.173 53.7927 106.181 60.2518 106.179L65.6619 106.183ZM5.33701 106.183H21.1505C24.1366 106.183 27.1136 106.177 30.0946 106.183C30.4841 106.183 30.7372 106.128 30.8061 105.654C31.3254 102.083 32.6237 98.8015 34.3699 95.6919C34.5634 95.3467 34.6036 95.0835 34.4141 94.7264C33.8818 93.7225 33.4014 92.6895 32.8561 91.6843C32.7061 91.4325 32.4815 91.2356 32.2147 91.1221C31.2579 90.7253 30.2867 90.3695 29.3065 90.0376C29.1416 89.982 28.8729 90.068 28.7184 90.1817C27.7057 90.9237 26.7644 91.7808 25.7011 92.4302C22.9461 94.114 19.8587 95.0015 16.8725 96.1668C13.8241 97.3571 10.8315 98.6639 8.34391 100.907C6.80021 102.324 5.8888 104.1 5.33701 106.189V106.183Z" fill="#002539"/>
<path d="M104.276 96.5195C104.276 93.9059 104.276 91.377 104.276 88.8481C104.276 78.295 104.276 67.742 104.276 57.189C104.276 43.7508 104.276 30.3126 104.276 16.8744C104.276 16.3572 104.155 16.1205 103.642 15.9485C95.5695 13.215 87.5013 10.4665 79.4379 7.70307C76.8192 6.80763 74.2044 5.90161 71.5753 5.02998C71.2756 4.92882 70.9528 4.92282 70.6496 5.01279C61.8384 8.00111 53.0298 10.9991 44.2237 14.0069C42.3022 14.6682 40.3859 15.3361 38.4579 15.9697C38.0684 16.1019 37.9126 16.266 37.9139 16.6971C37.9295 20.6082 37.9425 24.5207 37.9074 28.4317C37.9093 29.0634 37.7647 29.6865 37.4855 30.2504C36.9778 31.2014 35.8873 31.5559 34.9096 31.2609C33.8177 30.9289 33.1621 30.0467 33.1595 28.8524C33.1526 25.633 33.1526 22.4145 33.1595 19.197C33.1595 17.7191 33.1595 16.2421 33.1595 14.7661C33.1595 13.2939 33.6996 12.5175 35.0589 12.0612L65.0902 1.87015C66.7274 1.31332 68.375 0.782931 70.0005 0.193026C70.7127 -0.0747586 71.4954 -0.0747586 72.2076 0.193026C76.8625 1.80138 81.5239 3.39562 86.1917 4.97575C93.1256 7.33008 100.061 9.68177 106.997 12.0308C108.495 12.5387 109.001 13.282 108.999 14.8507C108.993 23.5979 108.993 32.3442 108.999 41.0896C108.999 50.0563 108.995 59.0226 108.988 67.9884C108.988 78.2337 108.988 88.4786 108.988 98.723C108.988 100.358 108.07 101.326 106.48 101.329C100.488 101.337 94.4958 101.337 88.5027 101.329C83.5484 101.329 78.5944 101.332 73.6409 101.339C72.092 101.339 71.0638 100.358 71.0651 98.9122C71.0634 98.3351 71.2683 97.7771 71.6414 97.3428C72.0144 96.9084 72.53 96.6275 73.0918 96.5526C73.3505 96.5251 73.6107 96.515 73.8707 96.5221H104.276V96.5195Z" fill="#002539"/>
<path d="M94.7709 74.793V84.4074H75.8584V74.793H94.7709Z" fill="#002539"/>
<path d="M75.8486 67.5243V57.9258H94.7781V67.5243H75.8486Z" fill="#002539"/>
<path d="M47.4111 24.1211H66.338V33.6958H47.4111V24.1211Z" fill="#002539"/>
<path d="M75.876 24.1133H94.7729V33.6853H75.876V24.1133Z" fill="#002539"/>
<path d="M94.7713 41.0352V50.6125H75.8848V41.0352H94.7713Z" fill="#002539"/>
<path d="M66.3716 84.4733C65.1317 84.4733 63.9489 84.4733 62.7675 84.4733C59.2438 84.4627 55.7202 84.4614 52.1966 84.4296C51.5474 84.4296 50.8645 84.3834 50.2491 84.1863C49.5727 83.9694 49.3312 82.7208 49.8285 82.1692C51.6693 80.1195 53.0964 77.721 54.0285 75.1102C54.0856 74.9515 54.3687 74.7808 54.5478 74.7795C58.3337 74.761 62.1192 74.761 65.9042 74.7795C66.06 74.7795 66.3495 75.0123 66.3508 75.1393C66.3781 78.2184 66.3716 81.2989 66.3716 84.4733Z" fill="#002539"/>
<path d="M66.3738 57.9044V59.6596C66.3738 62.1052 66.366 64.5534 66.3803 66.9951C66.3803 67.3919 66.3024 67.5903 65.848 67.5863C63.3188 67.5678 60.7845 67.5784 58.2593 67.5744C58.1176 67.5638 57.9766 67.544 57.8374 67.5149C58.124 65.7957 58.1169 64.0389 57.8166 62.3221C57.7283 61.8261 57.6868 61.3023 57.4972 60.8473C57.1557 60.0273 57.2375 59.2456 57.4089 58.4123C57.505 57.9401 57.6958 57.8594 58.097 57.8634C60.3223 57.8872 62.5489 57.8925 64.7743 57.9044H66.3738Z" fill="#002539"/>
<path d="M66.3389 41.0312V50.606H58.2543C58.2738 47.3139 57.761 44.1144 56.377 41.0352L66.3389 41.0312Z" fill="#002539"/>
</svg>
