<svg width="44" height="44" viewBox="0 0 44 44" fill="none" xmlns="http://www.w3.org/2000/svg">
<path fill-rule="evenodd" clip-rule="evenodd" d="M23.0107 10.5116V33.8973C23.0107 34.7848 22.3315 35.5043 21.4936 35.5043C20.6558 35.5043 19.9766 34.7848 19.9766 33.8973V10.5116C19.9766 9.62402 20.6558 8.90454 21.4936 8.90454C22.3315 8.90454 23.0107 9.62402 23.0107 10.5116" fill="#ED6A32"/>
<path fill-rule="evenodd" clip-rule="evenodd" d="M30 16.0953V29.6004C30 30.4879 29.3208 31.2074 28.4829 31.2074C27.6451 31.2074 26.9658 30.4879 26.9658 29.6004V16.0953C26.9658 15.2078 27.6451 14.4883 28.4829 14.4883C29.3208 14.4883 30 15.2078 30 16.0953" fill="#ED6A32"/>
<path fill-rule="evenodd" clip-rule="evenodd" d="M16.466 19.9537V27.6714C16.466 28.5589 15.7868 29.2784 14.949 29.2784C14.1111 29.2784 13.4319 28.5589 13.4319 27.6714V19.9537C13.4319 19.0662 14.1111 18.3467 14.949 18.3467C15.7868 18.3467 16.466 19.0662 16.466 19.9537" fill="#ED6A32"/>
<circle cx="22" cy="22" r="20.5" stroke="#0D0E17" stroke-width="3"/>
</svg>
