<svg width="200" height="36" viewBox="0 0 200 36" fill="none" xmlns="http://www.w3.org/2000/svg">
<path d="M30.8305 10.5049H39.6084L23.9888 36H15.6196L0 10.5049H8.77797L19.815 28.7872L30.8305 10.5049ZM45.5034 36H53.0766V10.5049H45.5034V36ZM89.7913 10.5049L78.7758 28.7979L67.7388 10.5049H58.9608L74.5805 35.9893H82.9497L98.5693 10.5049H89.7913ZM110.123 27.2317C110.133 27.9242 109.864 28.5315 109.305 29.0429C108.746 29.501 108.068 29.7461 107.283 29.7887H97.7948L94.0082 35.9893H109.305C111.639 35.9893 113.63 35.2542 115.265 33.7946C116.954 32.303 117.782 30.5132 117.739 28.425V10.5049H110.123V27.2317ZM124.978 36H156.691V29.7993H132.595V26.1983H156.691V20.1042H132.595V16.7162H156.691V10.5049H124.978V36ZM192.405 10.5049V27.4874L171.235 10.5049H163.877V35.9893H171.472V19.0068L192.62 35.9893H200V10.5049H192.405ZM110.123 7.54306L117.739 0H110.123V7.54306ZM45.4819 7.54306L53.0981 0H45.4819V7.54306Z" fill="white"/>
</svg>
