<svg width="308" height="77" viewBox="0 0 308 77" fill="none" xmlns="http://www.w3.org/2000/svg">
<rect x="0.230469" y="0.484375" width="307.769" height="66.1133" rx="3" fill="#191919"/>
<path d="M210.222 36.2475V28.3966H222.636V36.0009C222.636 39.105 223.354 41.4486 224.792 43.0315C226.229 44.6145 228.221 45.4059 230.768 45.4059C233.314 45.4059 235.306 44.6453 236.744 43.124C238.181 41.6028 238.9 39.3312 238.9 36.3092V11.4243H245.122L251.345 20.6308V35.9392C251.345 39.4545 250.862 42.5279 249.897 45.1592C248.932 47.7906 247.535 49.9286 245.708 51.5732C243.88 53.2178 241.703 54.4512 239.177 55.2735C236.672 56.0753 233.828 56.4762 230.645 56.4762C224.176 56.4762 219.155 54.8007 215.582 51.4498C212.008 48.0784 210.222 43.011 210.222 36.2475Z" fill="white"/>
<path d="M166.537 11.4243H187.422C193.85 11.4243 198.645 13.0073 201.807 16.1731C204.415 18.7839 205.72 22.2787 205.72 26.6575C205.72 29.9261 204.919 32.7014 203.317 34.9833C201.715 37.2651 199.487 39.0125 196.632 40.2254L207.167 55.6436H193.028L184.126 42.2606H178.766V55.6436H166.537V32.6705H186.837C188.911 32.6705 190.523 32.1977 191.673 31.2521C192.823 30.2859 193.398 28.9599 193.398 27.2742C193.398 25.5679 192.813 24.2728 191.642 23.3888C190.492 22.4843 188.87 22.032 186.775 22.032L169.411 21.847L166.537 17.6311V11.4243Z" fill="white"/>
<path d="M77.4706 11.4243H100.111C105.492 11.4243 109.506 12.7503 112.155 15.4022C114.065 17.3141 115.02 19.7398 115.02 22.6796C115.02 27.2639 112.741 30.5428 108.182 32.5163C111.036 33.462 113.213 34.7982 114.712 36.5251C116.211 38.2313 116.961 40.5441 116.961 43.4632C116.961 47.2664 115.482 50.2472 112.525 52.4058C109.588 54.5643 105.492 55.6436 100.234 55.6436H77.4706V45.8068H98.8483C100.717 45.8068 102.165 45.447 103.192 44.7275C104.218 44.008 104.732 42.9699 104.732 41.6131C104.732 40.3796 104.229 39.4134 103.222 38.7144C102.216 37.9949 100.717 37.6352 98.7251 37.6352H77.4706V29.0627H97.0925C100.953 29.0627 102.884 27.7367 102.884 25.0848C102.884 23.8719 102.411 22.9365 101.467 22.2787C100.522 21.6209 99.146 21.2919 97.3389 21.2919H80.0655L77.4706 17.4732V11.4243Z" fill="white"/>
<path d="M123.04 11.4243H158.557V21.847H123.04V11.4243Z" fill="white"/>
<path d="M123.04 28.5385H158.607V38.2211H123.04V28.5385Z" fill="white"/>
<path d="M123.04 45.2209H158.607V55.6436H126.118L123.04 51.102V45.2209Z" fill="white"/>
<path fill-rule="evenodd" clip-rule="evenodd" d="M57.0786 11.4243V46.7449L63.0923 55.6436H69.4V11.4243H57.0786Z" fill="white"/>
<path d="M295.243 36.5744C296.742 38.2807 297.491 40.5934 297.491 43.5126C297.491 46.7508 296.419 49.3929 294.275 51.4389C293.901 51.7957 293.495 52.1345 293.056 52.4551C290.3 54.4804 286.523 55.5556 281.725 55.6806C281.41 55.6888 281.09 55.6929 280.765 55.6929H260.964L258.001 51.3732V45.8561H279.379C279.555 45.8561 279.727 45.8529 279.896 45.8465C281.517 45.7851 282.792 45.4286 283.722 44.7769C284.749 44.0574 285.262 42.4185 285.262 41.6624C285.262 40.9063 284.621 39.3694 281.861 38.6589C279.101 37.9485 267.351 35.5972 263.581 33.2937C259.811 30.9902 259.983 30.5245 258.857 29.112C257.475 27.3793 256.784 25.2506 256.784 22.7258C256.784 20.7831 257.201 19.0649 258.034 17.5712C258.462 16.8053 258.998 16.0983 259.645 15.4504C262.29 12.7993 266.298 11.4737 271.67 11.4737H294.275V21.3385H274.438C274.343 21.3385 274.249 21.3394 274.156 21.3413C272.49 21.3742 271.21 21.7021 270.317 22.325C269.374 22.9827 268.902 23.9178 268.902 25.1303C268.902 27.7815 272.441 27.7996 275.088 28.4608C277.734 29.1219 285.804 30.1827 289.116 31.9194C292.428 33.6561 292.858 34.3351 294.275 35.5972C294.624 35.9077 294.947 36.2335 295.243 36.5744Z" fill="white"/>
<path d="M210.222 21.8445V11.1875H222.636V21.8445H210.222Z" fill="white"/>
<path d="M22.979 29.371L38.196 11.4243H52.7045L35.9781 30.4503L67.5272 76.521H52.8597L27.4764 39.2387L22.979 44.2033V55.6436H10.75V43.8542L22.979 29.371Z" fill="white"/>
<path d="M10.75 11.1875H22.979V13.2604L10.75 27.779V11.1875Z" fill="#00A583"/>
</svg>
