<svg width="96" height="96" viewBox="0 0 96 96" fill="none" xmlns="http://www.w3.org/2000/svg">
<g id="icon">
<rect id="Rectangle" x="2" y="2" width="92" height="92" rx="24" stroke="#FE446F" stroke-width="4"/>
<path id="rock-n-roll" d="M51.3333 45.3333V43.3397C51.3333 42.2316 50.4456 41.3333 49.3333 41.3333C48.2288 41.3333 47.3333 42.2244 47.3333 43.3397V46.6667H46V34.007C46 32.8986 45.1123 32 44 32C42.8954 32 42 32.8895 42 34.007V47.009C39.3194 44.0846 35.8021 40.8929 34.3277 42.3753C32.8782 43.8327 36.4035 47.8512 41.6195 56.6277C42.2335 57.6607 42.89 58.6105 43.6142 59.45C45.3981 62.1891 48.4876 64 52 64C57.5228 64 62 59.5228 62 54V49.0058V37.9884C62 36.8902 61.1123 36 60 36C58.8954 36 58 36.8834 58 37.9884V46.6667H56.6667V44.673C56.6667 43.5649 55.7789 42.6667 54.6667 42.6667C53.5621 42.6667 52.6667 43.5578 52.6667 44.673V45.3333H51.3333Z" fill="#FE446F"/>
</g>
</svg>
