<svg width="96" height="96" viewBox="0 0 96 96" fill="none" xmlns="http://www.w3.org/2000/svg">
<g id="icon">
<rect id="Rectangle" x="2" y="2" width="92" height="92" rx="24" stroke="#ED6A32" stroke-width="4"/>
<path id="Shape" fill-rule="evenodd" clip-rule="evenodd" d="M53.3334 40C53.3334 37.0545 50.9456 34.6667 48.0001 34.6667C45.0546 34.6667 42.6667 37.0545 42.6667 40C42.6667 42.9455 45.0546 45.3334 48.0001 45.3334C50.9456 45.3334 53.3334 42.9455 53.3334 40ZM42.6667 46C42.6667 44.1591 41.1744 42.6667 39.3334 42.6667C37.4925 42.6667 36.0001 44.1591 36.0001 46C36.0001 47.841 37.4925 49.3334 39.3334 49.3334C41.1744 49.3334 42.6667 47.841 42.6667 46ZM54.6667 53.3334C54.6667 49.6515 51.682 46.6667 48.0001 46.6667C44.3182 46.6667 41.3334 49.6515 41.3334 53.3334V61.3334H54.6667V53.3334ZM39.0507 50.6748L39.0507 50.6747H39.0521L39.0507 50.6748ZM39.0507 50.6748C38.8385 51.3905 38.7132 52.1291 38.6774 52.8747L38.6667 53.3334V61.3334H34.6667V55.3334C34.6662 52.9522 36.4584 50.9526 38.8254 50.6934L39.0507 50.6748ZM56.9494 50.6747C59.4124 50.8248 61.3331 52.8658 61.3334 55.3334V61.3334H57.3334V53.3334C57.3334 52.4094 57.2001 51.5174 56.9494 50.6747ZM56.6667 42.6667C58.5077 42.6667 60.0001 44.1591 60.0001 46C60.0001 47.841 58.5077 49.3334 56.6667 49.3334C54.8258 49.3334 53.3334 47.841 53.3334 46C53.3334 44.1591 54.8258 42.6667 56.6667 42.6667Z" fill="#ED6A32"/>
</g>
</svg>
