<svg width="96" height="96" viewBox="0 0 96 96" fill="none" xmlns="http://www.w3.org/2000/svg">
<g id="icon">
<rect id="Rectangle" x="2" y="2" width="92" height="92" rx="24" stroke="#24C4D5" stroke-width="4"/>
<path id="Path" d="M54.6444 44.15C55.0778 43.28 55.2222 42.265 55.2222 41.25C55.2222 37.19 52.0444 34 48 34C43.9556 34 40.7778 37.19 40.7778 41.25C40.7778 42.265 40.9222 43.28 41.3556 44.15C37.8889 44.295 35 47.05 35 50.675C35 54.3 37.8889 57.2 41.5 57.2H46.5556V63H49.4444V57.2H54.5C58.1111 57.2 61 54.3 61 50.675C61 47.195 58.2556 44.295 54.6444 44.15Z" fill="#24C4D5"/>
</g>
</svg>
