<svg width="64" height="64" viewBox="0 0 64 64" fill="none" xmlns="http://www.w3.org/2000/svg">
<g id="Group 2">
<rect id="Rectangle" width="64" height="64" rx="26" fill="#24C4D5"/>
<g id="hat_graduation_filled_icon_200559">
<path id="Path" d="M24.1738 38.382V33.5555L29.4022 36.8859C31.0109 37.9106 32.989 37.9106 34.5977 36.886L39.826 33.5555V38.382C39.826 38.5739 39.7573 38.758 39.635 38.8936L39.633 38.8959L39.6298 38.8992L39.621 38.909L39.5913 38.9404C39.5664 38.9665 39.5313 39.0025 39.4861 39.0471C39.3957 39.1364 39.2646 39.26 39.0941 39.4063C38.7534 39.6989 38.254 40.084 37.6057 40.4677C36.3086 41.2353 34.4102 42 31.9999 42C29.5896 42 27.6913 41.2353 26.3941 40.4677C25.7458 40.084 25.2463 39.6989 24.9057 39.4063C24.7353 39.26 24.6042 39.1364 24.5137 39.0471C24.4685 39.0025 24.4334 38.9665 24.4085 38.9404L24.3789 38.909C24.2513 38.7704 24.1738 38.5814 24.1738 38.382Z" fill="white"/>
<path id="Path_2" d="M43.6652 29.2979L33.9916 34.8952C32.7583 35.6088 31.2417 35.6088 30.0084 34.8952L21.3333 29.8757V36.1059C21.3333 36.4769 21.0349 36.7778 20.6667 36.7778C20.2985 36.7778 20 36.4769 20 36.1059V28.7153C20 28.4599 20.1413 28.2378 20.3494 28.1241L30.0084 22.5352C30.4709 22.2676 30.9732 22.1004 31.4855 22.0334C31.6478 22.0123 31.8111 22.0011 31.9745 22.0001C32.4985 21.9967 33.0232 22.097 33.5169 22.3011C33.6788 22.368 33.8375 22.446 33.9916 22.5352L43.6653 28.1326C43.8723 28.2524 44 28.4746 44 28.7153C44 28.9559 43.8723 29.1781 43.6652 29.2979Z" fill="white"/>
</g>
</g>
</svg>
