<svg width="96" height="96" viewBox="0 0 96 96" fill="none" xmlns="http://www.w3.org/2000/svg">
<g id="icon">
<rect id="Rectangle" x="2" y="2" width="92" height="92" rx="24" stroke="#7F4BDC" stroke-width="4"/>
<path id="Shape" fill-rule="evenodd" clip-rule="evenodd" d="M62.6667 45.3333C62.6667 40.9146 56.1 37.3333 48 37.3333C39.9 37.3333 33.3334 40.9146 33.3334 45.3333C33.3334 49.752 39.9 53.3333 48 53.3333C56.1 53.3333 62.6667 49.752 62.6667 45.3333ZM62.6667 50.6666V48C62.6667 52.4186 56.1 56 48 56C39.9 56 33.3334 52.4186 33.3334 48V50.6666L33.34 50.9026C33.568 55.212 40.044 58.6666 48 58.6666C56.1 58.6666 62.6667 55.0853 62.6667 50.6666Z" fill="#7F4BDC"/>
</g>
</svg>
