<svg width="48" height="48" viewBox="0 0 48 48" fill="none" xmlns="http://www.w3.org/2000/svg">
<mask id="mask0_248_46" style="mask-type:alpha" maskUnits="userSpaceOnUse" x="0" y="0" width="48" height="48">
<path d="M48 24C48 37.2548 37.2548 48 24 48C10.7452 48 0 37.2548 0 24C0 10.7452 10.7452 0 24 0C37.2548 0 48 10.7452 48 24Z" fill="#191919"/>
</mask>
<g mask="url(#mask0_248_46)">
<path d="M55 24.5C55 41.3447 41.3447 55 24.5 55C7.65532 55 -6 41.3447 -6 24.5C-6 7.65532 7.65532 -6 24.5 -6C41.3447 -6 55 7.65532 55 24.5Z" fill="#191919"/>
<path d="M19.6173 21.1814L29.0958 10H38.1329L27.7143 21.8538L41 41.3516L40 42.3516L38.5 43.3516L37 44.3516L36 44.8516L35 45.3516L22.4186 27.3293L19.6173 30.4224V37.5501H12V30.2049L19.6173 21.1814Z" fill="white"/>
<path d="M12 10H19.6173V11.2915L12 20.3371V10Z" fill="#00A583"/>
</g>
</svg>
