<svg width="195" height="166" viewBox="0 0 195 166" fill="none" xmlns="http://www.w3.org/2000/svg">
<path d="M68.1583 113.602C65.5745 112.713 64.1825 109.915 65.0326 107.318L98.4013 5.38355C99.2771 2.7083 102.188 1.28297 104.838 2.23151L190.382 32.8472C192.947 33.7651 194.305 36.5671 193.436 39.1489L159.605 139.729C158.72 142.359 155.864 143.765 153.24 142.863L68.1583 113.602Z" fill="#D9F2ED"/>
<path d="M153.714 69.989C153.631 69.989 153.546 69.9766 153.462 69.9504L80.2486 47.2467C79.7995 47.1075 79.548 46.6304 79.6876 46.1813C79.8268 45.7326 80.3047 45.4797 80.753 45.6204L153.966 68.3241C154.415 68.4633 154.666 68.9404 154.527 69.3895C154.414 69.7547 154.077 69.989 153.714 69.989Z" fill="#4B4B4B"/>
<path d="M150.787 79.4304C150.704 79.4304 150.619 79.4181 150.535 79.3919L77.3231 56.6874C76.8741 56.5482 76.623 56.0711 76.7622 55.622C76.9014 55.1733 77.3793 54.9207 77.8276 55.0611L151.04 77.7655C151.489 77.9047 151.74 78.3819 151.601 78.8309C151.488 79.1962 151.151 79.4304 150.787 79.4304Z" fill="#4B4B4B"/>
<path d="M147.859 88.8712C147.776 88.8712 147.691 88.8589 147.607 88.8327L74.3938 66.129C73.9447 65.9898 73.6932 65.5127 73.8328 65.0636C73.972 64.6145 74.4499 64.3619 74.8982 64.5027L148.111 87.2064C148.56 87.3456 148.812 87.8227 148.673 88.2717C148.559 88.6374 148.223 88.8712 147.859 88.8712Z" fill="#4B4B4B"/>
<path d="M144.931 98.3126C144.848 98.3126 144.763 98.3003 144.679 98.2741L71.4655 75.57C71.0165 75.4308 70.7654 74.9537 70.9046 74.5046C71.0438 74.0556 71.5224 73.803 71.97 73.9433L145.183 96.6474C145.632 96.7866 145.884 97.2637 145.744 97.7128C145.631 98.0788 145.294 98.3126 144.931 98.3126Z" fill="#4B4B4B"/>
<path d="M130.292 145.519C130.209 145.519 130.124 145.506 130.04 145.48L56.8265 122.776C56.3774 122.637 56.1263 122.16 56.2655 121.711C56.404 121.262 56.8837 121.011 57.3309 121.15L130.544 143.854C130.993 143.993 131.244 144.47 131.105 144.919C130.992 145.284 130.655 145.519 130.292 145.519Z" fill="#4B4B4B"/>
<path d="M116.176 133.774C116.333 133.514 116.441 133.222 116.478 132.916C116.535 132.449 116.434 131.977 116.163 131.513L101.819 109.63C101.751 109.526 101.656 109.446 101.549 109.385L96.0746 103.9L93.4976 101.318L35.8497 43.5591L37.9427 41.4092C38.1152 41.2319 38.3461 41.1327 38.5942 41.129C38.8367 41.1376 39.0747 41.2188 39.2517 41.3917L71.3483 72.6339C71.8628 73.1349 72.5398 73.4092 73.2549 73.4092C73.2673 73.4092 73.2792 73.4092 73.2923 73.4092C74.0232 73.4021 74.7087 73.1087 75.2218 72.5815C75.733 72.0568 76.0088 71.3649 75.9983 70.6325C75.9886 69.9013 75.6937 69.218 75.1701 68.7076L36.481 31.0479C34.7873 29.3995 32.0702 29.4369 30.4225 31.1292L26.9842 34.6618L16.2513 23.8899C16.2329 23.8716 16.2109 23.8574 16.1925 23.839C15.9201 23.5689 15.6316 23.3223 15.3337 23.0895C15.248 23.0229 15.1612 22.9589 15.0736 22.8956C14.7656 22.6711 14.4479 22.4623 14.1179 22.2778C14.0988 22.2673 14.0812 22.2546 14.0617 22.2441C13.689 22.0398 13.3017 21.8669 12.9054 21.715C12.8519 21.6944 12.7976 21.6761 12.7434 21.6566C12.3493 21.5137 11.9478 21.3928 11.5354 21.3037C11.5335 21.3034 11.5328 21.3026 11.5309 21.3022H11.529C11.1492 21.2199 10.763 21.1585 10.3708 21.1234C10.2683 21.1136 10.1662 21.1148 10.0636 21.1084C9.87726 21.0975 9.69165 21.0811 9.50342 21.0811C9.4877 21.0811 9.47086 21.0811 9.45439 21.0814C9.40799 21.0818 9.36234 21.0882 9.31518 21.0889C9.12883 21.0919 8.94396 21.105 8.75947 21.1192C8.59332 21.132 8.42867 21.1484 8.26476 21.1698C8.07054 21.1948 7.87782 21.2218 7.68697 21.2588C7.51895 21.291 7.35429 21.3333 7.18964 21.3745C7.0145 21.4182 6.83787 21.4557 6.66424 21.5099C6.35102 21.6076 6.04266 21.7232 5.74142 21.8531C5.61456 21.9077 5.49294 21.9736 5.36758 22.0342C5.15989 22.1345 4.95519 22.2396 4.75573 22.3553C4.63748 22.4238 4.52222 22.4964 4.40659 22.5701C4.19291 22.7067 3.9856 22.853 3.78165 23.0072C3.69483 23.073 3.60652 23.1359 3.52157 23.2055C3.23267 23.4405 2.95164 23.6879 2.68819 23.9592C0.63187 26.0716 -0.240803 28.9037 0.0566994 31.6276C0.286842 33.7464 1.22613 35.8001 2.86931 37.3988L90.7555 120.441C90.8236 120.551 90.9097 120.65 91.0223 120.719L105.611 129.758C105.613 129.759 105.613 129.761 105.615 129.762L113.298 134.521C113.632 134.703 113.998 134.792 114.36 134.792C114.928 134.792 115.484 134.573 115.892 134.155L115.892 134.154C115.967 134.078 116.033 133.994 116.094 133.907C116.1 133.899 116.107 133.893 116.112 133.886C116.136 133.85 116.154 133.811 116.176 133.774ZM114.671 132.967C114.534 133.107 114.309 133.131 114.155 133.048L107.413 128.873L107.98 128.29L109.313 126.921L110.391 125.813L111.576 127.622L113.042 129.86L114.712 132.409C114.77 132.509 114.797 132.615 114.784 132.718C114.776 132.794 114.737 132.852 114.698 132.909C114.685 132.926 114.685 132.952 114.671 132.967ZM92.8152 119.826L97.742 114.765L99.0752 113.396L100.973 111.446L103.062 114.632L104.529 116.87L109.435 124.354L107.487 126.354L106.155 127.724L105.93 127.954L104.961 127.354L99.2036 123.785L92.8152 119.826ZM13.3721 44.9568L23.986 34.0537L26.3312 36.4041C26.3506 36.4292 26.36 36.4591 26.3828 36.4819L34.052 44.1668C34.0958 44.211 34.1456 44.2518 34.1972 44.2888L58.4098 68.557L59.7701 69.9205L75.068 85.2535L77.6435 87.8349L90.0191 100.239L92.5947 102.82L99.8823 110.125L97.2495 112.83L95.9164 114.199L91.4673 118.77L82.0972 109.914L79.2898 107.26L55.2395 84.5285L53.8615 83.2261L13.3721 44.9568ZM3.91337 25.1462C4.28198 24.7656 4.68276 24.4288 5.10825 24.1365C6.3817 23.265 7.88418 22.7927 9.46338 22.7845C9.47647 22.7845 9.49069 22.7841 9.50379 22.7841C9.56666 22.7841 9.62803 22.7916 9.69127 22.7931C9.89971 22.7987 10.1081 22.8043 10.3173 22.8268C10.3259 22.8275 10.3349 22.8298 10.3435 22.8309C10.6182 22.8616 10.894 22.9061 11.1691 22.9664C11.5115 23.0397 11.8441 23.1411 12.1705 23.259C12.2116 23.274 12.2535 23.2878 12.2947 23.3035C12.6214 23.4282 12.9398 23.5715 13.2456 23.7388C13.2632 23.7481 13.2796 23.7597 13.2972 23.7694C13.5659 23.9191 13.8234 24.0901 14.0745 24.2713C14.1478 24.3248 14.2208 24.3783 14.2923 24.4348C14.5329 24.6223 14.7649 24.8217 14.9838 25.038C15.0022 25.056 15.0224 25.071 15.0399 25.0889L18.4977 28.5744L7.73412 39.6317L4.16971 36.2825L4.05932 36.1747C2.71925 34.8706 1.95061 33.1978 1.75527 31.4704C1.50192 29.2266 2.2178 26.8889 3.91337 25.1462ZM19.6982 29.7831L22.7698 32.861L12.1349 43.7866L8.97577 40.7985L19.6982 29.7831ZM31.6428 32.3173C32.6356 31.2994 34.2743 31.2751 35.2933 32.2683L61.6935 57.9665L63.0639 59.3005L73.9816 69.9279C74.1803 70.1214 74.2922 70.38 74.296 70.6565C74.2993 70.933 74.1953 71.195 74.0018 71.3933C73.8084 71.592 73.5509 71.7036 73.2736 71.7062C72.9881 71.7069 72.7351 71.6063 72.5375 71.4135L62.375 61.5217L61.0047 60.1879L40.4406 40.1717C39.9459 39.6897 39.2966 39.4259 38.6077 39.4259C38.5954 39.4259 38.5834 39.4259 38.5718 39.4263C37.8686 39.4353 37.2123 39.7178 36.7232 40.2211L34.6474 42.3526L28.1873 35.8686L31.6428 32.3173Z" fill="#4B4B4B"/>
<path fill-rule="evenodd" clip-rule="evenodd" d="M172.93 49.1301C172.024 47.4181 170.501 46.154 168.653 45.5803L165.032 44.4599L165.4 43.2766C165.983 41.4033 164.925 39.4042 163.051 38.8216C162.71 38.7228 162.352 38.6689 162.002 38.6689C160.433 38.6689 159.063 39.6729 158.596 41.1698L158.229 42.3441L152.85 40.6769L153.218 39.5027C153.496 38.5974 153.406 37.629 152.967 36.7866C152.518 35.9439 151.774 35.3257 150.869 35.0476C150.529 34.9398 150.17 34.8863 149.812 34.8863C148.243 34.8863 146.88 35.8903 146.414 37.3962L146.047 38.5705L140.668 36.9033L141.036 35.7201C141.314 34.8148 141.224 33.8554 140.785 33.013C140.337 32.1703 139.593 31.5517 138.688 31.265C138.347 31.1662 137.988 31.1127 137.63 31.1127C136.061 31.1127 134.699 32.1167 134.233 33.6136L133.865 34.7879L128.478 33.1204L128.845 31.9461C129.428 30.0728 128.379 28.0737 126.505 27.4911C126.156 27.3837 125.806 27.3298 125.448 27.3298C123.879 27.3298 122.516 28.3338 122.051 29.8396L121.683 31.0139L116.296 29.3378L116.663 28.1635C117.246 26.2902 116.197 24.2911 114.324 23.7085C113.973 23.6101 113.624 23.5562 113.265 23.5562C111.697 23.5562 110.334 24.5602 109.868 26.0571L109.501 27.2314L104.113 25.5642L104.481 24.3899C105.064 22.5166 104.006 20.5175 102.132 19.9349C101.792 19.8275 101.434 19.7736 101.084 19.7736C99.5151 19.7736 98.1443 20.7772 97.6777 22.2835L97.3188 23.4488L91.9316 21.7816L92.2995 20.6074C92.5768 19.7021 92.4877 18.743 92.0484 17.9003C91.6001 17.0575 90.8561 16.4393 89.9509 16.1523C89.6103 16.0539 89.2515 16 88.902 16C87.3332 16 85.9617 17.004 85.4958 18.5009L85.1284 19.6752L81.525 18.5548C77.6882 17.3715 73.6186 19.5229 72.4263 23.3507L61.6935 57.9665L63.0639 59.3005L74.0583 23.8518C74.7929 21.4673 76.9978 19.9345 79.3737 19.9345C79.9208 19.9345 80.4671 20.0153 81.0142 20.1856L84.6269 21.306L81.543 31.256C80.96 33.1384 82.0096 35.1284 83.883 35.7111C84.2325 35.8185 84.5816 35.8724 84.9405 35.8724C86.5092 35.8724 87.8714 34.8684 88.3376 33.3715L91.4305 23.4125L96.8088 25.0796L93.7249 35.0386C93.4472 35.9439 93.528 36.912 93.976 37.7547C94.4153 38.5884 95.1596 39.207 96.0734 39.4937C96.414 39.6011 96.7729 39.655 97.1224 39.655C98.6911 39.655 100.063 38.6423 100.528 37.1451L103.612 27.1954L109 28.8626L105.907 38.8216C105.629 39.7268 105.719 40.6859 106.158 41.5287C106.607 42.371 107.35 42.9896 108.256 43.2676C108.596 43.375 108.955 43.4289 109.314 43.4289C110.883 43.4289 112.245 42.4249 112.711 40.928L115.795 30.969L121.182 32.6451L118.099 42.5952C117.812 43.5004 117.901 44.4689 118.34 45.3112C118.789 46.1446 119.533 46.7636 120.438 47.0502C120.779 47.158 121.137 47.2115 121.496 47.2115C123.065 47.2115 124.427 46.1985 124.893 44.7016L127.976 34.7516L133.364 36.4187L130.281 46.3688C129.994 47.283 130.084 48.2425 130.532 49.0848C130.97 49.9276 131.714 50.5458 132.62 50.8238C132.97 50.9316 133.319 50.9851 133.678 50.9851C135.246 50.9851 136.609 49.9811 137.075 48.4842L140.168 38.5252L145.546 40.1927L142.462 50.1514C141.879 52.0251 142.929 54.0237 144.802 54.6064C145.151 54.7138 145.501 54.7677 145.86 54.7677C147.428 54.7677 148.8 53.7547 149.257 52.2578L152.35 42.3078L157.728 43.9753L154.644 53.9343C154.062 55.8076 155.119 57.7977 156.992 58.3804C157.333 58.4881 157.692 58.5417 158.041 58.5417C159.61 58.5417 160.982 57.5376 161.447 56.0408L164.531 46.0821L168.144 47.2025C171.074 48.1081 172.723 51.2366 171.809 54.1674L139.091 159.69C138.652 161.107 137.683 162.272 136.366 162.962C135.057 163.653 133.552 163.787 132.126 163.348L44.9974 136.331C43.3116 135.811 41.9939 134.547 41.4023 132.88C40.9997 131.741 40.9727 130.531 41.3305 129.375L55.2395 84.5285L53.8615 83.2261L39.7082 128.873C39.233 130.379 39.2689 131.966 39.7977 133.454C40.5689 135.596 42.3259 137.281 44.4948 137.963L131.624 164.98C132.332 165.195 133.058 165.312 133.784 165.312C134.949 165.312 136.106 165.025 137.155 164.469C138.876 163.564 140.14 162.049 140.713 160.193L173.441 54.67C174.014 52.8143 173.835 50.8511 172.93 49.1301ZM58.4098 68.557L59.7701 69.9205L62.375 61.5217L61.0047 60.1879L58.4098 68.557ZM160.228 41.672C160.47 40.8831 161.205 40.3723 162.002 40.3723C162.182 40.3723 162.37 40.3993 162.55 40.4528C163.526 40.7574 164.074 41.7973 163.778 42.7744L163.41 43.9577L162.908 45.5803L159.816 55.53C159.573 56.3278 158.839 56.8386 158.041 56.8386C157.861 56.8386 157.673 56.8117 157.494 56.7578C156.516 56.4528 155.97 55.4132 156.275 54.4361L160.228 41.672ZM148.046 37.898C148.288 37.1002 149.023 36.5894 149.812 36.5894C150 36.5894 150.179 36.6163 150.367 36.6702C151.344 36.9748 151.892 38.0148 151.586 39.0008L151.219 40.1751L147.633 51.7564C147.382 52.5542 146.656 53.065 145.858 53.065C145.678 53.065 145.49 53.0381 145.311 52.9756C144.334 52.6796 143.778 51.64 144.084 50.6539L147.175 40.7043L147.678 39.0727L148.046 37.898ZM135.863 34.1154C136.106 33.3266 136.841 32.8158 137.63 32.8158C137.818 32.8158 137.998 32.8427 138.186 32.8962C139.163 33.2012 139.709 34.2408 139.404 35.2179L139.036 36.3922L138.535 38.0238L135.451 47.9734C135.2 48.7712 134.465 49.282 133.676 49.282C133.497 49.282 133.309 49.2551 133.129 49.2012C132.143 48.8966 131.596 47.8567 131.901 46.8796L135.863 34.1154ZM123.673 30.3418C123.924 29.544 124.659 29.0332 125.448 29.0332C125.627 29.0332 125.815 29.0602 125.995 29.114C126.981 29.419 127.527 30.4586 127.223 31.4447L126.855 32.6189L126.354 34.2416L123.261 44.2006C123.02 44.9984 122.284 45.5092 121.495 45.5092C121.316 45.5092 121.128 45.4823 120.94 45.4198C119.963 45.1241 119.416 44.0838 119.72 43.0981L122.804 33.1481L123.306 31.5169L123.673 30.3418ZM111.491 26.5589C111.742 25.77 112.468 25.2592 113.266 25.2592C113.445 25.2592 113.634 25.2862 113.813 25.3401C114.79 25.6451 115.346 26.6846 115.041 27.6617L114.673 28.836L114.172 30.4672L111.079 40.4172C110.837 41.2151 110.102 41.7259 109.314 41.7259C109.125 41.7259 108.946 41.6989 108.758 41.645C107.781 41.3401 107.234 40.3005 107.539 39.3234L110.623 29.3644L111.124 27.7328L111.491 26.5589ZM99.3093 22.7853C99.551 21.9875 100.286 21.4767 101.084 21.4767C101.263 21.4767 101.451 21.5036 101.631 21.5575C102.608 21.8621 103.155 22.902 102.859 23.8881L102.492 25.0624L101.989 26.694L98.8973 36.644C98.6548 37.4418 97.9202 37.9527 97.122 37.9527C96.9424 37.9527 96.7541 37.9257 96.5756 37.8628C95.5978 37.5672 95.0515 36.5183 95.3561 35.5412L98.4392 25.5915L98.9418 23.96L99.3093 22.7853ZM87.1278 19.0023C87.3695 18.2135 88.1049 17.7027 88.9023 17.7027C89.0819 17.7027 89.2612 17.7296 89.4494 17.7835C90.4261 18.0881 90.9736 19.1281 90.6679 20.1052L90.3011 21.2794L89.7986 22.911L86.7154 32.8611C86.4643 33.6589 85.7376 34.1697 84.9401 34.1697C84.7605 34.1697 84.5727 34.1428 84.393 34.0889C83.4159 33.7843 82.8602 32.7443 83.1648 31.7672L86.2574 21.8086L86.7599 20.177L87.1278 19.0023Z" fill="#4B4B4B"/>
<path fill-rule="evenodd" clip-rule="evenodd" d="M133.22 136.077C133.137 136.077 133.052 136.065 132.968 136.039L113.042 129.86L111.576 127.622L133.472 134.413C133.921 134.552 134.172 135.029 134.034 135.478C133.92 135.843 133.583 136.077 133.22 136.077ZM109.313 126.921L107.98 128.29L106.155 127.724L107.487 126.354L109.313 126.921ZM99.2036 123.785L60.259 111.708C59.8118 111.567 59.3328 111.82 59.1936 112.269C59.0544 112.718 59.3055 113.195 59.7546 113.334L104.961 127.354L99.2036 123.785Z" fill="#4B4B4B"/>
<path fill-rule="evenodd" clip-rule="evenodd" d="M136.149 126.636C136.066 126.636 135.981 126.624 135.896 126.597L104.529 116.87L103.062 114.632L136.401 124.971C136.85 125.11 137.101 125.587 136.962 126.036C136.849 126.402 136.512 126.636 136.149 126.636ZM99.0752 113.396L97.742 114.765L95.9164 114.199L97.2495 112.83L99.0752 113.396ZM79.2898 107.26L63.1885 102.267C62.7402 102.126 62.2623 102.379 62.1231 102.828C61.9839 103.277 62.235 103.754 62.6841 103.893L82.0972 109.914L79.2898 107.26Z" fill="#4B4B4B"/>
<path fill-rule="evenodd" clip-rule="evenodd" d="M141.752 107.715C141.836 107.741 141.921 107.754 142.004 107.754C142.368 107.754 142.704 107.519 142.818 107.155C142.957 106.706 142.706 106.228 142.256 106.089L75.068 85.2535L77.6435 87.8349L141.752 107.715Z" fill="#4B4B4B"/>
<path d="M138.824 117.157C138.908 117.183 138.993 117.195 139.076 117.195C139.44 117.195 139.776 116.961 139.89 116.596C140.029 116.147 139.777 115.67 139.328 115.53L93.4976 101.318L96.0746 103.9L138.824 117.157Z" fill="#4B4B4B"/>
</svg>
