<svg width="183" height="172" viewBox="0 0 183 172" fill="none" xmlns="http://www.w3.org/2000/svg">
<path d="M15.0012 50.2072C14.1692 47.5984 15.5903 44.8058 18.1889 43.9428L144.405 2.0261C146.966 1.17545 149.74 2.51114 150.673 5.04394L180.718 86.6602C181.693 89.3085 180.285 92.2385 177.607 93.1309L47.8056 136.398C45.1617 137.279 42.3076 135.829 41.4609 133.174L15.0012 50.2072Z" fill="#D9F2ED"/>
<path d="M42.2102 129.913C42.3648 130.008 42.5384 130.056 42.7125 130.056C42.8109 130.056 42.9104 130.04 43.0054 130.009L110.099 107.48C110.513 107.341 110.773 106.939 110.746 106.48C110.716 105.997 110.38 105.594 109.928 105.5L29.7016 88.9186C29.3719 88.8548 29.0426 88.9599 28.8194 89.2122C28.5806 89.4815 28.5067 89.8726 28.6273 90.2313L41.7592 129.34C41.84 129.581 42.0001 129.785 42.2102 129.913ZM50.0216 114.592C50.1166 114.641 50.2181 114.664 50.3173 114.664C50.5554 114.664 50.7852 114.534 50.9003 114.307L51.3679 113.387L55.0641 124.396L43.8172 128.172C43.9014 127.877 43.7815 127.557 43.4979 127.413C43.2023 127.263 42.8567 127.366 42.6743 127.629L38.888 116.352L50.3516 112.503L49.7353 113.714C49.572 114.036 49.6996 114.429 50.0216 114.592ZM58.6306 96.2326L58.0891 97.2964C57.9252 97.6184 58.0531 98.0112 58.3748 98.1751C58.4697 98.2233 58.5713 98.2469 58.6704 98.2469C58.9086 98.2469 59.1384 98.1165 59.2535 97.8895L59.9124 96.5952C59.9277 96.5654 59.928 96.5338 59.9381 96.503L108.68 106.578L56.3591 124.145L52.1835 111.71C52.2321 111.48 52.1544 111.249 51.9766 111.094L51.8209 110.63L38.3726 115.146L30.0375 90.3225L58.6306 96.2326Z" fill="#4B4B4B"/>
<path d="M46.2809 121.941C45.9568 121.774 45.5647 121.905 45.4022 122.227L44.1647 124.659C44.0007 124.981 44.1286 125.374 44.4503 125.537C44.5453 125.586 44.6469 125.609 44.746 125.609C44.9841 125.609 45.2139 125.479 45.329 125.252L46.5665 122.82C46.7308 122.497 46.6029 122.104 46.2809 121.941Z" fill="#4B4B4B"/>
<path d="M49.0665 116.468C48.7431 116.301 48.3504 116.433 48.1878 116.754L46.9503 119.186C46.7864 119.508 46.9143 119.901 47.236 120.065C47.3309 120.114 47.4325 120.136 47.5316 120.136C47.7698 120.136 47.9996 120.006 48.1147 119.779L49.3522 117.347C49.5161 117.025 49.3886 116.631 49.0665 116.468Z" fill="#4B4B4B"/>
<path d="M52.8025 109.12C52.8975 109.169 52.999 109.192 53.0982 109.192C53.3363 109.192 53.5661 109.061 53.6812 108.834L54.9187 106.402C55.0826 106.08 54.9547 105.686 54.6327 105.523C54.3086 105.356 53.9166 105.487 53.754 105.808L52.5165 108.241C52.3529 108.563 52.4808 108.957 52.8025 109.12Z" fill="#4B4B4B"/>
<path d="M55.5887 103.648C55.6837 103.697 55.7852 103.719 55.8844 103.719C56.1225 103.719 56.3523 103.589 56.4674 103.362L57.7049 100.929C57.8688 100.607 57.7409 100.214 57.4189 100.051C57.0948 99.8839 56.7028 100.015 56.5402 100.337L55.3027 102.769C55.1391 103.091 55.2667 103.484 55.5887 103.648Z" fill="#4B4B4B"/>
<path d="M28.8354 84.9409L28.8485 84.9367C29.4496 84.8657 30.13 84.6812 30.6171 84.4012L30.6126 84.388L28.0967 80.1431C27.5937 79.3386 25.8567 76.5042 25.4716 75.8774C24.3572 76.3679 24.1215 76.36 23.8865 76.4823C24.0362 81.0849 24.9361 85.8861 24.9499 86.2744C24.9673 86.283 24.9673 86.283 24.9805 86.2785C26.1649 85.8664 26.6838 85.7648 26.8145 85.6775C26.8277 85.673 26.8363 85.6556 26.8488 85.6515C26.9566 84.9755 26.6405 83.9037 26.6914 83.2763C27.0831 83.145 27.0395 83.1013 27.506 83.0174C27.9126 83.4476 28.4374 84.4493 28.8354 84.9409ZM26.0821 81.7647C25.5482 78.9635 25.0123 77.1076 27.0492 81.4399C26.7223 81.5498 26.3874 81.6766 26.0821 81.7647Z" fill="#4B4B4B"/>
<path d="M47.521 138.147C47.3945 138.073 47.3376 138.034 47.3633 137.894C47.5189 137.188 47.5647 136.373 47.3193 135.641C46.3362 132.714 43.2179 133.689 41.3197 134.965L41.3118 134.983C42.3815 137.997 43.2515 140.976 44.3691 143.96C44.4738 143.968 44.5608 143.924 44.6654 143.889C46.5782 143.305 49.6365 142.889 49.2258 140.279C49.0576 139.085 48.2975 138.642 47.521 138.147ZM44.3732 137.91C44.01 137.348 43.9521 136.699 43.777 136.307C43.9902 136.076 44.4342 135.97 44.8093 135.917C45.1057 135.889 45.3757 135.959 45.6118 136.185C45.8478 136.411 45.8048 136.76 45.7573 137.009C45.6586 137.623 44.9178 137.799 44.3732 137.91ZM47.0208 140.729C46.8087 141.265 46.1376 141.388 45.654 141.551L45.6235 141.547C45.1961 141.225 45.0103 140.284 44.9701 139.73C45.3102 139.66 45.6669 139.511 46.0246 139.493C46.2645 139.471 46.5612 139.575 46.7355 139.749C46.9536 140.009 47.129 140.401 47.0208 140.729Z" fill="#4B4B4B"/>
<path d="M114.953 116.029C115.006 116.491 115.277 116.908 115.218 117.38C115.166 117.79 114.836 118.06 114.443 118.148C113.886 118.176 113.518 117.688 113.295 117.196C112.791 116.042 112.075 113.563 112.096 113.455C112.096 113.411 112.092 113.311 112.118 113.258C112.214 113.067 112.493 112.944 112.701 112.83C113.707 112.449 113.862 113.603 114.199 114.261C114.905 114.155 115.533 114.031 116.125 113.673C116.149 110.974 112.93 109.612 110.802 111.2C110.575 111.348 110.384 111.515 110.236 111.724C110.01 112.134 109.902 112.592 109.899 113.102C109.882 113.398 109.909 113.739 110.05 114.026C110.958 116.862 111.423 118.203 111.91 119.436C112.544 120.851 114.275 120.765 115.459 120.178C117.354 119.498 117.924 117.125 116.73 115.519C116.186 115.542 115.471 115.927 114.953 116.029Z" fill="#4B4B4B"/>
<path d="M120.894 56.793C120.986 57.0668 121.241 57.2391 121.513 57.2391C121.582 57.2391 121.652 57.2277 121.721 57.2051C122.064 57.0901 122.248 56.7192 122.134 56.3774L121.243 53.7249C121.127 53.3825 120.757 53.2008 120.415 53.3128C120.072 53.4279 119.888 53.7984 120.003 54.1406L120.894 56.793Z" fill="#4B4B4B"/>
<path d="M129.257 77.5954C129.143 77.2529 128.772 77.0692 128.43 77.1832C128.087 77.2983 127.903 77.6692 128.017 78.011L128.908 80.6634C129.001 80.9373 129.255 81.1095 129.528 81.1095C129.597 81.1095 129.667 81.0981 129.736 81.0756C130.078 80.9605 130.263 80.5896 130.148 80.2478L129.257 77.5954Z" fill="#4B4B4B"/>
<path d="M124.901 68.7283C124.993 69.0022 125.248 69.1745 125.521 69.1745C125.589 69.1745 125.66 69.163 125.729 69.1405C126.071 69.0254 126.255 68.6545 126.141 68.3127L125.251 65.6603C125.135 65.3171 124.765 65.1369 124.423 65.2481C124.08 65.3632 123.896 65.7341 124.011 66.0759L124.901 68.7283Z" fill="#4B4B4B"/>
<path d="M125.091 86.7882C127.154 86.7882 129.251 86.46 131.312 85.7684C141.552 82.3295 147.087 71.1991 143.649 60.9578C140.209 50.7168 129.079 45.1811 118.838 48.6204C108.597 52.0593 103.063 63.1897 106.501 73.431C109.249 81.6116 116.902 86.7882 125.091 86.7882ZM123.194 63.1135C123.292 63.17 123.401 63.2064 123.517 63.2064C123.586 63.2064 123.656 63.1949 123.724 63.1724C123.91 63.1104 124.043 62.971 124.113 62.8043C128.619 61.3266 132.987 60.4042 136.46 60.2108C140.266 59.9986 141.886 60.72 142.137 61.4652C142.723 63.2098 137.226 67.7469 126.957 71.2753C126.8 71.1855 126.611 71.1554 126.426 71.2157C126.241 71.2777 126.108 71.4171 126.037 71.5838C115.72 74.9673 108.599 74.6671 108.014 72.9232C107.428 71.1783 112.924 66.6412 123.194 63.1135ZM131.51 84.3049L131.261 83.5635C131.145 83.2217 130.775 83.0401 130.433 83.1513C130.091 83.2664 129.907 83.6373 130.021 83.9791L130.271 84.7212C121.55 87.3123 112.291 83.0484 108.507 74.9247C109.501 75.323 110.84 75.5108 112.426 75.5108C116.237 75.5108 121.409 74.4598 126.293 72.8743L126.904 74.6959C126.997 74.9697 127.251 75.142 127.524 75.142C127.593 75.142 127.663 75.1306 127.732 75.108C128.075 74.993 128.259 74.6224 128.144 74.2803L127.534 72.4636C134.398 70.0815 141.065 66.4876 142.953 63.3676C144.834 72.1263 140.023 81.1072 131.51 84.3049ZM118.64 50.0835L118.889 50.825C118.981 51.0988 119.236 51.2711 119.509 51.2711C119.577 51.2711 119.648 51.2597 119.716 51.2371C120.059 51.122 120.243 50.7511 120.128 50.4094L119.879 49.6672C128.599 47.0768 137.858 51.3397 141.643 59.4627C140.441 58.9754 138.686 58.7774 136.387 58.9057C132.844 59.1033 128.415 60.0305 123.857 61.5131L123.245 59.6922C123.13 59.3497 122.759 59.1674 122.418 59.2801C122.075 59.3948 121.891 59.7657 122.005 60.1078L122.616 61.9252C115.751 64.3066 109.084 67.9005 107.197 71.0209C105.316 62.2621 110.127 53.2812 118.64 50.0835Z" fill="#4B4B4B"/>
<path d="M114.458 44.6951C114.824 44.7031 115.256 44.5582 115.661 44.4223C115.87 44.3519 116.075 44.2688 116.266 44.1901C116.386 43.1609 116.131 42.0104 116.241 40.869L116.259 40.8776C116.954 41.5605 117.471 42.7969 118.13 43.5062L118.147 43.5148C118.33 43.4968 118.518 43.4486 118.74 43.3741C119.041 43.2732 119.293 43.1592 119.567 43.067C119.685 43.0275 119.789 42.9924 119.911 42.9658C119.076 41.6472 117.953 40.3376 117.208 38.9438C116.913 37.2401 117.079 35.4833 117.054 33.8049C117.049 33.7917 117.063 33.7876 117.058 33.7744L117.045 33.7789C116.052 34.1124 115.508 34.3096 115.063 34.5027L115.067 34.5159C115.078 35.3703 115.243 36.9867 115.166 37.7978C114.694 37.2151 113.789 35.8611 113.334 35.1998C113.251 35.1256 113.103 35.2046 112.633 35.3627C112.318 35.4681 111.892 35.6258 111.344 35.8535C112.414 37.1371 113.52 38.3943 114.334 39.8221C114.512 41.391 114.377 43.2833 114.458 44.6951Z" fill="#4B4B4B"/>
<path d="M62.6553 84.4287L62.6612 84.4457C63.3483 84.2339 64.0758 84.0845 64.7514 83.7819C65.2728 83.36 64.8669 82.2071 66.0551 82.3014C67.8912 82.3482 66.5044 84.7663 66.3189 85.9099C66.105 86.6829 66.2087 87.3872 66.3355 88.1605L66.5186 88.8192C66.5584 88.9384 66.599 89.1148 66.7127 89.1713L66.7297 89.1654C67.4108 88.8798 68.1443 88.7474 68.814 88.4278L68.8084 88.4108C68.6944 88.2406 68.6937 88.0129 68.6819 87.808C68.5665 86.956 68.5644 86.2745 68.8188 85.4492C69.0057 84.8752 69.2542 84.5448 69.4462 83.9302C69.6726 83.3049 69.8012 82.6165 69.6403 81.8556C69.1984 79.7481 66.8548 78.8659 64.8221 79.7575C62.9084 80.4947 62.1628 82.6789 62.6553 84.4287Z" fill="#4B4B4B"/>
<path d="M69.1073 89.4676C68.7544 89.4343 67.3856 89.8749 66.989 90.2167C67.0979 90.5408 67.4126 91.7044 67.6698 92.1873L67.7211 92.1703L69.6518 91.5408L69.6858 91.5294L69.6803 91.5124L69.6744 91.4954C69.5655 91.1713 69.1187 89.5016 69.1073 89.4676Z" fill="#4B4B4B"/>
<path d="M150.875 84.3349C150.76 83.9918 150.391 83.8115 150.048 83.9228L118.758 94.4286C117.99 94.6868 117.167 94.7263 116.381 94.5478L84.6195 87.2949L85.4175 83.8008L77.3208 86.2976L83.5307 92.0618L84.3287 88.5684L116.089 95.8214C116.508 95.917 116.933 95.9645 117.359 95.9645C117.973 95.9645 118.586 95.8654 119.174 95.6681L150.464 85.1624C150.806 85.0476 150.99 84.6767 150.875 84.3349Z" fill="#4B4B4B"/>
<path d="M29.7717 162.221L29.563 161.601L0.434317 74.8461C-0.267963 72.7545 -0.114751 70.5142 0.866223 68.5384C1.84789 66.5619 3.54015 65.0867 5.63209 64.3837L130.581 22.4299C131.757 22.0358 132.963 21.9127 134.165 22.0604C137.322 22.4223 140.024 24.6113 141.039 27.6364L170.376 115.01L169.757 115.218L29.7717 162.221ZM133.179 23.3072C132.445 23.3072 131.715 23.4286 130.996 23.6695L6.0477 65.6236C4.2875 66.2143 2.86353 67.4562 2.03715 69.1201C1.21182 70.7832 1.08252 72.6696 1.67388 74.4309L30.5946 160.566L168.721 114.187L139.8 28.052C138.945 25.5059 136.672 23.6639 134.01 23.3592C133.732 23.3242 133.455 23.3072 133.179 23.3072Z" fill="#4B4B4B"/>
<path d="M26.0875 125.516C25.7714 125.516 25.4542 125.46 25.1464 125.35L23.9959 124.935C23.2808 124.677 22.7172 124.152 22.408 123.457C22.0995 122.763 22.0881 121.992 22.3754 121.289L27.9358 107.682C28.4984 106.304 30.0343 105.62 31.433 106.127C32.8309 106.632 33.5769 108.138 33.1315 109.556L28.7216 123.578C28.4932 124.304 27.9933 124.889 27.3115 125.226C26.9236 125.419 26.5066 125.516 26.0875 125.516ZM24.44 123.705L25.5905 124.12C25.9669 124.256 26.3735 124.233 26.7316 124.055C27.0903 123.878 27.3541 123.569 27.4748 123.186L31.8846 109.165C32.1193 108.418 31.7259 107.623 30.9889 107.357C30.2492 107.091 29.4423 107.451 29.1455 108.176L23.5852 121.783C23.4334 122.154 23.4396 122.56 23.6029 122.927C23.7654 123.292 24.0628 123.569 24.44 123.705Z" fill="#4B4B4B"/>
<path d="M82.9146 138.162C81.8047 138.162 80.7672 137.49 80.3422 136.397C79.8039 135.01 80.45 133.458 81.8123 132.863L95.2818 126.978C95.9782 126.672 96.7484 126.666 97.4507 126.959C98.1519 127.251 98.6902 127.802 98.9655 128.511L99.4081 129.651C99.6834 130.359 99.6577 131.129 99.3371 131.818C99.0157 132.507 98.4427 133.022 97.7235 133.267L83.8113 138.013C83.5146 138.114 83.212 138.162 82.9146 138.162ZM96.3883 128.052C96.1903 128.052 95.9924 128.094 95.8052 128.176L82.3357 134.061C81.6171 134.375 81.2768 135.193 81.5606 135.924C81.8442 136.654 82.647 137.026 83.3898 136.776L97.3009 132.03C97.6805 131.901 97.9824 131.629 98.1519 131.266C98.3207 130.903 98.3342 130.497 98.1894 130.123L97.7467 128.984C97.6015 128.61 97.3176 128.32 96.9474 128.166C96.7671 128.09 96.5779 128.052 96.3883 128.052Z" fill="#4B4B4B"/>
<path d="M126.256 109.609C132.763 106.591 144.571 102.614 151.487 101.101C152.16 100.954 152.476 101.903 151.853 102.191C145.31 105.211 133.496 109.138 126.6 110.634C125.969 110.77 125.671 109.881 126.256 109.609Z" fill="#4B4B4B"/>
<path d="M128.393 115.968C134.721 113.032 146.563 109.005 153.624 107.46C154.297 107.312 154.613 108.262 153.99 108.549C147.635 111.483 135.819 115.457 128.737 116.992C128.107 117.128 127.808 116.239 128.393 115.968Z" fill="#4B4B4B"/>
<path d="M128.425 122.726C127.919 122.726 127.414 122.651 126.921 122.499C125.327 122.018 124.057 120.787 123.527 119.206L120.766 110.987C120.328 109.682 120.425 108.282 121.041 107.046C121.656 105.81 122.715 104.888 124.024 104.448L150.202 95.6581C151.403 95.2553 152.705 95.307 153.865 95.8048C155.222 96.3812 156.27 97.5126 156.74 98.9082V98.9089L159.499 107.128C159.938 108.434 159.841 109.833 159.226 111.068C158.611 112.305 157.554 113.227 156.248 113.665L130.07 122.455C129.532 122.636 128.978 122.726 128.425 122.726ZM151.843 96.6973C151.43 96.6973 151.017 96.7639 150.618 96.8981L124.44 105.688C123.463 106.016 122.671 106.705 122.211 107.628C121.752 108.552 121.679 109.597 122.007 110.572L124.767 118.791C125.162 119.969 126.11 120.889 127.303 121.249C128.073 121.486 128.886 121.476 129.653 121.215L155.833 112.426C157.848 111.749 158.936 109.56 158.26 107.544L155.5 99.3255C155.15 98.2839 154.366 97.4385 153.353 97.0072C152.87 96.801 152.357 96.6973 151.843 96.6973Z" fill="#4B4B4B"/>
<path d="M28.9988 171.385C28.2355 171.385 27.4761 171.21 26.7696 170.863C25.5661 170.258 24.6711 169.229 24.2454 167.963C23.3653 165.339 24.7831 162.488 27.4064 161.607L173.384 112.593C174.65 112.168 176.011 112.26 177.216 112.852C178.419 113.457 179.314 114.486 179.74 115.752V115.753C180.62 118.376 179.202 121.227 176.579 122.108L30.6003 171.122C30.0769 171.298 29.5372 171.385 28.9988 171.385ZM174.986 113.638C174.588 113.638 174.188 113.702 173.801 113.833L27.8224 162.847C25.8826 163.498 24.8344 165.607 25.4854 167.546C25.8004 168.483 26.4629 169.246 27.352 169.692C28.2407 170.13 29.2491 170.198 30.184 169.882L176.163 120.868C178.103 120.217 179.151 118.108 178.5 116.168C178.185 115.231 177.522 114.469 176.633 114.022C176.113 113.766 175.551 113.638 174.986 113.638Z" fill="#4B4B4B"/>
</svg>
