<svg width="180" height="203" viewBox="0 0 180 203" fill="none" xmlns="http://www.w3.org/2000/svg">
<path d="M29.2541 77.2603C26.1377 74.7921 27.0087 69.8501 30.7811 68.596L70.7326 55.3146C72.1928 54.8292 73.3481 53.6984 73.8649 52.2489L89.2245 9.16613C90.5911 5.33268 95.7207 4.65073 98.0415 7.99396L123.816 45.124C124.75 46.4699 126.285 47.2727 127.923 47.2727H170.361C174.413 47.2727 176.782 51.8402 174.448 55.1526L149.666 90.3242C148.859 91.4693 148.57 92.9004 148.868 94.269L158.637 139.083C159.472 142.916 155.769 146.175 152.074 144.858L111.85 130.531C110.374 130.006 108.738 130.202 107.429 131.061L71.066 154.92C67.7409 157.101 63.3231 154.716 63.3231 150.739V106.661C63.3231 105.133 62.6248 103.689 61.4274 102.741L29.2541 77.2603Z" fill="#D9F2ED"/>
<path d="M119.91 86.725C120.425 86.725 120.935 87.0069 121.177 87.5396L121.96 89.2664C122.197 89.7884 122.706 90.081 123.227 90.081C123.521 90.081 123.82 89.9876 124.075 89.7891L125.573 88.6261C125.832 88.4251 126.128 88.3331 126.419 88.3331C127.057 88.3331 127.666 88.7745 127.791 89.4812L128.12 91.3486C128.242 92.0371 128.84 92.4964 129.488 92.4964C129.671 92.4964 129.858 92.4596 130.039 92.381L131.779 91.6268C131.963 91.5475 132.15 91.5107 132.332 91.5107C133.101 91.5107 133.78 92.1644 133.715 93.0068L133.569 94.8972C133.506 95.7159 134.159 96.3918 134.95 96.3918C135.023 96.3918 135.097 96.3862 135.171 96.3744L137.044 96.0765C137.12 96.0642 137.195 96.0587 137.268 96.0587C138.193 96.0587 138.887 96.9779 138.575 97.8946L137.964 99.6896C137.675 100.539 138.255 101.435 139.148 101.519L141.036 101.696C142.077 101.794 142.64 102.963 142.068 103.838L141.03 105.425C140.539 106.175 140.878 107.187 141.722 107.491L143.506 108.132C144.49 108.486 144.745 109.759 143.973 110.463L142.573 111.742C141.91 112.347 141.987 113.412 142.729 113.916L144.298 114.981C145.163 115.567 145.093 116.864 144.17 117.354L142.496 118.245C141.705 118.666 141.514 119.716 142.107 120.388L143.362 121.81C144.054 122.593 143.664 123.832 142.648 124.077L140.805 124.523C139.933 124.734 139.487 125.704 139.895 126.503L140.757 128.192C141.229 129.117 140.555 130.211 139.521 130.211C139.514 130.211 139.508 130.211 139.501 130.211L137.605 130.184C137.598 130.184 137.592 130.184 137.585 130.184C136.698 130.184 136.037 131.007 136.231 131.876L136.646 133.726C136.716 134.037 136.677 134.337 136.56 134.596C136.342 135.08 135.853 135.419 135.297 135.419C135.176 135.419 135.053 135.403 134.928 135.369L133.098 134.872C132.975 134.838 132.852 134.822 132.732 134.822C132.005 134.822 131.371 135.399 131.347 136.168L131.288 138.064C131.264 138.854 130.61 139.41 129.899 139.41C129.671 139.41 129.437 139.353 129.215 139.228L127.566 138.291C127.348 138.167 127.113 138.11 126.883 138.11C126.29 138.11 125.727 138.492 125.547 139.112L125.063 140.783L125.019 140.933C124.911 141.305 124.671 141.585 124.373 141.754C124.165 141.871 123.93 141.933 123.692 141.935C123.688 141.935 123.685 141.935 123.681 141.935C123.342 141.935 122.999 141.812 122.722 141.545L122.613 141.439L121.358 140.228C121.086 139.965 120.739 139.838 120.396 139.838C119.926 139.838 119.462 140.074 119.198 140.52L118.234 142.153C117.966 142.607 117.503 142.835 117.039 142.835C116.584 142.835 116.128 142.616 115.857 142.174L114.863 140.56C114.597 140.126 114.14 139.899 113.679 139.899C113.328 139.899 112.973 140.031 112.699 140.306L111.359 141.648C111.268 141.739 111.169 141.814 111.065 141.874C110.851 141.997 110.616 142.055 110.382 142.055C110.088 142.055 109.798 141.963 109.559 141.79C109.329 141.623 109.146 141.382 109.051 141.077L108.491 139.266C108.302 138.658 107.746 138.288 107.163 138.288C106.924 138.288 106.681 138.349 106.458 138.482L104.826 139.448C104.6 139.582 104.357 139.643 104.121 139.643C103.42 139.643 102.771 139.103 102.733 138.321L102.64 136.428C102.603 135.668 101.972 135.107 101.256 135.107C101.128 135.107 100.997 135.124 100.866 135.163L99.045 135.693C98.9122 135.731 98.7802 135.749 98.6522 135.749C97.8094 135.749 97.1149 134.969 97.2978 134.081L97.6788 132.223C97.8561 131.36 97.1947 130.556 96.3211 130.556C96.3059 130.556 96.2906 130.557 96.2751 130.557L94.3798 130.618C94.3643 130.618 94.3487 130.618 94.3331 130.618C93.3141 130.618 92.6367 129.547 93.0878 128.622L93.9187 126.918C94.3119 126.112 93.8486 125.15 92.9735 124.955L91.1232 124.542C90.103 124.315 89.6909 123.084 90.3679 122.288L91.5969 120.844C92.1782 120.161 91.9686 119.114 91.1692 118.707L89.4791 117.847C88.5476 117.373 88.4545 116.079 89.3084 115.476L90.8576 114.383C91.5902 113.866 91.6481 112.8 90.9748 112.207L89.5518 110.954C88.7676 110.263 88.9991 108.986 89.9762 108.615L91.749 107.941C92.5874 107.623 92.9079 106.605 92.4034 105.863L91.3369 104.295C90.7485 103.431 91.2909 102.252 92.3295 102.135L94.214 101.924C95.1054 101.824 95.6693 100.918 95.3651 100.074L94.7219 98.29C94.3902 97.3708 95.0835 96.4308 96.021 96.4308C96.0862 96.4308 96.153 96.4352 96.2205 96.4449L98.0983 96.7086C98.1644 96.7179 98.2304 96.7223 98.2949 96.7223C99.0969 96.7223 99.7517 96.029 99.673 95.2025L99.4935 93.3147C99.413 92.4645 100.094 91.7934 100.873 91.7934C101.048 91.7934 101.227 91.8272 101.404 91.8999L103.157 92.6225C103.332 92.6945 103.511 92.7282 103.686 92.7282C104.344 92.7282 104.947 92.2552 105.058 91.5556L105.353 89.6826C105.466 88.9645 106.082 88.5097 106.728 88.5097C107.011 88.5097 107.3 88.5968 107.555 88.7875L109.074 89.9234C109.325 90.1118 109.616 90.2005 109.902 90.2005C110.432 90.2005 110.948 89.8971 111.179 89.3625L111.931 87.622C112.167 87.0759 112.685 86.7843 113.209 86.7843C113.605 86.7843 114.005 86.9516 114.287 87.3029L115.475 88.7805C115.753 89.1262 116.155 89.2987 116.557 89.2987C116.967 89.2987 117.377 89.1192 117.654 88.7608L118.816 87.2618C119.098 86.8993 119.505 86.725 119.91 86.725ZM119.91 85.2178C119.01 85.2178 118.176 85.6269 117.624 86.3403L116.555 87.7195L115.461 86.3592C114.909 85.6722 114.088 85.2779 113.209 85.2779C112.051 85.2779 111.007 85.9634 110.548 87.0247L109.855 88.6269L108.458 87.5815C107.952 87.2032 107.354 87.0032 106.728 87.0032C105.292 87.0032 104.088 88.0315 103.865 89.4486L103.592 91.172L101.979 90.5069C101.624 90.3608 101.252 90.2866 100.874 90.2866C100.062 90.2866 99.2809 90.6334 98.7308 91.2381C98.1851 91.8379 97.9166 92.6466 97.9937 93.4572L98.1592 95.1958L96.4309 94.9521C96.2925 94.9325 96.156 94.9235 96.0217 94.9235C95.0843 94.9235 94.2007 95.3843 93.6583 96.1566C93.1175 96.9264 92.9858 97.9153 93.3052 98.8016L93.8972 100.443L92.1626 100.638C91.1447 100.752 90.2822 101.376 89.8545 102.307C89.4272 103.237 89.5158 104.298 90.0923 105.144L91.0738 106.587L89.4427 107.207C88.4857 107.57 87.8053 108.389 87.6221 109.396C87.4396 110.404 87.7894 111.409 88.5576 112.086L89.8671 113.239L88.4411 114.245C87.6043 114.835 87.1491 115.797 87.2225 116.819C87.2956 117.84 87.8843 118.727 88.7969 119.191L90.3523 119.983L89.2216 121.312C88.558 122.092 88.3562 123.137 88.6815 124.108C89.0065 125.078 89.7974 125.791 90.7967 126.014L92.5002 126.393L91.7353 127.962C91.2946 128.866 91.3495 129.914 91.8822 130.765C92.4149 131.618 93.3319 132.126 94.3353 132.126L94.4303 132.125L96.1742 132.069L95.8236 133.779C95.6478 134.634 95.8629 135.512 96.4134 136.188C96.9676 136.867 97.7845 137.257 98.6544 137.257C98.9282 137.257 99.2023 137.218 99.4686 137.14L101.144 136.652L101.23 138.396C101.305 139.94 102.577 141.151 104.124 141.151C104.639 141.151 105.148 141.01 105.597 140.745L107.098 139.856L107.614 141.523C107.898 142.438 108.596 143.128 109.467 143.416C109.756 143.511 110.065 143.562 110.384 143.562C110.584 143.562 110.781 143.542 110.973 143.502C111.519 143.389 112.023 143.119 112.428 142.713L113.661 141.478L114.576 142.964C115.107 143.827 116.028 144.342 117.041 144.342C118.076 144.342 119.008 143.81 119.535 142.92L120.422 141.417L121.678 142.629C122.22 143.153 122.933 143.442 123.683 143.442C123.745 143.442 123.807 143.441 123.868 143.437C124.26 143.413 124.632 143.312 124.969 143.148C125.682 142.799 126.234 142.162 126.469 141.352L126.954 139.676L128.472 140.538C128.909 140.787 129.403 140.918 129.9 140.918C131.475 140.918 132.747 139.685 132.796 138.11L132.85 136.362L134.534 136.823C134.784 136.891 135.041 136.926 135.298 136.926C135.604 136.926 135.904 136.878 136.187 136.786C136.668 136.63 137.103 136.348 137.449 135.961C137.485 135.921 137.521 135.879 137.555 135.836C138.106 135.148 138.311 134.259 138.118 133.396L137.736 131.693L139.481 131.717C140.537 131.717 141.46 131.2 141.99 130.334C142.52 129.468 142.561 128.411 142.101 127.507L141.307 125.952L143.003 125.541C143.998 125.301 144.776 124.574 145.084 123.597C145.392 122.62 145.17 121.579 144.493 120.812L143.338 119.503L144.879 118.684C145.783 118.203 146.356 117.306 146.41 116.283C146.465 115.261 145.992 114.308 145.145 113.733L143.701 112.753L144.99 111.576C145.746 110.886 146.077 109.874 145.877 108.87C145.675 107.866 144.98 107.06 144.017 106.714L142.375 106.124L143.33 104.663C143.891 103.807 143.96 102.744 143.516 101.822C143.072 100.9 142.198 100.292 141.179 100.196L139.441 100.033L140.003 98.3805C140.303 97.4987 140.16 96.5205 139.618 95.7641C139.074 95.0052 138.196 94.5522 137.269 94.5522C137.116 94.5522 136.961 94.5645 136.808 94.5886L135.084 94.8627L135.218 93.1225C135.281 92.3087 135.011 91.5322 134.459 90.9365C133.91 90.3437 133.135 90.0035 132.333 90.0035C131.936 90.0035 131.548 90.0844 131.18 90.2443L129.579 90.9383L129.276 89.2197C129.031 87.833 127.83 86.8263 126.42 86.8263C125.775 86.8263 125.162 87.0373 124.649 87.4361L123.27 88.5063L122.549 86.9171C122.081 85.8851 121.045 85.2178 119.91 85.2178Z" fill="#4B4B4B"/>
<path fill-rule="evenodd" clip-rule="evenodd" d="M158.203 190.791L158.205 190.806C158.205 190.804 158.204 190.801 158.204 190.798L158.203 190.796L158.203 190.791ZM118.744 201.308L118.748 201.318C118.747 201.315 118.746 201.311 118.744 201.308Z" fill="#4B4B4B"/>
<path d="M124.021 144.913C125.831 163.321 123.111 183.514 118.818 201.424C118.814 201.42 118.811 201.415 118.809 201.411C118.806 201.406 118.804 201.402 118.8 201.398C118.799 201.392 118.782 201.366 118.78 201.361C118.763 201.335 118.745 201.308 118.736 201.29L118.742 201.305L118.744 201.308C118.746 201.311 118.747 201.315 118.748 201.318L118.744 201.308L118.742 201.305C118.738 201.298 118.733 201.292 118.729 201.287C118.725 201.272 118.716 201.259 118.709 201.25L118.707 201.247C118.7 201.231 118.691 201.216 118.091 200.248L118.091 200.247C117.888 199.918 117.617 199.481 117.256 198.897C116.173 197.146 114.276 194.079 110.951 188.697C107.6 190.389 102.74 192.451 97.4384 194.237C98.3218 192.086 98.8134 190.925 99.1904 190.035C99.7883 188.624 100.098 187.892 101.225 184.971C101.225 184.971 101.224 184.966 101.23 184.954C101.23 184.954 101.233 184.943 101.24 184.931C101.242 184.92 101.246 184.914 101.25 184.908L101.248 184.903L101.255 184.891C101.297 184.774 101.398 184.503 101.614 183.923L101.615 183.921C101.887 183.188 102.343 181.962 103.094 179.936C109.171 163.038 110.56 148.117 110.659 147.053L110.663 147.009L110.665 146.992C110.797 145.781 110.898 144.615 110.973 143.502C110.781 143.542 110.584 143.562 110.384 143.562C110.065 143.562 109.756 143.511 109.467 143.416C109.391 144.553 109.291 145.693 109.166 146.828C109.164 146.846 109.163 146.865 109.161 146.886L109.158 146.914C108.912 149.552 107.397 163.518 101.676 179.425L100.213 183.367L100.142 183.557C99.9764 184.002 99.8892 184.236 99.8471 184.353L99.8437 184.362C99.8293 184.397 99.8159 184.432 99.804 184.468C98.7047 187.318 98.4016 188.034 97.8131 189.424L97.8038 189.446C97.4251 190.339 96.9317 191.504 96.0447 193.664C95.8207 194.21 95.9357 194.836 96.3396 195.267C96.6294 195.576 97.0296 195.744 97.4392 195.744C97.6002 195.744 97.7626 195.718 97.9199 195.665C102.315 194.184 106.777 192.389 110.389 190.653C113.839 196.237 115.594 199.074 116.488 200.52L116.501 200.54L116.51 200.555L116.512 200.558L116.816 201.049L117.043 201.417L117.045 201.419C117.278 201.796 117.361 201.931 117.393 201.983L117.395 201.987L117.396 201.988C117.412 202.02 117.431 202.052 117.45 202.083C117.471 202.118 117.492 202.152 117.515 202.185C117.527 202.204 117.539 202.222 117.552 202.241C117.601 202.316 117.659 202.39 117.717 202.452C118.006 202.761 118.407 202.931 118.818 202.931C118.946 202.931 119.076 202.914 119.203 202.88C119.739 202.739 120.154 202.314 120.284 201.775C124.926 182.408 126.827 164.123 125.831 148.594C125.259 147.429 124.713 146.271 124.196 145.12C124.129 144.973 124.063 144.826 123.998 144.679L124.021 144.913Z" fill="#4B4B4B"/>
<path d="M165.206 167.854L165.219 167.861L165.22 167.866C165.226 167.869 165.232 167.873 165.24 167.881C165.252 167.888 165.26 167.897 165.26 167.897C165.272 167.904 165.273 167.909 165.273 167.909C167.703 169.882 168.336 170.362 169.557 171.289C170.327 171.874 171.33 172.636 173.167 174.063C167.679 175.151 162.438 175.78 158.689 175.98C158.421 184.179 158.3 187.806 158.246 189.418L158.246 189.423L158.245 189.445L158.245 189.448L158.245 189.453L158.245 189.46L158.245 189.469L158.244 189.481C158.204 190.69 158.203 190.708 158.205 190.726L158.205 190.729C158.204 190.735 158.203 190.743 158.203 190.751C158.203 190.754 158.203 190.757 158.204 190.761C158.204 190.764 158.205 190.767 158.205 190.77C158.204 190.776 158.203 190.784 158.203 190.791L158.205 190.806C158.205 190.804 158.204 190.801 158.204 190.798L158.203 190.796L158.203 190.791L158.202 190.777C158.202 190.798 158.2 190.829 158.199 190.861C158.199 190.865 158.198 190.896 158.199 190.902C158.198 190.907 158.198 190.913 158.198 190.918C158.198 190.923 158.198 190.928 158.197 190.934C145.562 177.534 133.157 161.37 125.569 144.5L125.474 144.288C125.49 144.447 125.505 144.606 125.521 144.764C125.644 146.021 125.748 147.298 125.831 148.594C132.692 162.56 143.438 177.477 157.101 191.967C157.39 192.274 157.788 192.441 158.198 192.441C158.337 192.441 158.478 192.421 158.616 192.381C159.158 192.225 159.568 191.777 159.677 191.223C159.691 191.151 159.7 191.071 159.703 190.993L159.706 190.954C159.71 190.904 159.713 190.853 159.713 190.802L159.713 190.77L159.713 190.752L159.713 190.734C159.713 190.724 159.713 190.714 159.712 190.704C159.714 190.619 159.723 190.362 159.751 189.533C159.801 188.044 159.91 184.744 160.151 177.397C164.149 177.105 168.912 176.443 173.461 175.541C174.04 175.426 174.498 174.984 174.634 174.409C174.77 173.835 174.558 173.234 174.092 172.872C172.248 171.439 171.24 170.675 170.467 170.088L170.454 170.077C169.246 169.16 168.629 168.692 166.247 166.758L166.24 166.752C166.236 166.748 166.231 166.744 166.226 166.741C166.193 166.71 166.159 166.682 166.123 166.655C166.009 166.56 165.798 166.384 165.424 166.072L165.349 166.01L162.112 163.312C149.248 152.371 140.984 141.009 139.458 138.843L139.438 138.814L139.412 138.778L139.408 138.772C138.735 137.85 138.081 136.91 137.449 135.961C137.103 136.348 136.668 136.63 136.187 136.786C136.805 137.714 137.472 138.675 138.19 139.659C138.191 139.661 138.203 139.678 138.225 139.709C138.84 140.582 147.468 152.835 161.146 164.47C162.714 165.777 163.698 166.596 164.309 167.105L164.313 167.108L164.317 167.112L164.318 167.113C164.86 167.564 165.106 167.768 165.206 167.854Z" fill="#4B4B4B"/>
<path d="M124.969 143.148C124.632 143.312 124.26 143.413 123.868 143.437C123.914 143.851 123.957 144.265 123.998 144.679C124.063 144.826 124.129 144.973 124.196 145.12C124.713 146.271 125.259 147.429 125.831 148.594C125.748 147.298 125.644 146.021 125.521 144.764C125.505 144.606 125.49 144.447 125.474 144.288C125.303 143.909 125.135 143.529 124.969 143.148Z" fill="#4B4B4B"/>
<path d="M119.452 113.261L116.652 114.093C116.557 115.344 116.521 116.493 116.427 117.744C116.833 117.665 118.071 117.278 119.916 116.929C120.278 117.431 120.203 117.793 120.762 119.355L120.776 119.408C119.667 119.846 119.053 119.896 116.253 120.727L116.226 120.734L116.173 120.748C116.077 121.03 116.032 123.751 115.68 125.213L115.66 125.246L115.607 125.26C115.528 125.281 114.75 125.574 112.573 126.068C112.554 124.392 112.826 122.951 112.824 121.555L112.798 121.562C112.798 121.562 112.118 121.686 109.71 122.384C109.59 124.184 109.573 123.475 109.31 125.912C109.296 126.286 109.291 126.486 109.185 126.943C109.166 126.976 109.093 127.024 108.986 127.053C108.633 127.118 107.714 127.306 106.138 127.812C106.034 126.243 106.252 124.816 106.396 123.324C105.784 123.487 105.194 123.73 104.654 123.845C104.326 122.935 104.083 121.916 103.801 120.965C103.868 121.004 104.39 121.036 106.764 120.318C106.901 120.082 106.77 119.376 106.963 116.673C106.963 116.673 106.776 116.723 103.296 117.678L102.477 114.818C102.496 114.784 102.693 114.988 106.319 113.937C106.558 113.873 106.938 113.801 107.144 113.717C107.137 113.691 107.164 113.684 107.157 113.657C107.256 113.175 107.386 110.346 107.344 109.331L107.337 109.304C107.537 109.307 108.23 109.123 110.54 108.593C110.582 108.753 110.52 109.482 110.411 112.818C111.377 112.59 112.294 112.288 113.579 111.974C113.752 111.444 113.833 109.826 113.825 107.547L113.852 107.54L113.878 107.533C114.913 107.457 115.88 106.914 116.914 106.838C117.108 107.243 116.978 107.505 116.901 111.175C117.46 111.026 118.026 110.904 118.585 110.755L118.614 110.861L119.452 113.261ZM113.252 118.562C113.245 118.535 113.265 118.502 113.258 118.475C113.207 117.319 113.45 116.2 113.457 114.944L113.45 114.917L113.424 114.924L113.397 114.931C112.245 115.209 111.253 115.445 110.215 115.722L110.162 115.736L110.169 115.762C110.075 117.013 110.027 118.223 109.932 119.475L113.252 118.562Z" fill="#4B4B4B"/>
<path d="M131.164 121.145C130.285 121.379 129.246 121.542 128.506 121.654L128.499 121.627L127.811 119.045C126.896 115.612 126.322 112.172 125.407 108.738C125.358 108.552 125.329 108.446 125.253 108.266C124.886 108.278 125.084 109.879 124.498 110.036C124.179 110.121 121.1 110.228 121.016 109.908C120.803 108.682 122.499 103.384 122.655 103.114C123.473 102.868 124.238 102.636 125.063 102.416C125.995 102.168 126.907 101.953 127.887 101.777C128.397 103.267 128.814 104.723 129.211 106.214C130.296 110.287 131.053 114.304 132.138 118.377C132.3 118.989 132.471 119.628 132.661 120.234C132.774 120.66 131.829 120.968 131.164 121.145Z" fill="#4B4B4B"/>
<path d="M12.0767 138.468C12.0615 138.37 12.0582 138.324 12.1446 138.288C12.595 138.121 13.0572 137.855 13.3473 137.453C14.5054 135.844 12.6169 134.431 11.0978 133.816L11.0844 133.818C9.91664 135.507 8.68098 137.07 7.55029 138.775C7.59184 138.837 7.65416 138.871 7.71834 138.917C8.86831 139.788 10.4282 141.369 11.6646 140.198C12.2377 139.674 12.1465 139.086 12.0767 138.468ZM10.4586 139.113C10.0754 139.186 9.71595 138.851 9.41733 138.636L9.4062 138.617C9.39396 138.26 9.82353 137.816 10.1055 137.595C10.2928 137.761 10.5287 137.91 10.6945 138.105C10.8118 138.233 10.8845 138.437 10.8663 138.599C10.8196 138.817 10.6842 139.057 10.4586 139.113ZM10.8325 136.602C10.978 136.194 11.3055 135.928 11.4417 135.688C11.6594 135.725 11.9105 135.939 12.1027 136.131C12.247 136.29 12.3271 136.468 12.3075 136.682C12.2882 136.896 12.0797 136.998 11.9239 137.06C11.5481 137.226 11.13 136.871 10.8325 136.602Z" fill="#4B4B4B"/>
<path d="M14.9938 139.392C15.0817 139.073 15.3518 138.802 15.5224 138.502L15.5347 138.499L15.561 138.515C16.3463 138.909 17.0345 139.482 17.8446 139.777L17.8495 139.769C18.0646 139.413 18.3451 139.087 18.5009 138.696C18.528 138.65 16.307 137.343 14.9512 136.603C13.7897 138.268 12.869 140.016 11.8047 141.771C12.8515 142.52 14.131 143.193 15.2832 143.904C15.5599 143.658 15.7803 143.294 15.952 142.954L15.9617 142.938C15.1737 142.491 14.5042 142.002 13.7556 141.548L13.7515 141.535C13.8724 141.278 14.0865 140.848 14.3246 140.59C14.4949 140.579 15.0057 141.003 15.4052 141.131C15.6207 140.756 15.8786 140.446 16.0258 140.07L16.0307 140.062C15.6857 139.843 15.3243 139.633 14.9979 139.404L14.9938 139.392Z" fill="#4B4B4B"/>
<path d="M21.7758 140.608C21.3266 140.089 20.5402 139.596 19.8546 139.513C18.5084 139.348 17.2334 140.506 17.85 141.986C17.9539 142.198 18.0959 142.4 18.3148 142.562C18.7659 142.903 19.4288 143.333 19.2411 143.874C19.0074 144.679 17.7235 144 18.0221 143.308C17.6192 143.111 17.1084 142.779 16.6637 142.621L16.6514 142.644L16.6388 142.668C16.0553 143.632 16.8773 144.799 17.9004 145.354C18.6142 145.75 19.4588 145.826 20.0731 145.326C20.6344 144.927 20.9735 144.245 20.7991 143.559C20.6849 142.933 20.2883 142.331 19.6914 141.946C19.4607 141.788 19.2581 141.614 19.2908 141.313C19.3182 141.237 19.3364 141.158 19.3995 141.101C19.7997 140.559 20.841 141.363 20.4048 141.865C20.7694 142.181 21.2806 142.403 21.7287 142.554L21.738 142.558C22.3097 141.856 22.2095 141.158 21.7758 140.608Z" fill="#4B4B4B"/>
<path d="M23.0487 140.938C22.7875 141.433 22.5371 142.133 22.5486 142.234C22.6785 142.336 23.3803 142.543 23.6099 142.792L23.6159 142.804C22.4882 145.909 21.8724 147.071 21.8594 147.181C22.3279 147.299 22.9118 147.63 23.3892 147.753L23.3922 147.745L23.3959 147.736C24.8152 144.14 25.0556 143.541 25.1572 143.401C25.1602 143.392 25.1732 143.388 25.1772 143.38L25.1861 143.384L25.2043 143.391C25.7927 143.609 26.1124 143.724 26.3242 143.86C26.5528 143.495 26.769 142.981 26.8903 142.611C25.684 141.962 24.2977 141.431 23.0461 140.917C23.0424 140.926 23.0516 140.93 23.0487 140.938Z" fill="#4B4B4B"/>
<path d="M33.0813 144.785C32.54 144.362 31.6727 144.03 30.9861 144.08C29.6321 144.178 28.6034 145.558 29.4919 146.892C29.6339 147.081 29.8131 147.252 30.0587 147.369C30.5673 147.616 31.3007 147.911 31.2194 148.477C31.1445 149.313 29.7538 148.894 29.9148 148.157C29.4826 148.041 28.9165 147.814 28.4498 147.744L28.4421 147.769L28.4357 147.794C28.0477 148.853 29.0775 149.84 30.1885 150.188C30.9642 150.44 31.8081 150.352 32.3156 149.742C32.7901 149.244 32.9915 148.509 32.6895 147.87C32.4566 147.278 31.9517 146.764 31.2925 146.5C31.0351 146.389 30.8036 146.257 30.7772 145.954C30.7899 145.875 30.7925 145.793 30.8429 145.725C31.1319 145.118 32.3082 145.706 31.9766 146.282C32.3939 146.522 32.9388 146.642 33.4077 146.704L33.4181 146.706C33.8447 145.908 33.6114 145.243 33.0813 144.785Z" fill="#4B4B4B"/>
<path d="M34.3886 144.85C34.3871 144.859 34.3971 144.86 34.3953 144.869C34.2343 145.405 34.123 146.141 34.1542 146.236C34.3014 146.312 35.0285 146.38 35.3019 146.581L35.3101 146.591C34.7996 149.853 34.4194 151.111 34.4268 151.221C34.9083 151.247 35.5456 151.461 36.0375 151.489L36.0394 151.48L36.0409 151.472C36.7438 147.672 36.8648 147.037 36.9375 146.882C36.939 146.873 36.9508 146.866 36.9516 146.857L36.962 146.86L36.9809 146.864C37.6004 146.964 37.9357 147.015 38.1705 147.109C38.3245 146.707 38.4369 146.161 38.4862 145.774C37.1771 145.369 35.7159 145.114 34.3886 144.85Z" fill="#4B4B4B"/>
<path d="M40.9798 150.635C40.7817 151.154 39.874 151.116 39.7605 150.52C39.8213 149.047 39.979 147.605 40.2327 146.201L40.2335 146.192C39.8518 146.044 39.253 146.02 38.8483 145.967L38.8387 145.966L38.8472 145.976C38.6758 147.524 38.4013 149.095 38.1999 150.639C38.1082 151.725 39.4137 152.332 40.5414 152.38C41.4988 152.425 42.1387 151.902 42.3472 151.144C42.7311 149.658 42.9411 148.124 43.0576 146.613C42.7634 146.405 41.9889 146.42 41.6209 146.399C41.405 147.755 41.2313 149.24 40.9798 150.635Z" fill="#4B4B4B"/>
<path d="M47.1301 147.314C46.9097 146.957 46.5072 146.633 46.0851 146.513C45.3183 146.498 44.4491 146.345 43.6842 146.472C43.6738 146.48 43.6634 146.497 43.6519 146.505C43.5926 148.558 43.2992 150.696 43.4887 152.576L43.4987 152.568C44.3341 152.613 45.2393 152.662 46.1151 152.683C46.6515 152.154 47.1727 151.561 47.4784 150.878C47.4784 150.869 47.488 150.87 47.4891 150.861C47.6372 150.328 47.6564 149.762 47.7158 149.207C47.7158 149.021 47.7158 148.835 47.6564 148.646C47.5626 148.17 47.3968 147.727 47.1301 147.314ZM46.0435 150.472C45.9582 150.574 45.8536 150.675 45.7204 150.738C45.6492 150.761 45.6076 150.794 45.539 150.781C45.2986 150.795 45.0085 150.815 44.8653 150.692C44.8579 149.894 44.9829 149.041 44.9674 148.402L44.9692 148.366L44.9792 148.367L44.9993 148.368C45.2408 148.337 45.5182 148.361 45.746 148.4C46.1852 148.566 46.2809 149.014 46.3418 149.38C46.4282 149.819 46.2898 150.175 46.0435 150.472Z" fill="#4B4B4B"/>
<path d="M52.5696 151.521C51.6655 151.566 50.839 151.513 49.9639 151.532L49.9543 151.523C49.9183 151.24 49.8682 150.764 49.9309 150.417C50.0686 150.317 50.7266 150.4 51.1317 150.294C51.1135 149.861 51.164 149.461 51.0868 149.065V149.056C50.6791 149.056 50.2614 149.074 49.8634 149.055L49.8534 149.047C49.7573 148.731 49.8393 148.357 49.8219 148.013L49.8319 148.003H49.8619C50.7355 147.913 51.6229 148.027 52.4653 147.841L52.4646 147.832C52.456 147.416 52.5169 146.991 52.4386 146.576C52.4379 146.523 49.8634 146.613 48.3236 146.716C48.2356 148.745 48.3959 150.715 48.4378 152.767C49.7221 152.837 51.1629 152.718 52.5147 152.698C52.6174 152.342 52.6081 151.918 52.5707 151.538L52.5696 151.521Z" fill="#4B4B4B"/>
<path d="M57.5758 151.382C57.5442 151.056 57.5242 150.747 57.4901 150.404C57.4407 149.902 57.3907 149.392 57.3328 148.9L57.0549 146.067C56.8635 146.05 56.6443 146.054 56.3961 146.078C56.1494 146.102 55.9135 146.143 55.6891 146.2C55.7076 146.491 55.7213 146.739 55.7458 146.986C55.7874 147.408 55.8549 147.792 55.9005 148.259C55.9209 148.461 55.9154 148.719 55.8783 148.749C55.849 148.752 54.9987 147.52 54.903 147.36C54.6177 146.891 54.522 146.838 54.2917 146.425C54.2868 146.372 53.6302 146.401 53.4615 146.418C53.3034 146.434 53.1454 146.458 53.02 146.497C53.023 147.251 53.082 148.055 53.1614 148.864C53.2686 149.963 53.3928 150.92 53.5026 152.038L53.5627 152.654C53.8695 152.624 54.2008 152.645 54.518 152.614C54.666 152.599 54.804 152.577 54.949 152.526C54.9197 152.325 54.8941 152.07 54.8681 151.797C54.7713 150.811 54.6789 149.559 54.7179 149.555C54.7483 149.553 54.8095 149.68 54.8722 149.807L54.9972 150.061C55.3778 150.779 55.9131 151.553 56.434 152.381C56.7014 152.355 57.0817 152.362 57.3491 152.336C57.5765 152.313 57.6418 152.271 57.6715 152.26L57.654 152.084C57.6318 151.847 57.5995 151.619 57.5758 151.382Z" fill="#4B4B4B"/>
<path d="M60.5024 146.952L60.512 146.95L60.5313 146.946C61.1445 146.813 61.475 146.737 61.7273 146.738C61.7236 146.308 61.6268 145.759 61.531 145.38C60.1652 145.483 58.7118 145.781 57.3796 146.022C57.3819 146.031 57.3908 146.029 57.393 146.037C57.4394 146.596 57.6059 147.321 57.6705 147.399C57.8352 147.415 58.537 147.212 58.8657 147.299L58.8768 147.306C59.6002 150.53 59.7074 151.84 59.7553 151.94C60.2141 151.789 60.8848 151.753 61.3526 151.6L61.3519 151.59L61.3496 151.582C60.6066 147.786 60.4861 147.151 60.4968 146.979C60.495 146.971 60.5035 146.96 60.5024 146.952Z" fill="#4B4B4B"/>
<path d="M72.0206 86.9542C72.8007 86.8036 73.421 86.2539 73.6695 85.4916C73.9351 84.6847 73.7226 83.8159 73.1198 83.222L68.1289 78.3105C68.0402 78.151 67.9426 77.9915 67.8454 77.832C67.8273 77.7611 67.8273 77.6814 67.8454 77.6016L69.0867 70.5805C69.2284 69.7473 68.9001 68.9138 68.2179 68.4085C67.5353 67.9122 66.6395 67.8409 65.8949 68.2312L59.5649 71.5205C59.3609 71.627 59.1131 71.6269 58.909 71.5116L52.6146 68.1603C51.8697 67.7616 50.9746 67.8235 50.2917 68.3199C49.6006 68.8162 49.2634 69.6408 49.3962 70.474L50.5665 77.513C50.6107 77.7344 50.5309 77.9652 50.3625 78.1336L45.2295 83.0803C44.6264 83.6653 44.4049 84.5345 44.662 85.3409C44.9191 86.1478 45.6016 86.7239 46.4352 86.857L53.4919 87.9121C53.7134 87.9473 53.9174 88.0894 54.0154 88.3019L57.1359 94.7114C57.5079 95.4737 58.2613 95.9526 59.1127 95.9526H59.1212C59.5111 95.9526 59.875 95.855 60.194 95.6688C60.9831 98.5144 61.1693 101.387 60.7616 104.232C60.496 105.943 60.0171 107.734 59.3431 109.499C59.2014 109.8 59.0682 110.11 58.9354 110.421C58.6783 111.015 58.439 111.573 58.1107 112.132L57.4285 113.408L56.6302 114.693C54.6356 117.832 51.905 120.997 48.501 124.117C46.9412 125.545 46.6837 127.929 47.8986 129.667C48.5452 130.589 49.5204 131.201 50.6289 131.396C50.8774 131.44 51.1256 131.466 51.3648 131.466C52.2251 131.466 53.0668 131.2 53.785 130.695C58.2443 127.566 61.8526 124.33 64.8225 120.784L66.0459 119.294C66.3119 118.949 66.569 118.585 66.826 118.222L67.1629 117.752C67.7483 116.981 68.2446 116.147 68.7235 115.341C68.9097 115.039 69.0959 114.729 69.3085 114.383C70.6562 111.919 71.7108 109.392 72.4464 106.883C73.9537 101.671 74.1135 95.7664 72.8897 90.2432C72.6501 89.1351 72.3574 88.0445 72.0206 86.9542ZM59.7507 94.0555C59.7422 94.0822 59.7244 94.0997 59.7066 94.1264C59.5823 94.3304 59.3605 94.4632 59.1212 94.4454C58.8463 94.4454 58.6071 94.2948 58.4917 94.0555L55.3712 87.6461C55.0522 86.9899 54.4316 86.5291 53.7134 86.4227L46.6659 85.3587C46.391 85.3231 46.1781 85.1458 46.0983 84.8802C46.0186 84.6231 46.0805 84.3572 46.2757 84.162L51.4086 79.2153C51.9317 78.71 52.1795 77.983 52.0552 77.2648L51.1575 71.8642L50.8852 70.2258C50.8849 70.2238 50.8845 70.2218 50.8842 70.2198C50.8427 69.956 50.9488 69.7016 51.1686 69.5433C51.2929 69.4546 51.435 69.4105 51.5767 69.4105C51.6917 69.4105 51.7981 69.4372 51.9042 69.4902L51.9191 69.4982L53.411 70.2938L57.7554 72.6107L58.1987 72.8411C58.8456 73.1868 59.6083 73.1868 60.2553 72.8589L65.2989 70.2379L66.5849 69.5696C66.8335 69.4453 67.1084 69.4631 67.3209 69.6227C67.5427 69.7911 67.6492 70.0481 67.6043 70.3141L67.473 71.0544L66.6027 75.9612L66.3549 77.3353C66.293 77.7166 66.3193 78.0976 66.4436 78.4522C66.5408 78.7271 66.6914 78.9842 66.9043 79.2056C66.931 79.2409 66.9581 79.2676 66.9845 79.2943L72.0644 84.2945C72.2591 84.4896 72.3214 84.7556 72.2421 85.0215C72.1534 85.2786 71.9405 85.4559 71.6656 85.4916L71.5328 85.5094L70.0078 85.7223L64.6088 86.4846C63.8906 86.5822 63.2611 87.0344 62.9425 87.6813L60.6288 92.309L59.7507 94.0555ZM70.9923 106.467C70.2919 108.869 69.2811 111.29 68.0046 113.63C67.8098 113.94 67.6236 114.251 67.437 114.57C66.9496 115.376 66.4974 116.139 65.948 116.857L65.5934 117.353C65.3448 117.699 65.0966 118.054 64.8574 118.364L63.6607 119.827C63.1285 120.461 62.5748 121.085 61.9984 121.7C61.5708 122.157 61.1307 122.609 60.6775 123.057C58.4343 125.274 55.8714 127.389 52.9251 129.463C51.6928 130.323 49.9904 130.022 49.1306 128.798C48.3504 127.681 48.5099 126.148 49.5382 125.208C51.517 123.395 53.2783 121.56 54.8093 119.717C55.2328 119.207 55.6387 118.696 56.0267 118.185C56.706 117.291 57.3304 116.395 57.8985 115.5L58.7317 114.161L59.4321 112.867C59.7867 112.256 60.0527 111.626 60.3187 111.023C60.443 110.722 60.5758 110.429 60.7264 110.084C61.4624 108.169 61.9676 106.28 62.251 104.463C62.7388 101.05 62.4376 97.6279 61.3474 94.2414L64.2905 88.355C64.3877 88.151 64.5918 88.0092 64.8136 87.9736L70.5056 87.1757C70.8688 88.2927 71.1704 89.4274 71.4185 90.5622C72.5878 95.8461 72.4372 101.493 70.9923 106.467Z" fill="#4B4B4B"/>
<path d="M50.7656 106.759C50.464 102.868 48.975 98.8783 46.5897 95.536C45.9602 94.6405 45.2599 93.7806 44.4975 92.9475L44.7639 92.6637C45.544 91.8394 45.7833 90.669 45.393 89.6051C44.9939 88.5327 44.0542 87.7967 42.9195 87.6813L38.5132 87.2202L36.4032 83.3285C35.8801 82.371 34.8871 81.7771 33.7968 81.7771C32.609 81.7771 31.5718 82.4508 31.0933 83.5325L29.2934 87.5841L24.9317 88.3906C23.8151 88.5946 22.9285 89.4015 22.6265 90.5006C22.316 91.5909 22.6443 92.7438 23.4953 93.5061L26.7842 96.4671L26.2081 100.856C26.0931 101.707 26.3502 102.558 26.9085 103.196C27.4761 103.843 28.2914 104.206 29.1424 104.206C29.6566 104.206 30.1711 104.073 30.6229 103.808L34.4616 101.6L37.0238 102.824C37.0769 102.868 37.1299 102.921 37.1744 102.974C38.6457 104.543 39.6124 106.316 40.0464 108.231C40.2593 109.206 40.3658 110.288 40.348 111.423C40.2593 112.832 40.0994 113.923 39.8338 114.969C39.3104 117.203 38.3177 119.658 36.8639 122.327C35.8445 124.18 36.3765 126.52 38.0874 127.771C38.8144 128.302 39.6832 128.586 40.5698 128.586C40.7917 128.586 41.0131 128.568 41.2346 128.533C42.3426 128.356 43.3264 127.753 43.9915 126.84C46.27 123.728 47.8566 120.883 49.0002 117.921C49.6298 116.343 50.1261 114.606 50.5074 112.593C50.8276 110.58 50.907 108.621 50.7656 106.759ZM35.083 100.226C34.8878 100.128 34.6753 100.084 34.4623 100.084C34.2053 100.084 33.9567 100.146 33.7353 100.279L30.8897 101.917L29.8702 102.504C29.7348 102.579 29.5967 102.632 29.459 102.663C29.3532 102.687 29.2475 102.699 29.1435 102.699C28.3189 102.699 27.5837 101.981 27.6986 101.059L28.2833 96.6352C28.3456 96.1655 28.1683 95.6866 27.8136 95.3676L24.498 92.3799C23.6029 91.5734 24.0284 90.0929 25.2077 89.8711L29.2927 89.1117L29.5957 89.0554C30.0657 88.9667 30.4649 88.6562 30.6596 88.2222L30.9981 87.4591L32.4681 84.1442C32.7251 83.5767 33.266 83.2843 33.798 83.2843C34.3032 83.2843 34.7995 83.5325 35.0744 84.047L36.7764 87.1853L37.2019 87.9655C37.4326 88.3821 37.8581 88.6658 38.3277 88.71L39.8528 88.8695L42.7696 89.18C43.9659 89.3043 44.4979 90.7581 43.6647 91.6268L43.4433 91.8572L42.4061 92.9564L40.5976 94.8624C40.2693 95.2081 40.1365 95.6959 40.2341 96.1655L41.1559 100.527C41.36 101.485 40.6062 102.283 39.7378 102.283C39.5334 102.283 39.3208 102.238 39.1082 102.141L37.8937 101.564L35.083 100.226ZM49.0188 112.327C48.8349 113.315 48.62 114.232 48.3728 115.095C48.1924 115.725 47.9948 116.326 47.7795 116.905C47.7211 117.062 47.6613 117.217 47.6002 117.371C46.5011 120.217 44.9675 122.947 42.7774 125.953C42.3519 126.538 41.7135 126.928 40.9957 127.043C40.2775 127.15 39.5593 126.981 38.974 126.556C37.8748 125.749 37.5291 124.242 38.2116 123.001C39.7099 120.261 40.7471 117.673 41.2969 115.323C41.3173 115.245 41.3371 115.166 41.3563 115.087C41.4993 114.499 41.6099 113.892 41.6954 113.221C41.7632 112.688 41.8152 112.114 41.8552 111.476C41.873 110.19 41.7576 108.993 41.5184 107.903C41.1904 106.44 40.5965 105.066 39.7366 103.789C40.6318 103.789 41.4742 103.391 42.0414 102.69C42.5997 101.999 42.8215 101.095 42.6353 100.217L41.7131 95.8821L43.4596 94.047C44.16 94.8093 44.7895 95.5894 45.357 96.4052C47.591 99.5346 48.9828 103.258 49.2577 106.875C49.4001 108.621 49.3204 110.465 49.0188 112.327Z" fill="#4B4B4B"/>
<path fill-rule="evenodd" clip-rule="evenodd" d="M87.4417 33.2041C87.8053 33.9665 87.6988 34.8531 87.1758 35.5178L74.3027 51.6441C74.1607 51.8304 74.1165 52.07 74.1785 52.2915L80.1717 72.0343C80.4195 72.8411 80.1891 73.7006 79.5685 74.286C78.9568 74.8621 78.0795 75.0394 77.2812 74.7382L67.473 71.0544L67.6043 70.3141C67.6492 70.0481 67.5427 69.7911 67.3209 69.6227C67.1084 69.4631 66.8335 69.4453 66.5849 69.5696L65.2989 70.2379L57.9727 67.4863C57.7509 67.4066 57.5116 67.4333 57.3254 67.5661L53.411 70.2938L51.9191 69.4982L56.4577 66.3338C57.0606 65.9172 57.8229 65.8196 58.4965 66.0767L77.8139 73.3282C78.0709 73.4257 78.3458 73.3727 78.5406 73.1865C78.7446 73.0003 78.8154 72.7343 78.7357 72.4683L72.7425 52.7255C72.5303 52.034 72.672 51.2713 73.1242 50.7041L85.9965 34.5782C86.1649 34.3656 86.2001 34.0907 86.0851 33.8426C85.9701 33.5944 85.7309 33.4438 85.4645 33.4438L64.8351 33.0357C64.1084 33.0268 63.4344 32.6544 63.0356 32.0427L51.6705 14.8264C51.537 14.6228 51.3244 14.5074 51.0851 14.5074C51.0584 14.5074 51.0228 14.5074 50.9965 14.5163C50.7216 14.5519 50.509 14.7204 50.4204 14.9863L43.6648 34.4721C43.4252 35.1635 42.8669 35.6866 42.1665 35.8817L22.2727 41.3693C22.0068 41.4402 21.8209 41.6438 21.7671 41.9098C21.723 42.1758 21.8209 42.4329 22.0335 42.6013L31.3245 49.641L32.539 50.5539L38.4877 55.0577C39.0727 55.4921 39.3918 56.1921 39.3651 56.9103L38.4347 77.5219C38.4254 77.7968 38.559 78.036 38.7982 78.1692C39.0379 78.302 39.312 78.2842 39.5338 78.1336L50.8842 70.2198L50.8852 70.2258L51.1575 71.8642L40.3926 79.3659C40.0205 79.6319 39.5772 79.7651 39.1339 79.7651C38.7704 79.7651 38.4072 79.6764 38.07 79.4902C37.3255 79.0821 36.8915 78.302 36.9264 77.4599L37.2013 71.3076C34.6921 74.7916 32.8573 78.8518 31.8286 83.2135L31.5538 84.2859C31.5112 84.4742 31.4769 84.679 31.4425 84.8841L31.4388 84.9066L31.3679 85.332C31.3331 85.5416 31.2926 85.7567 31.251 85.9773L31.2173 86.1567L31.2026 86.2382C31.1955 86.277 31.1884 86.3157 31.1813 86.3544C31.1747 86.3904 31.168 86.4264 31.1614 86.4624C31.0999 86.7948 31.0389 87.1245 30.9981 87.4591L30.6596 88.2222C30.4649 88.6562 30.0657 88.9667 29.5957 89.0554L29.2927 89.1117C29.3189 88.8816 29.3461 88.653 29.3733 88.4262C29.3947 88.2427 29.4141 88.0612 29.4333 87.8808C29.454 87.6864 29.4746 87.4934 29.4975 87.3004C29.5599 86.8036 29.6485 86.3425 29.7372 85.8818C29.7596 85.742 29.7845 85.6045 29.8093 85.4669C29.8334 85.334 29.8574 85.2011 29.8793 85.0661L29.959 84.6584C29.9943 84.4099 30.0384 84.1706 30.0918 83.9313L30.3667 82.8585C31.6079 77.566 34.0106 72.6812 37.3252 68.6749L37.8571 56.8487C37.8656 56.6183 37.7592 56.3969 37.5822 56.2548L31.4384 51.6093C29.2575 53.7727 27.3341 56.0597 25.7115 58.4357C21.2081 64.9694 18.3714 72.6467 17.5026 80.652L17.3253 82.1236C17.3003 82.3928 17.283 82.686 17.2661 82.9725L17.2633 83.0191L17.2366 83.5333C17.2188 83.8434 17.201 84.1628 17.1832 84.4818C17.1762 84.6064 17.169 84.731 17.1617 84.8555C17.1317 85.3688 17.1018 85.8812 17.0949 86.3878L17.1034 87.4339C17.112 88.9496 17.1212 90.5188 17.2718 92.0171C17.4848 95.8202 18.1584 99.5257 18.8588 102.974C19.4833 105.796 20.264 108.66 21.2116 111.599C21.4073 112.205 21.61 112.815 21.82 113.428C22.9033 116.592 24.1785 119.848 25.6585 123.231C26.4831 125.12 28.5842 126.086 30.5611 125.492C31.5983 125.182 32.4585 124.481 32.9723 123.524C33.4865 122.566 33.6018 121.467 33.2828 120.43C32.5648 118.04 31.9412 115.74 31.4085 113.512C31.2477 112.84 31.0952 112.174 30.9509 111.514C30.2794 108.445 29.7854 105.51 29.459 102.663C29.5967 102.632 29.7348 102.579 29.8702 102.504L30.8897 101.917C31.485 107.476 32.7384 113.382 34.7103 119.942C35.1536 121.413 35.0029 122.921 34.3026 124.233C33.5937 125.545 32.4233 126.511 30.9958 126.937C30.4643 127.096 29.923 127.176 29.3911 127.176C27.2195 127.176 25.1892 125.908 24.2759 123.834C21.0846 116.529 18.8236 109.809 17.388 103.284C16.6694 99.7735 15.9868 95.9971 15.7654 92.1317C15.6148 90.5982 15.6055 88.9934 15.5966 87.4421L15.5881 86.3871C15.595 85.8397 15.6257 85.2982 15.656 84.7624C15.663 84.6388 15.67 84.5154 15.6767 84.3924L15.7034 83.9181L15.7301 83.4439L15.7565 82.9386L15.7565 82.9374C15.7743 82.6099 15.7921 82.282 15.8273 81.9545L16.0043 80.4829C16.9001 72.2379 19.8259 64.3124 24.471 57.5836C26.1114 55.1898 28.0438 52.8761 30.2335 50.6952L21.1291 43.8069C20.4554 43.2927 20.136 42.4592 20.2959 41.626C20.4554 40.7928 21.0582 40.1366 21.8736 39.9152L41.7678 34.4276C41.9892 34.3656 42.1665 34.1968 42.2374 33.9843L48.9929 14.4892C49.2767 13.6913 49.9682 13.1241 50.8103 13.0177C51.6527 12.9112 52.4592 13.2925 52.9292 13.9929L64.2861 31.2184C64.4189 31.4135 64.6314 31.5289 64.8622 31.5289L85.4916 31.9366C86.3337 31.9544 87.0871 32.4329 87.4417 33.2041Z" fill="#4B4B4B"/>
<path fill-rule="evenodd" clip-rule="evenodd" d="M41.4636 113.167C41.5409 113.185 41.6182 113.203 41.6954 113.221C41.6099 113.892 41.4993 114.499 41.3563 115.087C41.2508 115.062 41.1451 115.038 41.0392 115.014C38.2243 114.368 34.8593 113.817 31.4085 113.512C31.2477 112.84 31.0952 112.174 30.9509 111.514C34.2597 111.781 37.8019 112.326 41.4636 113.167ZM47.7795 116.905C47.9948 116.326 48.1924 115.725 48.3728 115.095C51.1139 116.004 53.6897 117.044 56.0267 118.185C55.6387 118.696 55.2328 119.207 54.8093 119.717C52.6669 118.698 50.3028 117.747 47.7795 116.905ZM60.6775 123.057C64.2994 125.564 66.4846 128.213 66.5312 130.565C66.5174 130.726 66.4926 130.884 66.4566 131.039C65.2039 136.491 51.4877 138.19 36.5068 134.751C21.5257 131.31 9.9254 123.798 11.177 118.346C11.1993 118.249 11.2308 118.156 11.2624 118.063L11.2813 118.006C12.8643 115.223 16.9283 113.873 21.82 113.428C21.61 112.815 21.4073 112.205 21.2116 111.599C15.2174 112.3 11.0132 114.305 9.88274 117.42C9.2918 118.559 4.55762 128.501 2.71693 132.432C0.280234 137.635 0.179586 138.07 0.14655 138.213C-1.56691 145.674 11.9312 154.927 30.8746 159.278C37.0299 160.691 43.0799 161.416 48.4985 161.416C50.9294 161.416 53.2349 161.27 55.3638 160.975C62.4821 159.988 66.8687 157.415 67.7145 153.728C67.7943 153.383 67.8618 152.174 67.9352 147.399C67.9887 143.472 68.0554 131.332 68.0358 130.555C68.2105 127.757 66.1095 124.666 61.9984 121.7C61.5708 122.157 61.1307 122.609 60.6775 123.057ZM55.1572 159.482C61.518 158.601 65.56 156.38 66.2466 153.392C66.3108 153.064 66.372 151.039 66.4291 147.376C66.4885 142.978 66.513 137.335 66.5241 133.89C63.9816 136.596 58.4487 138.066 51.3356 138.066C46.7939 138.066 41.6138 137.469 36.1693 136.219C22.2093 133.013 11.6941 126.698 9.87013 120.893C8.44045 123.873 5.95391 129.072 4.08131 133.07C1.87707 137.778 1.63818 138.47 1.61221 138.561C0.142098 144.967 13.6955 153.786 31.2121 157.809C39.9553 159.816 48.458 160.412 55.1572 159.482Z" fill="#4B4B4B"/>
</svg>
