<svg width="211" height="158" viewBox="0 0 211 158" fill="none" xmlns="http://www.w3.org/2000/svg">
<path d="M26.5205 36.4328C23.5733 36.0238 23.1496 34.2864 25.8702 33.0815C40.7017 26.513 85.8214 9.67421 111.181 0.382358C111.881 0.125763 112.611 0.0366188 113.353 0.107174L190.648 7.45199C195.857 7.947 196.902 15.0985 192.052 17.0636L165.191 27.9478C162.438 29.0632 161.259 32.3179 162.658 34.9376L179.317 66.1246C180.519 68.3761 179.833 71.1719 177.725 72.6105L129.406 105.58C128.097 106.473 126.441 106.693 124.944 106.171L68.7466 86.6088C66.2944 85.7552 64.9037 83.1666 65.5455 80.6507L73.7233 48.5951C74.4606 45.7051 72.52 42.8166 69.5658 42.4066L26.5205 36.4328Z" fill="#D9F2ED"/>
<path d="M79.071 49.1169C79.4081 55.7586 80.1939 62.3367 81.0895 68.8991C82.03 75.4555 83.0832 81.9958 84.589 88.4718C84.6667 88.8066 85.0514 89.0116 85.4476 88.9297C85.8079 88.8554 86.0536 88.5697 86.0372 88.2669C85.6894 81.6271 84.8888 75.051 83.9753 68.4908C83.0173 61.9371 81.9496 55.3986 80.4328 48.9238C80.3589 48.6092 79.9974 48.4168 79.6245 48.4941C79.287 48.565 79.0561 48.8332 79.071 49.1169Z" fill="#4B4B4B"/>
<path d="M77.598 44.2529C77.3199 44.2529 77.0415 44.2418 76.7611 44.2194L1.63885 37.9609C0.785593 37.8881 0.134224 37.2676 0.0176631 36.4178C-0.0977549 35.5722 0.360489 34.8042 1.15737 34.5067L71.5924 7.67947C73.051 7.11952 74.5815 6.90658 76.136 7.03724L151.251 13.295C152.099 13.3582 152.754 13.9688 152.877 14.8137C153.002 15.6635 152.545 16.4406 151.739 16.7476L81.2994 43.5764C80.1021 44.0262 78.8615 44.2529 77.598 44.2529ZM1.76722 36.4338L44.3778 39.984L45.9303 40.1133L76.8842 42.6923C78.2086 42.7959 79.5117 42.6119 80.7573 42.1434L109.781 31.0891L111.237 30.5345L151.194 15.3161C151.357 15.2536 151.375 15.1291 151.362 15.035C151.343 14.9043 151.265 14.8323 151.131 14.8232L76.0077 8.56434C74.6817 8.45159 73.3812 8.63519 72.1398 9.11057L1.69789 35.9405C1.57066 35.9885 1.51848 36.078 1.53638 36.2098C1.54895 36.3039 1.59961 36.4193 1.76722 36.4338Z" fill="#4B4B4B"/>
<path fill-rule="evenodd" clip-rule="evenodd" d="M79.4244 92.2527C80.9404 92.8092 82.5152 93.0819 84.08 93.0819C86.9049 93.0819 89.6974 92.1917 92.0476 90.47L126.029 65.5713L126.587 65.1592C128.847 63.5014 129.455 60.4499 128.001 58.0627L111.237 30.5345L109.781 31.0891L126.692 58.8588C127.73 60.5619 127.294 62.7388 125.679 63.9246L91.1414 89.2324C87.904 91.607 83.7208 92.1986 79.9527 90.8143L39.7514 76.0683C37.8777 75.3784 36.861 73.4064 37.3875 71.4801L45.9303 40.1133L44.3778 39.984L35.9091 71.0779C35.1713 73.777 36.5967 76.5406 39.2231 77.5066L79.4244 92.2527Z" fill="#4B4B4B"/>
<path d="M74.7769 27.7297C73.1984 27.7297 71.7033 27.4494 70.4413 26.9047C68.5417 26.0845 67.3719 24.762 67.1487 23.1804C66.7007 20.0127 70.2051 16.986 75.1274 16.2893C77.4075 15.9651 79.6401 16.2115 81.4125 16.9757C83.3121 17.7958 84.4819 19.1183 84.7052 20.6999C84.9291 22.2807 84.1715 23.8756 82.5735 25.1894C81.0815 26.4156 79.0047 27.2681 76.7253 27.5903C76.0686 27.6836 75.4165 27.7297 74.7769 27.7297ZM77.0826 17.6819C76.5139 17.6819 75.9307 17.723 75.3418 17.8061C71.4062 18.3634 68.3489 20.7258 68.6651 22.9667C68.8114 23.9986 69.657 24.8972 71.0481 25.4976C72.5657 26.1524 74.5057 26.3561 76.5105 26.0739C78.5156 25.7901 80.3231 25.0565 81.6003 24.0066C82.7701 23.0448 83.3342 21.947 83.188 20.914C83.0417 19.8821 82.1961 18.9823 80.8049 18.3824C79.7334 17.9196 78.4501 17.6819 77.0826 17.6819Z" fill="#4B4B4B"/>
<path d="M43.1647 32.2464C48.9783 30.4252 56.7528 27.475 68.2485 24.0864C68.0733 23.7714 67.9594 23.4297 67.9072 23.0709C67.8805 22.9132 67.8722 22.7555 67.8722 22.5981C61.6122 24.4456 54.9233 26.6168 46.5095 29.5499C41.195 31.3973 35.2854 32.6669 30.5312 36.1074C23.4397 41.2292 26.5738 48.4084 29.0868 54.1781C30.8116 58.1267 30.4961 63.415 28.614 67.5997C27.7825 67.2672 26.8454 67.2322 25.8733 67.5121C24.2186 67.9849 22.7479 69.3158 22.0124 70.9792C21.1195 73.0107 21.1107 75.7068 21.855 77.712C21.137 78.3424 20.358 79.148 19.5874 80.146C18.9745 80.9517 18.4234 81.8095 17.9503 82.7024C17.0486 84.4096 16.1116 87.0189 15.0347 90.0305C12.9423 95.8703 10.3422 103.137 7.34779 104.888C6.18333 105.562 5.47444 105.886 5.04514 106.079C4.49358 106.333 3.97705 106.569 3.97705 107.322C3.97705 107.366 3.97705 107.427 3.98543 107.48C4.0818 108.566 4.82612 109.607 6.03439 110.352C7.58396 111.306 9.5453 111.595 11.1212 111.104C11.6464 113.346 13.2661 115.325 15.4636 114.939C16.6368 114.738 17.7575 114.02 18.5369 113.319C19.605 114.615 21.2863 115.447 23.0633 115.526H23.3437C24.7096 115.526 25.8562 115.053 26.5129 114.203C27.0207 113.547 26.7232 113.065 26.3815 112.505C26.1278 112.094 25.7073 111.402 25.0856 110.141C23.5886 106.613 25.0856 100.528 26.5392 94.6354C27.7212 89.8461 28.8331 85.3113 28.4476 81.9577C28.3687 81.3273 28.1939 80.4431 27.9398 79.5587C28.3162 79.2958 28.6841 78.972 29.043 78.6041C29.5507 78.0788 30.0322 77.4484 30.444 76.7829C31.8008 74.5854 32.0899 70.9869 30.2249 68.7806C30.1286 68.6667 30.0238 68.5616 29.9183 68.4568C32.0808 63.8515 32.4396 58.0204 30.4962 53.5641C25.593 42.3323 25.5317 37.7884 43.1647 32.2464ZM5.50872 107.34L4.74689 107.41L5.50872 107.305V107.34ZM26.9239 82.1333C27.2827 85.2153 26.1971 89.6191 25.0502 94.2769C23.5356 100.397 21.9769 106.736 23.6933 110.781C24.3584 112.147 24.814 112.873 25.0765 113.311C25.1027 113.355 25.129 113.399 25.1553 113.434C24.7352 113.828 23.9908 114.047 23.1326 113.994C21.9423 113.941 20.3397 113.381 19.4294 111.963C19.2016 111.595 18.9041 111.49 18.7026 111.473H18.615C18.3434 111.473 18.0897 111.595 17.8619 111.84C17.249 112.506 16.1809 113.259 15.2004 113.434C13.7122 113.705 12.8101 111.823 12.5652 110.501C12.4864 110.115 12.4075 109.677 11.9961 109.459C11.6023 109.249 11.2431 109.406 11.0328 109.503L10.893 109.564C9.711 110.019 8.08258 109.818 6.83927 109.047C6.13 108.618 5.6748 108.076 5.54338 107.542C5.58719 107.524 5.631 107.498 5.68356 107.48C6.13 107.27 6.88307 106.929 8.11762 106.211C11.5935 104.179 14.1849 96.9388 16.4788 90.5477C17.4947 87.711 18.4485 85.0321 19.3067 83.412C19.736 82.598 20.235 81.8186 20.7953 81.0831C21.4082 80.2862 22.0211 79.6299 22.5898 79.1046C22.6249 79.1572 22.6599 79.2097 22.7037 79.2619C23.3779 80.1285 24.2621 80.5841 25.2254 80.5841C25.4006 80.5841 25.593 80.5666 25.777 80.5315C26.0398 80.4877 26.3022 80.418 26.5647 80.3213C26.7403 80.9776 26.8626 81.6255 26.9239 82.1333ZM29.1389 75.9784C28.7889 76.5475 28.3687 77.0903 27.9394 77.5367C27.773 77.7028 27.6065 77.8605 27.4404 78.0007C27.0028 78.3858 26.5559 78.6662 26.1183 78.8414C25.9168 78.929 25.7156 78.9903 25.5141 79.025C24.8925 79.1301 24.3672 78.9023 23.9032 78.3161C23.8598 78.2548 23.816 78.1934 23.7718 78.1321C23.5002 77.7382 23.2903 77.248 23.1414 76.7052C22.695 75.1206 22.765 73.0804 23.4218 71.5921C23.9646 70.3576 25.094 69.3333 26.3023 68.9832C26.5559 68.9044 26.8538 68.8522 27.1601 68.8522C27.405 68.8522 27.6591 68.8872 27.9128 68.9657C28.3066 69.0971 28.6921 69.3424 29.0509 69.7714C29.086 69.8152 29.1298 69.8677 29.1557 69.9115C30.4348 71.5834 30.1632 74.3241 29.1389 75.9784Z" fill="#4B4B4B"/>
<path d="M74.9194 124.728C75.5906 124.857 76.2732 124.977 76.944 125.145C77.5908 125.376 78.2566 125.581 78.8973 125.843C79.5095 126.16 80.1426 126.453 80.7375 126.805C81.3093 127.191 81.9085 127.547 82.4604 127.964C84.6778 129.631 86.5069 131.772 87.9323 134.139C89.3402 136.516 90.3412 139.152 90.7465 141.898C90.8311 142.586 90.8757 143.28 90.9397 143.968C90.9492 144.661 90.9195 145.356 90.9046 146.046C90.8166 146.734 90.6921 147.418 90.5862 148.098C90.4075 148.767 90.1969 149.427 89.9904 150.079C89.9177 150.31 89.6716 150.437 89.4411 150.364C89.2297 150.297 89.1044 150.084 89.1421 149.871L89.152 149.816L89.4887 147.909C89.5215 147.264 89.5745 146.624 89.5935 145.986C89.5588 145.344 89.5543 144.703 89.507 144.067C89.4065 143.432 89.3284 142.796 89.2137 142.168C88.69 139.66 87.7487 137.234 86.4273 135.032C85.1242 132.82 83.4554 130.824 81.5078 129.157C81.0221 128.74 80.4911 128.381 79.9833 127.986C79.455 127.624 78.887 127.327 78.3412 126.986C77.7767 126.685 77.1843 126.437 76.6019 126.155L74.7644 125.539L74.7114 125.522C74.4958 125.45 74.38 125.216 74.452 125.001C74.5179 124.804 74.7202 124.69 74.9194 124.728Z" fill="#4B4B4B"/>
<path d="M82.4938 149.976C82.1091 149.976 81.7781 149.687 81.7335 149.296C81.6855 148.876 81.9876 148.497 82.4081 148.449C83.7478 148.297 84.5969 147.645 85.0049 146.458C86.1385 143.151 83.4839 136.223 79.645 132.471C78.5864 131.436 76.531 129.802 74.6793 130.488C74.063 130.715 73.7788 131.429 73.8364 132.609C74.0405 136.832 78.7372 144.775 81.4501 145.487C81.8851 145.599 82.1476 145.486 82.4009 145.083C83.0934 143.981 82.3651 140.664 80.8407 137.983C79.7566 136.077 78.5037 134.9 77.5625 134.9C77.5541 134.9 77.5446 134.9 77.5351 134.901C77.1545 134.91 77.1145 135.019 77.1008 135.055C76.6372 136.315 79.7947 140.9 80.5371 141.564C80.8517 141.846 80.8791 142.33 80.5969 142.646C80.3146 142.96 79.8301 142.988 79.5143 142.706C78.9399 142.191 74.7906 136.898 75.6625 134.526C75.8171 134.107 76.2601 133.399 77.4974 133.368C77.5194 133.368 77.5427 133.367 77.5648 133.367C79.6629 133.367 81.3488 135.777 82.1724 137.226C83.7787 140.051 84.8597 144.05 83.6975 145.898C83.0835 146.873 82.1464 147.255 81.0616 146.969C77.457 146.023 72.5294 137.297 72.3055 132.684C72.1893 130.285 73.2433 129.384 74.1487 129.05C76.1074 128.329 78.4409 129.153 80.7161 131.376C84.6338 135.204 87.9196 142.68 86.4539 146.954C85.852 148.709 84.5131 149.752 82.5807 149.971C82.5521 149.974 82.5228 149.976 82.4938 149.976Z" fill="#4B4B4B"/>
<path fill-rule="evenodd" clip-rule="evenodd" d="M194.945 77.9747C195.706 73.0369 191.233 68.2739 186.636 66.6718L186.531 66.6367C183.59 65.6471 180.333 66.0939 177.61 67.8625C173.885 70.2777 166.649 74.4879 156.052 80.3978C156.304 80.7207 156.581 81.1416 156.881 81.6888C167.464 75.7857 174.704 71.5749 178.441 69.1493C179.956 68.16 181.672 67.6523 183.362 67.6523C184.272 67.6523 185.174 67.8012 186.041 68.0899L186.11 68.1162C191.37 69.9347 196.413 76.3547 191.416 81.4678C185.892 84.8892 166.81 97.0999 158.917 102.183C158.917 102.17 158.915 102.159 158.913 102.148C158.911 102.137 158.909 102.126 158.909 102.113C158.438 99.0015 157.516 96.2613 156.388 93.8948C155.888 93.9334 155.317 93.9467 154.697 93.9359C155.991 96.4908 157.048 99.531 157.49 103.049L157.263 103.198C157.661 103.481 158.069 103.767 158.488 104.057C158.54 104.093 158.592 104.129 158.643 104.164C167.097 98.7133 176.562 92.6668 187.162 85.9592C188.212 86.0057 189.092 86.0382 189.815 86.0649C192.032 86.1466 192.78 86.1742 192.459 86.3885C186.706 89.3406 174.463 96.8379 164.852 102.723C163.301 103.673 161.818 104.581 160.443 105.421C160.688 105.628 160.895 105.842 161.088 106.097C161.106 106.123 161.124 106.15 161.132 106.167L161.124 106.184C160.966 106.482 160.467 106.788 159.749 107.033C159.276 107.191 158.795 107.226 158.243 107.252C157.963 107.27 157.683 107.287 157.394 107.322C157.362 107.325 157.333 107.328 157.306 107.33L157.305 107.33C156.949 107.546 156.606 107.754 156.277 107.952C156.251 108.03 156.233 108.108 156.221 108.18L156.203 108.285C156.127 108.618 156.216 108.983 156.293 109.301L156.3 109.327L156.314 109.383C156.335 109.467 156.354 109.543 156.361 109.608L156.366 109.655L156.37 109.69C156.572 109.565 156.764 109.447 156.948 109.336C159.511 107.793 162.723 105.826 166.2 103.697L166.204 103.695L166.206 103.694L166.208 103.693C175.88 97.7709 187.606 90.5916 193.159 87.7544C194.654 86.9678 194.144 84.7414 192.476 84.664L189.429 84.5326C191.25 83.3857 192.266 82.7465 192.31 82.7202C192.316 82.712 192.339 82.6901 192.376 82.6549C192.748 82.3004 194.533 80.5971 194.945 77.9747ZM92.0538 155.537C99.5729 149.346 136.869 120.902 152.217 110.568C152.632 110.939 153.049 111.278 153.463 111.58C138.87 121.364 101.739 149.559 93.0259 156.719C92.2991 157.323 91.3884 157.639 90.4692 157.639C89.4349 157.639 88.8212 157.323 86.9273 156.349C85.9127 155.827 84.5306 155.116 82.5195 154.163C77.5447 152.521 68.7802 140.591 68.0907 132.678C67.8366 129.841 69.3161 127.136 71.8728 125.787C80.6349 121.153 99.5447 111.125 119.289 100.483C119.218 100.582 119.142 100.676 119.068 100.767L119.029 100.817C118.959 100.896 118.889 100.975 118.845 101.045C118.473 101.647 118.178 102.309 117.998 102.922C98.9893 113.156 81.0546 122.67 72.5912 127.144C70.5861 128.204 69.422 130.314 69.6231 132.537C70.2497 139.83 78.4417 150.914 82.756 152.613C82.9445 152.688 83.1064 152.76 83.251 152.825C83.5538 152.96 83.7804 153.061 84.0153 153.086C84.7143 153.163 85.4864 152.574 88.5562 150.231C94.4964 145.697 109.04 134.596 148.306 109.047C148.411 108.116 148.454 107.222 148.444 106.365C149.21 107.385 150.013 108.351 150.832 109.217C104.778 139.109 92.3621 149.078 88.1172 152.486C86.8932 153.469 86.3485 153.906 85.8727 154.118C86.5177 154.361 87.139 154.704 87.7413 155.038C89.2746 155.886 90.6853 156.667 92.0538 155.537ZM145.469 96.3683C145.726 96.134 145.964 95.8775 146.178 95.5994C146.294 95.4509 146.402 95.2991 146.504 95.1441C146.18 94.6683 145.846 94.221 145.51 93.8018C145.464 93.8918 145.415 93.9804 145.364 94.0666C145.25 94.2769 145.119 94.4692 144.97 94.662C144.848 94.8179 144.717 94.9651 144.576 95.1032C144.88 95.4995 145.179 95.9211 145.469 96.3683ZM143.727 87.2095C144.428 86.8252 145.123 86.4429 145.814 86.0632C145.655 86.2252 145.499 86.3862 145.347 86.5458C145.382 86.5721 145.417 86.5983 145.452 86.6334C145.51 86.6975 145.572 86.7576 145.633 86.8165C145.664 86.846 145.694 86.8753 145.723 86.9046C145.92 87.1137 146.102 87.332 146.268 87.5579C145.816 87.8066 145.362 88.0562 144.905 88.3067C144.81 88.1863 144.709 88.069 144.602 87.9552L144.392 87.7449C144.379 87.7317 144.366 87.7208 144.353 87.7098C144.34 87.6989 144.326 87.6879 144.313 87.6748C144.127 87.5049 143.931 87.3495 143.727 87.2095ZM135.671 93.3603C135.622 93.234 135.579 93.1045 135.541 92.9718C135.436 92.5955 135.366 92.1925 135.357 91.7899L135.356 91.7812C134.871 92.0455 134.385 92.3103 133.897 92.5754C133.941 92.8732 134.004 93.1699 134.088 93.4625C134.152 93.6796 134.227 93.8917 134.314 94.0981C134.767 93.8519 135.219 93.6059 135.671 93.3603Z" fill="#4B4B4B"/>
<path fill-rule="evenodd" clip-rule="evenodd" d="M160.432 103.514C161.106 103.96 161.754 104.433 162.314 105.177C162.866 105.921 162.726 106.429 162.498 106.876L162.481 106.902C162.122 107.577 161.369 108.102 160.248 108.487C159.578 108.713 158.951 108.749 158.341 108.784L158.331 108.784C158.164 108.792 157.989 108.808 157.808 108.824L157.753 108.828C157.771 108.872 157.779 108.916 157.788 108.96L157.799 109.003C157.839 109.171 157.877 109.329 157.885 109.45C158.025 110.685 157.911 111.954 157.587 112.917C157.351 113.635 156.992 114.082 156.493 114.283C156.291 114.362 156.09 114.397 155.897 114.397C155.337 114.397 154.768 114.134 154.155 113.81C149.182 111.236 144.322 103.479 142.432 99.1892C142.393 99.1004 142.354 99.0116 142.316 98.9226C142.186 98.6259 142.056 98.3278 141.941 98.0247C141.547 98.086 141.144 98.1211 140.742 98.1211C139.411 98.1211 138.063 97.771 136.881 97.0442C136.837 97.018 136.802 96.9917 136.767 96.9654C136.487 97.2195 136.207 97.4644 135.918 97.7097C132.354 100.748 124.615 105.633 119.012 105.791C118.872 105.8 118.732 105.8 118.6 105.8C117.83 105.8 117.164 105.703 116.709 105.204C116.341 104.802 116.219 104.25 116.306 103.497C116.438 102.481 116.884 101.299 117.55 100.24C117.619 100.126 117.724 99.9861 117.847 99.8371C117.873 99.8108 117.908 99.7758 117.935 99.732C117.769 99.636 117.602 99.5396 117.427 99.452L117.381 99.426C116.87 99.1362 116.335 98.8334 115.842 98.3489C114.993 97.5169 114.546 96.7117 114.511 95.9586V95.9499L115.282 95.9236L116 95.8885C116 95.8841 116.002 95.8798 116.004 95.8754C116.006 95.871 116.008 95.8666 116.008 95.8622L115.282 95.9236H114.511C114.494 95.4242 114.59 94.9077 115.413 94.47C116.245 94.0407 117.033 93.9009 117.83 93.787L118.154 93.7432C118.443 93.7082 118.758 93.6643 119.099 93.6118C124.352 92.7886 128.319 91.756 131.269 90.8277C127.697 89.7596 124.221 88.1574 123.127 86.8528C121.971 85.4693 122.803 83.3594 123.205 82.3439C124.247 79.7087 126.173 77.1607 128.642 75.156C129.912 74.1317 131.785 72.7745 133.431 72.9672C133.922 73.0198 134.36 73.2125 134.718 73.5363C136.356 74.972 138.903 80.3216 140.295 84.7516C140.374 84.7429 140.462 84.7429 140.541 84.7429H140.567C141.854 84.7429 143.053 85.0491 144.095 85.6445C147.273 82.2563 151.913 78.5263 154.006 77.9309C154.47 77.7995 154.943 77.8258 155.416 77.9835C156.965 78.5263 158.077 80.5574 158.777 82.0372C160.126 84.9086 160.765 88.0431 160.555 90.8711C160.476 91.9567 160.31 94.2247 158.664 94.9686C157.902 95.3099 156.571 95.4764 154.978 95.4764C153.367 95.4764 151.476 95.3103 149.611 95.0124C151.861 97.1311 154.995 99.7754 159.364 102.796C159.555 102.933 159.737 103.054 159.912 103.169C159.993 103.224 160.074 103.277 160.152 103.33L160.432 103.514ZM154.432 79.4051C154.424 79.4069 154.416 79.4086 154.408 79.4104C152.509 79.9411 148.662 83.1583 145.814 86.0632C145.655 86.2252 145.499 86.3862 145.347 86.5458C145.382 86.5721 145.417 86.5983 145.452 86.6334C145.51 86.6975 145.572 86.7576 145.633 86.8165C145.664 86.846 145.694 86.8753 145.723 86.9046C145.92 87.1137 146.102 87.332 146.268 87.5579C147.422 89.129 147.822 91.0703 147.439 92.8846V92.8934L147.606 93.0598C149.952 93.589 152.603 93.8994 154.697 93.9359C155.317 93.9467 155.888 93.9334 156.388 93.8948C157.105 93.8393 157.675 93.7317 158.034 93.5676C158.436 93.3836 158.673 92.8758 158.813 92.3243C158.942 91.8072 158.989 91.2532 159.023 90.8544C159.026 90.8207 159.029 90.7882 159.032 90.7568C159.215 88.1917 158.629 85.3287 157.386 82.6848C157.211 82.3134 157.043 81.9829 156.881 81.6888C156.581 81.1416 156.304 80.7207 156.052 80.3978C155.577 79.7896 155.192 79.5292 154.908 79.4279C154.811 79.3929 154.715 79.3754 154.627 79.3754C154.564 79.3754 154.501 79.3895 154.432 79.4051ZM124.299 85.8719H124.308C125.333 87.0973 129.894 89.0061 133.921 89.9432C133.939 89.9344 133.958 89.9278 133.978 89.9213C133.998 89.9147 134.017 89.9081 134.035 89.8994C134.262 88.9973 134.674 88.1308 135.252 87.3602C136.163 86.161 137.371 85.3466 138.754 84.9791C137.476 81.0217 135.27 76.0576 133.711 74.6829C133.58 74.569 133.44 74.5076 133.256 74.4901C133.212 74.4813 133.16 74.4813 133.107 74.4813C132.529 74.4813 131.47 74.8314 129.605 76.3463C127.337 78.1846 125.569 80.5136 124.632 82.9038C124.335 83.6481 123.73 85.1889 124.299 85.8719ZM118.967 104.258C123.608 104.127 130.656 100.178 134.928 96.5357C135.035 96.4418 135.145 96.3481 135.254 96.2543C135.359 96.1643 135.464 96.0743 135.567 95.9841C135.033 95.4362 134.609 94.7995 134.314 94.0981C134.227 93.8917 134.152 93.6796 134.088 93.4625C134.004 93.1699 133.941 92.8732 133.897 92.5754C133.849 92.2497 133.825 91.9226 133.825 91.5979C130.7 92.6835 126.042 94.0666 119.335 95.1259C119.1 95.1612 118.877 95.1926 118.663 95.2226C118.558 95.2373 118.456 95.2517 118.355 95.2661L118.04 95.3099C117.225 95.4234 116.683 95.5377 116.114 95.8352C116.09 95.8445 116.072 95.8564 116.056 95.8667C116.042 95.8758 116.029 95.8837 116.017 95.8878H116.043C116.061 96.2291 116.376 96.7285 116.91 97.2537C117.278 97.6038 117.689 97.84 118.171 98.1116C118.416 98.243 118.661 98.3828 118.906 98.5317C119.002 98.593 119.064 98.6281 119.116 98.6544C119.747 98.9873 119.694 99.4775 119.598 99.8276L119.572 99.924C119.519 100.127 119.412 100.311 119.289 100.483C119.218 100.582 119.142 100.676 119.068 100.767L119.029 100.817C118.959 100.896 118.889 100.975 118.845 101.045C118.473 101.647 118.178 102.309 117.998 102.922C117.918 103.19 117.861 103.449 117.829 103.689C117.785 104.065 117.847 104.179 117.847 104.179C117.934 104.249 118.311 104.284 118.967 104.258ZM137.913 95.8702C138.973 96.4569 140.207 96.6671 141.381 96.5357C141.897 96.4919 142.405 96.3692 142.878 96.1765C143.52 95.9334 144.099 95.5702 144.576 95.1032C144.717 94.9651 144.848 94.8179 144.97 94.662C145.119 94.4692 145.25 94.2769 145.364 94.0666C145.415 93.9804 145.464 93.8918 145.51 93.8018C145.589 93.645 145.659 93.4837 145.715 93.3223C145.802 93.1033 145.872 92.8758 145.925 92.6393C146.003 92.2801 146.047 91.9037 146.047 91.5362C146.047 91.5011 146.047 91.4748 146.038 91.4398C146.023 90.3396 145.637 89.2325 144.905 88.3067C144.81 88.1863 144.709 88.069 144.602 87.9552L144.392 87.7449C144.379 87.7317 144.366 87.7208 144.353 87.7098C144.34 87.6989 144.326 87.6879 144.313 87.6748C144.127 87.5049 143.931 87.3495 143.727 87.2095C143.51 87.0608 143.283 86.9294 143.044 86.8166C142.343 86.4837 141.573 86.3001 140.741 86.2825C140.68 86.2738 140.618 86.2738 140.557 86.2738H140.54C140.076 86.2738 139.629 86.3351 139.2 86.449C138.123 86.7206 137.178 87.3506 136.477 88.2877C136.258 88.5768 136.066 88.8831 135.908 89.2072C135.742 89.5485 135.61 89.899 135.523 90.2666C135.453 90.5203 135.409 90.7743 135.383 91.0368C135.357 91.288 135.348 91.5302 135.356 91.7812L135.357 91.7899C135.366 92.1925 135.436 92.5955 135.541 92.9718C135.579 93.1045 135.622 93.234 135.671 93.3603C135.901 93.959 136.246 94.4849 136.687 94.9332C136.976 95.2398 137.309 95.511 137.686 95.7388C137.725 95.7607 137.762 95.7826 137.8 95.8045C137.837 95.8264 137.874 95.8483 137.913 95.8702ZM159.749 107.033C160.467 106.788 160.966 106.482 161.124 106.184L161.132 106.167C161.124 106.15 161.106 106.123 161.088 106.097C160.895 105.842 160.688 105.628 160.443 105.421C160.201 105.217 159.922 105.019 159.583 104.792L159.302 104.608C159.094 104.472 158.874 104.324 158.643 104.164C158.592 104.129 158.54 104.093 158.488 104.057C158.069 103.767 157.661 103.481 157.263 103.198C152.295 99.6588 149.035 96.6609 146.87 94.4963C146.764 94.7179 146.641 94.9339 146.504 95.1441C146.402 95.2991 146.294 95.4509 146.178 95.5994C145.964 95.8775 145.726 96.134 145.469 96.3683C144.876 96.9086 144.18 97.3313 143.429 97.6305C143.561 97.9459 143.692 98.2609 143.832 98.5763C144.926 101.051 146.572 103.87 148.444 106.365C149.21 107.385 150.013 108.351 150.832 109.217C151.29 109.701 151.753 110.154 152.217 110.568C152.632 110.939 153.049 111.278 153.463 111.58C153.931 111.921 154.396 112.215 154.855 112.453C155.441 112.759 155.791 112.9 155.914 112.864C155.914 112.864 156.019 112.786 156.133 112.436C156.38 111.703 156.47 110.68 156.37 109.69L156.366 109.655L156.361 109.608C156.354 109.543 156.335 109.467 156.314 109.383L156.3 109.327L156.293 109.301C156.216 108.983 156.127 108.618 156.203 108.285L156.221 108.18C156.233 108.108 156.251 108.03 156.277 107.952C156.606 107.754 156.949 107.546 157.305 107.33L157.306 107.33C157.333 107.328 157.362 107.325 157.394 107.322C157.683 107.287 157.963 107.27 158.243 107.252C158.795 107.226 159.276 107.191 159.749 107.033ZM157.305 107.33C157.301 107.33 157.297 107.331 157.294 107.331L157.305 107.33Z" fill="#4B4B4B"/>
</svg>
