<svg width="90" height="89" viewBox="0 0 90 89" fill="none" xmlns="http://www.w3.org/2000/svg">
<path d="M16.1061 31.6474C11.9277 31.6474 7.8875 31.6474 3.8473 31.6474C1.38332 31.6474 0.189863 30.4663 0.189863 28.0273C0.189863 22.4253 0.184547 16.8206 0.189863 11.2186C0.200495 4.89252 5.09658 0.00396369 11.4466 0.00396369C31.007 -0.00132123 50.5674 -0.00132123 70.1278 0.00396369C75.5528 0.00660615 79.7684 4.18962 79.7711 9.58024C79.7791 27.0496 79.7738 44.5189 79.7738 61.9855C79.7738 62.3766 79.7738 62.7677 79.7738 63.2354C80.1087 63.2592 80.3931 63.2936 80.6801 63.2936C82.5035 63.2988 84.327 63.283 86.1504 63.2988C87.9472 63.3147 89.3107 64.6386 89.3187 66.4064C89.3347 69.8337 89.3666 73.2636 89.3107 76.6908C89.2204 82.1872 84.5343 87.4694 78.9764 88.3996C78.2932 88.5132 77.5968 88.6004 76.9058 88.6004C60.2612 88.611 43.6193 88.648 26.9748 88.5819C22.714 88.5634 19.2771 86.7983 17.2358 82.8901C16.3985 81.2861 16.1035 79.5421 16.1035 77.7346C16.1114 62.8047 16.1088 47.8722 16.1088 32.9422C16.1061 32.5538 16.1061 32.1627 16.1061 31.6474ZM21.369 6.32737C22.9585 9.44548 22.4508 12.6772 22.4561 15.8402C22.488 36.24 22.4694 56.6398 22.4747 77.0396C22.4747 80.7232 25.0929 82.8451 28.6839 82.0973C30.8023 81.656 31.9984 80.0362 32.017 77.473C32.0436 73.9797 32.126 70.4837 31.9905 66.9957C31.9001 64.702 33.5879 63.246 35.7011 63.2592C47.8668 63.3358 60.0326 63.2962 72.1984 63.2962C72.5811 63.2962 72.9666 63.2962 73.4105 63.2962C73.4105 62.8391 73.4105 62.5167 73.4105 62.1917C73.4105 44.8571 73.4105 27.5226 73.4105 10.188C73.4105 7.47949 72.2595 6.33002 69.551 6.33002C53.9032 6.33002 38.2581 6.33002 22.6103 6.33002C22.2515 6.32737 21.8953 6.32737 21.369 6.32737ZM37.3517 82.2849C37.8062 82.2849 38.1597 82.2849 38.5132 82.2849C45.2062 82.2849 51.9017 82.2849 58.5946 82.2849C64.4928 82.2849 70.3909 82.2981 76.2891 82.2796C79.8801 82.2691 82.5115 80.1049 82.8677 76.5957C83.0963 74.3232 82.9102 72.011 82.9102 69.6751C68.0652 69.6751 53.2733 69.6751 38.4867 69.6751C37.9976 73.8687 39.1964 78.1495 37.3517 82.2849ZM16.0955 25.2818C16.0955 20.4064 16.1433 15.6368 16.0742 10.8698C16.0423 8.69502 14.5379 6.98271 12.547 6.51235C9.32815 5.75132 6.58241 7.91549 6.5638 11.2793C6.53722 15.7213 6.55583 20.1659 6.56115 24.6079C6.56115 24.8272 6.60367 25.0439 6.6276 25.2818C9.78533 25.2818 12.8846 25.2818 16.0955 25.2818Z" fill="#2394CB"/>
<path d="M47.9106 22.1523C43.7694 22.1523 39.6256 22.1549 35.4844 22.1523C33.3898 22.1496 32.005 20.8601 32.0236 18.9364C32.0422 17.0893 33.443 15.8262 35.4897 15.8262C43.8066 15.8236 52.1236 15.8236 60.4406 15.8262C62.466 15.8262 63.8535 17.121 63.8535 18.9919C63.8535 20.8601 62.4633 22.1496 60.4352 22.1523C56.2595 22.1549 52.0864 22.1496 47.9106 22.1523Z" fill="#2394CB"/>
<path d="M47.8387 37.9745C43.6975 37.9745 39.5537 37.9772 35.4125 37.9719C33.3924 37.9693 32.0155 36.6665 32.0235 34.7851C32.0314 32.9592 33.4136 31.6511 35.3646 31.6485C43.748 31.6432 52.1314 31.6432 60.5148 31.6485C62.4658 31.6485 63.848 32.9565 63.856 34.7851C63.8639 36.6665 62.4844 37.9693 60.4643 37.9719C56.254 37.9772 52.0464 37.9745 47.8387 37.9745Z" fill="#2394CB"/>
<path d="M47.8919 53.7974C43.7507 53.7974 39.6068 53.8001 35.4656 53.7974C33.4296 53.7948 32.0315 52.5159 32.0235 50.6608C32.0129 48.7794 33.3924 47.4714 35.4098 47.4714C43.8251 47.4688 52.2431 47.4661 60.6584 47.474C62.2452 47.4767 63.5928 48.5944 63.8321 50.0636C64.0952 51.6782 63.1649 53.2055 61.5914 53.6706C61.2192 53.7816 60.8099 53.7922 60.4165 53.7922C56.2408 53.8001 52.065 53.7974 47.8919 53.7974Z" fill="#2394CB"/>
</svg>
