<svg width="20" height="21" viewBox="0 0 20 21" fill="none" xmlns="http://www.w3.org/2000/svg">
<g clip-path="url(#clip0_274_31)">
<path d="M11.1354 20.2628H9.91088C9.87639 20.2478 9.84071 20.2358 9.80422 20.2268C9.26818 20.1429 8.72107 20.1025 8.19767 19.9695C6.65147 19.5845 5.23059 18.8063 4.07244 17.7101C2.68038 16.4001 1.76051 14.8124 1.31282 12.9471C1.06468 11.9158 0.99533 10.8495 1.1078 9.79479C1.20245 8.84302 1.44809 7.91249 1.83543 7.03828C1.90021 6.89383 1.87928 6.80913 1.76749 6.6999C1.21208 6.15652 0.670509 5.59968 0.114317 5.0555C-0.0298664 4.91461 -0.0330267 4.79746 0.0787648 4.64628C0.469047 4.11873 0.837999 3.57455 1.24764 3.06322C1.90159 2.25392 2.65297 1.52878 3.48465 0.904323C3.89429 0.593648 4.31775 0.300781 4.73529 0H4.8933C5.52534 0.633224 6.15737 1.26328 6.78507 1.89967C6.87039 1.98634 6.93715 2.00653 7.05526 1.95943C7.88733 1.62522 8.76415 1.4161 9.65728 1.33887C10.9261 1.23122 12.172 1.34085 13.3855 1.73741C15.7236 2.50123 17.5103 3.95369 18.7511 6.07895C19.4839 7.33273 19.8816 8.69614 19.9784 10.1415C20.1108 12.1209 19.6193 14.0919 18.5733 15.7764C17.8058 17.0171 16.7619 18.0629 15.5234 18.8317C14.3454 19.5666 13.0719 20.0269 11.6916 20.1868C11.5056 20.207 11.3211 20.2366 11.1354 20.2628ZM15.5554 15.609C15.5576 15.5764 15.5576 15.5438 15.5554 15.5112C15.173 13.8003 14.7945 12.0882 14.4015 10.3797C14.3537 10.172 14.3529 9.94438 14.1759 9.76708C13.3527 8.9522 12.5374 8.12901 11.7193 7.30899C10.5111 6.09742 9.30255 4.88611 8.09378 3.67507C7.67268 3.25121 7.2587 2.82022 6.85459 2.40625C6.09674 2.73604 5.38806 3.16929 4.74872 3.69367C3.76292 4.50781 2.95447 5.51606 2.37345 6.65597C2.31973 6.75966 2.34106 6.81428 2.41611 6.88829C4.86262 9.33464 7.30821 11.781 9.75287 14.2274C9.82311 14.2939 9.90986 14.3404 10.0041 14.3619C11.55 14.7207 13.0967 15.0749 14.6444 15.4245C14.9411 15.4938 15.2409 15.5456 15.5554 15.609Z" fill="white"/>
<path d="M14.0821 10.2617C14.2456 10.9638 14.4092 11.6556 14.5628 12.3498C14.5727 12.3957 14.5186 12.4839 14.4712 12.5105C13.5796 13.0048 12.8978 13.7029 12.4092 14.6298L10.2188 14.1347C11.053 12.3704 12.3345 11.0924 14.0821 10.2617Z" fill="white"/>
</g>
<defs>
<clipPath id="clip0_274_31">
<rect width="20" height="20.2632" fill="white"/>
</clipPath>
</defs>
</svg>
