<svg width="20" height="17" viewBox="0 0 20 17" fill="none" xmlns="http://www.w3.org/2000/svg">
<g clip-path="url(#clip0_269_21)">
<path d="M8.2539 9.3876H8.08523C5.95081 9.3876 3.81717 9.3876 1.68432 9.3876C0.885867 9.3876 0.291224 8.95904 0.0714048 8.2188C0.0249151 8.05083 0.00217929 7.87721 0.00385795 7.70297C-0.00199868 6.55403 0.000343686 5.40432 0.00112457 4.25617C0.00112457 3.24632 0.703921 2.53919 1.72219 2.53452C2.91226 2.52958 4.10259 2.52958 5.29318 2.53452C5.43373 2.53452 5.4884 2.50413 5.51807 2.35102C5.75234 1.16351 6.83191 0.177431 8.03642 0.0367854C8.22906 0.0129061 8.4229 -0.000101353 8.61701 -0.00217469C9.59311 -0.0060707 10.5692 -0.00217469 11.5453 -0.00217469C12.9419 -0.00217469 14.1925 0.998321 14.4799 2.35998C14.5099 2.50257 14.558 2.53491 14.6923 2.53452C15.8695 2.53023 17.047 2.51932 18.2242 2.54075C18.5262 2.54626 18.8239 2.61252 19.0996 2.73555C19.6942 3.00827 19.9851 3.51748 19.9918 4.16344C20.0046 5.3712 20.0019 6.57897 19.9918 7.78673C19.9851 8.68281 19.296 9.37786 18.3804 9.3841C16.1814 9.39539 13.9829 9.38721 11.7839 9.38682C11.7646 9.38466 11.7454 9.38128 11.7265 9.37669C11.6703 8.82502 11.4376 8.35789 10.9632 8.03802C10.6676 7.83483 10.3141 7.73247 9.95544 7.74621C9.05391 7.77738 8.51471 8.2901 8.2539 9.3876ZM12.9583 2.53062C12.7678 1.90726 12.1755 1.48454 11.4907 1.48182C10.4958 1.47792 9.49941 1.47052 8.50573 1.48844C8.26059 1.49612 8.01938 1.55199 7.79591 1.65285C7.42108 1.82155 7.16378 2.12037 7.02908 2.53062H12.9583Z" fill="white"/>
<path d="M0.394531 10.332C0.643633 10.3979 0.875556 10.4758 1.11334 10.5171C1.33068 10.5523 1.55066 10.5688 1.77084 10.5666C3.89797 10.5697 6.02522 10.5697 8.15261 10.5666C8.29825 10.5666 8.35603 10.6118 8.41616 10.745C8.71641 11.4112 9.24234 11.7884 9.97442 11.8C10.6991 11.8113 11.2238 11.4494 11.5577 10.807C11.578 10.768 11.5905 10.7236 11.6088 10.6823C11.624 10.6476 11.6424 10.6137 11.6639 10.5701H11.8938C13.7352 10.5701 15.5763 10.5701 17.4174 10.5701C17.7879 10.5701 18.1593 10.5899 18.5286 10.5561C18.8839 10.5233 19.2337 10.4325 19.6 10.3648V10.5225C19.6 11.9052 19.6027 13.2887 19.6 14.6706C19.6 15.1771 19.4438 15.6224 19.0483 15.9664C18.7617 16.2252 18.3884 16.3675 18.0019 16.3654C12.6674 16.3654 7.33282 16.3654 1.99808 16.3654C1.17034 16.3654 0.477695 15.707 0.430842 14.9628C0.419519 14.7824 0.397655 14.6021 0.397265 14.4213C0.394141 13.1299 0.394141 11.8381 0.397265 10.5459L0.394531 10.332Z" fill="white"/>
<path d="M10.9733 9.85477C11.001 10.1411 10.9518 10.4501 10.7035 10.7037C10.5693 10.8446 10.3961 10.9424 10.206 10.9847C10.0159 11.027 9.81752 11.0119 9.63604 10.9414C9.45489 10.8693 9.29962 10.7447 9.19038 10.5835C9.08114 10.4223 9.02298 10.2321 9.02344 10.0375C9.02695 9.79321 9.01758 9.54192 9.06912 9.30621C9.16517 8.86596 9.64815 8.56208 10.1077 8.61545C10.5793 8.67038 10.9624 9.07752 10.9729 9.53685C10.9753 9.62607 10.9733 9.71685 10.9733 9.85477Z" fill="white"/>
</g>
<defs>
<clipPath id="clip0_269_21">
<rect width="20" height="16.3636" fill="white"/>
</clipPath>
</defs>
</svg>
