<svg width="17" height="17" viewBox="0 0 17 17" fill="none" xmlns="http://www.w3.org/2000/svg">
<path d="M17.0013 8.50005C17.0013 3.8056 13.1957 0 8.50125 0C6.29483 0 4.28476 0.840675 2.77388 2.21918C1.07018 3.77366 0.207031 6.01202 0.207031 8.50005C0.207031 13.1945 3.8068 16.8665 8.50125 16.8665C10.9879 16.8665 13.2253 15.9323 14.7796 14.2301C16.1596 12.719 17.0013 10.7078 17.0013 8.50005Z" fill="#4267B2"/>
<path d="M9.04843 16.4513C4.35398 16.4513 0.548386 12.6457 0.548386 7.9512C0.548386 5.74348 1.39271 3.7299 2.77268 2.21875C1.07051 3.7731 0 6.01286 0 8.49959C0 12.7273 3.08648 16.2341 7.12908 16.8897H9.87108C11.8026 16.5765 13.5158 15.6124 14.7784 14.2297C13.2672 15.6096 11.2562 16.4513 9.04843 16.4513Z" fill="#3B5999"/>
<path d="M10.6933 5.48261H11.7901C11.9415 5.48261 12.0642 5.35982 12.0642 5.20841V3.56326C12.0642 3.41182 11.9415 3.28906 11.7901 3.28906H10.1449C8.47912 3.28906 7.12874 4.63944 7.12874 6.30522V8.49876H5.48358L5.0625 10.1693L7.33414 10.4613L7.38102 16.5407L9.52287 16.721L9.8707 16.411V10.6923H11.3018C11.4276 10.6923 11.5373 10.6067 11.5678 10.4846L11.9791 8.83943C12.0224 8.66637 11.8915 8.49876 11.7131 8.49876H9.87067V6.30522C9.87067 5.8509 10.239 5.48261 10.6933 5.48261Z" fill="white"/>
<path d="M9.04649 16.4517C8.74895 16.4517 8.45544 16.4351 8.1662 16.4042C7.88709 16.3743 7.67552 16.1379 7.67552 15.8571V10.6936C7.67552 10.3907 7.42999 10.1452 7.12714 10.1452H5.75617C5.60473 10.1452 5.48198 10.0224 5.48198 9.871V8.5H5.20779C5.05635 8.5 4.93359 8.62275 4.93359 8.77419V10.4194C4.93359 10.5708 5.05635 10.6935 5.20779 10.6935H7.12714V16.89C7.57359 16.9625 8.0312 17 8.4981 17C8.96501 17 9.42262 16.9623 9.86907 16.8899V16.4122C9.59839 16.4382 9.324 16.4517 9.04649 16.4517Z" fill="#E3F5FF"/>
</svg>
