<svg width="32" height="32" viewBox="0 0 32 32" fill="none" xmlns="http://www.w3.org/2000/svg">
<g clip-path="url(#clip0_0_3046)">
<path d="M21.0716 14.1055L20.7497 16.8927C20.7364 17.0199 20.6768 17.1378 20.5823 17.2239C20.4877 17.31 20.3649 17.3585 20.237 17.36H17.3279L17.3134 25.6236C17.3144 25.7216 17.2768 25.8159 17.2087 25.8864C17.1407 25.9568 17.0476 25.9976 16.9497 26H14.0025C13.9535 26 13.905 25.9902 13.8599 25.971C13.8148 25.9518 13.774 25.9237 13.7401 25.8884C13.7061 25.8531 13.6796 25.8113 13.6622 25.7654C13.6448 25.7196 13.6369 25.6708 13.6388 25.6218V17.36H11.457C11.3885 17.3593 11.3208 17.3451 11.2577 17.3182C11.1947 17.2913 11.1376 17.2523 11.0896 17.2033C11.0417 17.1544 11.0038 17.0964 10.9783 17.0328C10.9527 16.9693 10.9399 16.9013 10.9406 16.8327L10.9297 14.0455C10.9288 13.9767 10.9414 13.9084 10.9668 13.8445C10.9922 13.7806 11.03 13.7223 11.078 13.673C11.1259 13.6237 11.1831 13.5844 11.2463 13.5572C11.3094 13.53 11.3773 13.5155 11.4461 13.5145H13.6388V10.8236C13.6388 7.7 15.4934 6 18.2134 6H20.4425C20.5114 6.00071 20.5795 6.01502 20.6429 6.04211C20.7062 6.0692 20.7637 6.10854 20.8118 6.15786C20.8599 6.20719 20.8979 6.26553 20.9234 6.32955C20.949 6.39356 20.9616 6.46199 20.9606 6.53091V8.87636C20.9616 8.94528 20.949 9.01371 20.9234 9.07773C20.8979 9.14174 20.8599 9.20009 20.8118 9.24941C20.7637 9.29874 20.7062 9.33807 20.6429 9.36516C20.5795 9.39225 20.5114 9.40656 20.4425 9.40727H19.0752C17.597 9.40727 17.3097 10.1345 17.3097 11.1855V13.5145H20.5588C20.6327 13.5155 20.7056 13.532 20.7726 13.5631C20.8396 13.5942 20.8993 13.6392 20.9478 13.695C20.9962 13.7508 21.0323 13.8162 21.0536 13.887C21.0749 13.9577 21.0811 14.0322 21.0716 14.1055Z" fill="white"/>
</g>
<defs>
<clipPath id="clip0_0_3046">
<rect width="32" height="32" fill="white"/>
</clipPath>
</defs>
</svg>
