<svg width="20" height="20" viewBox="0 0 20 20" fill="none" xmlns="http://www.w3.org/2000/svg">
<path d="M18.3308 14.1696C18.3304 15.3092 17.9409 16.4146 17.2266 17.3026C16.5124 18.1907 15.5163 18.8082 14.4033 19.0529L13.8716 17.4579C14.3585 17.3777 14.8215 17.1905 15.2273 16.9098C15.6331 16.6291 15.9715 16.2619 16.2183 15.8346H14.1641C13.7221 15.8346 13.2982 15.659 12.9856 15.3464C12.673 15.0339 12.4974 14.61 12.4974 14.1679V10.8346C12.4974 10.3926 12.673 9.96868 12.9856 9.65612C13.2982 9.34356 13.7221 9.16797 14.1641 9.16797H16.6124C16.4091 7.55705 15.6249 6.07569 14.407 5.00186C13.189 3.92803 11.6211 3.33553 9.9974 3.33553C8.37369 3.33553 6.80579 3.92803 5.58788 5.00186C4.36996 6.07569 3.58576 7.55705 3.3824 9.16797H5.83073C6.27276 9.16797 6.69668 9.34356 7.00924 9.65612C7.3218 9.96868 7.4974 10.3926 7.4974 10.8346V14.1679C7.4974 14.61 7.3218 15.0339 7.00924 15.3464C6.69668 15.659 6.27276 15.8346 5.83073 15.8346H3.33073C2.8887 15.8346 2.46478 15.659 2.15222 15.3464C1.83966 15.0339 1.66406 14.61 1.66406 14.1679V10.0013C1.66406 5.3988 5.3949 1.66797 9.9974 1.66797C14.5999 1.66797 18.3308 5.3988 18.3308 10.0013V14.1696Z" fill="white"/>
</svg>
