<svg width="135" height="34" viewBox="0 0 135 34" fill="none" xmlns="http://www.w3.org/2000/svg">
<rect width="135" height="29" rx="3" fill="white"/>
<path d="M92.1097 15.6877V12.2439H97.5549V15.5795C97.5549 16.9411 97.8702 17.9691 98.5007 18.6634C99.1313 19.3577 100.005 19.7049 101.122 19.7049C102.239 19.7049 103.113 19.3713 103.743 18.704C104.374 18.0367 104.689 17.0403 104.689 15.7147V4.79919H107.418L110.148 8.83753V15.5524C110.148 17.0944 109.936 18.4425 109.513 19.5967C109.089 20.7509 108.477 21.6887 107.675 22.4101C106.873 23.1315 105.919 23.6725 104.811 24.0332C103.712 24.3849 102.464 24.5608 101.068 24.5608C98.2305 24.5608 96.0281 23.8258 94.4607 22.356C92.8934 20.8772 92.1097 18.6544 92.1097 15.6877Z" fill="#323232"/>
<path d="M72.9479 4.79919H82.1089C84.9283 4.79919 87.0316 5.49353 88.4188 6.8822C89.5628 8.02741 90.1348 9.56036 90.1348 11.4811C90.1348 12.9148 89.7835 14.1322 89.0809 15.1331C88.3783 16.134 87.4009 16.9005 86.1489 17.4325L90.7699 24.1955H84.568L80.6631 18.3252H78.3121V24.1955H72.9479V14.1186H81.8521C82.7619 14.1186 83.469 13.9112 83.9735 13.4964C84.4779 13.0726 84.7301 12.491 84.7301 11.7516C84.7301 11.0031 84.4734 10.435 83.96 10.0473C83.4555 9.65054 82.7439 9.45215 81.8251 9.45215L74.2083 9.371L72.9479 7.52172V4.79919Z" fill="#323232"/>
<path d="M33.8796 4.79919H43.8107C46.1708 4.79919 47.9318 5.38081 49.0938 6.54405C49.9315 7.38267 50.3504 8.44672 50.3504 9.7362C50.3504 11.7471 49.3505 13.1853 47.3508 14.051C48.6029 14.4658 49.5577 15.0519 50.2153 15.8094C50.8729 16.5578 51.2016 17.5723 51.2016 18.8528C51.2016 20.521 50.5531 21.8285 49.256 22.7753C47.9678 23.7221 46.1708 24.1955 43.8648 24.1955H33.8796V19.8807H43.2568C44.0765 19.8807 44.7115 19.7229 45.1619 19.4073C45.6123 19.0917 45.8375 18.6363 45.8375 18.0412C45.8375 17.5002 45.6168 17.0763 45.1754 16.7697C44.734 16.4541 44.0765 16.2963 43.2027 16.2963H33.8796V12.5361H42.4866C44.1801 12.5361 45.0268 11.9545 45.0268 10.7912C45.0268 10.2592 44.8196 9.84892 44.4053 9.56036C43.9909 9.27181 43.3874 9.12753 42.5947 9.12753H35.0179L33.8796 7.45246V4.79919Z" fill="#323232"/>
<path d="M53.8683 4.79919H69.4473V9.371H53.8683V4.79919Z" fill="#323232"/>
<path d="M53.8683 12.3062H69.4695V16.5533H53.8683V12.3062Z" fill="#323232"/>
<path d="M53.8683 19.6237H69.4695V24.1955H55.2184L53.8683 22.2034V19.6237Z" fill="#323232"/>
<path fill-rule="evenodd" clip-rule="evenodd" d="M24.9349 4.79919V20.2922L27.5727 24.1955H30.3396V4.79919H24.9349Z" fill="#323232"/>
<path d="M129.403 15.831C130.061 16.5795 130.39 17.5939 130.39 18.8744C130.39 20.2948 129.919 21.4538 128.979 22.3512C128.815 22.5077 128.637 22.6563 128.444 22.797C127.235 23.6853 125.579 24.1569 123.474 24.2118C123.336 24.2154 123.195 24.2172 123.053 24.2172H114.367L113.068 22.3224V19.9024H122.445C122.522 19.9024 122.598 19.901 122.672 19.8982C123.383 19.8712 123.942 19.7148 124.35 19.429C124.8 19.1134 125.026 18.3945 125.026 18.0628C125.026 17.7312 124.744 17.057 123.534 16.7454C122.323 16.4338 117.169 15.4024 115.515 14.392C113.862 13.3816 113.937 13.1773 113.443 12.5577C112.837 11.7977 112.534 10.864 112.534 9.75646C112.534 8.90433 112.717 8.15066 113.082 7.49548C113.27 7.15949 113.505 6.8494 113.789 6.56521C114.949 5.40229 116.707 4.82083 119.063 4.82083H128.979V9.14796H120.278C120.236 9.14796 120.195 9.14837 120.154 9.14917C119.423 9.1636 118.862 9.30744 118.47 9.58068C118.056 9.86915 117.849 10.2793 117.849 10.8112C117.849 11.9741 119.402 11.9821 120.563 12.2721C121.723 12.5621 125.263 13.0274 126.716 13.7891C128.169 14.5509 128.357 14.8488 128.979 15.4024C129.132 15.5386 129.273 15.6815 129.403 15.831Z" fill="#323232"/>
<path d="M92.1097 9.36992V4.69531H97.5549V9.36992H92.1097Z" fill="#323232"/>
<path d="M9.97743 12.6714L16.6522 4.79919H23.0162L15.6794 13.1448L29.5181 33.3532H23.0843L11.9501 16.9997L9.97743 19.1774V24.1955H4.61328V19.0243L9.97743 12.6714Z" fill="#323232"/>
<path d="M4.61328 4.69531H9.97743V5.60459L4.61328 11.973V4.69531Z" fill="#00A583"/>
</svg>
