<svg width="17" height="17" viewBox="0 0 17 17" fill="none" xmlns="http://www.w3.org/2000/svg">
<path d="M3.76756 10.2722L3.17581 12.4813L1.01299 12.527C0.366629 11.3282 0 9.95653 0 8.49891C0 7.08941 0.342789 5.76022 0.950406 4.58984H0.950871L2.87639 4.94286L3.71988 6.85682C3.54334 7.3715 3.44711 7.924 3.44711 8.49891C3.44718 9.12287 3.5602 9.72069 3.76756 10.2722Z" fill="#F9BA01"/>
<path d="M16.8521 6.91406C16.9497 7.42825 17.0006 7.95926 17.0006 8.50197C17.0006 9.11052 16.9366 9.70412 16.8148 10.2767C16.401 12.2252 15.3198 13.9266 13.822 15.1306L13.8216 15.1301L11.3963 15.0064L11.053 12.8636C12.0469 12.2808 12.8235 11.3686 13.2327 10.2767H8.6875V6.91406H13.299H16.8521Z" fill="#347CF3"/>
<path d="M13.8196 15.1282L13.8201 15.1287C12.3634 16.2995 10.513 17.0001 8.49872 17.0001C5.26172 17.0001 2.44739 15.1908 1.01172 12.5283L3.76628 10.2734C4.4841 12.1892 6.33215 13.5529 8.49872 13.5529C9.42997 13.5529 10.3024 13.3012 11.051 12.8617L13.8196 15.1282Z" fill="#33A752"/>
<path d="M13.9243 1.95686L11.1707 4.21122C10.3959 3.72692 9.48003 3.44715 8.49881 3.44715C6.2832 3.44715 4.40058 4.87345 3.71872 6.85791L0.949684 4.59093H0.949219C2.36387 1.86346 5.21369 0 8.49881 0C10.5612 0 12.4522 0.734652 13.9243 1.95686Z" fill="#E94032"/>
</svg>
