<svg width="20" height="20" viewBox="0 0 20 20" fill="none" xmlns="http://www.w3.org/2000/svg">
    <path d="M0.0897954 19.144L0.00518837 19.1232C0.00359201 18.937 0.00186242 18.7518 0 18.5677C0.00292666 18.3974 0.00545433 18.227 0.00758282 18.0565C0.265395 18.0565 0.523607 18.0469 0.78102 18.0521C0.894761 18.0545 0.930679 18.015 0.927885 17.904C0.919903 17.5935 0.920302 17.2826 0.917509 16.9717C0.92988 16.874 1.00491 16.8919 1.06757 16.8919C1.24476 16.8891 1.42196 16.8875 1.59916 16.8851C1.64515 16.8847 1.69114 16.8871 1.73684 16.8923C1.91843 16.9219 1.98308 16.85 1.96472 16.6672C1.94796 16.504 1.95754 16.338 1.95515 16.1732C1.9755 15.822 1.9755 15.822 2.33867 15.814C2.35823 15.814 2.37858 15.8104 2.39694 15.8084H3.19712L3.9953 15.8112H5.59166C6.40141 15.8762 7.21276 15.8323 8.02331 15.8391C8.27583 15.8557 8.5292 15.8548 8.78159 15.8363L9.69949 15.8447L10.3779 15.8487H11.1761L11.9743 15.8519H13.5707C13.6686 15.8663 13.7671 15.8758 13.866 15.8802C15.1769 15.8848 16.4879 15.8877 17.799 15.889C18.1482 15.9066 18.1482 15.9066 18.1638 16.174C18.1614 16.3651 18.1702 16.5575 18.1538 16.7479C18.1391 16.9199 18.2129 16.9574 18.3602 16.9262C18.5996 16.9626 18.847 16.8819 19.0837 16.9709C19.0801 17.3162 19.0789 17.661 19.0721 18.0058C19.0721 18.1008 19.1061 18.1331 19.2002 18.1311C19.4521 18.1247 19.7043 18.1259 19.9565 18.1239C20.0363 18.2656 19.9653 18.422 19.9992 18.5681C19.9905 18.6806 19.9893 18.7935 19.9956 18.9061C20.0176 19.0913 19.9469 19.136 19.7658 19.136C13.9505 19.1312 8.13559 19.1302 2.32111 19.1328C1.5776 19.1324 0.8337 19.14 0.0897954 19.144Z" fill="white"/>
    <path d="M7.98579 0.934709C8.25847 0.8265 8.52494 0.703258 8.78397 0.56555C9.02821 0.456599 9.27764 0.358024 9.50592 0.215549C9.52061 0.217232 9.53548 0.214802 9.54887 0.20853C9.56226 0.202259 9.57364 0.192392 9.58175 0.18003C9.63198 0.16628 9.68077 0.147702 9.72742 0.124556C9.93934 -0.00474915 10.1528 -0.0602232 10.3783 0.0910321L10.6349 0.210759C10.8046 0.320908 10.9941 0.393542 11.1753 0.476952L11.9735 0.8509L12.3004 1.00854L12.7729 1.23842L13.4892 1.57046L15.2053 2.39498L16.7618 3.12532C17.2846 3.3975 17.8186 3.64413 18.3581 3.88359L18.9967 4.20645C18.9967 4.37686 18.9919 4.54807 18.9967 4.71848C18.9991 4.81147 18.9648 4.84659 18.8714 4.845C18.7006 4.8418 18.5297 4.84779 18.3593 4.85018H3.19711C2.55657 4.84779 1.91603 4.84021 1.27549 4.84779C1.11346 4.84779 1.06876 4.7999 1.08513 4.64545C1.10029 4.50178 1.09031 4.35531 1.09191 4.21004L1.59875 3.95582C2.15309 3.70759 2.70583 3.45616 3.2438 3.1744C3.5033 3.07321 3.75558 2.95441 3.99888 2.81881C4.1543 2.77058 4.3021 2.70057 4.43788 2.61089C4.56679 2.57816 4.67973 2.50992 4.79387 2.44566L5.59205 2.07451C5.77683 1.9919 5.96679 1.92046 6.1376 1.80952L6.38903 1.68979C6.66535 1.57979 6.9347 1.45304 7.19559 1.31025C7.4107 1.22365 7.6274 1.13904 7.82376 1.01293C7.88486 1.00527 7.94178 0.97779 7.98579 0.934709Z" fill="white"/>
    <path d="M9.06734 13.7794C9.06973 14.2623 9.06734 14.7452 9.07771 15.2277C9.08171 15.3874 9.02863 15.4273 8.87458 15.4273C8.28592 15.4153 7.69726 15.4161 7.10899 15.4121C7.10906 15.4007 7.10731 15.3894 7.10381 15.3786C7.11658 15.112 7.15688 14.847 7.13972 14.5804C7.14238 14.3143 7.14504 14.0483 7.1477 13.7822C7.18078 13.5175 7.19159 13.2505 7.18003 12.984C7.18322 12.718 7.18615 12.4527 7.18881 12.1883C7.25865 11.7636 7.22034 11.3362 7.22513 10.9112L7.22712 10.7116C7.2411 10.6899 7.25097 10.6658 7.25626 10.6406C7.26983 10.0659 7.281 9.4916 7.29297 8.91691C7.29617 8.67746 7.29949 8.438 7.30295 8.19855C7.35962 7.93395 7.33288 7.66616 7.33807 7.40037C7.34206 7.26827 7.36202 7.13417 7.34565 7.00407C7.32051 6.80453 7.39514 6.72471 7.5911 6.74586C8.01373 6.76701 8.43597 6.76063 8.85821 6.74586C8.9508 6.76382 8.93803 6.83605 8.93803 6.9015C8.94083 7.06753 8.94442 7.23315 8.94761 7.39917C8.94761 7.74758 8.91967 8.09678 8.97714 8.44319C8.98007 8.62757 8.98273 8.81168 8.98512 8.99553L8.98752 9.79371C8.9947 10.0603 8.95998 10.3285 9.01665 10.5919L9.02503 11.3901L9.03182 12.1863C9.01861 12.4526 9.02796 12.7196 9.05976 12.9844C9.06268 13.2484 9.06521 13.5134 9.06734 13.7794Z" fill="white"/>
    <path d="M16.6377 15.4333C16.0698 15.4121 15.5019 15.4165 14.934 15.4333L14.7943 15.4189C14.7967 15.1379 14.7988 14.8571 14.8007 14.5764L14.8086 13.7782C14.8633 13.5136 14.8461 13.2458 14.8418 12.98C14.845 12.7427 14.8483 12.5054 14.8517 12.2681C14.9088 11.9755 14.8817 11.6798 14.8841 11.3849L14.8924 10.7942C14.9033 10.7844 14.9108 10.7714 14.9137 10.757C14.9167 10.7426 14.915 10.7277 14.9088 10.7144C14.9088 10.6845 14.9088 10.6545 14.9108 10.625C14.9318 10.3467 14.9362 10.0674 14.924 9.78852C14.9282 9.62144 14.9325 9.45408 14.9367 9.28647C14.948 9.27459 14.9554 9.25952 14.9578 9.24331C14.9602 9.2271 14.9576 9.21054 14.9503 9.19587V9.02786C14.9838 8.75049 14.9667 8.47232 14.9687 8.19416C14.9818 7.92876 15.017 7.66377 15.0014 7.39598C15.005 7.22317 15.011 7.05076 15.0102 6.87716C15.0102 6.78377 15.0465 6.74825 15.1403 6.74865C15.5851 6.75105 16.0301 6.75105 16.4752 6.74865C16.5698 6.74865 16.6037 6.78377 16.6029 6.87716C16.6029 7.04997 16.6077 7.22237 16.6109 7.39598L16.6145 7.71764C16.6169 7.82114 16.619 7.92451 16.6209 8.02774V8.15704C16.6185 8.4364 16.6113 8.71577 16.6492 8.99154C16.6257 9.78972 16.6832 10.5879 16.6891 11.3861C16.6784 11.9189 16.6844 12.4509 16.7239 12.9824L16.7263 13.1022C16.7281 13.3009 16.7303 13.5005 16.7326 13.7008C16.7326 13.7275 16.7326 13.7547 16.7326 13.7806C16.7267 14.1031 16.7043 14.4263 16.761 14.7468C16.7644 14.9567 16.7679 15.1667 16.7714 15.3766C16.7714 15.3901 16.767 15.4037 16.765 15.4165L16.6377 15.4333Z" fill="white"/>
    <path d="M3.27892 15.4105C3.27967 15.3989 3.27776 15.3873 3.27333 15.3766C3.32721 15.1283 3.30367 14.8757 3.31324 14.6255C3.32921 14.0775 3.33879 13.5292 3.35315 12.9812L3.36154 12.4253C3.41182 12.0797 3.39386 11.7325 3.39426 11.3853C3.39705 11.2408 3.40025 11.0959 3.40304 10.9511C3.45692 10.5652 3.43377 10.1768 3.43537 9.78932C3.43776 9.62968 3.44003 9.47138 3.44215 9.3144C3.45694 9.29154 3.46635 9.26561 3.46967 9.23858C3.47299 9.21155 3.47013 9.18412 3.46131 9.15836V8.99393C3.49244 8.72774 3.48206 8.46075 3.47608 8.19575L3.48086 8.11594C3.52077 8.05607 3.50601 7.98783 3.50721 7.92278C3.51359 7.58435 3.52077 7.24432 3.52077 6.90749C3.52077 6.80333 3.54232 6.75025 3.66245 6.75185C4.09373 6.75743 4.52515 6.75743 4.9567 6.75185C5.08321 6.75185 5.11633 6.80931 5.11434 6.92186C5.11434 7.08149 5.11913 7.24113 5.12192 7.40077C5.10821 7.61475 5.11168 7.82948 5.1323 8.0429C5.09838 8.36217 5.16303 8.67785 5.15784 8.99593L5.16263 9.79411C5.16622 10.2331 5.14108 10.6749 5.19296 11.1135C5.19536 11.2061 5.19735 11.2983 5.19974 11.3905C5.20134 11.6565 5.2028 11.9226 5.20413 12.1887L5.20853 12.2685C5.20853 12.3986 5.20853 12.5283 5.21172 12.6584L5.21411 12.7494C5.20581 12.7691 5.20314 12.7907 5.20638 12.8118C5.20962 12.833 5.21865 12.8528 5.23247 12.8691V12.9413C5.22848 12.9461 5.2209 12.9521 5.2217 12.9557C5.22499 12.9663 5.22941 12.9764 5.23486 12.986C5.23699 13.2521 5.23886 13.5182 5.24045 13.7842L5.24764 14.4263L5.25003 15.4241L5.23766 15.4313L3.27892 15.4105Z" fill="white"/>
    <path d="M12.9369 15.3758C12.9122 15.4301 12.8571 15.4157 12.8136 15.4321C12.2844 15.4277 11.7548 15.4133 11.2256 15.4245C11.0213 15.4289 10.9279 15.3806 10.9638 15.1667C10.9642 15.1338 10.9595 15.1011 10.9498 15.0697C10.9834 14.9715 10.9718 14.8701 10.9602 14.772C10.9626 14.7472 10.9654 14.7221 10.9678 14.6969L10.9706 14.5772C10.973 14.3112 10.9756 14.0451 10.9786 13.779C11.014 13.5145 11.0247 13.2473 11.0105 12.9809C11.0145 12.7148 11.0186 12.4487 11.0229 12.1827C11.0771 11.9177 11.0512 11.6495 11.0536 11.3845L11.0843 10.3904C11.0873 10.1895 11.0903 9.98887 11.0935 9.78853C11.1049 9.49586 11.1167 9.20319 11.1286 8.91053L11.1358 8.19216C11.1472 7.9261 11.1587 7.66004 11.1701 7.39398L11.1797 6.76023L12.5274 6.73907L12.7721 6.75823C12.775 6.97108 12.7775 7.18393 12.7797 7.39678C12.7654 7.54428 12.7684 7.69294 12.7884 7.83977C12.7509 8.22529 12.8236 8.60762 12.8176 8.99234C12.8176 9.2584 12.8176 9.52446 12.8176 9.79052C12.8252 10.0567 12.7892 10.3253 12.8499 10.5887L12.8547 11.3869C12.8589 11.7708 12.8631 12.1546 12.8671 12.5383L12.8707 12.6301C12.8642 12.6434 12.8624 12.6585 12.8655 12.6729C12.8686 12.6874 12.8765 12.7004 12.8878 12.7099C12.8878 12.8017 12.8878 12.8933 12.8878 12.9848L12.895 13.783C12.8966 13.9568 12.8983 14.1304 12.9002 14.3038C12.8802 14.6614 12.9325 15.0186 12.9369 15.3758Z" fill="white"/>
    <path d="M2.83394 5.39853C2.8946 5.34106 2.97043 5.35503 3.04226 5.35503C7.08265 5.35503 11.1232 5.35503 15.1638 5.35503C15.8279 5.35503 16.492 5.34785 17.1561 5.34386L17.2327 5.37419C17.2215 5.44882 17.2072 5.52345 17.2435 5.59568C17.2435 5.66393 17.2435 5.73177 17.2463 5.80002C17.2438 5.81321 17.2422 5.82654 17.2415 5.83993C17.2359 5.98998 17.2854 6.18235 17.2111 6.27892C17.1214 6.39506 16.915 6.29609 16.7626 6.32682H3.19711C2.84192 6.30846 2.84232 6.30846 2.83793 5.9381C2.83793 5.89221 2.83354 5.84671 2.83154 5.80081L2.83394 5.39853Z" fill="white"/>
</svg>
