<svg width="33" height="32" viewBox="0 0 33 32" fill="none" xmlns="http://www.w3.org/2000/svg">
<g clip-path="url(#clip0_0_3051)">
<path d="M20.6681 5.99609H12.3319C10.7029 5.99802 9.1412 6.62637 7.98934 7.74333C6.83747 8.86029 6.18948 10.3747 6.1875 11.9543V20.0379C6.18948 21.6175 6.83747 23.1319 7.98934 24.2489C9.1412 25.3658 10.7029 25.9942 12.3319 25.9961H20.6681C22.2971 25.9942 23.8588 25.3658 25.0107 24.2489C26.1625 23.1319 26.8105 21.6175 26.8125 20.0379V11.9543C26.8105 10.3747 26.1625 8.86029 25.0107 7.74333C23.8588 6.62637 22.2971 5.99802 20.6681 5.99609ZM24.7369 20.0379C24.7371 20.5561 24.632 21.0693 24.4277 21.5481C24.2233 22.0268 23.9236 22.4619 23.5457 22.8283C23.1678 23.1947 22.7192 23.4853 22.2255 23.6835C21.7317 23.8817 21.2025 23.9836 20.6681 23.9834H12.3319C11.7975 23.9836 11.2683 23.8817 10.7745 23.6835C10.2808 23.4853 9.83215 23.1947 9.45428 22.8283C9.07642 22.4619 8.77673 22.0268 8.57234 21.5481C8.36795 21.0693 8.26288 20.5561 8.26312 20.0379V11.9543C8.26312 10.9079 8.6918 9.90433 9.45483 9.16442C10.2179 8.4245 11.2528 8.00882 12.3319 8.00882H20.6681C21.7472 8.00882 22.7821 8.4245 23.5452 9.16442C24.3082 9.90433 24.7369 10.9079 24.7369 11.9543V20.0379Z" fill="white"/>
<path d="M16.4984 10.8242C15.4434 10.8242 14.4121 11.1276 13.5348 11.696C12.6576 12.2644 11.9739 13.0722 11.5701 14.0174C11.1664 14.9626 11.0607 16.0027 11.2666 17.0061C11.4724 18.0095 11.9804 18.9312 12.7265 19.6546C13.4725 20.378 14.423 20.8707 15.4578 21.0703C16.4925 21.2699 17.5651 21.1674 18.5398 20.7759C19.5145 20.3844 20.3477 19.7214 20.9338 18.8708C21.52 18.0201 21.8328 17.02 21.8328 15.9969C21.8308 14.6256 21.2682 13.3111 20.2682 12.3414C19.2683 11.3717 17.9126 10.8261 16.4984 10.8242ZM16.4984 19.1588C15.8535 19.1588 15.2231 18.9733 14.6869 18.6259C14.1507 18.2785 13.7328 17.7847 13.486 17.2069C13.2392 16.6292 13.1747 15.9934 13.3005 15.3801C13.4263 14.7668 13.7368 14.2034 14.1928 13.7612C14.6488 13.319 15.2298 13.0179 15.8623 12.8959C16.4948 12.7739 17.1504 12.8365 17.7462 13.0758C18.342 13.3151 18.8513 13.7204 19.2095 14.2403C19.5678 14.7603 19.7591 15.3716 19.7591 15.9969C19.7586 16.8354 19.4149 17.6393 18.8035 18.2322C18.1921 18.825 17.3631 19.1583 16.4984 19.1588Z" fill="white"/>
<path d="M21.865 12.1032C22.593 12.1032 23.1831 11.531 23.1831 10.8251C23.1831 10.1191 22.593 9.54688 21.865 9.54688C21.137 9.54688 20.5469 10.1191 20.5469 10.8251C20.5469 11.531 21.137 12.1032 21.865 12.1032Z" fill="white"/>
</g>
<defs>
<clipPath id="clip0_0_3051">
<rect width="33" height="32" fill="white"/>
</clipPath>
</defs>
</svg>
