<svg width="48" height="48" viewBox="0 0 48 48" fill="none" xmlns="http://www.w3.org/2000/svg">
<g id="Google + (Google Plus)">
<g id="Google + (Google Plus)_2">
<rect id="Rectangle" width="48" height="48" rx="24" fill="#F4F5F9"/>
<path id="Vector" d="M10.0085 24.0179C9.73864 16.7999 15.9612 10.1296 23.0724 10.0431C26.6968 9.72897 30.2229 11.159 32.9658 13.4914C31.8407 14.7483 30.6959 15.9908 29.473 17.1539C27.0583 15.6634 24.1511 14.5274 21.329 15.5363C16.7772 16.8531 14.0206 22.3137 15.7051 26.838C17.1 31.5633 22.7567 34.1565 27.19 32.1715C29.4855 31.3363 30.999 29.1843 31.6632 26.8719C29.0323 26.8186 26.4008 26.8519 23.7699 26.7781C23.7633 25.1877 23.7568 23.6033 23.7633 22.0129C28.1507 22.0063 32.5447 21.9929 36.9386 22.0329C37.2085 25.9296 36.6426 30.0999 34.1493 33.2275C30.7352 37.6919 24.4275 39.0021 19.2961 37.2507C13.8503 35.4334 9.88993 29.8591 10.0085 24.0179Z" fill="#002539"/>
</g>
</g>
</svg>
