<svg width="48" height="48" viewBox="0 0 48 48" fill="none" xmlns="http://www.w3.org/2000/svg">
<g id="GitHub">
<g id="GitHub_2">
<rect id="Rectangle" width="48" height="48" rx="24" fill="#F4F5F9"/>
<path id="Exclude" fill-rule="evenodd" clip-rule="evenodd" d="M31.4234 46.8278C29.0858 47.5881 26.5911 47.9991 24.0009 47.9991C21.409 47.9991 18.9127 47.5875 16.5737 46.8263C17.6542 46.9557 18.0534 46.2523 18.0534 45.6449C18.0534 45.3805 18.0489 44.9141 18.0429 44.2902C18.0359 43.5683 18.0269 42.6355 18.0204 41.5606C11.3439 43.012 9.93541 38.3409 9.93541 38.3409C8.84491 35.5671 7.27141 34.8285 7.27141 34.8285C5.09191 33.3379 7.43641 33.3681 7.43641 33.3681C9.84391 33.5378 11.1114 35.8433 11.1114 35.8433C13.2534 39.5134 16.7289 38.4538 18.0969 37.8382C18.3144 36.2862 18.9354 35.2277 19.6209 34.6274C14.2914 34.0211 8.68891 31.9616 8.68891 22.7588C8.68891 20.1363 9.62341 17.9931 11.1594 16.3133C10.9119 15.7056 10.0884 13.2648 11.3934 9.95796C11.3934 9.95796 13.4094 9.31245 17.9934 12.4197C19.9089 11.8867 21.9609 11.6213 24.0024 11.6104C26.0409 11.6209 28.0944 11.8867 30.0114 12.4197C34.5924 9.31245 36.6039 9.95796 36.6039 9.95796C37.9134 13.2648 37.0899 15.7056 36.8424 16.3133C38.3814 17.9931 39.3099 20.1363 39.3099 22.7588C39.3099 31.984 33.6984 34.0151 28.3524 34.6095C29.2134 35.351 29.9814 36.8159 29.9814 39.0571C29.9814 41.204 29.968 43.073 29.9591 44.3115C29.9547 44.9252 29.9514 45.3841 29.9514 45.6453C29.9514 46.2555 30.341 46.9604 31.4234 46.8278Z" fill="#002539"/>
</g>
</g>
</svg>
