<svg width="48" height="48" viewBox="0 0 48 48" fill="none" xmlns="http://www.w3.org/2000/svg">
<g id="Vkontakte (VK)">
<g id="Vkontakte (VK)_2">
<rect id="Rectangle" width="48" height="48" rx="24" fill="#F4F5F9"/>
<path id="Vector" fill-rule="evenodd" clip-rule="evenodd" d="M39.2658 16.5329C39.4884 15.7912 39.2658 15.2461 38.2071 15.2461H34.7062C33.816 15.2461 33.4059 15.717 33.1834 16.2363C33.1834 16.2363 31.403 20.5756 28.8809 23.3942C28.0649 24.2102 27.6941 24.4695 27.249 24.4695C27.0264 24.4695 26.7044 24.2102 26.7044 23.4685V16.5329C26.7044 15.6427 26.4461 15.2461 25.7041 15.2461H20.2028C19.6467 15.2461 19.3121 15.6592 19.3121 16.0508C19.3121 16.8947 20.5729 17.0893 20.703 19.4628V24.6183C20.703 25.7485 20.4989 25.9536 20.0538 25.9536C18.867 25.9536 15.9804 21.5946 14.268 16.6072C13.9324 15.6377 13.5958 15.2461 12.7011 15.2461H9.20028C8.20005 15.2461 8 15.717 8 16.2363C8 17.1635 9.18703 21.7626 13.5263 27.845C16.4195 31.9985 20.4949 34.2505 24.2038 34.2505C26.4293 34.2505 26.7044 33.7504 26.7044 32.889V29.7495C26.7044 28.7492 26.9152 28.5497 27.6196 28.5497C28.1392 28.5497 29.0292 28.8093 31.1064 30.812C33.4799 33.1853 33.871 34.2505 35.2064 34.2505H38.7072C39.7074 34.2505 40.2075 33.7504 39.919 32.7634C39.6034 31.7797 38.4701 30.3529 36.9663 28.661C36.1503 27.6965 34.9263 26.658 34.5557 26.1389C34.0363 25.4712 34.1846 25.1747 34.5557 24.5815C34.5557 24.5815 38.8207 18.5731 39.2658 16.5331V16.5329Z" fill="#002539"/>
</g>
</g>
</svg>
