<svg width="180" height="42" viewBox="0 0 180 42" fill="none" xmlns="http://www.w3.org/2000/svg">
<path d="M124.799 16.2851V11.3937H132.532V16.1314C132.532 18.0654 132.979 19.5255 133.875 20.5118C134.77 21.498 136.011 21.9911 137.597 21.9911C139.183 21.9911 140.424 21.5172 141.319 20.5694C142.215 19.6216 142.663 18.2063 142.663 16.3235V0.819423H146.538L150.414 6.55537V16.093C150.414 18.2832 150.114 20.198 149.512 21.8374C148.911 23.4768 148.041 24.8089 146.903 25.8335C145.764 26.8581 144.409 27.6266 142.835 28.1389C141.275 28.6385 139.503 28.8882 137.52 28.8882C133.491 28.8882 130.364 27.8444 128.138 25.7566C125.912 23.6561 124.799 20.499 124.799 16.2851Z" fill="white"/>
<path d="M97.5888 0.819423H110.598C114.601 0.819423 117.588 1.80564 119.558 3.77808C121.183 5.4047 121.995 7.58206 121.995 10.3102C121.995 12.3466 121.496 14.0757 120.498 15.4974C119.501 16.9191 118.113 18.0078 116.335 18.7635L122.897 28.3695H114.09L108.545 20.0315H105.206V28.3695H97.5888V14.0565H110.233C111.525 14.0565 112.529 13.7619 113.246 13.1728C113.962 12.5708 114.32 11.7447 114.32 10.6944C114.32 9.63134 113.955 8.82444 113.226 8.27369C112.51 7.71014 111.5 7.42836 110.195 7.42836L99.3786 7.31309L97.5888 4.68642V0.819423Z" fill="white"/>
<path d="M42.1102 0.819423H56.2128C59.5642 0.819423 62.0649 1.64554 63.715 3.29778C64.9046 4.48892 65.4994 6.00027 65.4994 7.83182C65.4994 10.688 64.0795 12.7309 61.2398 13.9605C63.0178 14.5496 64.3737 15.3821 65.3075 16.458C66.2413 17.5211 66.7082 18.962 66.7082 20.7807C66.7082 23.1502 65.7872 25.0074 63.9452 26.3522C62.1161 27.6971 59.5642 28.3695 56.2895 28.3695H42.1102V22.2408H55.4261C56.5901 22.2408 57.4919 22.0167 58.1315 21.5684C58.7711 21.1201 59.0909 20.4733 59.0909 19.628C59.0909 18.8595 58.7775 18.2575 58.1507 17.8221C57.5239 17.3738 56.5901 17.1497 55.3494 17.1497H42.1102V11.8087H54.3325C56.7372 11.8087 57.9396 10.9826 57.9396 9.33035C57.9396 8.57468 57.6454 7.99192 57.057 7.58206C56.4686 7.1722 55.6116 6.96727 54.4859 6.96727H43.7265L42.1102 4.58806V0.819423Z" fill="white"/>
<path d="M70.495 0.819423H92.6178V7.31309H70.495V0.819423Z" fill="white"/>
<path d="M70.495 11.4821H92.6493V17.5147H70.495V11.4821Z" fill="white"/>
<path d="M70.495 21.8758H92.6493V28.3695H72.4121L70.495 25.5399V21.8758Z" fill="white"/>
<path fill-rule="evenodd" clip-rule="evenodd" d="M29.4083 0.819423V22.8253L33.1542 28.3695H37.0832V0.819423H29.4083Z" fill="white"/>
<path d="M177.758 16.4888C178.692 17.5518 179.158 18.9927 179.158 20.8115C179.158 22.829 178.491 24.4751 177.155 25.7498C176.922 25.9722 176.669 26.1832 176.396 26.383C174.679 27.6448 172.327 28.3147 169.338 28.3925C169.141 28.3977 168.942 28.4002 168.74 28.4002H156.406L154.561 25.7089V22.2716H167.876C167.986 22.2716 168.094 22.2696 168.199 22.2656C169.208 22.2273 170.003 22.0052 170.582 21.5992C171.221 21.1509 171.541 20.1298 171.541 19.6587C171.541 19.1877 171.142 18.2301 169.423 17.7875C167.703 17.3448 160.385 15.8799 158.036 14.4448C155.688 13.0096 155.795 12.7195 155.093 11.8394C154.233 10.7599 153.803 9.43365 153.803 7.8606C153.803 6.65024 154.062 5.57976 154.581 4.64915C154.847 4.17193 155.182 3.73148 155.584 3.32782C157.232 1.67605 159.729 0.850163 163.075 0.850163H177.155V6.9963H164.799C164.74 6.9963 164.681 6.99687 164.623 6.99801C163.585 7.01851 162.788 7.22281 162.232 7.61091C161.644 8.02066 161.351 8.60326 161.351 9.35872C161.351 11.0105 163.555 11.0218 165.204 11.4337C166.852 11.8456 171.878 12.5065 173.941 13.5885C176.005 14.6705 176.272 15.0936 177.155 15.8799C177.373 16.0734 177.573 16.2763 177.758 16.4888Z" fill="white"/>
<path d="M124.799 7.31155V0.671875H132.532V7.31155H124.799Z" fill="white"/>
<path d="M8.16809 12.0008L17.6466 0.819423H26.6837L16.2651 12.6732L35.9166 41.3768H26.7804L10.9694 18.1487L8.16809 21.2418V28.3695H0.550781V21.0243L8.16809 12.0008Z" fill="white"/>
<path d="M0.550781 0.671875H8.16809V1.96339L0.550781 11.0089V0.671875Z" fill="#00A583"/>
</svg>
