<svg width="39" height="25" viewBox="0 0 39 25" fill="none" xmlns="http://www.w3.org/2000/svg">
<path d="M24.9612 2.60938H14.5586V21.7734H24.9612V2.60938Z" fill="#F75C00"/>
<path d="M15.2192 12.189C15.2192 8.29527 17.0025 4.84173 19.7436 2.60709C17.7291 0.981893 15.1862 0 12.4122 0C5.84035 0 0.523438 5.45118 0.523438 12.189C0.523438 18.9268 5.84035 24.3779 12.4122 24.3779C15.1862 24.3779 17.7291 23.396 19.7436 21.7709C17.0025 19.5701 15.2192 16.0827 15.2192 12.189Z" fill="#E4001A"/>
<path d="M38.9975 12.189C38.9975 18.9268 33.6806 24.3779 27.1087 24.3779C24.3347 24.3779 21.7918 23.396 19.7773 21.7709C22.5514 19.5362 24.3017 16.0827 24.3017 12.189C24.3017 8.29527 22.5184 4.84173 19.7773 2.60709C21.7918 0.981893 24.3347 0 27.1087 0C33.6806 0 38.9975 5.48503 38.9975 12.189Z" fill="#EF991A"/>
</svg>
