<svg width="16" height="16" viewBox="0 0 16 16" fill="none" xmlns="http://www.w3.org/2000/svg">
<path d="M0.870313 0H15.0891C15.7984 0.205938 15.9931 0.46875 15.9928 1.21875C15.9928 2.04146 15.9928 2.86437 15.9928 3.6875C15.9928 7.45229 15.9928 11.2171 15.9928 14.9819C15.9962 15.2119 15.9202 15.4362 15.7778 15.6169C15.6084 15.8356 15.3781 15.9359 15.1216 15.9994H0.871563C0.859554 15.9902 0.846296 15.9827 0.832187 15.9772C0.304688 15.8625 -0.00031226 15.4834 2.3991e-07 14.9513C2.3991e-07 12.9358 2.3991e-07 10.9205 2.3991e-07 8.90531C2.3991e-07 6.27031 2.3991e-07 3.6349 2.3991e-07 0.999063C0.00126026 0.780271 0.0731634 0.56774 0.205 0.393125C0.372812 0.160625 0.612501 0.0696875 0.870313 0ZM13.9859 13.9938V2.01156H2.00281V13.9938H13.9859Z" fill="white"/>
<path d="M11.9925 4.01281V5.9872H4.00562V4.01281H11.9925Z" fill="white"/>
<path d="M11.9869 8.99189H4.005V7.01188H11.9869V8.99189Z" fill="white"/>
<path d="M4.00844 10.0044H11.9831V11.99H4.00844V10.0044Z" fill="white"/>
</svg>
