<svg width="82" height="25" viewBox="0 0 82 25" fill="none" xmlns="http://www.w3.org/2000/svg">
<path fill-rule="evenodd" clip-rule="evenodd" d="M13.0283 2.71044C13.673 2.70653 15.5889 2.53116 16.4005 5.31467C16.9471 7.18967 17.8179 10.261 19.0129 14.5287H19.4995C20.781 10.0294 21.6613 6.95806 22.1405 5.31467C22.9605 2.50217 25.0105 2.7105 25.8305 2.7105L32.157 2.71051V22.7105H25.7088V10.9242H25.2764L21.6819 22.7105H16.8305L13.236 10.9154H12.8036V22.7105H6.35547V2.71051L13.0283 2.71044ZM41.4164 2.71051V14.5056H41.9308L46.3032 4.80658C47.1519 2.87645 48.9609 2.71051 48.9609 2.71051H55.2008V22.7105H48.618V10.9154H48.1036L43.8169 20.6144C42.9681 22.5358 41.0734 22.7105 41.0734 22.7105H34.8336V2.71051H41.4164ZM77.9539 12.2146C77.0356 14.859 74.152 16.7528 70.9595 16.7528H64.0561V22.7105H57.7962V12.2146H77.9539Z" fill="#38A279"/>
<path fill-rule="evenodd" clip-rule="evenodd" d="M71.2622 2.71094H57.4688C57.797 7.16362 61.5702 10.9754 65.4762 10.9754H78.3896C79.1348 7.2747 76.5695 2.71094 71.2622 2.71094Z" fill="url(#paint0_linear_0_3075)"/>
<defs>
<linearGradient id="paint0_linear_0_3075" x1="78.5162" y1="7.90964" x2="57.4688" y2="7.90964" gradientUnits="userSpaceOnUse">
<stop stop-color="#1F5CD7"/>
<stop offset="1" stop-color="#02AEFF"/>
</linearGradient>
</defs>
</svg>
