<svg width="32" height="16" viewBox="0 0 32 16" fill="none" xmlns="http://www.w3.org/2000/svg">
<g clip-path="url(#clip0_0_103)">
<path d="M32 7.9196C32 7.97824 31.9989 8.03689 31.9989 8.09441C31.9227 8.15643 31.8084 8.19703 31.8793 8.34139C31.8592 8.31884 31.8391 8.29628 31.8189 8.27485C30.2402 9.8188 28.5821 11.2567 26.7821 12.5007C25.3431 13.3217 23.919 14.1631 22.3699 14.7484C17.2367 16.6882 12.238 16.3758 7.36523 13.7931C6.59546 13.3849 5.84581 12.9338 5.08768 12.5029C4.23215 11.8488 3.37661 11.1936 2.52108 10.5395L2.5179 10.5327C1.74601 9.79399 0.975181 9.05416 0.201176 8.31884C0.0116449 8.13839 -0.106943 8.00193 0.149294 7.74141C3.4825 4.34562 7.20217 1.64117 11.7657 0.509996C16.3452 -0.624564 20.6959 0.19196 24.8635 2.40131C26.2378 3.12986 27.5275 4.00954 28.7748 4.94335C29.7193 5.65048 30.5282 6.56061 31.3996 7.37826C31.5945 7.56209 31.7988 7.73915 32 7.9196ZM12.5556 11.6086C14.3726 13.6071 17.4961 13.615 19.2676 11.6255C19.2961 11.6233 19.312 11.6075 19.3152 11.577C19.3438 11.5556 19.3756 11.5376 19.3999 11.5116C20.7213 10.0523 21.0887 7.82486 20.3169 5.96852C19.4793 3.95541 17.7587 2.83663 15.622 2.91445C13.786 2.98099 12.0813 4.32758 11.41 6.24144C10.762 8.08877 11.2194 10.2609 12.5366 11.5883L12.5556 11.6086Z" fill="#FDFEFE"/>
<path d="M12.5348 11.5898L12.5539 11.6101C12.773 11.6169 12.953 11.7026 13.1288 11.8503C14.7033 13.1755 16.7161 13.2059 18.3584 12.1571C18.6549 11.9676 18.8751 11.6326 19.2658 11.627C19.2944 11.6247 19.3103 11.609 19.3134 11.5785C19.342 11.5571 19.3738 11.539 19.3982 11.5131C20.7196 10.0537 21.087 7.82634 20.3151 5.96999C19.4776 3.95688 17.757 2.83811 15.6202 2.91593C13.7842 2.98247 12.0795 4.32905 11.4082 6.24292C10.7602 8.08912 11.2176 10.2624 12.5348 11.5898ZM15.9347 5.32602C17.2741 5.33279 18.4367 6.57449 18.4346 7.99551C18.4325 9.46164 17.2657 10.7022 15.903 10.6842C14.5487 10.6673 13.4147 9.45713 13.402 8.01806C13.3903 6.57223 14.5699 5.31813 15.9347 5.32602Z" fill="#141D2B"/>
<path d="M12.5537 11.6094C12.7729 11.6161 12.9529 11.7018 13.1286 11.8496C14.7031 13.1747 16.716 13.2052 18.3582 12.1563C18.6547 11.9669 18.8749 11.6319 19.2656 11.6263C17.4953 13.6157 14.3717 13.6078 12.5537 11.6094Z" fill="#3D83A2"/>
<path d="M18.4375 7.99474C18.4354 9.46087 17.2685 10.7014 15.9058 10.6834C14.5516 10.6665 13.4176 9.45636 13.4049 8.0173C13.3922 6.57146 14.5717 5.31736 15.9365 5.32412C17.277 5.33202 18.4396 6.57372 18.4375 7.99474Z" fill="#FDFEFE"/>
</g>
<defs>
<clipPath id="clip0_0_103">
<rect width="32" height="16" fill="white" transform="translate(32 16) rotate(-180)"/>
</clipPath>
</defs>
</svg>
