<svg width="20" height="15" viewBox="0 0 20 15" fill="none" xmlns="http://www.w3.org/2000/svg">
<g clip-path="url(#clip0_247_32)">
<path d="M4.77067 7.17967L2.36457 6.04123C1.71945 5.73574 1.074 5.43042 0.42824 5.12525C0.333474 5.08436 0.242234 5.03581 0.155437 4.9801C-0.0544118 4.83448 -0.0510721 4.6509 0.161161 4.50575C0.227665 4.46266 0.297517 4.4249 0.370055 4.39285L9.27431 0.171126C9.4988 0.05861 9.74667 0 9.99805 0C10.2494 0 10.4973 0.05861 10.7218 0.171126C13.6972 1.58121 16.6721 2.99225 19.6466 4.40424C19.7129 4.43265 19.7767 4.46661 19.8373 4.50575C20.0591 4.65754 20.0577 4.84539 19.8321 4.99623C19.7512 5.04639 19.6667 5.09063 19.5793 5.12857C16.6478 6.52 13.7159 7.91143 10.7838 9.30287C10.2592 9.5519 9.75076 9.55712 9.22757 9.30287C8.14065 8.78108 7.04944 8.26736 5.95966 7.75031C5.87898 7.71693 5.80115 7.67711 5.72692 7.63125C5.66635 7.58951 5.57096 7.51551 5.57955 7.47519C5.60766 7.39838 5.66434 7.33522 5.73789 7.29873C6.55296 6.87181 7.37137 6.45059 8.18882 6.02794C8.37959 5.92928 8.57036 5.83299 8.75875 5.731C9.14602 5.52086 9.51468 5.30645 10.0035 5.42267C10.304 5.4943 10.6183 5.37524 10.873 5.17601C11.1844 4.93029 11.183 4.58165 10.873 4.33261C10.4399 3.98254 9.55141 3.97305 9.13314 4.33878C9.01868 4.43887 8.90183 4.61912 8.91042 4.75431C8.92329 4.94405 8.8446 4.99718 8.71106 5.06596C7.56071 5.65637 6.41195 6.2501 5.26477 6.84715C5.10834 6.92637 4.97146 7.04211 4.77067 7.17967Z" fill="white"/>
<path d="M5.83207 8.28068C5.93174 8.3248 6.00996 8.35705 6.08627 8.39358C7.13122 8.89307 8.17904 9.3864 9.21875 9.89633C9.751 10.1577 10.2594 10.153 10.7926 9.89633C12.5196 9.05815 14.2527 8.23277 15.9835 7.40313C16.0527 7.36992 16.1266 7.34241 16.2296 7.29688V8.26882C16.2296 8.71946 16.2201 9.17009 16.233 9.62073C16.243 9.97175 16.1185 10.2687 15.922 10.5462C15.5879 11.0108 15.1653 11.4057 14.6782 11.7084C12.0651 13.3653 9.32892 13.5963 6.47497 12.3786C6.40295 12.3478 6.31615 12.2591 6.30661 12.1889C6.14112 10.9513 5.98659 9.71275 5.82968 8.47422C5.82699 8.40971 5.82779 8.34511 5.83207 8.28068V8.28068Z" fill="white"/>
<path d="M5.1558 8.08594C5.25118 8.78086 5.34657 9.47531 5.43623 10.1702C5.57708 11.2353 5.71634 12.3001 5.85402 13.3645C5.89074 13.6491 5.74528 13.855 5.52303 13.9997C5.41043 14.0769 5.27686 14.1183 5.14006 14.1183C5.00326 14.1183 4.86969 14.0769 4.75709 13.9997C4.53961 13.8631 4.38413 13.6605 4.41894 13.3911C4.64358 11.6521 4.87727 9.91456 5.10858 8.17654C5.1124 8.14618 5.1205 8.11582 5.1267 8.08594H5.1558Z" fill="white"/>
<path d="M4.12377 10.6855C3.86575 10.398 3.6912 10.0902 3.68547 9.72159C3.67403 8.93227 3.68261 8.14248 3.68547 7.35268C3.69078 7.32037 3.69908 7.28861 3.71027 7.25781C3.96686 7.37972 4.21677 7.49214 4.45953 7.61879C4.48168 7.63825 4.49899 7.66257 4.51008 7.68981C4.52117 7.71706 4.52574 7.7465 4.52344 7.7758C4.40898 8.72451 4.28831 9.67036 4.16813 10.6172C4.16431 10.6319 4.15048 10.6447 4.12377 10.6855Z" fill="white"/>
</g>
<defs>
<clipPath id="clip0_247_32">
<rect width="20" height="14.1176" fill="white"/>
</clipPath>
</defs>
</svg>
