<svg width="32" height="32" viewBox="0 0 32 32" fill="none" xmlns="http://www.w3.org/2000/svg">
<g clip-path="url(#clip0_0_3060)">
<path d="M24.7188 8.27501L24.3879 8.39501L6.42793 14.8659C6.30066 14.9053 6.19004 14.9857 6.11342 15.0947C6.03679 15.2037 5.99849 15.335 6.00452 15.4681C6.01055 15.6012 6.06057 15.7285 6.14674 15.8301C6.2329 15.9317 6.35035 16.0019 6.48066 16.0296L11.1298 17.3023L11.997 19.8477L12.8643 22.3932C12.9141 22.518 12.9936 22.6287 13.096 22.7158C13.1983 22.8028 13.3203 22.8636 13.4515 22.8928C13.5826 22.922 13.7189 22.9188 13.8485 22.8834C13.9781 22.8479 14.0971 22.7814 14.1952 22.6896L16.597 20.4205L21.3134 23.6186C21.8898 24.0114 22.7116 23.7205 22.8588 23.0732L25.9825 9.27137C26.1352 8.58774 25.4152 8.02592 24.7188 8.27501ZM22.4261 11.3386L14.3116 17.9714L13.9298 18.2841C13.8459 18.3506 13.7911 18.4471 13.777 18.5532L13.6916 19.2586L13.457 21.2405C13.459 21.2646 13.4512 21.2885 13.4355 21.3069C13.4199 21.3253 13.3975 21.3367 13.3734 21.3386C13.3493 21.3406 13.3254 21.3328 13.307 21.3172C13.2886 21.3015 13.2771 21.2791 13.2752 21.255L12.6152 19.275L11.9334 17.2477C11.9046 17.1566 11.9084 17.0583 11.9442 16.9697C11.9801 16.8811 12.0457 16.8077 12.1298 16.7623L20.5734 11.9223L22.1625 11.0132C22.3934 10.8786 22.6298 11.1714 22.4261 11.3386Z" fill="white"/>
</g>
<defs>
<clipPath id="clip0_0_3060">
<rect width="32" height="32" fill="white"/>
</clipPath>
</defs>
</svg>
