<svg width="16" height="16" viewBox="0 0 16 16" fill="none" xmlns="http://www.w3.org/2000/svg">
<path d="M15.6541 15.9994H0.351577C0.0912158 15.8848 0.00359415 15.6864 0.00390708 15.4048C0.0095399 10.4604 0.0095399 5.51609 0.00390708 0.571731C0.00390708 0.216551 0.222961 -0.000624519 0.575638 1.34909e-06C5.51875 0.00792901 10.4618 0.00792901 15.4047 1.34909e-06C15.6879 1.34909e-06 15.8859 0.086997 15.9992 0.347671V15.6558C15.9339 15.8113 15.8099 15.9348 15.6541 15.9994ZM7.52685 8.48145H0.955227V15.0531H7.52685V8.48145ZM7.52278 7.52669V0.955075H0.951159V7.52669H7.52278ZM8.47723 7.52231H15.0488V0.950694H8.47723V7.52231ZM8.46941 15.0521H15.0607C15.0607 14.3455 15.0626 13.6489 15.057 12.9523C15.057 12.9013 15.0094 12.8416 14.9687 12.8009C14.4752 12.3086 13.9764 11.8214 13.4845 11.3273C13.2248 11.0666 12.976 10.7953 12.7334 10.5409L11.4986 11.7738C11.6807 11.9538 11.8726 12.1431 12.0635 12.333C12.1993 12.4685 12.255 12.6303 12.2002 12.8171C12.0963 13.1733 11.6757 13.2759 11.4025 13.0071C10.9316 12.5436 10.4672 12.0733 9.99965 11.6064C9.96054 11.567 9.9186 11.5304 9.87198 11.4869C9.41447 11.9444 8.96447 12.3922 8.51916 12.8425C8.49144 12.8716 8.47483 12.9094 8.47222 12.9495C8.4694 13.6464 8.46941 14.3433 8.46941 15.0521ZM15.0545 8.48051H8.47848V11.5344C8.53074 11.4859 8.56798 11.4534 8.60365 11.4183C8.89573 11.1279 9.18644 10.8373 9.4758 10.5465C9.75494 10.2677 10.0006 10.2686 10.2825 10.5506C10.4578 10.7258 10.6312 10.9026 10.812 11.0854C11.3127 10.5847 11.7984 10.0978 12.2828 9.61239C12.5645 9.33075 12.8079 9.33075 13.0899 9.60958C13.7039 10.2169 14.318 10.8241 14.9324 11.4312C14.9665 11.465 15.0047 11.4938 15.0557 11.5394L15.0545 8.48051Z" fill="white"/>
<path d="M3.78602 11.3511C3.78602 10.8569 3.78602 10.3841 3.78602 9.91156C3.78602 9.51413 4.12618 9.29226 4.48105 9.46563C5.09596 9.76605 5.70712 10.0743 6.31859 10.3813C6.51418 10.4795 6.61056 10.6404 6.59491 10.8623C6.58177 11.045 6.4591 11.2196 6.26978 11.2544C6.13938 11.2775 6.00509 11.263 5.88268 11.2124C5.54627 11.0638 5.22176 10.8879 4.89224 10.7236C4.8428 10.6992 4.79117 10.6792 4.72232 10.6488V10.8344C4.72232 11.4587 4.7242 12.083 4.72232 12.707C4.71888 13.4831 4.08644 14.0977 3.29847 14.0942C2.93067 14.0902 2.5792 13.9418 2.3199 13.6809C2.06061 13.42 1.91428 13.0676 1.91249 12.6998C1.9103 11.7663 2.75741 11.1038 3.67681 11.3248L3.78602 11.3511ZM3.31662 13.1558C3.56384 13.1558 3.78602 12.9329 3.78602 12.6864C3.78446 12.4441 3.57166 12.2279 3.3282 12.2207C3.08474 12.2135 2.85505 12.4344 2.85098 12.6826C2.84691 12.9308 3.06784 13.1542 3.31537 13.1558H3.31662Z" fill="white"/>
<path d="M2.8491 4.2534C2.8491 3.63974 2.85129 3.02607 2.84754 2.41241C2.84754 2.21808 2.91607 2.06818 3.08506 1.97117C3.2603 1.87103 3.43398 1.88918 3.59889 1.99902C4.52393 2.6155 5.44855 3.23261 6.37275 3.85034C6.6838 4.05969 6.68568 4.44492 6.37275 4.65521C5.45084 5.27565 4.52654 5.89276 3.59983 6.50652C3.43523 6.61636 3.26124 6.63545 3.08599 6.53531C2.91701 6.43924 2.8466 6.28903 2.84754 6.0947C2.85129 5.48104 2.8491 4.86894 2.8491 4.2534ZM5.27685 4.2534L3.80042 3.2686V5.2382L5.27685 4.2534Z" fill="white"/>
<path d="M14.0922 4.24714C14.0922 4.8608 14.0922 5.47478 14.0922 6.08876C14.0922 6.49557 13.7517 6.71306 13.3862 6.53406C12.8364 6.26494 12.2909 5.98674 11.7411 5.71762C11.6676 5.68187 11.5872 5.66264 11.5055 5.66129C10.9751 5.6566 10.4443 5.65941 9.9139 5.65847C9.59784 5.65847 9.40883 5.47071 9.40851 5.15778C9.40851 4.55423 9.40851 3.95069 9.40851 3.34714C9.40851 3.04109 9.59815 2.84989 9.9017 2.84927C10.4337 2.84927 10.9629 2.85177 11.4933 2.84582C11.5852 2.84428 11.6757 2.82294 11.7586 2.78324C12.2906 2.5235 12.8226 2.26846 13.3446 1.98776C13.7433 1.77277 14.1175 2.06161 14.0997 2.45434C14.0725 3.04954 14.0922 3.6485 14.0922 4.24714ZM13.1496 3.1453C12.8439 3.29833 12.5604 3.43695 12.2812 3.58341C12.2481 3.60093 12.2218 3.66321 12.2212 3.70514C12.2165 4.06939 12.2171 4.43396 12.2212 4.79853C12.2212 4.83796 12.2387 4.89836 12.2672 4.91338C12.5544 5.0639 12.8455 5.20722 13.1503 5.35993L13.1496 3.1453ZM10.347 4.71247H11.2705V3.79652H10.347V4.71247Z" fill="white"/>
</svg>
