<svg width="67" height="21" viewBox="0 0 67 21" fill="none" xmlns="http://www.w3.org/2000/svg">
<path d="M66.9756 0H0V21H66.9756V0Z" fill="#FFDD2D"/>
<path d="M14.1371 13.5118V9.11522H16.739V7.51532H9.64062V9.11522H12.2425V13.5118H14.1371ZM19.3919 7.51532H17.4972V13.5118H19.3919V7.51532ZM20.7782 7.51532V13.5118H22.5212V10.1986L25.7673 13.5118H27.384V7.51532H25.641V10.8033L22.4707 7.51532H20.7782ZM31.1077 11.2443L33.2927 13.5118H35.7305L32.6865 10.3876L35.6168 7.51532H33.318L31.1077 9.77028H30.6024V7.51532H28.771V13.5118H30.6024V11.2443H31.1077ZM39.4989 7.35156C37.036 7.35156 35.5582 8.7373 35.5582 10.5262C35.5582 12.315 37.036 13.7008 39.4989 13.7008C41.9492 13.7008 43.427 12.315 43.427 10.5262C43.427 8.7373 41.9492 7.35156 39.4989 7.35156ZM39.4989 12.2394C38.2738 12.2394 37.4907 11.5088 37.4907 10.5262C37.4907 9.54355 38.2738 8.8255 39.4989 8.8255C40.7115 8.8255 41.5072 9.54355 41.5072 10.5262C41.5072 11.5088 40.7115 12.2394 39.4989 12.2394ZM50.3726 7.51532H44.2973V13.5118H46.1287V11.4206H50.1073V10.0978H46.1287V9.0397H50.3726V7.51532ZM57.2676 7.51532H51.1923V13.5118H53.0238V11.4206H57.0024V10.0978H53.0238V9.0397H57.2676V7.51532Z" fill="black"/>
</svg>
