<svg width="65" height="22" viewBox="0 0 65 22" fill="none" xmlns="http://www.w3.org/2000/svg">
<path d="M27.9366 21.0762H22.7578L25.997 0.898438H31.1755L27.9366 21.0762Z" fill="#0E4390"/>
<path d="M46.7108 1.39032C45.6893 0.98204 44.0691 0.53125 42.0658 0.53125C36.9516 0.53125 33.3502 3.27878 33.3281 7.20693C33.2856 10.1051 35.9066 11.7148 37.8669 12.6812C39.8705 13.6686 40.5516 14.3131 40.5516 15.1933C40.5312 16.5451 38.9325 17.1682 37.4415 17.1682C35.3739 17.1682 34.266 16.847 32.5824 16.0949L31.9005 15.7725L31.1758 20.3021C32.3904 20.8596 34.6282 21.3543 36.9516 21.376C42.3855 21.376 45.9232 18.671 45.9651 14.4849C45.9858 12.1879 44.6018 10.4278 41.6181 8.98954C39.8067 8.06628 38.6975 7.44373 38.6975 6.49907C38.7187 5.64029 39.6357 4.76068 41.6804 4.76068C43.364 4.7176 44.601 5.12531 45.5381 5.5333L46.0065 5.74757L46.7108 1.39032Z" fill="#0E4390"/>
<path d="M53.5945 13.9281C54.021 12.7689 55.6621 8.28246 55.6621 8.28246C55.6406 8.32554 56.0878 7.10186 56.3435 6.35065L56.7054 8.0893C56.7054 8.0893 57.6861 12.9193 57.8991 13.9281C57.0897 13.9281 54.6174 13.9281 53.5945 13.9281ZM59.9871 0.898438H55.9813C54.746 0.898438 53.8075 1.26306 53.2745 2.57262L45.582 21.0762H51.016C51.016 21.0762 51.9106 18.5857 52.1029 18.0494C52.699 18.0494 57.9852 18.0494 58.7521 18.0494C58.9007 18.7578 59.37 21.0762 59.37 21.0762H64.1651L59.9871 0.898438Z" fill="#0E4390"/>
<path d="M18.4345 0.898438L13.3627 14.6577L12.8085 11.8671C11.8708 8.64722 8.93011 5.14886 5.64844 3.40937L10.294 21.0547H15.7704L23.9106 0.898438H18.4345Z" fill="#0E4390"/>
<path d="M8.65182 0.898438H0.319617L0.234375 1.3061C6.73401 2.98041 11.0386 7.01628 12.8072 11.8672L10.9958 2.59443C10.6976 1.30582 9.78121 0.940944 8.65182 0.898438Z" fill="#EAA811"/>
</svg>
