<svg width="33" height="32" viewBox="0 0 33 32" fill="none" xmlns="http://www.w3.org/2000/svg">
<g clip-path="url(#clip0_0_3065)">
<path d="M26.0129 21.7143C25.5329 21.7798 23.1854 21.7143 23.0635 21.7143C22.4567 21.7218 21.8712 21.4971 21.4341 21.0889C20.9391 20.627 20.4966 20.118 20.0129 19.6343C19.8698 19.4875 19.7149 19.3519 19.5498 19.2289C19.1635 18.9398 18.781 19.0052 18.5991 19.447C18.457 19.9245 18.3579 20.413 18.3029 20.907C18.271 21.3543 17.9785 21.6343 17.461 21.6652C17.1404 21.6816 16.8198 21.687 16.5029 21.6798C15.3481 21.6726 14.2114 21.4003 13.186 20.8852C12.0765 20.2857 11.1099 19.4661 10.3491 18.4798C9.09851 16.9307 8.09913 15.2289 7.20663 13.4743C7.15976 13.3871 6.24476 11.4998 6.22226 11.4107C6.13976 11.1125 6.22226 10.8271 6.47538 10.7289C6.63663 10.6689 9.65163 10.7289 9.70226 10.7289C9.9264 10.727 10.1453 10.7943 10.3274 10.9212C10.5094 11.048 10.6451 11.2277 10.7148 11.4343C11.2721 12.8182 12.0352 14.1155 12.9798 15.2852C13.112 15.4416 13.2667 15.5788 13.4391 15.6925C13.6848 15.8543 13.9173 15.798 14.0185 15.5234C14.1385 15.1425 14.209 14.7485 14.2285 14.3507C14.2454 13.5616 14.2285 13.0416 14.1835 12.2543C14.1535 11.7489 13.9698 11.3052 13.201 11.1634C12.9648 11.1234 12.9441 10.9343 13.096 10.7452C13.4129 10.3525 13.846 10.2907 14.3316 10.2671C15.0554 10.2271 15.7791 10.2543 16.5029 10.2671H16.6604C16.9754 10.2659 17.2896 10.297 17.5979 10.3598C17.7801 10.3955 17.9456 10.4874 18.0696 10.6217C18.1936 10.7561 18.2695 10.9257 18.286 11.1052C18.323 11.3043 18.3387 11.5066 18.3329 11.7089C18.3141 12.5707 18.271 13.4307 18.2616 14.2925C18.253 14.6337 18.2851 14.9748 18.3573 15.3089C18.4604 15.767 18.7848 15.8816 19.1073 15.5507C19.5248 15.1229 19.9079 14.6646 20.2529 14.1798C20.863 13.2962 21.3663 12.3476 21.7529 11.3525C21.9629 10.8416 22.1279 10.7289 22.6904 10.7289H25.8891C26.0793 10.7256 26.269 10.7501 26.4516 10.8016C26.5163 10.8181 26.5767 10.8473 26.6292 10.8875C26.6817 10.9277 26.725 10.9779 26.7565 11.0351C26.788 11.0923 26.807 11.1552 26.8123 11.2198C26.8176 11.2844 26.8091 11.3494 26.7873 11.4107C26.6298 12.0907 26.251 12.6707 25.8498 13.2289C25.1991 14.1234 24.5129 14.9943 23.8473 15.8743C23.7631 15.991 23.6861 16.1125 23.6166 16.238C23.3654 16.6761 23.3841 16.9216 23.7479 17.287C24.3291 17.8652 24.9498 18.4089 25.5104 19.0052C25.922 19.4388 26.2934 19.9066 26.6204 20.4034C27.031 21.0198 26.7779 21.6089 26.0129 21.7143Z" fill="white"/>
</g>
<defs>
<clipPath id="clip0_0_3065">
<rect width="33" height="32" fill="white"/>
</clipPath>
</defs>
</svg>
