<svg width="32" height="32" viewBox="0 0 32 32" fill="none" xmlns="http://www.w3.org/2000/svg">
<g clip-path="url(#clip0_0_3070)">
<path d="M25.5332 11.1917C25.1332 9.96077 23.8095 9.21532 22.5914 9.04441C18.2097 8.57895 13.7911 8.57895 9.40954 9.04441C8.19136 9.21532 6.86408 9.9535 6.46772 11.1917C5.84409 14.3693 5.84409 17.6377 6.46772 20.8153C6.86772 22.0444 8.19136 22.7917 9.40954 22.9626C13.7911 23.4281 18.2097 23.4281 22.5914 22.9626C23.8095 22.7917 25.1368 22.0535 25.5332 20.8153C26.1568 17.6377 26.1568 14.3693 25.5332 11.1917ZM13.6077 19.8353V12.1699L19.8477 16.0026C17.7441 17.2953 15.7023 18.548 13.6077 19.8353Z" fill="white"/>
</g>
<defs>
<clipPath id="clip0_0_3070">
<rect width="32" height="32" fill="white"/>
</clipPath>
</defs>
</svg>
