<svg width="191" height="47" viewBox="0 0 191 47" fill="none" xmlns="http://www.w3.org/2000/svg">
<rect width="190.231" height="40.8644" rx="3" fill="#191919"/>
<path d="M129.794 22.1067V17.2541H137.467V21.9542C137.467 23.8729 137.911 25.3215 138.799 26.2999C139.688 27.2783 140.919 27.7675 142.493 27.7675C144.067 27.7675 145.298 27.2973 146.187 26.357C147.075 25.4168 147.52 24.0127 147.52 22.1448V6.76357H151.366L155.212 12.4541V21.9161C155.212 24.0889 154.913 25.9886 154.317 27.615C153.72 29.2414 152.857 30.5629 151.727 31.5794C150.598 32.5959 149.252 33.3583 147.691 33.8666C146.142 34.3622 144.384 34.6099 142.417 34.6099C138.419 34.6099 135.315 33.5744 133.107 31.5032C130.898 29.4193 129.794 26.2872 129.794 22.1067Z" fill="white"/>
<path d="M102.793 6.76357H115.701C119.674 6.76357 122.638 7.74197 124.593 9.69878C126.205 11.3125 127.011 13.4726 127.011 16.1791C127.011 18.1994 126.516 19.9148 125.526 21.3253C124.536 22.7357 123.159 23.8157 121.394 24.5654L127.906 34.0953H119.167L113.664 25.8234H110.351V34.0953H102.793V19.8958H115.34C116.622 19.8958 117.618 19.6035 118.329 19.019C119.04 18.4218 119.395 17.6022 119.395 16.5603C119.395 15.5057 119.033 14.7051 118.31 14.1588C117.599 13.5997 116.596 13.3201 115.302 13.3201L104.569 13.2058L102.793 10.5999V6.76357Z" fill="white"/>
<path d="M47.7407 6.76357H61.7348C65.0604 6.76357 67.5419 7.58314 69.1793 9.22228C70.3598 10.404 70.95 11.9034 70.95 13.7204C70.95 16.554 69.541 18.5806 66.7232 19.8005C68.4875 20.385 69.833 21.2109 70.7596 22.2782C71.6862 23.3329 72.1495 24.7624 72.1495 26.5667C72.1495 28.9174 71.2356 30.7599 69.4078 32.094C67.5927 33.4282 65.0604 34.0953 61.811 34.0953H47.7407V28.0152H60.9542C62.1093 28.0152 63.0041 27.7929 63.6388 27.3482C64.2734 26.9034 64.5908 26.2617 64.5908 25.4231C64.5908 24.6607 64.2798 24.0635 63.6578 23.6315C63.0359 23.1868 62.1093 22.9644 60.878 22.9644H47.7407V17.6658H59.8689C62.2552 17.6658 63.4484 16.8462 63.4484 15.2071C63.4484 14.4574 63.1564 13.8792 62.5726 13.4726C61.9887 13.066 61.1382 12.8627 60.0213 12.8627H49.3446L47.7407 10.5023V6.76357Z" fill="white"/>
<path d="M75.9071 6.76357H97.8598V13.2058H75.9071V6.76357Z" fill="white"/>
<path d="M75.9071 17.3418H97.891V23.3265H75.9071V17.3418Z" fill="white"/>
<path d="M75.9071 27.6531H97.891V34.0953H77.8096L75.9071 31.2882V27.6531Z" fill="white"/>
<path fill-rule="evenodd" clip-rule="evenodd" d="M35.1365 6.76357V28.5951L38.8536 34.0953H42.7523V6.76357H35.1365Z" fill="white"/>
<path d="M182.345 22.3087C183.271 23.3634 183.735 24.7929 183.735 26.5972C183.735 28.5988 183.072 30.2318 181.747 31.4964C181.516 31.717 181.265 31.9264 180.993 32.1245C179.29 33.3764 176.956 34.0409 173.99 34.1182C173.795 34.1233 173.597 34.1258 173.396 34.1258H161.157L159.326 31.4558V28.0457H172.539C172.648 28.0457 172.755 28.0438 172.859 28.0398C173.861 28.0018 174.649 27.7815 175.224 27.3786C175.859 26.9339 176.176 25.921 176.176 25.4536C176.176 24.9863 175.78 24.0363 174.074 23.5972C172.368 23.158 165.105 21.7047 162.775 20.281C160.445 18.8572 160.551 18.5693 159.855 17.6963C159.001 16.6253 158.574 15.3095 158.574 13.7489C158.574 12.5482 158.831 11.4862 159.346 10.5629C159.611 10.0895 159.942 9.65255 160.342 9.25209C161.977 7.61341 164.454 6.79406 167.775 6.79406H181.747V12.8915H169.486C169.427 12.8915 169.369 12.8921 169.311 12.8932C168.281 12.9135 167.491 13.1162 166.938 13.5012C166.355 13.9077 166.064 14.4857 166.064 15.2352C166.064 16.8739 168.251 16.8851 169.887 17.2937C171.523 17.7024 176.511 18.358 178.558 19.4315C180.605 20.5049 180.871 20.9247 181.747 21.7047C181.963 21.8967 182.162 22.098 182.345 22.3087Z" fill="white"/>
<path d="M129.794 13.2043V6.61719H137.467V13.2043H129.794Z" fill="white"/>
<path d="M14.0597 17.8564L23.4653 6.76357H32.4329L22.0944 18.5235L41.5947 46.9996H32.5289L16.8395 23.9555L14.0597 27.0241V34.0953H6.50098V26.8084L14.0597 17.8564Z" fill="white"/>
<path d="M6.50098 6.61719H14.0597V7.89847L6.50098 16.8723V6.61719Z" fill="#00A583"/>
</svg>
