<svg width="14" height="14" viewBox="0 0 14 14" fill="none" xmlns="http://www.w3.org/2000/svg">
<path d="M13.6685 12.0426L10.4498 8.7796C10.9967 7.89703 11.3141 6.85388 11.3141 5.73439C11.3141 2.56719 8.7812 0 5.65691 0C2.53262 0 0 2.56719 0 5.73439C0 8.9017 2.5325 11.4687 5.65691 11.4687C6.85875 11.4687 7.97196 11.0878 8.88798 10.4406L12.0684 13.6647C12.2894 13.8885 12.5791 14 12.8684 14C13.1581 14 13.4475 13.8885 13.6688 13.6647C14.1105 13.2166 14.1105 12.4907 13.6685 12.0426ZM5.65691 9.6108C3.54517 9.6108 1.83311 7.8754 1.83311 5.73463C1.83311 3.59385 3.54517 1.85834 5.65691 1.85834C7.76876 1.85834 9.48071 3.59385 9.48071 5.73463C9.48071 7.8754 7.76876 9.6108 5.65691 9.6108Z" fill="white"/>
</svg>
