<svg width="145" height="305" viewBox="0 0 145 305" fill="none" xmlns="http://www.w3.org/2000/svg">
<g style="mix-blend-mode:multiply" opacity="0.08">
<circle cx="142.5" cy="2.5" r="2.5" transform="rotate(90 142.5 2.5)" fill="#001629"/>
<circle cx="142.5" cy="22.5" r="2.5" transform="rotate(90 142.5 22.5)" fill="#001629"/>
<circle cx="142.5" cy="42.5" r="2.5" transform="rotate(90 142.5 42.5)" fill="#001629"/>
<circle cx="142.5" cy="62.5" r="2.5" transform="rotate(90 142.5 62.5)" fill="#001629"/>
<circle cx="142.5" cy="82.5" r="2.5" transform="rotate(90 142.5 82.5)" fill="#001629"/>
<circle cx="142.5" cy="102.5" r="2.5" transform="rotate(90 142.5 102.5)" fill="#001629"/>
<circle cx="142.5" cy="122.5" r="2.5" transform="rotate(90 142.5 122.5)" fill="#001629"/>
<circle cx="142.5" cy="142.5" r="2.5" transform="rotate(90 142.5 142.5)" fill="#001629"/>
<circle cx="142.5" cy="162.5" r="2.5" transform="rotate(90 142.5 162.5)" fill="#001629"/>
<circle cx="142.5" cy="182.5" r="2.5" transform="rotate(90 142.5 182.5)" fill="#001629"/>
<circle cx="142.5" cy="202.5" r="2.5" transform="rotate(90 142.5 202.5)" fill="#001629"/>
<circle cx="142.5" cy="222.5" r="2.5" transform="rotate(90 142.5 222.5)" fill="#001629"/>
<circle cx="142.5" cy="242.5" r="2.5" transform="rotate(90 142.5 242.5)" fill="#001629"/>
<circle cx="142.5" cy="262.5" r="2.5" transform="rotate(90 142.5 262.5)" fill="#001629"/>
<circle cx="142.5" cy="282.5" r="2.5" transform="rotate(90 142.5 282.5)" fill="#001629"/>
<circle cx="142.5" cy="302.5" r="2.5" transform="rotate(90 142.5 302.5)" fill="#001629"/>
<circle cx="122.5" cy="2.5" r="2.5" transform="rotate(90 122.5 2.5)" fill="#001629"/>
<circle cx="122.5" cy="22.5" r="2.5" transform="rotate(90 122.5 22.5)" fill="#001629"/>
<circle cx="122.5" cy="42.5" r="2.5" transform="rotate(90 122.5 42.5)" fill="#001629"/>
<circle cx="122.5" cy="62.5" r="2.5" transform="rotate(90 122.5 62.5)" fill="#001629"/>
<circle cx="122.5" cy="82.5" r="2.5" transform="rotate(90 122.5 82.5)" fill="#001629"/>
<circle cx="122.5" cy="102.5" r="2.5" transform="rotate(90 122.5 102.5)" fill="#001629"/>
<circle cx="122.5" cy="122.5" r="2.5" transform="rotate(90 122.5 122.5)" fill="#001629"/>
<circle cx="122.5" cy="142.5" r="2.5" transform="rotate(90 122.5 142.5)" fill="#001629"/>
<circle cx="122.5" cy="162.5" r="2.5" transform="rotate(90 122.5 162.5)" fill="#001629"/>
<circle cx="122.5" cy="182.5" r="2.5" transform="rotate(90 122.5 182.5)" fill="#001629"/>
<circle cx="122.5" cy="202.5" r="2.5" transform="rotate(90 122.5 202.5)" fill="#001629"/>
<circle cx="122.5" cy="222.5" r="2.5" transform="rotate(90 122.5 222.5)" fill="#001629"/>
<circle cx="122.5" cy="242.5" r="2.5" transform="rotate(90 122.5 242.5)" fill="#001629"/>
<circle cx="122.5" cy="262.5" r="2.5" transform="rotate(90 122.5 262.5)" fill="#001629"/>
<circle cx="122.5" cy="282.5" r="2.5" transform="rotate(90 122.5 282.5)" fill="#001629"/>
<circle cx="122.5" cy="302.5" r="2.5" transform="rotate(90 122.5 302.5)" fill="#001629"/>
<circle cx="102.5" cy="2.5" r="2.5" transform="rotate(90 102.5 2.5)" fill="#001629"/>
<circle cx="102.5" cy="22.5" r="2.5" transform="rotate(90 102.5 22.5)" fill="#001629"/>
<circle cx="102.5" cy="42.5" r="2.5" transform="rotate(90 102.5 42.5)" fill="#001629"/>
<circle cx="102.5" cy="62.5" r="2.5" transform="rotate(90 102.5 62.5)" fill="#001629"/>
<circle cx="102.5" cy="82.5" r="2.5" transform="rotate(90 102.5 82.5)" fill="#001629"/>
<circle cx="102.5" cy="102.5" r="2.5" transform="rotate(90 102.5 102.5)" fill="#001629"/>
<circle cx="102.5" cy="122.5" r="2.5" transform="rotate(90 102.5 122.5)" fill="#001629"/>
<circle cx="102.5" cy="142.5" r="2.5" transform="rotate(90 102.5 142.5)" fill="#001629"/>
<circle cx="102.5" cy="162.5" r="2.5" transform="rotate(90 102.5 162.5)" fill="#001629"/>
<circle cx="102.5" cy="182.5" r="2.5" transform="rotate(90 102.5 182.5)" fill="#001629"/>
<circle cx="102.5" cy="202.5" r="2.5" transform="rotate(90 102.5 202.5)" fill="#001629"/>
<circle cx="102.5" cy="222.5" r="2.5" transform="rotate(90 102.5 222.5)" fill="#001629"/>
<circle cx="102.5" cy="242.5" r="2.5" transform="rotate(90 102.5 242.5)" fill="#001629"/>
<circle cx="102.5" cy="262.5" r="2.5" transform="rotate(90 102.5 262.5)" fill="#001629"/>
<circle cx="102.5" cy="282.5" r="2.5" transform="rotate(90 102.5 282.5)" fill="#001629"/>
<circle cx="102.5" cy="302.5" r="2.5" transform="rotate(90 102.5 302.5)" fill="#001629"/>
<circle cx="82.5" cy="2.5" r="2.5" transform="rotate(90 82.5 2.5)" fill="#001629"/>
<circle cx="82.5" cy="22.5" r="2.5" transform="rotate(90 82.5 22.5)" fill="#001629"/>
<circle cx="82.5" cy="42.5" r="2.5" transform="rotate(90 82.5 42.5)" fill="#001629"/>
<circle cx="82.5" cy="62.5" r="2.5" transform="rotate(90 82.5 62.5)" fill="#001629"/>
<circle cx="82.5" cy="82.5" r="2.5" transform="rotate(90 82.5 82.5)" fill="#001629"/>
<circle cx="82.5" cy="102.5" r="2.5" transform="rotate(90 82.5 102.5)" fill="#001629"/>
<circle cx="82.5" cy="122.5" r="2.5" transform="rotate(90 82.5 122.5)" fill="#001629"/>
<circle cx="82.5" cy="142.5" r="2.5" transform="rotate(90 82.5 142.5)" fill="#001629"/>
<circle cx="82.5" cy="162.5" r="2.5" transform="rotate(90 82.5 162.5)" fill="#001629"/>
<circle cx="82.5" cy="182.5" r="2.5" transform="rotate(90 82.5 182.5)" fill="#001629"/>
<circle cx="82.5" cy="202.5" r="2.5" transform="rotate(90 82.5 202.5)" fill="#001629"/>
<circle cx="82.5" cy="222.5" r="2.5" transform="rotate(90 82.5 222.5)" fill="#001629"/>
<circle cx="82.5" cy="242.5" r="2.5" transform="rotate(90 82.5 242.5)" fill="#001629"/>
<circle cx="82.5" cy="262.5" r="2.5" transform="rotate(90 82.5 262.5)" fill="#001629"/>
<circle cx="82.5" cy="282.5" r="2.5" transform="rotate(90 82.5 282.5)" fill="#001629"/>
<circle cx="82.5" cy="302.5" r="2.5" transform="rotate(90 82.5 302.5)" fill="#001629"/>
<circle cx="62.5" cy="2.5" r="2.5" transform="rotate(90 62.5 2.5)" fill="#001629"/>
<circle cx="62.5" cy="22.5" r="2.5" transform="rotate(90 62.5 22.5)" fill="#001629"/>
<circle cx="62.5" cy="42.5" r="2.5" transform="rotate(90 62.5 42.5)" fill="#001629"/>
<circle cx="62.5" cy="62.5" r="2.5" transform="rotate(90 62.5 62.5)" fill="#001629"/>
<circle cx="62.5" cy="82.5" r="2.5" transform="rotate(90 62.5 82.5)" fill="#001629"/>
<circle cx="62.5" cy="102.5" r="2.5" transform="rotate(90 62.5 102.5)" fill="#001629"/>
<circle cx="62.5" cy="122.5" r="2.5" transform="rotate(90 62.5 122.5)" fill="#001629"/>
<circle cx="62.5" cy="142.5" r="2.5" transform="rotate(90 62.5 142.5)" fill="#001629"/>
<circle cx="62.5" cy="162.5" r="2.5" transform="rotate(90 62.5 162.5)" fill="#001629"/>
<circle cx="62.5" cy="182.5" r="2.5" transform="rotate(90 62.5 182.5)" fill="#001629"/>
<circle cx="62.5" cy="202.5" r="2.5" transform="rotate(90 62.5 202.5)" fill="#001629"/>
<circle cx="62.5" cy="222.5" r="2.5" transform="rotate(90 62.5 222.5)" fill="#001629"/>
<circle cx="62.5" cy="242.5" r="2.5" transform="rotate(90 62.5 242.5)" fill="#001629"/>
<circle cx="62.5" cy="262.5" r="2.5" transform="rotate(90 62.5 262.5)" fill="#001629"/>
<circle cx="62.5" cy="282.5" r="2.5" transform="rotate(90 62.5 282.5)" fill="#001629"/>
<circle cx="62.5" cy="302.5" r="2.5" transform="rotate(90 62.5 302.5)" fill="#001629"/>
<circle cx="42.5" cy="2.5" r="2.5" transform="rotate(90 42.5 2.5)" fill="#001629"/>
<circle cx="42.5" cy="22.5" r="2.5" transform="rotate(90 42.5 22.5)" fill="#001629"/>
<circle cx="42.5" cy="42.5" r="2.5" transform="rotate(90 42.5 42.5)" fill="#001629"/>
<circle cx="42.5" cy="62.5" r="2.5" transform="rotate(90 42.5 62.5)" fill="#001629"/>
<circle cx="42.5" cy="82.5" r="2.5" transform="rotate(90 42.5 82.5)" fill="#001629"/>
<circle cx="42.5" cy="102.5" r="2.5" transform="rotate(90 42.5 102.5)" fill="#001629"/>
<circle cx="42.5" cy="122.5" r="2.5" transform="rotate(90 42.5 122.5)" fill="#001629"/>
<circle cx="42.5" cy="142.5" r="2.5" transform="rotate(90 42.5 142.5)" fill="#001629"/>
<circle cx="42.5" cy="162.5" r="2.5" transform="rotate(90 42.5 162.5)" fill="#001629"/>
<circle cx="42.5" cy="182.5" r="2.5" transform="rotate(90 42.5 182.5)" fill="#001629"/>
<circle cx="42.5" cy="202.5" r="2.5" transform="rotate(90 42.5 202.5)" fill="#001629"/>
<circle cx="42.5" cy="222.5" r="2.5" transform="rotate(90 42.5 222.5)" fill="#001629"/>
<circle cx="42.5" cy="242.5" r="2.5" transform="rotate(90 42.5 242.5)" fill="#001629"/>
<circle cx="42.5" cy="262.5" r="2.5" transform="rotate(90 42.5 262.5)" fill="#001629"/>
<circle cx="42.5" cy="282.5" r="2.5" transform="rotate(90 42.5 282.5)" fill="#001629"/>
<circle cx="42.5" cy="302.5" r="2.5" transform="rotate(90 42.5 302.5)" fill="#001629"/>
<circle cx="22.5" cy="2.5" r="2.5" transform="rotate(90 22.5 2.5)" fill="#001629"/>
<circle cx="22.5" cy="22.5" r="2.5" transform="rotate(90 22.5 22.5)" fill="#001629"/>
<circle cx="22.5" cy="42.5" r="2.5" transform="rotate(90 22.5 42.5)" fill="#001629"/>
<circle cx="22.5" cy="62.5" r="2.5" transform="rotate(90 22.5 62.5)" fill="#001629"/>
<circle cx="22.5" cy="82.5" r="2.5" transform="rotate(90 22.5 82.5)" fill="#001629"/>
<circle cx="22.5" cy="102.5" r="2.5" transform="rotate(90 22.5 102.5)" fill="#001629"/>
<circle cx="22.5" cy="122.5" r="2.5" transform="rotate(90 22.5 122.5)" fill="#001629"/>
<circle cx="22.5" cy="142.5" r="2.5" transform="rotate(90 22.5 142.5)" fill="#001629"/>
<circle cx="22.5" cy="162.5" r="2.5" transform="rotate(90 22.5 162.5)" fill="#001629"/>
<circle cx="22.5" cy="182.5" r="2.5" transform="rotate(90 22.5 182.5)" fill="#001629"/>
<circle cx="22.5" cy="202.5" r="2.5" transform="rotate(90 22.5 202.5)" fill="#001629"/>
<circle cx="22.5" cy="222.5" r="2.5" transform="rotate(90 22.5 222.5)" fill="#001629"/>
<circle cx="22.5" cy="242.5" r="2.5" transform="rotate(90 22.5 242.5)" fill="#001629"/>
<circle cx="22.5" cy="262.5" r="2.5" transform="rotate(90 22.5 262.5)" fill="#001629"/>
<circle cx="22.5" cy="282.5" r="2.5" transform="rotate(90 22.5 282.5)" fill="#001629"/>
<circle cx="22.5" cy="302.5" r="2.5" transform="rotate(90 22.5 302.5)" fill="#001629"/>
<circle cx="2.5" cy="2.5" r="2.5" transform="rotate(90 2.5 2.5)" fill="#001629"/>
<circle cx="2.5" cy="22.5" r="2.5" transform="rotate(90 2.5 22.5)" fill="#001629"/>
<circle cx="2.5" cy="42.5" r="2.5" transform="rotate(90 2.5 42.5)" fill="#001629"/>
<circle cx="2.5" cy="62.5" r="2.5" transform="rotate(90 2.5 62.5)" fill="#001629"/>
<circle cx="2.5" cy="82.5" r="2.5" transform="rotate(90 2.5 82.5)" fill="#001629"/>
<circle cx="2.5" cy="102.5" r="2.5" transform="rotate(90 2.5 102.5)" fill="#001629"/>
<circle cx="2.5" cy="122.5" r="2.5" transform="rotate(90 2.5 122.5)" fill="#001629"/>
<circle cx="2.5" cy="142.5" r="2.5" transform="rotate(90 2.5 142.5)" fill="#001629"/>
<circle cx="2.5" cy="162.5" r="2.5" transform="rotate(90 2.5 162.5)" fill="#001629"/>
<circle cx="2.5" cy="182.5" r="2.5" transform="rotate(90 2.5 182.5)" fill="#001629"/>
<circle cx="2.5" cy="202.5" r="2.5" transform="rotate(90 2.5 202.5)" fill="#001629"/>
<circle cx="2.5" cy="222.5" r="2.5" transform="rotate(90 2.5 222.5)" fill="#001629"/>
<circle cx="2.5" cy="242.5" r="2.5" transform="rotate(90 2.5 242.5)" fill="#001629"/>
<circle cx="2.5" cy="262.5" r="2.5" transform="rotate(90 2.5 262.5)" fill="#001629"/>
<circle cx="2.5" cy="282.5" r="2.5" transform="rotate(90 2.5 282.5)" fill="#001629"/>
<circle cx="2.5" cy="302.5" r="2.5" transform="rotate(90 2.5 302.5)" fill="#001629"/>
</g>
</svg>
